%TF.GenerationSoftware,KiCad,Pcbnew,7.0.9*%
%TF.CreationDate,2023-12-22T19:30:16+01:00*%
%TF.ProjectId,Prj_4_Feranec_Controller,50726a5f-345f-4466-9572-616e65635f43,rev?*%
%TF.SameCoordinates,Original*%
%TF.FileFunction,Copper,L1,Top*%
%TF.FilePolarity,Positive*%
%FSLAX46Y46*%
G04 Gerber Fmt 4.6, Leading zero omitted, Abs format (unit mm)*
G04 Created by KiCad (PCBNEW 7.0.9) date 2023-12-22 19:30:16*
%MOMM*%
%LPD*%
G01*
G04 APERTURE LIST*
G04 Aperture macros list*
%AMRoundRect*
0 Rectangle with rounded corners*
0 $1 Rounding radius*
0 $2 $3 $4 $5 $6 $7 $8 $9 X,Y pos of 4 corners*
0 Add a 4 corners polygon primitive as box body*
4,1,4,$2,$3,$4,$5,$6,$7,$8,$9,$2,$3,0*
0 Add four circle primitives for the rounded corners*
1,1,$1+$1,$2,$3*
1,1,$1+$1,$4,$5*
1,1,$1+$1,$6,$7*
1,1,$1+$1,$8,$9*
0 Add four rect primitives between the rounded corners*
20,1,$1+$1,$2,$3,$4,$5,0*
20,1,$1+$1,$4,$5,$6,$7,0*
20,1,$1+$1,$6,$7,$8,$9,0*
20,1,$1+$1,$8,$9,$2,$3,0*%
G04 Aperture macros list end*
%TA.AperFunction,SMDPad,CuDef*%
%ADD10R,1.350000X0.400000*%
%TD*%
%TA.AperFunction,ComponentPad*%
%ADD11O,1.550000X0.890000*%
%TD*%
%TA.AperFunction,SMDPad,CuDef*%
%ADD12R,1.550000X1.200000*%
%TD*%
%TA.AperFunction,ComponentPad*%
%ADD13O,0.950000X1.250000*%
%TD*%
%TA.AperFunction,SMDPad,CuDef*%
%ADD14R,1.550000X1.500000*%
%TD*%
%TA.AperFunction,SMDPad,CuDef*%
%ADD15RoundRect,0.150000X-0.150000X-0.200000X0.150000X-0.200000X0.150000X0.200000X-0.150000X0.200000X0*%
%TD*%
%TA.AperFunction,SMDPad,CuDef*%
%ADD16R,0.375000X0.350000*%
%TD*%
%TA.AperFunction,SMDPad,CuDef*%
%ADD17R,0.350000X0.375000*%
%TD*%
%TA.AperFunction,ComponentPad*%
%ADD18R,1.000000X1.000000*%
%TD*%
%TA.AperFunction,ComponentPad*%
%ADD19O,1.000000X1.000000*%
%TD*%
%TA.AperFunction,SMDPad,CuDef*%
%ADD20RoundRect,0.225000X-0.225000X-0.250000X0.225000X-0.250000X0.225000X0.250000X-0.225000X0.250000X0*%
%TD*%
%TA.AperFunction,SMDPad,CuDef*%
%ADD21RoundRect,0.150000X0.150000X0.200000X-0.150000X0.200000X-0.150000X-0.200000X0.150000X-0.200000X0*%
%TD*%
%TA.AperFunction,SMDPad,CuDef*%
%ADD22RoundRect,0.112500X0.000000X-0.159099X0.159099X0.000000X0.000000X0.159099X-0.159099X0.000000X0*%
%TD*%
%TA.AperFunction,SMDPad,CuDef*%
%ADD23RoundRect,0.150000X-0.587500X-0.150000X0.587500X-0.150000X0.587500X0.150000X-0.587500X0.150000X0*%
%TD*%
%TA.AperFunction,SMDPad,CuDef*%
%ADD24RoundRect,0.150000X-0.200000X0.150000X-0.200000X-0.150000X0.200000X-0.150000X0.200000X0.150000X0*%
%TD*%
%TA.AperFunction,SMDPad,CuDef*%
%ADD25RoundRect,0.243750X-0.456250X0.243750X-0.456250X-0.243750X0.456250X-0.243750X0.456250X0.243750X0*%
%TD*%
%TA.AperFunction,SMDPad,CuDef*%
%ADD26RoundRect,0.125000X-0.825000X-0.125000X0.825000X-0.125000X0.825000X0.125000X-0.825000X0.125000X0*%
%TD*%
%TA.AperFunction,SMDPad,CuDef*%
%ADD27RoundRect,0.140000X-0.140000X-0.170000X0.140000X-0.170000X0.140000X0.170000X-0.140000X0.170000X0*%
%TD*%
%TA.AperFunction,SMDPad,CuDef*%
%ADD28R,1.300000X1.550000*%
%TD*%
%TA.AperFunction,SMDPad,CuDef*%
%ADD29RoundRect,0.250000X-0.250000X-0.650000X0.250000X-0.650000X0.250000X0.650000X-0.250000X0.650000X0*%
%TD*%
%TA.AperFunction,ComponentPad*%
%ADD30R,1.700000X1.700000*%
%TD*%
%TA.AperFunction,ComponentPad*%
%ADD31O,1.700000X1.700000*%
%TD*%
%TA.AperFunction,SMDPad,CuDef*%
%ADD32R,1.560000X0.650000*%
%TD*%
%TA.AperFunction,SMDPad,CuDef*%
%ADD33RoundRect,0.250000X0.650000X-0.250000X0.650000X0.250000X-0.650000X0.250000X-0.650000X-0.250000X0*%
%TD*%
%TA.AperFunction,SMDPad,CuDef*%
%ADD34RoundRect,0.140000X-0.170000X0.140000X-0.170000X-0.140000X0.170000X-0.140000X0.170000X0.140000X0*%
%TD*%
%TA.AperFunction,SMDPad,CuDef*%
%ADD35RoundRect,0.150000X0.200000X-0.150000X0.200000X0.150000X-0.200000X0.150000X-0.200000X-0.150000X0*%
%TD*%
%TA.AperFunction,ViaPad*%
%ADD36C,0.800000*%
%TD*%
%TA.AperFunction,Conductor*%
%ADD37C,0.250000*%
%TD*%
%TA.AperFunction,Conductor*%
%ADD38C,0.500000*%
%TD*%
%TA.AperFunction,Conductor*%
%ADD39C,0.400000*%
%TD*%
%TA.AperFunction,Conductor*%
%ADD40C,0.350000*%
%TD*%
G04 APERTURE END LIST*
D10*
%TO.P,USB1,1,VCC*%
%TO.N,/+5V_USB*%
X138700000Y-61200000D03*
%TO.P,USB1,2,D-*%
%TO.N,Net-(USB1-D-)*%
X138700000Y-61850000D03*
%TO.P,USB1,3,D+*%
%TO.N,Net-(USB1-D+)*%
X138700000Y-62500000D03*
%TO.P,USB1,4,ID*%
%TO.N,Net-(USB1-ID)*%
X138700000Y-63150000D03*
%TO.P,USB1,5,GND*%
%TO.N,GND*%
X138700000Y-63800000D03*
D11*
%TO.P,USB1,6,GND*%
X136000000Y-59000000D03*
D12*
X136000000Y-59600000D03*
D13*
X138700000Y-60000000D03*
D14*
X136000000Y-61500000D03*
X136000000Y-63500000D03*
D13*
X138700000Y-65000000D03*
D12*
X136000000Y-65400000D03*
D11*
X136000000Y-66000000D03*
%TD*%
D15*
%TO.P,R5,1*%
%TO.N,/+VIN*%
X152527000Y-57912000D03*
%TO.P,R5,2*%
%TO.N,Net-(LED1-Pad1)*%
X153543000Y-57912000D03*
%TD*%
%TO.P,R6,1*%
%TO.N,/+5V_USB*%
X149733000Y-61976000D03*
%TO.P,R6,2*%
%TO.N,Net-(USB1-D-)*%
X150749000Y-61976000D03*
%TD*%
D16*
%TO.P,U2,1,ADDR*%
%TO.N,GND*%
X185165000Y-59431500D03*
%TO.P,U2,2,SDA*%
%TO.N,/I2C1_SDA*%
X185165000Y-59931500D03*
%TO.P,U2,3,IO_VDD*%
%TO.N,+3.3V*%
X185165000Y-60431500D03*
%TO.P,U2,4,RES*%
%TO.N,GND*%
X185165000Y-60931500D03*
D17*
%TO.P,U2,5,INT*%
%TO.N,/INT*%
X185677500Y-60944000D03*
%TO.P,U2,6,GND*%
%TO.N,GND*%
X186177500Y-60944000D03*
D16*
%TO.P,U2,7,VDD*%
%TO.N,+3.3V*%
X186690000Y-60931500D03*
%TO.P,U2,8,GND*%
%TO.N,GND*%
X186690000Y-60431500D03*
%TO.P,U2,9,GND*%
X186690000Y-59931500D03*
%TO.P,U2,10,VDD*%
%TO.N,+3.3V*%
X186690000Y-59431500D03*
D17*
%TO.P,U2,11,IO_VDD*%
X186177500Y-59419000D03*
%TO.P,U2,12,SCL*%
%TO.N,/I2C1_SCL*%
X185677500Y-59419000D03*
%TD*%
D18*
%TO.P,H3,1,Pin_1*%
%TO.N,/I2C1_SDA*%
X170817000Y-58293000D03*
D19*
%TO.P,H3,2,Pin_2*%
%TO.N,/I2C1_SCL*%
X172087000Y-58293000D03*
%TO.P,H3,3,Pin_2*%
%TO.N,GND*%
X173357000Y-58293000D03*
%TO.P,H3,4,Pin_2*%
%TO.N,/BUTTON*%
X174627000Y-58293000D03*
%TD*%
D20*
%TO.P,C1,1*%
%TO.N,/+VIN*%
X154000000Y-59436000D03*
%TO.P,C1,2*%
%TO.N,GND*%
X155550000Y-59436000D03*
%TD*%
D21*
%TO.P,R3,1*%
%TO.N,Net-(LED2-R)*%
X196215000Y-59055000D03*
%TO.P,R3,2*%
%TO.N,Net-(Q1-D)*%
X195199000Y-59055000D03*
%TD*%
D15*
%TO.P,R7,1*%
%TO.N,/+5V_USB*%
X149733000Y-63246000D03*
%TO.P,R7,2*%
%TO.N,Net-(USB1-D+)*%
X150749000Y-63246000D03*
%TD*%
D22*
%TO.P,LED2,1,B*%
%TO.N,Net-(LED2-B)*%
X196077959Y-62625000D03*
%TO.P,LED2,2,G*%
%TO.N,Net-(LED2-G)*%
X196679000Y-62023959D03*
%TO.P,LED2,3,R*%
%TO.N,Net-(LED2-R)*%
X197280041Y-62625000D03*
%TO.P,LED2,4,Anode*%
%TO.N,/+VIN*%
X196679000Y-63226041D03*
%TD*%
D23*
%TO.P,Q1,1,G*%
%TO.N,/LED_R*%
X189865000Y-58136000D03*
%TO.P,Q1,2,S*%
%TO.N,GND*%
X189865000Y-60036000D03*
%TO.P,Q1,3,D*%
%TO.N,Net-(Q1-D)*%
X191740000Y-59086000D03*
%TD*%
D24*
%TO.P,R2,1*%
%TO.N,Net-(LED2-G)*%
X194818000Y-62073000D03*
%TO.P,R2,2*%
%TO.N,Net-(Q2-D)*%
X194818000Y-63089000D03*
%TD*%
D25*
%TO.P,LED1,1*%
%TO.N,Net-(LED1-Pad1)*%
X158877000Y-59768500D03*
%TO.P,LED1,2*%
%TO.N,GND*%
X158877000Y-61643500D03*
%TD*%
D26*
%TO.P,U1,1,VDD*%
%TO.N,+3.3V*%
X165862000Y-60803000D03*
%TO.P,U1,2,RA5*%
%TO.N,unconnected-(U1-RA5-Pad2)*%
X165862000Y-61453000D03*
%TO.P,U1,3,RA4*%
%TO.N,unconnected-(U1-RA4-Pad3)*%
X165862000Y-62103000D03*
%TO.P,U1,4,~{MCLR}/VPP/RA3*%
%TO.N,Net-(H2-Pin_1)*%
X165862000Y-62753000D03*
%TO.P,U1,5,RC5*%
%TO.N,/LED_B_R*%
X165862000Y-63403000D03*
%TO.P,U1,6,RC4*%
%TO.N,unconnected-(U1-RC4-Pad6)*%
X165862000Y-64053000D03*
%TO.P,U1,7,RC3*%
%TO.N,/LED_R_R*%
X165862000Y-64703000D03*
%TO.P,U1,8,RC6*%
%TO.N,/LED_G_R*%
X165862000Y-65353000D03*
%TO.P,U1,9,RC7*%
%TO.N,unconnected-(U1-RC7-Pad9)*%
X165862000Y-66003000D03*
%TO.P,U1,10,RB7*%
%TO.N,/BUTTON*%
X165862000Y-66653000D03*
%TO.P,U1,11,RB6*%
%TO.N,/I2C1_SCL*%
X172862000Y-66653000D03*
%TO.P,U1,12,RB5*%
%TO.N,unconnected-(U1-RB5-Pad12)*%
X172862000Y-66003000D03*
%TO.P,U1,13,RB4*%
%TO.N,/I2C1_SDA*%
X172862000Y-65353000D03*
%TO.P,U1,14,RC2*%
%TO.N,unconnected-(U1-RC2-Pad14)*%
X172862000Y-64703000D03*
%TO.P,U1,15,RC1*%
%TO.N,unconnected-(U1-RC1-Pad15)*%
X172862000Y-64053000D03*
%TO.P,U1,16,RC0*%
%TO.N,unconnected-(U1-RC0-Pad16)*%
X172862000Y-63403000D03*
%TO.P,U1,17,RA2*%
%TO.N,/INT*%
X172862000Y-62753000D03*
%TO.P,U1,18,RA0/ICSPCLK*%
%TO.N,/ICSPCLK*%
X172862000Y-62103000D03*
%TO.P,U1,19,RA0/ICSPDAT*%
%TO.N,/ICSPDAT*%
X172862000Y-61453000D03*
%TO.P,U1,20,VSS*%
%TO.N,GND*%
X172862000Y-60803000D03*
%TD*%
D27*
%TO.P,C7,1*%
%TO.N,GND*%
X164648000Y-59182000D03*
%TO.P,C7,2*%
%TO.N,+3.3V*%
X165608000Y-59182000D03*
%TD*%
D28*
%TO.P,SW1,1*%
%TO.N,/BUTTON*%
X177857000Y-66547000D03*
%TO.P,SW1,2*%
X177857000Y-58597000D03*
%TO.P,SW1,3*%
%TO.N,GND*%
X182357000Y-66547000D03*
%TO.P,SW1,4*%
X182357000Y-58597000D03*
%TD*%
D15*
%TO.P,R8,1*%
%TO.N,Net-(USB1-D-)*%
X153797000Y-61976000D03*
%TO.P,R8,2*%
%TO.N,GND*%
X154813000Y-61976000D03*
%TD*%
D24*
%TO.P,R13,1*%
%TO.N,/LED_R*%
X163957000Y-63851000D03*
%TO.P,R13,2*%
%TO.N,/LED_R_R*%
X163957000Y-64867000D03*
%TD*%
D29*
%TO.P,C3,1*%
%TO.N,/+5V_USB*%
X143383000Y-62992000D03*
%TO.P,C3,2*%
%TO.N,GND*%
X146431000Y-62992000D03*
%TD*%
D15*
%TO.P,R9,1*%
%TO.N,Net-(USB1-D+)*%
X153797000Y-63373000D03*
%TO.P,R9,2*%
%TO.N,GND*%
X154813000Y-63373000D03*
%TD*%
%TO.P,R10,1*%
%TO.N,+3.3V*%
X167894000Y-59152000D03*
%TO.P,R10,2*%
%TO.N,Net-(H2-Pin_1)*%
X168910000Y-59152000D03*
%TD*%
D30*
%TO.P,H2,1,Pin_1*%
%TO.N,Net-(H2-Pin_1)*%
X143891000Y-66421000D03*
D31*
%TO.P,H2,2,Pin_2*%
%TO.N,+3.3V*%
X146431000Y-66421000D03*
%TO.P,H2,3,Pin_2*%
%TO.N,GND*%
X148971000Y-66421000D03*
%TO.P,H2,4,Pin_2*%
%TO.N,/ICSPDAT*%
X151511000Y-66421000D03*
%TO.P,H2,5,Pin_2*%
%TO.N,/ICSPCLK*%
X154051000Y-66421000D03*
%TD*%
D27*
%TO.P,C6,1*%
%TO.N,+3.3V*%
X184023000Y-62103000D03*
%TO.P,C6,2*%
%TO.N,GND*%
X184983000Y-62103000D03*
%TD*%
D23*
%TO.P,Q3,1,G*%
%TO.N,/LED_G*%
X189865000Y-65248000D03*
%TO.P,Q3,2,S*%
%TO.N,GND*%
X189865000Y-67148000D03*
%TO.P,Q3,3,D*%
%TO.N,Net-(Q3-D)*%
X191740000Y-66198000D03*
%TD*%
D32*
%TO.P,U3,1,IN*%
%TO.N,/+VIN*%
X158416000Y-64836000D03*
%TO.P,U3,2,GND*%
%TO.N,GND*%
X158416000Y-65786000D03*
%TO.P,U3,3,~{EN}*%
X158416000Y-66736000D03*
%TO.P,U3,4,NC/FB*%
%TO.N,unconnected-(U3-NC{slash}FB-Pad4)*%
X161116000Y-66736000D03*
%TO.P,U3,5,OUT*%
%TO.N,+3.3V*%
X161116000Y-64836000D03*
%TD*%
D21*
%TO.P,R1,1*%
%TO.N,Net-(LED2-B)*%
X196215000Y-66040000D03*
%TO.P,R1,2*%
%TO.N,Net-(Q3-D)*%
X195199000Y-66040000D03*
%TD*%
D24*
%TO.P,R14,1*%
%TO.N,/LED_B*%
X163957000Y-60549000D03*
%TO.P,R14,2*%
%TO.N,/LED_B_R*%
X163957000Y-61565000D03*
%TD*%
D21*
%TO.P,R12,1*%
%TO.N,+3.3V*%
X175666400Y-60807600D03*
%TO.P,R12,2*%
%TO.N,/I2C1_SCL*%
X174650400Y-60807600D03*
%TD*%
D24*
%TO.P,R11,1*%
%TO.N,+3.3V*%
X176149000Y-64922400D03*
%TO.P,R11,2*%
%TO.N,/I2C1_SDA*%
X176149000Y-65938400D03*
%TD*%
%TO.P,R4,1*%
%TO.N,Net-(USB1-ID)*%
X140589000Y-65532000D03*
%TO.P,R4,2*%
%TO.N,GND*%
X140589000Y-66548000D03*
%TD*%
D23*
%TO.P,D1,1*%
%TO.N,/+VBAT*%
X149000000Y-58600000D03*
%TO.P,D1,2*%
%TO.N,/+5V_USB*%
X149000000Y-60500000D03*
%TO.P,D1,3*%
%TO.N,/+VIN*%
X150875000Y-59550000D03*
%TD*%
D33*
%TO.P,C2,1*%
%TO.N,+3.3V*%
X161417000Y-61595000D03*
%TO.P,C2,2*%
%TO.N,GND*%
X161417000Y-58547000D03*
%TD*%
D34*
%TO.P,C4,1*%
%TO.N,GND*%
X187960000Y-60000000D03*
%TO.P,C4,2*%
%TO.N,+3.3V*%
X187960000Y-60960000D03*
%TD*%
D30*
%TO.P,H1,1,Pin_1*%
%TO.N,/+VBAT*%
X144770000Y-59500000D03*
D31*
%TO.P,H1,2,Pin_2*%
%TO.N,GND*%
X142230000Y-59500000D03*
%TD*%
D29*
%TO.P,C5,1*%
%TO.N,+3.3V*%
X184277000Y-64262000D03*
%TO.P,C5,2*%
%TO.N,GND*%
X187325000Y-64262000D03*
%TD*%
D23*
%TO.P,Q2,1,G*%
%TO.N,/LED_B*%
X189865000Y-61692000D03*
%TO.P,Q2,2,S*%
%TO.N,GND*%
X189865000Y-63592000D03*
%TO.P,Q2,3,D*%
%TO.N,Net-(Q2-D)*%
X191740000Y-62642000D03*
%TD*%
D35*
%TO.P,R15,1*%
%TO.N,/LED_G*%
X163957000Y-67153000D03*
%TO.P,R15,2*%
%TO.N,/LED_G_R*%
X163957000Y-66137000D03*
%TD*%
D36*
%TO.N,GND*%
X168986200Y-65735200D03*
%TO.N,/I2C1_SCL*%
X176174400Y-61925200D03*
%TO.N,/I2C1_SDA*%
X174802800Y-65428000D03*
%TO.N,/+VIN*%
X197104000Y-64867000D03*
X157863731Y-63242840D03*
%TO.N,/I2C1_SDA*%
X180390800Y-65430400D03*
%TO.N,+3.3V*%
X187701785Y-62084501D03*
%TO.N,/LED_G*%
X188468000Y-65913000D03*
%TO.N,/LED_R*%
X184024423Y-58009671D03*
%TO.N,+3.3V*%
X185166000Y-66040000D03*
%TO.N,GND*%
X148209000Y-62230000D03*
%TO.N,/+5V_USB*%
X141732000Y-62738000D03*
%TO.N,Net-(USB1-D-)*%
X140843000Y-61849000D03*
X153797000Y-60833000D03*
%TO.N,/+5V_USB*%
X140081000Y-59182000D03*
%TO.N,/LED_R*%
X162814000Y-63881000D03*
%TO.N,/LED_G*%
X162814000Y-66548000D03*
%TO.N,/LED_B*%
X163068684Y-62859687D03*
X188595000Y-62611000D03*
%TO.N,GND*%
X187960000Y-58450000D03*
X187325000Y-65913000D03*
%TO.N,/INT*%
X186563000Y-62133000D03*
%TO.N,+3.3V*%
X186817000Y-58420000D03*
%TO.N,/I2C1_SCL*%
X185674000Y-58450000D03*
%TO.N,GND*%
X183976000Y-59008000D03*
%TO.N,+3.3V*%
X176123600Y-63614900D03*
X176936400Y-60706000D03*
%TO.N,GND*%
X184023000Y-67300500D03*
%TO.N,+3.3V*%
X166751000Y-59152000D03*
%TO.N,/INT*%
X174879000Y-62200000D03*
%TO.N,/ICSPCLK*%
X170815000Y-63089000D03*
%TO.N,/ICSPDAT*%
X170815000Y-61946000D03*
%TO.N,GND*%
X170815000Y-60803000D03*
%TO.N,Net-(H2-Pin_1)*%
X167513000Y-61946000D03*
%TO.N,GND*%
X163322000Y-58293000D03*
%TO.N,+3.3V*%
X161163000Y-63500000D03*
X160147000Y-63500000D03*
%TO.N,/+5V_USB*%
X147320000Y-61214000D03*
%TO.N,GND*%
X156845000Y-67183000D03*
X156845000Y-64516000D03*
X158877000Y-63119000D03*
X154813000Y-64516000D03*
X155194000Y-60833000D03*
%TD*%
D37*
%TO.N,/I2C1_SCL*%
X172087000Y-58293000D02*
X172087000Y-59565000D01*
X172087000Y-59565000D02*
X172262800Y-59740800D01*
X172262800Y-59740800D02*
X173583600Y-59740800D01*
X173583600Y-59740800D02*
X174650400Y-60807600D01*
%TO.N,Net-(H2-Pin_1)*%
X167513000Y-61442600D02*
X168910000Y-60045600D01*
X167513000Y-61946000D02*
X167513000Y-61442600D01*
X168910000Y-59152000D02*
X168910000Y-60045600D01*
%TO.N,/I2C1_SDA*%
X180390800Y-63042800D02*
X183502100Y-59931500D01*
X180390800Y-65430400D02*
X180390800Y-63042800D01*
X183502100Y-59931500D02*
X185166000Y-59931500D01*
%TO.N,/I2C1_SCL*%
X175629506Y-61925200D02*
X175520953Y-61816647D01*
X176174400Y-61925200D02*
X175629506Y-61925200D01*
X175520953Y-61816647D02*
X174650400Y-60946095D01*
X176882000Y-62226400D02*
X176580800Y-61925200D01*
X176580800Y-61925200D02*
X176174400Y-61925200D01*
X176882000Y-63177695D02*
X176882000Y-62226400D01*
D38*
%TO.N,+3.3V*%
X175768000Y-60706000D02*
X175666400Y-60807600D01*
X176936400Y-60706000D02*
X175768000Y-60706000D01*
D37*
%TO.N,/I2C1_SCL*%
X174650400Y-60946095D02*
X174650400Y-60807600D01*
X176882000Y-66231308D02*
X176882000Y-63177695D01*
X174578695Y-66714200D02*
X176399108Y-66714200D01*
X174517495Y-66653000D02*
X174578695Y-66714200D01*
X176399108Y-66714200D02*
X176882000Y-66231308D01*
X172862000Y-66653000D02*
X174517495Y-66653000D01*
%TO.N,/I2C1_SDA*%
X169360000Y-64687300D02*
X169621200Y-64948500D01*
X169360000Y-59750000D02*
X169360000Y-64687300D01*
X170817000Y-58293000D02*
X169360000Y-59750000D01*
X169621200Y-64948500D02*
X170025700Y-65353000D01*
X169621200Y-64948500D02*
X170100700Y-65428000D01*
X170025700Y-65353000D02*
X172862000Y-65353000D01*
X170100700Y-65428000D02*
X175490800Y-65428000D01*
X175490800Y-65428000D02*
X176052000Y-65989200D01*
D38*
%TO.N,+3.3V*%
X176123600Y-64897000D02*
X176149000Y-64922400D01*
X176123600Y-63614900D02*
X176123600Y-64897000D01*
D37*
%TO.N,/BUTTON*%
X177034000Y-67370000D02*
X177857000Y-66547000D01*
X170158000Y-66653000D02*
X170875000Y-67370000D01*
X165862000Y-66653000D02*
X170158000Y-66653000D01*
X170875000Y-67370000D02*
X177034000Y-67370000D01*
%TO.N,/LED_R*%
X188468000Y-57658000D02*
X188946000Y-58136000D01*
X188946000Y-58136000D02*
X189865000Y-58136000D01*
X185166000Y-57658000D02*
X188468000Y-57658000D01*
X184814329Y-58009671D02*
X185166000Y-57658000D01*
X184024423Y-58009671D02*
X184814329Y-58009671D01*
D39*
%TO.N,GND*%
X188757000Y-63592000D02*
X188087000Y-64262000D01*
X189865000Y-63592000D02*
X188757000Y-63592000D01*
X188087000Y-64262000D02*
X187325000Y-64262000D01*
D37*
%TO.N,Net-(Q2-D)*%
X193258000Y-62642000D02*
X193705000Y-63089000D01*
X191740000Y-62642000D02*
X193258000Y-62642000D01*
D39*
%TO.N,/+VIN*%
X197104000Y-63651041D02*
X197104000Y-64867000D01*
X196679000Y-63226041D02*
X197104000Y-63651041D01*
X157863731Y-62740731D02*
X157099000Y-61976000D01*
X157863731Y-63242840D02*
X157863731Y-62740731D01*
X157099000Y-61976000D02*
X157099000Y-60833000D01*
X157863731Y-63756731D02*
X158416000Y-64309000D01*
X157863731Y-63242840D02*
X157863731Y-63756731D01*
X158416000Y-64309000D02*
X158416000Y-64836000D01*
%TO.N,/+VBAT*%
X144770000Y-59500000D02*
X146473000Y-59500000D01*
X146473000Y-59500000D02*
X147373000Y-58600000D01*
D37*
%TO.N,GND*%
X136300000Y-63800000D02*
X136000000Y-63500000D01*
D40*
X138700000Y-63800000D02*
X136300000Y-63800000D01*
D37*
%TO.N,Net-(USB1-D+)*%
X150749000Y-64135000D02*
X150749000Y-63246000D01*
X150622000Y-64262000D02*
X150749000Y-64135000D01*
X140224000Y-62500000D02*
X141986000Y-64262000D01*
X141986000Y-64262000D02*
X150622000Y-64262000D01*
X138700000Y-62500000D02*
X140224000Y-62500000D01*
%TO.N,/BUTTON*%
X177553000Y-58293000D02*
X177857000Y-58597000D01*
X174627000Y-58293000D02*
X177553000Y-58293000D01*
%TO.N,/INT*%
X185678500Y-61883500D02*
X185678500Y-60944000D01*
X185928000Y-62133000D02*
X185678500Y-61883500D01*
X186563000Y-62133000D02*
X185928000Y-62133000D01*
%TO.N,/BUTTON*%
X177487500Y-66177500D02*
X177857000Y-66547000D01*
%TO.N,/LED_B*%
X188752000Y-61692000D02*
X189865000Y-61692000D01*
X188595000Y-61849000D02*
X188752000Y-61692000D01*
X188595000Y-62611000D02*
X188595000Y-61849000D01*
D40*
%TO.N,+3.3V*%
X187960000Y-61468000D02*
X187960000Y-60960000D01*
X187706000Y-61722000D02*
X187960000Y-61468000D01*
D37*
X187701785Y-62084501D02*
X187706000Y-62080286D01*
D40*
X187706000Y-62080286D02*
X187706000Y-61722000D01*
D37*
%TO.N,Net-(Q2-D)*%
X194818000Y-63089000D02*
X193705000Y-63089000D01*
%TO.N,Net-(Q3-D)*%
X193517000Y-66198000D02*
X191740000Y-66198000D01*
X193675000Y-66040000D02*
X193517000Y-66198000D01*
X195199000Y-66040000D02*
X193675000Y-66040000D01*
%TO.N,Net-(LED2-B)*%
X196215000Y-64770000D02*
X196215000Y-66040000D01*
X196077959Y-64632959D02*
X196215000Y-64770000D01*
X196077959Y-62625000D02*
X196077959Y-64632959D01*
%TO.N,Net-(LED2-R)*%
X197104000Y-59055000D02*
X196215000Y-59055000D01*
X197280041Y-59231041D02*
X197104000Y-59055000D01*
X197280041Y-62625000D02*
X197280041Y-59231041D01*
%TO.N,Net-(Q1-D)*%
X191740000Y-59086000D02*
X195168000Y-59086000D01*
X195168000Y-59086000D02*
X195199000Y-59055000D01*
%TO.N,/LED_G*%
X162814000Y-66548000D02*
X163419000Y-67153000D01*
X163419000Y-67153000D02*
X163957000Y-67153000D01*
X189865000Y-65786000D02*
X189865000Y-65248000D01*
X188468000Y-65913000D02*
X189738000Y-65913000D01*
X189738000Y-65913000D02*
X189865000Y-65786000D01*
D39*
%TO.N,GND*%
X187325000Y-65913000D02*
X187325000Y-66929000D01*
X187544000Y-67148000D02*
X187325000Y-66929000D01*
X189865000Y-67148000D02*
X187544000Y-67148000D01*
D37*
X182768000Y-59008000D02*
X182357000Y-58597000D01*
D40*
X183976000Y-59008000D02*
X182768000Y-59008000D01*
D39*
X184023000Y-66929000D02*
X184023000Y-67300500D01*
X182357000Y-66547000D02*
X183641000Y-66547000D01*
X183641000Y-66547000D02*
X184023000Y-66929000D01*
D37*
%TO.N,/LED_B*%
X189835000Y-61722000D02*
X189865000Y-61692000D01*
D40*
%TO.N,GND*%
X184983000Y-62712000D02*
X186533000Y-64262000D01*
X186533000Y-64262000D02*
X187325000Y-64262000D01*
X184983000Y-62103000D02*
X184983000Y-62712000D01*
X184983000Y-62103000D02*
X184983000Y-61113500D01*
X184983000Y-61113500D02*
X185165000Y-60931500D01*
D39*
X187960000Y-58450000D02*
X187960000Y-60000000D01*
D40*
X187960000Y-60000000D02*
X186759500Y-60000000D01*
D37*
X186759500Y-60000000D02*
X186691000Y-59931500D01*
D40*
%TO.N,+3.3V*%
X186817000Y-59305500D02*
X186691000Y-59431500D01*
X186817000Y-58420000D02*
X186817000Y-59305500D01*
X184023000Y-61126305D02*
X184023000Y-62103000D01*
X185166000Y-60431500D02*
X184717805Y-60431500D01*
X184717805Y-60431500D02*
X184023000Y-61126305D01*
D37*
%TO.N,/I2C1_SCL*%
X185678500Y-58454500D02*
X185678500Y-59419000D01*
X185674000Y-58450000D02*
X185678500Y-58454500D01*
D39*
%TO.N,+3.3V*%
X184277000Y-65816000D02*
X184277000Y-64262000D01*
X184501000Y-66040000D02*
X184277000Y-65816000D01*
X185166000Y-66040000D02*
X184501000Y-66040000D01*
D37*
%TO.N,/ICSPCLK*%
X171831000Y-62103000D02*
X172862000Y-62103000D01*
X170815000Y-63089000D02*
X170845000Y-63089000D01*
X170845000Y-63089000D02*
X171831000Y-62103000D01*
%TO.N,/ICSPDAT*%
X171308000Y-61453000D02*
X172862000Y-61453000D01*
X170815000Y-61946000D02*
X171308000Y-61453000D01*
D39*
%TO.N,+3.3V*%
X165608000Y-60549000D02*
X165862000Y-60803000D01*
D37*
%TO.N,/LED_B_R*%
X164622000Y-63403000D02*
X165862000Y-63403000D01*
X163957000Y-62738000D02*
X164622000Y-63403000D01*
X163957000Y-61565000D02*
X163957000Y-62738000D01*
%TO.N,/LED_R*%
X162844000Y-63851000D02*
X162814000Y-63881000D01*
X163957000Y-63851000D02*
X162844000Y-63851000D01*
D39*
%TO.N,GND*%
X163322000Y-59055000D02*
X163322000Y-58293000D01*
X163449000Y-59182000D02*
X163322000Y-59055000D01*
X164648000Y-59182000D02*
X163449000Y-59182000D01*
D37*
%TO.N,+3.3V*%
X161163000Y-64789000D02*
X161116000Y-64836000D01*
D39*
X161163000Y-63500000D02*
X161163000Y-64789000D01*
D37*
%TO.N,Net-(LED1-Pad1)*%
X158877000Y-58928000D02*
X158877000Y-59768500D01*
X157607000Y-57658000D02*
X158877000Y-58928000D01*
X154051000Y-57912000D02*
X154305000Y-57658000D01*
X153543000Y-57912000D02*
X154051000Y-57912000D01*
X154305000Y-57658000D02*
X157607000Y-57658000D01*
D39*
%TO.N,GND*%
X158877000Y-63119000D02*
X158877000Y-61643500D01*
X156972000Y-65786000D02*
X158416000Y-65786000D01*
X156845000Y-65659000D02*
X156972000Y-65786000D01*
X156845000Y-64516000D02*
X156845000Y-65659000D01*
D37*
%TO.N,Net-(USB1-D-)*%
X153797000Y-60833000D02*
X153797000Y-61976000D01*
D39*
%TO.N,/+VIN*%
X153162000Y-59436000D02*
X154000000Y-59436000D01*
X152527000Y-57912000D02*
X152527000Y-58801000D01*
X152527000Y-58801000D02*
X153162000Y-59436000D01*
%TO.N,/+5V_USB*%
X147320000Y-61214000D02*
X148034000Y-60500000D01*
X148034000Y-60500000D02*
X149000000Y-60500000D01*
%TO.N,/+VBAT*%
X149000000Y-58600000D02*
X147373000Y-58600000D01*
%TO.N,GND*%
X148209000Y-62230000D02*
X147447000Y-62992000D01*
X147447000Y-62992000D02*
X146431000Y-62992000D01*
D37*
%TO.N,/+5V_USB*%
X143129000Y-62738000D02*
X143383000Y-62992000D01*
D39*
X141732000Y-62738000D02*
X143129000Y-62738000D01*
X140081000Y-61087000D02*
X140081000Y-59182000D01*
X139968000Y-61200000D02*
X140081000Y-61087000D01*
X139206000Y-61200000D02*
X139968000Y-61200000D01*
D37*
X143383000Y-62992000D02*
X143383000Y-62865000D01*
%TO.N,Net-(USB1-D-)*%
X140842604Y-61849396D02*
X140843000Y-61849000D01*
X140842604Y-61850000D02*
X140842604Y-61849396D01*
D39*
%TO.N,GND*%
X155550000Y-60477000D02*
X155550000Y-59436000D01*
X155194000Y-60833000D02*
X155550000Y-60477000D01*
X154813000Y-61976000D02*
X154813000Y-61214000D01*
X154813000Y-61214000D02*
X155194000Y-60833000D01*
D37*
%TO.N,/+5V_USB*%
X138700000Y-61200000D02*
X139206000Y-61200000D01*
%TO.N,Net-(USB1-ID)*%
X139604000Y-63150000D02*
X138700000Y-63150000D01*
X140589000Y-64135000D02*
X139604000Y-63150000D01*
X140589000Y-65532000D02*
X140589000Y-64135000D01*
%TO.N,GND*%
X164719000Y-59182000D02*
X164648000Y-59182000D01*
D39*
%TO.N,+3.3V*%
X165608000Y-59182000D02*
X166721000Y-59182000D01*
D37*
X166721000Y-59182000D02*
X166751000Y-59152000D01*
D39*
X165608000Y-59182000D02*
X165608000Y-60549000D01*
D37*
%TO.N,/LED_B*%
X163068684Y-62859687D02*
X163068684Y-60802316D01*
X163068684Y-60802316D02*
X163322000Y-60549000D01*
X163322000Y-60549000D02*
X163957000Y-60549000D01*
%TO.N,GND*%
X161671000Y-58293000D02*
X161417000Y-58547000D01*
D39*
X163322000Y-58293000D02*
X161671000Y-58293000D01*
D37*
%TO.N,/LED_G_R*%
X164741000Y-65353000D02*
X163957000Y-66137000D01*
X165862000Y-65353000D02*
X164741000Y-65353000D01*
%TO.N,/LED_R_R*%
X164121000Y-64703000D02*
X163957000Y-64867000D01*
X165862000Y-64703000D02*
X164121000Y-64703000D01*
%TO.N,+3.3V*%
X161163000Y-61849000D02*
X161417000Y-61595000D01*
D39*
X161163000Y-63500000D02*
X161163000Y-61849000D01*
D37*
%TO.N,Net-(LED2-G)*%
X194867041Y-62023959D02*
X194818000Y-62073000D01*
X196679000Y-62023959D02*
X194867041Y-62023959D01*
%TO.N,+3.3V*%
X187931500Y-60931500D02*
X187960000Y-60960000D01*
D40*
X186691000Y-60931500D02*
X187931500Y-60931500D01*
D39*
%TO.N,GND*%
X187325000Y-64262000D02*
X187325000Y-65913000D01*
D37*
%TO.N,+3.3V*%
X184023000Y-64008000D02*
X184277000Y-64262000D01*
D39*
X184023000Y-62103000D02*
X184023000Y-64008000D01*
D40*
%TO.N,GND*%
X186253500Y-60431500D02*
X186178500Y-60506500D01*
X186178500Y-60506500D02*
X186178500Y-60944000D01*
X186691000Y-60431500D02*
X186253500Y-60431500D01*
X186691000Y-59931500D02*
X186691000Y-60431500D01*
%TO.N,+3.3V*%
X186178500Y-59419000D02*
X186678500Y-59419000D01*
%TO.N,GND*%
X184742500Y-59008000D02*
X185166000Y-59431500D01*
X183976000Y-59008000D02*
X184742500Y-59008000D01*
D37*
X184023000Y-59055000D02*
X183976000Y-59008000D01*
%TO.N,/BUTTON*%
X177857000Y-66547000D02*
X177857000Y-58597000D01*
D39*
%TO.N,+3.3V*%
X167894000Y-59152000D02*
X166751000Y-59152000D01*
D37*
%TO.N,/INT*%
X174326000Y-62753000D02*
X174879000Y-62200000D01*
X172862000Y-62753000D02*
X174326000Y-62753000D01*
D39*
%TO.N,GND*%
X172862000Y-60803000D02*
X170815000Y-60803000D01*
D37*
%TO.N,Net-(H2-Pin_1)*%
X167513000Y-62544000D02*
X167304000Y-62753000D01*
X167513000Y-61946000D02*
X167513000Y-62544000D01*
X167304000Y-62753000D02*
X165862000Y-62753000D01*
D39*
%TO.N,+3.3V*%
X161163000Y-63500000D02*
X160147000Y-63500000D01*
D37*
X161116000Y-63547000D02*
X161163000Y-63500000D01*
X160147000Y-63500000D02*
X160147000Y-63627000D01*
X160147000Y-63627000D02*
X160241000Y-63721000D01*
D39*
%TO.N,/+VIN*%
X157099000Y-60833000D02*
X157099000Y-58928000D01*
%TO.N,GND*%
X157292000Y-66736000D02*
X156845000Y-67183000D01*
X158416000Y-66736000D02*
X157292000Y-66736000D01*
%TO.N,/+VIN*%
X157099000Y-58928000D02*
X156533000Y-58362000D01*
X156533000Y-58362000D02*
X155074000Y-58362000D01*
X155074000Y-58362000D02*
X154000000Y-59436000D01*
D37*
%TO.N,GND*%
X141730000Y-60000000D02*
X142230000Y-59500000D01*
D39*
%TO.N,/+VIN*%
X151384000Y-57912000D02*
X152527000Y-57912000D01*
X150875000Y-58421000D02*
X151384000Y-57912000D01*
X150875000Y-59550000D02*
X150875000Y-58421000D01*
%TO.N,/+5V_USB*%
X149733000Y-61976000D02*
X149733000Y-63246000D01*
X149000000Y-61243000D02*
X149733000Y-61976000D01*
X149000000Y-60500000D02*
X149000000Y-61243000D01*
%TO.N,GND*%
X154813000Y-64516000D02*
X154813000Y-63373000D01*
D37*
%TO.N,Net-(USB1-D+)*%
X153670000Y-63246000D02*
X153797000Y-63373000D01*
X150749000Y-63246000D02*
X153670000Y-63246000D01*
%TO.N,Net-(USB1-D-)*%
X150749000Y-61976000D02*
X153797000Y-61976000D01*
X138700000Y-61850000D02*
X140842604Y-61850000D01*
%TD*%
%TA.AperFunction,Conductor*%
%TO.N,GND*%
G36*
X168653834Y-61288870D02*
G01*
X168709767Y-61330742D01*
X168734184Y-61396206D01*
X168734500Y-61405052D01*
X168734500Y-64604555D01*
X168732775Y-64620172D01*
X168733061Y-64620199D01*
X168732326Y-64627965D01*
X168734500Y-64697114D01*
X168734500Y-64726643D01*
X168734501Y-64726660D01*
X168735368Y-64733531D01*
X168735826Y-64739350D01*
X168737290Y-64785924D01*
X168737291Y-64785927D01*
X168742880Y-64805167D01*
X168746824Y-64824211D01*
X168749336Y-64844092D01*
X168763205Y-64879122D01*
X168766490Y-64887419D01*
X168768382Y-64892947D01*
X168781381Y-64937688D01*
X168791580Y-64954934D01*
X168800136Y-64972400D01*
X168801861Y-64976755D01*
X168807514Y-64991032D01*
X168834898Y-65028723D01*
X168838106Y-65033607D01*
X168861827Y-65073716D01*
X168861833Y-65073724D01*
X168875990Y-65087880D01*
X168888627Y-65102675D01*
X168900406Y-65118887D01*
X168935073Y-65147566D01*
X168936309Y-65148588D01*
X168940620Y-65152510D01*
X169035074Y-65246964D01*
X169123030Y-65334920D01*
X169404365Y-65616256D01*
X169524897Y-65736788D01*
X169534722Y-65749051D01*
X169534943Y-65748869D01*
X169539912Y-65754876D01*
X169590338Y-65802228D01*
X169599895Y-65811786D01*
X169609708Y-65824033D01*
X169609929Y-65823851D01*
X169610423Y-65824448D01*
X169610865Y-65825478D01*
X169616904Y-65833015D01*
X169619085Y-65836451D01*
X169616329Y-65838200D01*
X169637996Y-65888647D01*
X169626483Y-65957562D01*
X169579540Y-66009312D01*
X169514889Y-66027500D01*
X167436499Y-66027500D01*
X167369460Y-66007815D01*
X167323705Y-65955011D01*
X167312499Y-65903500D01*
X167312499Y-65814837D01*
X167311228Y-65798684D01*
X167309709Y-65779373D01*
X167290308Y-65712595D01*
X167290308Y-65643404D01*
X167297498Y-65618656D01*
X167309709Y-65576627D01*
X167311836Y-65549597D01*
X167312500Y-65541165D01*
X167312499Y-65164838D01*
X167309709Y-65129373D01*
X167290308Y-65062595D01*
X167290308Y-64993404D01*
X167293627Y-64981981D01*
X167309709Y-64926627D01*
X167311758Y-64900593D01*
X167312500Y-64891165D01*
X167312499Y-64514838D01*
X167311231Y-64498722D01*
X167309709Y-64479373D01*
X167290308Y-64412595D01*
X167290308Y-64343404D01*
X167291810Y-64338235D01*
X167309709Y-64276627D01*
X167312427Y-64242093D01*
X167312500Y-64241165D01*
X167312499Y-63864838D01*
X167312284Y-63862109D01*
X167309709Y-63829373D01*
X167290308Y-63762595D01*
X167290308Y-63693404D01*
X167291804Y-63688256D01*
X167309709Y-63626627D01*
X167312500Y-63591163D01*
X167312499Y-63494993D01*
X167332183Y-63427956D01*
X167384986Y-63382200D01*
X167401900Y-63375919D01*
X167402622Y-63375709D01*
X167402627Y-63375709D01*
X167421868Y-63370117D01*
X167440912Y-63366174D01*
X167460792Y-63363664D01*
X167504122Y-63346507D01*
X167509646Y-63344617D01*
X167513396Y-63343527D01*
X167554390Y-63331618D01*
X167571629Y-63321422D01*
X167589103Y-63312862D01*
X167607727Y-63305488D01*
X167607727Y-63305487D01*
X167607732Y-63305486D01*
X167645449Y-63278082D01*
X167650305Y-63274892D01*
X167690420Y-63251170D01*
X167704589Y-63236999D01*
X167719379Y-63224368D01*
X167735587Y-63212594D01*
X167765299Y-63176676D01*
X167769212Y-63172376D01*
X167896786Y-63044802D01*
X167909048Y-63034980D01*
X167908865Y-63034759D01*
X167914867Y-63029792D01*
X167914877Y-63029786D01*
X167962241Y-62979348D01*
X167983120Y-62958470D01*
X167987373Y-62952986D01*
X167991150Y-62948563D01*
X168023062Y-62914582D01*
X168032714Y-62897023D01*
X168043389Y-62880772D01*
X168055674Y-62864936D01*
X168074186Y-62822152D01*
X168076742Y-62816935D01*
X168096612Y-62780794D01*
X168099194Y-62776098D01*
X168099194Y-62776097D01*
X168099197Y-62776092D01*
X168104180Y-62756680D01*
X168110477Y-62738291D01*
X168118438Y-62719895D01*
X168125728Y-62673857D01*
X168126911Y-62668150D01*
X168130940Y-62652460D01*
X168138500Y-62623019D01*
X168138500Y-62623014D01*
X168140239Y-62616242D01*
X168168192Y-62564109D01*
X168245533Y-62478216D01*
X168340179Y-62314284D01*
X168398674Y-62134256D01*
X168418460Y-61946000D01*
X168398674Y-61757744D01*
X168350484Y-61609430D01*
X168344604Y-61591334D01*
X168342609Y-61521493D01*
X168374851Y-61465338D01*
X168522821Y-61317368D01*
X168584142Y-61283886D01*
X168653834Y-61288870D01*
G37*
%TD.AperFunction*%
%TA.AperFunction,Conductor*%
G36*
X138893039Y-63870184D02*
G01*
X138938794Y-63922988D01*
X138950000Y-63974499D01*
X138950000Y-64729163D01*
X138898264Y-64651736D01*
X138807300Y-64590955D01*
X138700000Y-64569612D01*
X138592700Y-64590955D01*
X138501736Y-64651736D01*
X138450000Y-64729163D01*
X138450000Y-63974499D01*
X138469685Y-63907460D01*
X138522489Y-63861705D01*
X138573997Y-63850499D01*
X138826001Y-63850499D01*
X138893039Y-63870184D01*
G37*
%TD.AperFunction*%
%TA.AperFunction,Conductor*%
G36*
X159070039Y-61413185D02*
G01*
X159115794Y-61465989D01*
X159127000Y-61517500D01*
X159127000Y-62631000D01*
X159382803Y-62631000D01*
X159382815Y-62630999D01*
X159431670Y-62626008D01*
X159500363Y-62638777D01*
X159551248Y-62686657D01*
X159568169Y-62754447D01*
X159545754Y-62820623D01*
X159536423Y-62832338D01*
X159414466Y-62967785D01*
X159319821Y-63131715D01*
X159319818Y-63131722D01*
X159263356Y-63305496D01*
X159261326Y-63311744D01*
X159241540Y-63500000D01*
X159261326Y-63688256D01*
X159261327Y-63688259D01*
X159313289Y-63848182D01*
X159315284Y-63918023D01*
X159279204Y-63977856D01*
X159216503Y-64008684D01*
X159195358Y-64010500D01*
X159130004Y-64010500D01*
X159062965Y-63990815D01*
X159026486Y-63948716D01*
X159023759Y-63950365D01*
X159019874Y-63943938D01*
X158981633Y-63895127D01*
X158979413Y-63892110D01*
X158958704Y-63862109D01*
X158944183Y-63841071D01*
X158897750Y-63799935D01*
X158895056Y-63797399D01*
X158749023Y-63651366D01*
X158715538Y-63590043D01*
X158718774Y-63525365D01*
X158749405Y-63431096D01*
X158769191Y-63242840D01*
X158749405Y-63054584D01*
X158690910Y-62874556D01*
X158625942Y-62762028D01*
X158609470Y-62694131D01*
X158627000Y-62643481D01*
X158627000Y-61517500D01*
X158646685Y-61450461D01*
X158699489Y-61404706D01*
X158751000Y-61393500D01*
X159003000Y-61393500D01*
X159070039Y-61413185D01*
G37*
%TD.AperFunction*%
%TA.AperFunction,Conductor*%
G36*
X148094651Y-59317767D02*
G01*
X148152102Y-59351744D01*
X148156019Y-59352882D01*
X148309926Y-59397597D01*
X148309929Y-59397597D01*
X148309931Y-59397598D01*
X148322222Y-59398565D01*
X148346804Y-59400500D01*
X148346806Y-59400500D01*
X149513000Y-59400500D01*
X149580039Y-59420185D01*
X149625794Y-59472989D01*
X149637000Y-59524500D01*
X149637000Y-59575500D01*
X149617315Y-59642539D01*
X149564511Y-59688294D01*
X149513000Y-59699500D01*
X148346804Y-59699500D01*
X148309932Y-59702401D01*
X148309926Y-59702402D01*
X148152106Y-59748254D01*
X148152105Y-59748254D01*
X148097191Y-59780730D01*
X148029467Y-59797911D01*
X148026585Y-59797771D01*
X147991398Y-59795642D01*
X147991390Y-59795643D01*
X147930402Y-59806819D01*
X147926701Y-59807382D01*
X147865125Y-59814860D01*
X147855642Y-59818456D01*
X147834038Y-59824478D01*
X147832535Y-59824754D01*
X147824065Y-59826306D01*
X147824063Y-59826307D01*
X147767527Y-59851752D01*
X147764069Y-59853184D01*
X147706069Y-59875182D01*
X147697724Y-59880942D01*
X147678183Y-59891964D01*
X147668941Y-59896123D01*
X147620129Y-59934364D01*
X147617114Y-59936583D01*
X147566072Y-59971816D01*
X147566065Y-59971822D01*
X147524935Y-60018248D01*
X147522368Y-60020974D01*
X147257028Y-60286315D01*
X147195705Y-60319800D01*
X147195128Y-60319924D01*
X147040197Y-60352855D01*
X147040192Y-60352857D01*
X146867270Y-60429848D01*
X146867265Y-60429851D01*
X146714129Y-60541111D01*
X146587466Y-60681785D01*
X146492821Y-60845715D01*
X146492818Y-60845722D01*
X146434689Y-61024627D01*
X146434326Y-61025744D01*
X146414540Y-61214000D01*
X146434326Y-61402256D01*
X146434326Y-61402258D01*
X146434327Y-61402260D01*
X146443237Y-61429683D01*
X146445232Y-61499524D01*
X146409151Y-61559356D01*
X146346450Y-61590184D01*
X146325307Y-61592000D01*
X146131029Y-61592000D01*
X146131012Y-61592001D01*
X146028302Y-61602494D01*
X145861880Y-61657641D01*
X145861875Y-61657643D01*
X145712654Y-61749684D01*
X145627446Y-61834893D01*
X146696872Y-62904319D01*
X146730357Y-62965642D01*
X146725373Y-63035334D01*
X146696872Y-63079681D01*
X146518681Y-63257872D01*
X146457358Y-63291357D01*
X146387666Y-63286373D01*
X146343319Y-63257872D01*
X145431000Y-62345553D01*
X145431001Y-63512500D01*
X145411316Y-63579539D01*
X145358513Y-63625294D01*
X145307001Y-63636500D01*
X144507500Y-63636500D01*
X144440461Y-63616815D01*
X144394706Y-63564011D01*
X144383500Y-63512500D01*
X144383499Y-62291998D01*
X144383498Y-62291981D01*
X144372999Y-62189203D01*
X144372998Y-62189200D01*
X144362303Y-62156925D01*
X144317814Y-62022666D01*
X144225712Y-61873344D01*
X144101656Y-61749288D01*
X143983822Y-61676608D01*
X143952336Y-61657187D01*
X143952331Y-61657185D01*
X143950862Y-61656698D01*
X143785797Y-61602001D01*
X143785795Y-61602000D01*
X143683010Y-61591500D01*
X143082998Y-61591500D01*
X143082980Y-61591501D01*
X142980203Y-61602000D01*
X142980200Y-61602001D01*
X142813668Y-61657185D01*
X142813663Y-61657187D01*
X142664342Y-61749289D01*
X142540289Y-61873342D01*
X142509753Y-61922850D01*
X142478255Y-61973917D01*
X142475368Y-61978597D01*
X142423420Y-62025321D01*
X142369829Y-62037500D01*
X142340156Y-62037500D01*
X142273117Y-62017815D01*
X142267271Y-62013818D01*
X142184734Y-61953851D01*
X142184729Y-61953848D01*
X142011807Y-61876857D01*
X142011802Y-61876855D01*
X141833559Y-61838969D01*
X141772077Y-61805777D01*
X141738301Y-61744614D01*
X141736021Y-61730655D01*
X141728674Y-61660744D01*
X141691492Y-61546310D01*
X141670181Y-61480722D01*
X141670180Y-61480721D01*
X141670179Y-61480716D01*
X141575533Y-61316784D01*
X141448871Y-61176112D01*
X141446950Y-61174716D01*
X141295734Y-61064851D01*
X141295729Y-61064848D01*
X141122807Y-60987857D01*
X141122802Y-60987855D01*
X140977001Y-60956865D01*
X140937646Y-60948500D01*
X140937645Y-60948500D01*
X140905500Y-60948500D01*
X140838461Y-60928815D01*
X140792706Y-60876011D01*
X140781500Y-60824500D01*
X140781500Y-60147381D01*
X140801185Y-60080342D01*
X140853989Y-60034587D01*
X140923147Y-60024643D01*
X140986703Y-60053668D01*
X141017882Y-60094976D01*
X141056400Y-60177578D01*
X141191894Y-60371082D01*
X141358917Y-60538105D01*
X141552421Y-60673600D01*
X141766507Y-60773429D01*
X141766516Y-60773433D01*
X141980000Y-60830634D01*
X141980000Y-59935501D01*
X142087685Y-59984680D01*
X142194237Y-60000000D01*
X142265763Y-60000000D01*
X142372315Y-59984680D01*
X142480000Y-59935501D01*
X142480000Y-60830633D01*
X142693483Y-60773433D01*
X142693492Y-60773429D01*
X142907578Y-60673600D01*
X143101078Y-60538108D01*
X143223133Y-60416053D01*
X143284456Y-60382568D01*
X143354148Y-60387552D01*
X143410082Y-60429423D01*
X143426997Y-60460401D01*
X143476202Y-60592328D01*
X143476206Y-60592335D01*
X143562452Y-60707544D01*
X143562455Y-60707547D01*
X143677664Y-60793793D01*
X143677671Y-60793797D01*
X143812517Y-60844091D01*
X143812516Y-60844091D01*
X143819444Y-60844835D01*
X143872127Y-60850500D01*
X145667872Y-60850499D01*
X145727483Y-60844091D01*
X145862331Y-60793796D01*
X145977546Y-60707546D01*
X146063796Y-60592331D01*
X146114091Y-60457483D01*
X146120500Y-60397873D01*
X146120500Y-60324500D01*
X146140185Y-60257461D01*
X146192989Y-60211706D01*
X146244500Y-60200500D01*
X146449952Y-60200500D01*
X146453697Y-60200613D01*
X146461042Y-60201057D01*
X146515606Y-60204358D01*
X146553314Y-60197447D01*
X146576621Y-60193177D01*
X146580325Y-60192613D01*
X146598170Y-60190446D01*
X146641872Y-60185140D01*
X146651335Y-60181550D01*
X146672961Y-60175522D01*
X146673893Y-60175351D01*
X146682932Y-60173695D01*
X146739512Y-60148229D01*
X146742942Y-60146809D01*
X146800930Y-60124818D01*
X146809266Y-60119062D01*
X146828821Y-60108034D01*
X146838057Y-60103878D01*
X146886896Y-60065613D01*
X146889876Y-60063421D01*
X146940929Y-60028183D01*
X146982065Y-59981748D01*
X146984599Y-59979056D01*
X147626838Y-59336819D01*
X147688161Y-59303334D01*
X147714519Y-59300500D01*
X148031531Y-59300500D01*
X148094651Y-59317767D01*
G37*
%TD.AperFunction*%
%TA.AperFunction,Conductor*%
G36*
X148318293Y-61513894D02*
G01*
X148369785Y-61561121D01*
X148373414Y-61567561D01*
X148375183Y-61570932D01*
X148380936Y-61579266D01*
X148391961Y-61598813D01*
X148396120Y-61608055D01*
X148396124Y-61608060D01*
X148434371Y-61656878D01*
X148436588Y-61659892D01*
X148439963Y-61664781D01*
X148471812Y-61710924D01*
X148471816Y-61710928D01*
X148471817Y-61710929D01*
X148518250Y-61752064D01*
X148520942Y-61754599D01*
X148740261Y-61973917D01*
X148896181Y-62129837D01*
X148929666Y-62191160D01*
X148932500Y-62217518D01*
X148932500Y-62241696D01*
X148935401Y-62278567D01*
X148935402Y-62278573D01*
X148981254Y-62436393D01*
X148981255Y-62436396D01*
X148981256Y-62436398D01*
X148993242Y-62456666D01*
X149015232Y-62493848D01*
X149032500Y-62556969D01*
X149032500Y-62665030D01*
X149015232Y-62728150D01*
X148981257Y-62785599D01*
X148981254Y-62785606D01*
X148935402Y-62943426D01*
X148935401Y-62943432D01*
X148932500Y-62980304D01*
X148932500Y-63512500D01*
X148912815Y-63579539D01*
X148860011Y-63625294D01*
X148808500Y-63636500D01*
X147555000Y-63636500D01*
X147487961Y-63616815D01*
X147442206Y-63564011D01*
X147431000Y-63512500D01*
X147430999Y-62292028D01*
X147430998Y-62292015D01*
X147424215Y-62225618D01*
X147436984Y-62156925D01*
X147484865Y-62106040D01*
X147521785Y-62091727D01*
X147599803Y-62075144D01*
X147599807Y-62075142D01*
X147599808Y-62075142D01*
X147658058Y-62049206D01*
X147772730Y-61998151D01*
X147925871Y-61886888D01*
X148052533Y-61746216D01*
X148147179Y-61582284D01*
X148147181Y-61582275D01*
X148149825Y-61576341D01*
X148152181Y-61577390D01*
X148185093Y-61529223D01*
X148249442Y-61502003D01*
X148318293Y-61513894D01*
G37*
%TD.AperFunction*%
%TA.AperFunction,Conductor*%
G36*
X171404539Y-59313184D02*
G01*
X171450294Y-59365988D01*
X171461500Y-59417499D01*
X171461500Y-59482255D01*
X171459775Y-59497872D01*
X171460061Y-59497899D01*
X171459326Y-59505665D01*
X171461500Y-59574814D01*
X171461500Y-59604343D01*
X171461501Y-59604360D01*
X171462368Y-59611231D01*
X171462826Y-59617050D01*
X171464290Y-59663624D01*
X171464291Y-59663627D01*
X171469880Y-59682867D01*
X171473824Y-59701911D01*
X171476336Y-59721792D01*
X171486641Y-59747819D01*
X171493490Y-59765119D01*
X171495382Y-59770647D01*
X171508371Y-59815354D01*
X171508382Y-59815390D01*
X171514837Y-59826306D01*
X171518580Y-59832634D01*
X171527136Y-59850100D01*
X171528358Y-59853184D01*
X171534514Y-59868732D01*
X171561898Y-59906423D01*
X171565106Y-59911307D01*
X171588827Y-59951416D01*
X171588833Y-59951424D01*
X171602990Y-59965580D01*
X171615627Y-59980375D01*
X171627406Y-59996587D01*
X171630826Y-59999416D01*
X171635757Y-60003496D01*
X171674864Y-60061396D01*
X171676459Y-60131247D01*
X171644397Y-60186719D01*
X171539229Y-60291887D01*
X171539226Y-60291891D01*
X171458844Y-60427811D01*
X171458843Y-60427814D01*
X171414789Y-60579446D01*
X171414788Y-60579452D01*
X171412000Y-60614884D01*
X171412000Y-60703500D01*
X171392315Y-60770539D01*
X171339511Y-60816294D01*
X171288000Y-60827500D01*
X171268650Y-60827500D01*
X171267929Y-60827590D01*
X171261757Y-60828369D01*
X171255945Y-60828826D01*
X171209378Y-60830290D01*
X171209367Y-60830292D01*
X171190134Y-60835879D01*
X171171094Y-60839822D01*
X171151217Y-60842334D01*
X171151210Y-60842335D01*
X171151208Y-60842336D01*
X171151206Y-60842336D01*
X171151205Y-60842337D01*
X171107868Y-60859494D01*
X171102342Y-60861386D01*
X171057611Y-60874382D01*
X171057608Y-60874383D01*
X171040363Y-60884581D01*
X171022901Y-60893135D01*
X171004272Y-60900511D01*
X171004267Y-60900513D01*
X170966564Y-60927906D01*
X170961682Y-60931112D01*
X170921580Y-60954828D01*
X170907408Y-60969000D01*
X170892623Y-60981628D01*
X170876412Y-60993407D01*
X170870508Y-61000544D01*
X170812607Y-61039649D01*
X170774967Y-61045500D01*
X170720354Y-61045500D01*
X170690409Y-61051865D01*
X170535197Y-61084855D01*
X170535192Y-61084857D01*
X170362270Y-61161848D01*
X170362265Y-61161851D01*
X170209129Y-61273111D01*
X170209128Y-61273112D01*
X170201649Y-61281419D01*
X170142162Y-61318067D01*
X170072305Y-61316736D01*
X170014257Y-61277849D01*
X169986448Y-61213752D01*
X169985500Y-61198446D01*
X169985500Y-60060452D01*
X170005185Y-59993413D01*
X170021819Y-59972771D01*
X170664772Y-59329818D01*
X170726095Y-59296333D01*
X170752453Y-59293499D01*
X171337500Y-59293499D01*
X171404539Y-59313184D01*
G37*
%TD.AperFunction*%
%TA.AperFunction,Conductor*%
G36*
X190445039Y-62512185D02*
G01*
X190490794Y-62564989D01*
X190502000Y-62616500D01*
X190502000Y-62668000D01*
X190482315Y-62735039D01*
X190429511Y-62780794D01*
X190378000Y-62792000D01*
X190115000Y-62792000D01*
X190115000Y-63342000D01*
X190770685Y-63342000D01*
X190833806Y-63359268D01*
X190892102Y-63393744D01*
X190933724Y-63405836D01*
X191049926Y-63439597D01*
X191049929Y-63439597D01*
X191049931Y-63439598D01*
X191062222Y-63440565D01*
X191086804Y-63442500D01*
X191086806Y-63442500D01*
X192393196Y-63442500D01*
X192411631Y-63441049D01*
X192430069Y-63439598D01*
X192430071Y-63439597D01*
X192430073Y-63439597D01*
X192471691Y-63427505D01*
X192587898Y-63393744D01*
X192729365Y-63310081D01*
X192729370Y-63310076D01*
X192735628Y-63303819D01*
X192796951Y-63270334D01*
X192823309Y-63267500D01*
X192947548Y-63267500D01*
X193014587Y-63287185D01*
X193035229Y-63303819D01*
X193204194Y-63472784D01*
X193214017Y-63485045D01*
X193214239Y-63484863D01*
X193219212Y-63490875D01*
X193269636Y-63538227D01*
X193290523Y-63559115D01*
X193290527Y-63559118D01*
X193290529Y-63559120D01*
X193296011Y-63563373D01*
X193300443Y-63567157D01*
X193334418Y-63599062D01*
X193351976Y-63608714D01*
X193368235Y-63619395D01*
X193384064Y-63631673D01*
X193426838Y-63650182D01*
X193432056Y-63652738D01*
X193472908Y-63675197D01*
X193492316Y-63680180D01*
X193510717Y-63686480D01*
X193529104Y-63694437D01*
X193572488Y-63701308D01*
X193575119Y-63701725D01*
X193580839Y-63702909D01*
X193625981Y-63714500D01*
X193646016Y-63714500D01*
X193665414Y-63716026D01*
X193685194Y-63719159D01*
X193685195Y-63719160D01*
X193685195Y-63719159D01*
X193685196Y-63719160D01*
X193731584Y-63714775D01*
X193737422Y-63714500D01*
X194122191Y-63714500D01*
X194189230Y-63734185D01*
X194209872Y-63750819D01*
X194216129Y-63757076D01*
X194216133Y-63757079D01*
X194216135Y-63757081D01*
X194357602Y-63840744D01*
X194370482Y-63844486D01*
X194515426Y-63886597D01*
X194515429Y-63886597D01*
X194515431Y-63886598D01*
X194518049Y-63886804D01*
X194552304Y-63889500D01*
X194552306Y-63889500D01*
X195083696Y-63889500D01*
X195102131Y-63888049D01*
X195120569Y-63886598D01*
X195120571Y-63886597D01*
X195120573Y-63886597D01*
X195278385Y-63840748D01*
X195278386Y-63840747D01*
X195278398Y-63840744D01*
X195278408Y-63840737D01*
X195279197Y-63840397D01*
X195279888Y-63840311D01*
X195285890Y-63838568D01*
X195286171Y-63839535D01*
X195348539Y-63831829D01*
X195411506Y-63862109D01*
X195448106Y-63921626D01*
X195452459Y-63954192D01*
X195452459Y-64550214D01*
X195450734Y-64565831D01*
X195451020Y-64565858D01*
X195450285Y-64573624D01*
X195452459Y-64642773D01*
X195452459Y-64672302D01*
X195452460Y-64672319D01*
X195453327Y-64679190D01*
X195453785Y-64685009D01*
X195455249Y-64731583D01*
X195455404Y-64732115D01*
X195460839Y-64750826D01*
X195464783Y-64769870D01*
X195467295Y-64789751D01*
X195480008Y-64821862D01*
X195484449Y-64833078D01*
X195486341Y-64838606D01*
X195498112Y-64879122D01*
X195499341Y-64883349D01*
X195503080Y-64889672D01*
X195509539Y-64900593D01*
X195518095Y-64918059D01*
X195525473Y-64936691D01*
X195543867Y-64962009D01*
X195552857Y-64974382D01*
X195556065Y-64979266D01*
X195571853Y-65005962D01*
X195589037Y-65073685D01*
X195566878Y-65139948D01*
X195512412Y-65183712D01*
X195455396Y-65192702D01*
X195414698Y-65189500D01*
X195414694Y-65189500D01*
X194983306Y-65189500D01*
X194983304Y-65189500D01*
X194946432Y-65192401D01*
X194946426Y-65192402D01*
X194788606Y-65238254D01*
X194788603Y-65238255D01*
X194647137Y-65321917D01*
X194647133Y-65321920D01*
X194630985Y-65338069D01*
X194590871Y-65378182D01*
X194529551Y-65411666D01*
X194503192Y-65414500D01*
X193757743Y-65414500D01*
X193742122Y-65412775D01*
X193742095Y-65413061D01*
X193734333Y-65412326D01*
X193665172Y-65414500D01*
X193635649Y-65414500D01*
X193628778Y-65415367D01*
X193622959Y-65415825D01*
X193576374Y-65417289D01*
X193576368Y-65417290D01*
X193557126Y-65422880D01*
X193538087Y-65426823D01*
X193518217Y-65429334D01*
X193518203Y-65429337D01*
X193474883Y-65446488D01*
X193469358Y-65448380D01*
X193424613Y-65461380D01*
X193424610Y-65461381D01*
X193407366Y-65471579D01*
X193389905Y-65480133D01*
X193371274Y-65487510D01*
X193371262Y-65487517D01*
X193333570Y-65514902D01*
X193328687Y-65518109D01*
X193288583Y-65541827D01*
X193282587Y-65546479D01*
X193217551Y-65572014D01*
X193206586Y-65572500D01*
X192823309Y-65572500D01*
X192756270Y-65552815D01*
X192735628Y-65536181D01*
X192729370Y-65529923D01*
X192729362Y-65529917D01*
X192611275Y-65460081D01*
X192587898Y-65446256D01*
X192587897Y-65446255D01*
X192587896Y-65446255D01*
X192587893Y-65446254D01*
X192430073Y-65400402D01*
X192430067Y-65400401D01*
X192393196Y-65397500D01*
X192393194Y-65397500D01*
X191227000Y-65397500D01*
X191159961Y-65377815D01*
X191114206Y-65325011D01*
X191103000Y-65273500D01*
X191103000Y-65032304D01*
X191100098Y-64995432D01*
X191100097Y-64995426D01*
X191057321Y-64848194D01*
X191054244Y-64837602D01*
X190970581Y-64696135D01*
X190970579Y-64696133D01*
X190970576Y-64696129D01*
X190854370Y-64579923D01*
X190854361Y-64579916D01*
X190763939Y-64526441D01*
X190716255Y-64475372D01*
X190703752Y-64406630D01*
X190730397Y-64342041D01*
X190763940Y-64312976D01*
X190854055Y-64259682D01*
X190854061Y-64259678D01*
X190970178Y-64143561D01*
X190970185Y-64143552D01*
X191053781Y-64002198D01*
X191099600Y-63844486D01*
X191099795Y-63842001D01*
X191099795Y-63842000D01*
X188630205Y-63842000D01*
X188630204Y-63842001D01*
X188630399Y-63844486D01*
X188676218Y-64002198D01*
X188759814Y-64143552D01*
X188759821Y-64143561D01*
X188875938Y-64259678D01*
X188875946Y-64259684D01*
X188966060Y-64312977D01*
X189013743Y-64364046D01*
X189026247Y-64432787D01*
X188999602Y-64497377D01*
X188966061Y-64526441D01*
X188875635Y-64579919D01*
X188875629Y-64579923D01*
X188759423Y-64696129D01*
X188759417Y-64696137D01*
X188675755Y-64837603D01*
X188675753Y-64837606D01*
X188650917Y-64923095D01*
X188613311Y-64981981D01*
X188549838Y-65011187D01*
X188531841Y-65012500D01*
X188449000Y-65012500D01*
X188381961Y-64992815D01*
X188336206Y-64940011D01*
X188325000Y-64888500D01*
X188324999Y-63627354D01*
X188344684Y-63560315D01*
X188397487Y-63514560D01*
X188466646Y-63504616D01*
X188474776Y-63506063D01*
X188500354Y-63511500D01*
X188689644Y-63511500D01*
X188689646Y-63511500D01*
X188874803Y-63472144D01*
X189047730Y-63395151D01*
X189088291Y-63365681D01*
X189154097Y-63342202D01*
X189161176Y-63342000D01*
X189615000Y-63342000D01*
X189615000Y-62792000D01*
X189613274Y-62790274D01*
X189552113Y-62772315D01*
X189506358Y-62719511D01*
X189495831Y-62655040D01*
X189500460Y-62611000D01*
X189500459Y-62610998D01*
X189501139Y-62604536D01*
X189503888Y-62604824D01*
X189520145Y-62549461D01*
X189572949Y-62503706D01*
X189624460Y-62492500D01*
X190378000Y-62492500D01*
X190445039Y-62512185D01*
G37*
%TD.AperFunction*%
%TA.AperFunction,Conductor*%
G36*
X188224587Y-58303185D02*
G01*
X188245229Y-58319819D01*
X188445194Y-58519784D01*
X188455017Y-58532045D01*
X188455239Y-58531863D01*
X188460212Y-58537875D01*
X188460213Y-58537876D01*
X188460214Y-58537877D01*
X188462047Y-58539598D01*
X188510636Y-58585227D01*
X188531523Y-58606115D01*
X188531527Y-58606118D01*
X188531529Y-58606120D01*
X188537011Y-58610373D01*
X188541443Y-58614157D01*
X188575418Y-58646062D01*
X188592976Y-58655714D01*
X188609235Y-58666395D01*
X188625064Y-58678673D01*
X188667838Y-58697182D01*
X188673056Y-58699738D01*
X188713908Y-58722197D01*
X188733316Y-58727180D01*
X188751717Y-58733480D01*
X188770104Y-58741437D01*
X188781265Y-58743204D01*
X188844400Y-58773132D01*
X188849550Y-58777997D01*
X188875629Y-58804076D01*
X188875633Y-58804079D01*
X188875635Y-58804081D01*
X189017102Y-58887744D01*
X189023539Y-58889614D01*
X189174926Y-58933597D01*
X189174929Y-58933597D01*
X189174931Y-58933598D01*
X189187222Y-58934565D01*
X189211804Y-58936500D01*
X189211806Y-58936500D01*
X190378000Y-58936500D01*
X190445039Y-58956185D01*
X190490794Y-59008989D01*
X190502000Y-59060500D01*
X190502000Y-59112000D01*
X190482315Y-59179039D01*
X190429511Y-59224794D01*
X190378000Y-59236000D01*
X190115000Y-59236000D01*
X190115000Y-59786000D01*
X190770685Y-59786000D01*
X190833806Y-59803268D01*
X190892102Y-59837744D01*
X190916585Y-59844857D01*
X191049926Y-59883597D01*
X191049929Y-59883597D01*
X191049931Y-59883598D01*
X191062222Y-59884565D01*
X191086804Y-59886500D01*
X191086806Y-59886500D01*
X192393196Y-59886500D01*
X192411631Y-59885049D01*
X192430069Y-59883598D01*
X192430071Y-59883597D01*
X192430073Y-59883597D01*
X192476594Y-59870081D01*
X192587898Y-59837744D01*
X192729365Y-59754081D01*
X192732045Y-59751401D01*
X192735628Y-59747819D01*
X192796951Y-59714334D01*
X192823309Y-59711500D01*
X194534191Y-59711500D01*
X194601230Y-59731185D01*
X194621872Y-59747819D01*
X194647129Y-59773076D01*
X194647133Y-59773079D01*
X194647135Y-59773081D01*
X194788602Y-59856744D01*
X194820774Y-59866091D01*
X194946426Y-59902597D01*
X194946429Y-59902597D01*
X194946431Y-59902598D01*
X194958722Y-59903565D01*
X194983304Y-59905500D01*
X194983306Y-59905500D01*
X195414696Y-59905500D01*
X195433131Y-59904049D01*
X195451569Y-59902598D01*
X195451571Y-59902597D01*
X195451573Y-59902597D01*
X195506978Y-59886500D01*
X195609398Y-59856744D01*
X195643880Y-59836351D01*
X195711601Y-59819168D01*
X195770119Y-59836350D01*
X195804602Y-59856744D01*
X195804604Y-59856744D01*
X195804605Y-59856745D01*
X195962426Y-59902597D01*
X195962429Y-59902597D01*
X195962431Y-59902598D01*
X195974722Y-59903565D01*
X195999304Y-59905500D01*
X195999306Y-59905500D01*
X196430696Y-59905500D01*
X196449131Y-59904049D01*
X196467569Y-59902598D01*
X196467571Y-59902597D01*
X196467573Y-59902597D01*
X196495946Y-59894354D01*
X196565815Y-59894553D01*
X196624485Y-59932495D01*
X196653329Y-59996133D01*
X196654541Y-60013430D01*
X196654541Y-61142072D01*
X196634856Y-61209111D01*
X196582052Y-61254866D01*
X196561379Y-61262176D01*
X196451550Y-61290375D01*
X196451542Y-61290378D01*
X196315826Y-61364988D01*
X196311424Y-61368749D01*
X196247663Y-61397320D01*
X196230892Y-61398459D01*
X195442864Y-61398459D01*
X195379743Y-61381191D01*
X195327847Y-61350500D01*
X195278398Y-61321256D01*
X195278397Y-61321255D01*
X195278396Y-61321255D01*
X195278393Y-61321254D01*
X195120573Y-61275402D01*
X195120567Y-61275401D01*
X195083696Y-61272500D01*
X195083694Y-61272500D01*
X194552306Y-61272500D01*
X194552304Y-61272500D01*
X194515432Y-61275401D01*
X194515426Y-61275402D01*
X194357606Y-61321254D01*
X194357603Y-61321255D01*
X194216137Y-61404917D01*
X194216129Y-61404923D01*
X194099923Y-61521129D01*
X194099917Y-61521137D01*
X194016255Y-61662603D01*
X194016254Y-61662606D01*
X193970402Y-61820426D01*
X193970401Y-61820432D01*
X193967500Y-61857304D01*
X193967500Y-62166123D01*
X193947815Y-62233162D01*
X193895011Y-62278917D01*
X193825853Y-62288861D01*
X193762297Y-62259836D01*
X193747956Y-62245163D01*
X193743787Y-62240124D01*
X193736373Y-62233162D01*
X193693364Y-62192773D01*
X193682919Y-62182328D01*
X193672475Y-62171883D01*
X193666986Y-62167625D01*
X193662561Y-62163847D01*
X193628582Y-62131938D01*
X193628580Y-62131936D01*
X193628577Y-62131935D01*
X193611029Y-62122288D01*
X193594763Y-62111604D01*
X193578933Y-62099325D01*
X193536168Y-62080818D01*
X193530922Y-62078248D01*
X193490093Y-62055803D01*
X193490092Y-62055802D01*
X193470693Y-62050822D01*
X193452281Y-62044518D01*
X193433898Y-62036562D01*
X193433892Y-62036560D01*
X193387874Y-62029272D01*
X193382152Y-62028087D01*
X193337021Y-62016500D01*
X193337019Y-62016500D01*
X193316984Y-62016500D01*
X193297586Y-62014973D01*
X193290162Y-62013797D01*
X193277805Y-62011840D01*
X193277804Y-62011840D01*
X193231416Y-62016225D01*
X193225578Y-62016500D01*
X192823309Y-62016500D01*
X192756270Y-61996815D01*
X192735628Y-61980181D01*
X192729370Y-61973923D01*
X192729362Y-61973917D01*
X192587896Y-61890255D01*
X192587893Y-61890254D01*
X192430073Y-61844402D01*
X192430067Y-61844401D01*
X192393196Y-61841500D01*
X192393194Y-61841500D01*
X191227000Y-61841500D01*
X191159961Y-61821815D01*
X191114206Y-61769011D01*
X191103000Y-61717500D01*
X191103000Y-61476304D01*
X191100098Y-61439432D01*
X191100097Y-61439426D01*
X191056793Y-61290375D01*
X191054244Y-61281602D01*
X190970581Y-61140135D01*
X190970579Y-61140133D01*
X190970576Y-61140129D01*
X190854370Y-61023923D01*
X190854361Y-61023916D01*
X190763939Y-60970441D01*
X190716255Y-60919372D01*
X190703752Y-60850630D01*
X190730397Y-60786041D01*
X190763940Y-60756976D01*
X190854055Y-60703682D01*
X190854061Y-60703678D01*
X190970178Y-60587561D01*
X190970185Y-60587552D01*
X191053781Y-60446198D01*
X191099600Y-60288486D01*
X191099795Y-60286001D01*
X191099795Y-60286000D01*
X188674862Y-60286000D01*
X188607823Y-60266315D01*
X188587577Y-60250000D01*
X188458352Y-60250000D01*
X188395233Y-60232732D01*
X188386395Y-60227506D01*
X188386393Y-60227505D01*
X188386389Y-60227503D01*
X188230997Y-60182357D01*
X188230991Y-60182356D01*
X188194692Y-60179500D01*
X188194690Y-60179500D01*
X187725310Y-60179500D01*
X187725308Y-60179500D01*
X187689008Y-60182356D01*
X187689002Y-60182357D01*
X187533610Y-60227503D01*
X187533605Y-60227506D01*
X187524766Y-60232732D01*
X187461648Y-60250000D01*
X187234000Y-60250000D01*
X187166961Y-60230315D01*
X187121206Y-60177511D01*
X187110000Y-60126000D01*
X187110000Y-60119724D01*
X187129685Y-60052685D01*
X187159685Y-60020461D01*
X187235046Y-59964046D01*
X187286863Y-59894827D01*
X187321294Y-59848834D01*
X187321294Y-59848833D01*
X187321296Y-59848831D01*
X187328070Y-59830667D01*
X187369941Y-59774734D01*
X187435405Y-59750316D01*
X187444252Y-59750000D01*
X187710000Y-59750000D01*
X187710000Y-59221210D01*
X187709999Y-59221209D01*
X188210000Y-59221209D01*
X188210000Y-59750000D01*
X188722638Y-59750000D01*
X188789677Y-59769685D01*
X188809923Y-59786000D01*
X189615000Y-59786000D01*
X189615000Y-59236000D01*
X189211856Y-59236000D01*
X189175010Y-59238899D01*
X189175004Y-59238900D01*
X189017306Y-59284716D01*
X189017303Y-59284717D01*
X188875947Y-59368314D01*
X188875938Y-59368321D01*
X188797360Y-59446900D01*
X188736037Y-59480385D01*
X188666345Y-59475401D01*
X188621998Y-59446900D01*
X188525383Y-59350285D01*
X188525374Y-59350278D01*
X188386195Y-59267968D01*
X188386190Y-59267966D01*
X188230918Y-59222855D01*
X188230912Y-59222854D01*
X188210000Y-59221209D01*
X187709999Y-59221209D01*
X187689087Y-59222854D01*
X187689081Y-59222855D01*
X187651092Y-59233892D01*
X187581223Y-59233691D01*
X187522554Y-59195748D01*
X187493712Y-59132109D01*
X187492500Y-59114815D01*
X187492500Y-59063156D01*
X187512185Y-58996117D01*
X187524351Y-58980183D01*
X187549533Y-58952216D01*
X187644179Y-58788284D01*
X187702674Y-58608256D01*
X187722460Y-58420000D01*
X187722460Y-58419997D01*
X187722460Y-58413502D01*
X187723782Y-58413502D01*
X187735076Y-58351735D01*
X187782807Y-58300710D01*
X187845829Y-58283500D01*
X188157548Y-58283500D01*
X188224587Y-58303185D01*
G37*
%TD.AperFunction*%
%TA.AperFunction,Conductor*%
G36*
X184509097Y-58858946D02*
G01*
X184546311Y-58918080D01*
X184545647Y-58987947D01*
X184535842Y-59011305D01*
X184534147Y-59014408D01*
X184483903Y-59149120D01*
X184483901Y-59149126D01*
X184478942Y-59195256D01*
X184452204Y-59259807D01*
X184394812Y-59299655D01*
X184355653Y-59306000D01*
X183631000Y-59306000D01*
X183563961Y-59286315D01*
X183518206Y-59233511D01*
X183507000Y-59182000D01*
X183507000Y-58955962D01*
X183526685Y-58888923D01*
X183579489Y-58843168D01*
X183648647Y-58833224D01*
X183681432Y-58842681D01*
X183744620Y-58870815D01*
X183929777Y-58910171D01*
X183929778Y-58910171D01*
X184119067Y-58910171D01*
X184119069Y-58910171D01*
X184304226Y-58870815D01*
X184376573Y-58838603D01*
X184445820Y-58829318D01*
X184509097Y-58858946D01*
G37*
%TD.AperFunction*%
%TA.AperFunction,Conductor*%
G36*
X198436539Y-56757185D02*
G01*
X198482294Y-56809989D01*
X198493500Y-56861500D01*
X198493500Y-68155500D01*
X198473815Y-68222539D01*
X198421011Y-68268294D01*
X198369500Y-68279500D01*
X134424500Y-68279500D01*
X134357461Y-68259815D01*
X134311706Y-68207011D01*
X134300500Y-68155500D01*
X134300500Y-67313345D01*
X140177207Y-67313345D01*
X140286504Y-67345099D01*
X140286510Y-67345100D01*
X140323356Y-67348000D01*
X140854644Y-67348000D01*
X140891489Y-67345100D01*
X140891495Y-67345099D01*
X141000791Y-67313345D01*
X141000791Y-67313344D01*
X140589001Y-66901553D01*
X140589000Y-66901553D01*
X140177207Y-67313344D01*
X140177207Y-67313345D01*
X134300500Y-67313345D01*
X134300500Y-65650000D01*
X134725000Y-65650000D01*
X134725000Y-65750000D01*
X135650376Y-65750000D01*
X135577455Y-65764505D01*
X135494760Y-65819760D01*
X135439505Y-65902455D01*
X135420102Y-66000000D01*
X135439505Y-66097545D01*
X135494760Y-66180240D01*
X135577455Y-66235495D01*
X135650376Y-66250000D01*
X134754862Y-66250000D01*
X134817198Y-66418314D01*
X134817202Y-66418323D01*
X134918859Y-66581419D01*
X134918864Y-66581424D01*
X135051274Y-66720720D01*
X135209025Y-66830518D01*
X135385642Y-66906310D01*
X135573903Y-66945000D01*
X135750000Y-66945000D01*
X135750000Y-66250000D01*
X136250000Y-66250000D01*
X136250000Y-66945000D01*
X136377921Y-66945000D01*
X136521209Y-66930429D01*
X136704579Y-66872896D01*
X136704589Y-66872891D01*
X136872633Y-66779619D01*
X136872634Y-66779619D01*
X137018460Y-66654432D01*
X137018461Y-66654431D01*
X137136102Y-66502451D01*
X137136104Y-66502447D01*
X137220745Y-66329893D01*
X137241432Y-66250000D01*
X136349624Y-66250000D01*
X136422545Y-66235495D01*
X136505240Y-66180240D01*
X136560495Y-66097545D01*
X136579898Y-66000000D01*
X136560495Y-65902455D01*
X136505240Y-65819760D01*
X136422545Y-65764505D01*
X136349624Y-65750000D01*
X137275000Y-65750000D01*
X137275000Y-65650000D01*
X134725000Y-65650000D01*
X134300500Y-65650000D01*
X134300500Y-63750000D01*
X134725000Y-63750000D01*
X134725000Y-64297844D01*
X134731401Y-64357372D01*
X134731403Y-64357380D01*
X134777759Y-64481667D01*
X134782743Y-64551359D01*
X134777759Y-64568333D01*
X134731403Y-64692619D01*
X134731401Y-64692627D01*
X134725000Y-64752155D01*
X134725000Y-65150000D01*
X135750000Y-65150000D01*
X135750000Y-63750000D01*
X136250000Y-63750000D01*
X136250000Y-65150000D01*
X137275000Y-65150000D01*
X137275000Y-64752172D01*
X137274999Y-64752155D01*
X137268598Y-64692627D01*
X137268595Y-64692616D01*
X137222240Y-64568334D01*
X137217255Y-64498643D01*
X137222240Y-64481666D01*
X137268595Y-64357383D01*
X137268598Y-64357372D01*
X137274999Y-64297844D01*
X137275000Y-64297827D01*
X137275000Y-63750000D01*
X136250000Y-63750000D01*
X135750000Y-63750000D01*
X134725000Y-63750000D01*
X134300500Y-63750000D01*
X134300500Y-63397870D01*
X137524500Y-63397870D01*
X137524501Y-63397876D01*
X137531619Y-63464092D01*
X137531619Y-63490599D01*
X137525000Y-63552169D01*
X137525000Y-63600000D01*
X137525051Y-63600051D01*
X137591915Y-63619685D01*
X137624140Y-63649686D01*
X137667454Y-63707546D01*
X137689112Y-63723759D01*
X137759876Y-63776734D01*
X137801747Y-63832668D01*
X137806731Y-63902359D01*
X137773245Y-63963682D01*
X137711922Y-63997166D01*
X137685565Y-64000000D01*
X137525000Y-64000000D01*
X137525000Y-64047844D01*
X137531401Y-64107372D01*
X137531403Y-64107379D01*
X137581645Y-64242086D01*
X137581649Y-64242093D01*
X137667809Y-64357187D01*
X137667812Y-64357190D01*
X137727953Y-64402212D01*
X137769824Y-64458146D01*
X137774808Y-64527837D01*
X137767596Y-64550371D01*
X137764917Y-64556613D01*
X137725175Y-64749999D01*
X137725175Y-64750000D01*
X138439503Y-64750000D01*
X138425000Y-64822912D01*
X138425000Y-65177088D01*
X138439503Y-65250000D01*
X137730141Y-65250000D01*
X137740032Y-65347279D01*
X137799392Y-65536471D01*
X137799399Y-65536486D01*
X137895627Y-65709856D01*
X137895630Y-65709861D01*
X138024791Y-65860315D01*
X138024792Y-65860317D01*
X138181597Y-65981693D01*
X138181601Y-65981695D01*
X138359629Y-66069022D01*
X138449999Y-66092420D01*
X138450000Y-66092420D01*
X138450000Y-65270836D01*
X138501736Y-65348264D01*
X138592700Y-65409045D01*
X138700000Y-65430388D01*
X138807300Y-65409045D01*
X138898264Y-65348264D01*
X138950000Y-65270836D01*
X138950000Y-66097130D01*
X139131591Y-66029877D01*
X139131598Y-66029873D01*
X139299883Y-65924980D01*
X139443601Y-65788366D01*
X139443602Y-65788365D01*
X139513242Y-65688310D01*
X139567696Y-65644532D01*
X139637173Y-65637143D01*
X139699617Y-65668489D01*
X139735200Y-65728619D01*
X139738635Y-65749417D01*
X139741401Y-65784567D01*
X139741402Y-65784573D01*
X139787254Y-65942393D01*
X139787256Y-65942398D01*
X139807938Y-65977371D01*
X139825119Y-66045095D01*
X139807939Y-66103609D01*
X139787718Y-66137802D01*
X139787716Y-66137806D01*
X139741900Y-66295504D01*
X139741899Y-66295510D01*
X139739000Y-66332356D01*
X139739000Y-66763644D01*
X139741899Y-66800489D01*
X139741900Y-66800495D01*
X139787716Y-66958193D01*
X139787717Y-66958196D01*
X139801665Y-66981781D01*
X140414628Y-66368819D01*
X140475951Y-66335334D01*
X140502309Y-66332500D01*
X140675691Y-66332500D01*
X140742730Y-66352185D01*
X140763372Y-66368819D01*
X141376333Y-66981781D01*
X141390282Y-66958197D01*
X141390283Y-66958193D01*
X141436099Y-66800495D01*
X141436100Y-66800489D01*
X141439000Y-66763644D01*
X141439000Y-66332356D01*
X141436100Y-66295510D01*
X141436099Y-66295504D01*
X141390283Y-66137806D01*
X141390283Y-66137805D01*
X141370061Y-66103612D01*
X141352878Y-66035888D01*
X141370061Y-65977369D01*
X141390744Y-65942398D01*
X141436598Y-65784569D01*
X141439319Y-65750000D01*
X141439500Y-65747696D01*
X141439500Y-65316304D01*
X141436598Y-65279432D01*
X141436597Y-65279426D01*
X141392372Y-65127206D01*
X141390744Y-65121602D01*
X141307081Y-64980135D01*
X141307079Y-64980133D01*
X141307076Y-64980129D01*
X141250819Y-64923872D01*
X141217334Y-64862549D01*
X141214500Y-64836191D01*
X141214500Y-64674452D01*
X141234185Y-64607413D01*
X141286989Y-64561658D01*
X141356147Y-64551714D01*
X141419703Y-64580739D01*
X141426171Y-64586761D01*
X141455911Y-64616502D01*
X141485198Y-64645789D01*
X141495022Y-64658051D01*
X141495243Y-64657869D01*
X141500214Y-64663878D01*
X141521045Y-64683439D01*
X141550635Y-64711226D01*
X141571529Y-64732120D01*
X141577011Y-64736373D01*
X141581443Y-64740157D01*
X141615418Y-64772062D01*
X141632976Y-64781714D01*
X141649235Y-64792395D01*
X141665064Y-64804673D01*
X141707838Y-64823182D01*
X141713056Y-64825738D01*
X141753908Y-64848197D01*
X141773316Y-64853180D01*
X141791717Y-64859480D01*
X141810104Y-64867437D01*
X141853488Y-64874308D01*
X141856119Y-64874725D01*
X141861839Y-64875909D01*
X141906981Y-64887500D01*
X141927016Y-64887500D01*
X141946414Y-64889026D01*
X141966194Y-64892159D01*
X141966195Y-64892160D01*
X141966195Y-64892159D01*
X141966196Y-64892160D01*
X142012584Y-64887775D01*
X142018422Y-64887500D01*
X142754053Y-64887500D01*
X142821092Y-64907185D01*
X142866847Y-64959989D01*
X142876791Y-65029147D01*
X142847766Y-65092703D01*
X142805833Y-65121816D01*
X142806454Y-65122953D01*
X142798664Y-65127206D01*
X142683455Y-65213452D01*
X142683452Y-65213455D01*
X142597206Y-65328664D01*
X142597202Y-65328671D01*
X142546908Y-65463517D01*
X142540501Y-65523116D01*
X142540500Y-65523135D01*
X142540500Y-67318870D01*
X142540501Y-67318876D01*
X142546908Y-67378483D01*
X142597202Y-67513328D01*
X142597206Y-67513335D01*
X142683452Y-67628544D01*
X142683455Y-67628547D01*
X142798664Y-67714793D01*
X142798671Y-67714797D01*
X142933517Y-67765091D01*
X142933516Y-67765091D01*
X142935963Y-67765354D01*
X142993127Y-67771500D01*
X144788872Y-67771499D01*
X144848483Y-67765091D01*
X144983331Y-67714796D01*
X145098546Y-67628546D01*
X145184796Y-67513331D01*
X145233810Y-67381916D01*
X145275681Y-67325984D01*
X145341145Y-67301566D01*
X145409418Y-67316417D01*
X145437673Y-67337569D01*
X145559599Y-67459495D01*
X145656384Y-67527265D01*
X145753165Y-67595032D01*
X145753167Y-67595033D01*
X145753170Y-67595035D01*
X145967337Y-67694903D01*
X145967343Y-67694904D01*
X145967344Y-67694905D01*
X145984721Y-67699561D01*
X146195592Y-67756063D01*
X146372034Y-67771500D01*
X146430999Y-67776659D01*
X146431000Y-67776659D01*
X146431001Y-67776659D01*
X146470234Y-67773226D01*
X146666408Y-67756063D01*
X146894663Y-67694903D01*
X147108830Y-67595035D01*
X147302401Y-67459495D01*
X147469495Y-67292401D01*
X147599730Y-67106405D01*
X147654307Y-67062781D01*
X147723805Y-67055587D01*
X147786160Y-67087110D01*
X147802879Y-67106405D01*
X147932890Y-67292078D01*
X148099917Y-67459105D01*
X148293421Y-67594600D01*
X148507507Y-67694429D01*
X148507516Y-67694433D01*
X148721000Y-67751634D01*
X148721000Y-66856501D01*
X148828685Y-66905680D01*
X148935237Y-66921000D01*
X149006763Y-66921000D01*
X149113315Y-66905680D01*
X149221000Y-66856501D01*
X149221000Y-67751633D01*
X149434483Y-67694433D01*
X149434492Y-67694429D01*
X149648578Y-67594600D01*
X149842082Y-67459105D01*
X150009105Y-67292082D01*
X150139119Y-67106405D01*
X150193696Y-67062781D01*
X150263195Y-67055588D01*
X150325549Y-67087110D01*
X150342269Y-67106405D01*
X150472505Y-67292401D01*
X150639599Y-67459495D01*
X150736384Y-67527265D01*
X150833165Y-67595032D01*
X150833167Y-67595033D01*
X150833170Y-67595035D01*
X151047337Y-67694903D01*
X151047343Y-67694904D01*
X151047344Y-67694905D01*
X151064721Y-67699561D01*
X151275592Y-67756063D01*
X151452034Y-67771500D01*
X151510999Y-67776659D01*
X151511000Y-67776659D01*
X151511001Y-67776659D01*
X151550234Y-67773226D01*
X151746408Y-67756063D01*
X151974663Y-67694903D01*
X152188830Y-67595035D01*
X152382401Y-67459495D01*
X152549495Y-67292401D01*
X152679425Y-67106842D01*
X152734002Y-67063217D01*
X152803500Y-67056023D01*
X152865855Y-67087546D01*
X152882575Y-67106842D01*
X153012500Y-67292395D01*
X153012505Y-67292401D01*
X153179599Y-67459495D01*
X153276384Y-67527265D01*
X153373165Y-67595032D01*
X153373167Y-67595033D01*
X153373170Y-67595035D01*
X153587337Y-67694903D01*
X153587343Y-67694904D01*
X153587344Y-67694905D01*
X153604721Y-67699561D01*
X153815592Y-67756063D01*
X153992034Y-67771500D01*
X154050999Y-67776659D01*
X154051000Y-67776659D01*
X154051001Y-67776659D01*
X154090234Y-67773226D01*
X154286408Y-67756063D01*
X154514663Y-67694903D01*
X154728830Y-67595035D01*
X154922401Y-67459495D01*
X155089495Y-67292401D01*
X155225035Y-67098830D01*
X155277649Y-66986000D01*
X157136000Y-66986000D01*
X157136000Y-67108844D01*
X157142401Y-67168372D01*
X157142403Y-67168379D01*
X157192645Y-67303086D01*
X157192649Y-67303093D01*
X157278809Y-67418187D01*
X157278812Y-67418190D01*
X157393906Y-67504350D01*
X157393913Y-67504354D01*
X157528620Y-67554596D01*
X157528627Y-67554598D01*
X157588155Y-67560999D01*
X157588172Y-67561000D01*
X158166000Y-67561000D01*
X158166000Y-66986000D01*
X157136000Y-66986000D01*
X155277649Y-66986000D01*
X155324903Y-66884663D01*
X155386063Y-66656408D01*
X155406659Y-66421000D01*
X155405546Y-66408284D01*
X155395333Y-66291544D01*
X155386063Y-66185592D01*
X155345980Y-66036000D01*
X157136000Y-66036000D01*
X157136000Y-66158844D01*
X157142401Y-66218371D01*
X157144186Y-66225927D01*
X157142754Y-66226265D01*
X157147119Y-66287370D01*
X157142632Y-66302649D01*
X157142401Y-66303624D01*
X157136000Y-66363155D01*
X157136000Y-66486000D01*
X158166000Y-66486000D01*
X158166000Y-66036000D01*
X157136000Y-66036000D01*
X155345980Y-66036000D01*
X155326565Y-65963540D01*
X155324905Y-65957344D01*
X155324904Y-65957343D01*
X155324903Y-65957337D01*
X155225035Y-65743171D01*
X155219731Y-65735595D01*
X155089494Y-65549597D01*
X154922402Y-65382506D01*
X154922395Y-65382501D01*
X154916225Y-65378181D01*
X154845518Y-65328671D01*
X154728834Y-65246967D01*
X154728830Y-65246965D01*
X154714134Y-65240112D01*
X154514663Y-65147097D01*
X154514659Y-65147096D01*
X154514655Y-65147094D01*
X154286413Y-65085938D01*
X154286403Y-65085936D01*
X154051001Y-65065341D01*
X154050999Y-65065341D01*
X153815596Y-65085936D01*
X153815586Y-65085938D01*
X153587344Y-65147094D01*
X153587335Y-65147098D01*
X153373171Y-65246964D01*
X153373169Y-65246965D01*
X153179597Y-65382505D01*
X153012505Y-65549597D01*
X152882575Y-65735158D01*
X152827998Y-65778783D01*
X152758500Y-65785977D01*
X152696145Y-65754454D01*
X152679425Y-65735158D01*
X152549494Y-65549597D01*
X152382402Y-65382506D01*
X152382395Y-65382501D01*
X152376225Y-65378181D01*
X152305518Y-65328671D01*
X152188834Y-65246967D01*
X152188830Y-65246965D01*
X152174134Y-65240112D01*
X151974663Y-65147097D01*
X151974659Y-65147096D01*
X151974655Y-65147094D01*
X151746413Y-65085938D01*
X151746403Y-65085936D01*
X151511001Y-65065341D01*
X151510999Y-65065341D01*
X151275596Y-65085936D01*
X151275586Y-65085938D01*
X151047344Y-65147094D01*
X151047335Y-65147098D01*
X150833171Y-65246964D01*
X150833169Y-65246965D01*
X150639597Y-65382505D01*
X150472508Y-65549594D01*
X150342269Y-65735595D01*
X150287692Y-65779219D01*
X150218193Y-65786412D01*
X150155839Y-65754890D01*
X150139119Y-65735594D01*
X150009113Y-65549926D01*
X150009108Y-65549920D01*
X149842082Y-65382894D01*
X149648578Y-65247399D01*
X149434492Y-65147570D01*
X149434483Y-65147566D01*
X149373682Y-65131275D01*
X149314021Y-65094910D01*
X149283492Y-65032063D01*
X149291787Y-64962688D01*
X149336272Y-64908810D01*
X149402824Y-64887535D01*
X149405775Y-64887500D01*
X150539257Y-64887500D01*
X150554877Y-64889224D01*
X150554904Y-64888939D01*
X150562660Y-64889671D01*
X150562667Y-64889673D01*
X150631814Y-64887500D01*
X150661350Y-64887500D01*
X150668228Y-64886630D01*
X150674041Y-64886172D01*
X150720627Y-64884709D01*
X150739869Y-64879117D01*
X150758912Y-64875174D01*
X150778792Y-64872664D01*
X150822122Y-64855507D01*
X150827646Y-64853617D01*
X150831396Y-64852527D01*
X150872390Y-64840618D01*
X150889629Y-64830422D01*
X150907103Y-64821862D01*
X150925727Y-64814488D01*
X150925727Y-64814487D01*
X150925732Y-64814486D01*
X150963449Y-64787082D01*
X150968305Y-64783892D01*
X151008420Y-64760170D01*
X151022586Y-64746003D01*
X151037381Y-64733368D01*
X151053584Y-64721596D01*
X151053583Y-64721596D01*
X151053587Y-64721594D01*
X151083299Y-64685677D01*
X151087210Y-64681379D01*
X151132789Y-64635800D01*
X151145050Y-64625979D01*
X151144867Y-64625758D01*
X151150876Y-64620787D01*
X151167110Y-64603500D01*
X151198227Y-64570363D01*
X151219120Y-64549471D01*
X151223379Y-64543978D01*
X151227152Y-64539561D01*
X151259062Y-64505582D01*
X151268713Y-64488024D01*
X151279396Y-64471761D01*
X151291673Y-64455936D01*
X151310185Y-64413153D01*
X151312738Y-64407941D01*
X151335197Y-64367092D01*
X151340180Y-64347680D01*
X151346481Y-64329280D01*
X151354437Y-64310896D01*
X151361729Y-64264852D01*
X151362906Y-64259171D01*
X151374500Y-64214019D01*
X151374500Y-64193983D01*
X151376027Y-64174582D01*
X151376069Y-64174319D01*
X151379160Y-64154804D01*
X151374775Y-64108415D01*
X151374500Y-64102577D01*
X151374500Y-63995500D01*
X151394185Y-63928461D01*
X151446989Y-63882706D01*
X151498500Y-63871500D01*
X152997061Y-63871500D01*
X153064100Y-63891185D01*
X153103792Y-63932378D01*
X153114298Y-63950142D01*
X153128917Y-63974862D01*
X153128923Y-63974870D01*
X153245129Y-64091076D01*
X153245133Y-64091079D01*
X153245135Y-64091081D01*
X153386602Y-64174744D01*
X153419236Y-64184225D01*
X153544426Y-64220597D01*
X153544429Y-64220597D01*
X153544431Y-64220598D01*
X153556722Y-64221565D01*
X153581304Y-64223500D01*
X153581306Y-64223500D01*
X154012696Y-64223500D01*
X154031131Y-64222049D01*
X154049569Y-64220598D01*
X154049571Y-64220597D01*
X154049573Y-64220597D01*
X154091191Y-64208505D01*
X154207398Y-64174744D01*
X154242369Y-64154062D01*
X154310089Y-64136878D01*
X154368612Y-64154061D01*
X154402806Y-64174283D01*
X154560504Y-64220099D01*
X154560510Y-64220100D01*
X154597356Y-64223000D01*
X155028644Y-64223000D01*
X155065489Y-64220100D01*
X155065495Y-64220099D01*
X155223193Y-64174283D01*
X155223197Y-64174282D01*
X155246781Y-64160333D01*
X154813000Y-63726553D01*
X154633819Y-63547372D01*
X154600334Y-63486049D01*
X154597500Y-63459691D01*
X154597500Y-63373000D01*
X155166553Y-63373000D01*
X155578344Y-63784792D01*
X155578345Y-63784792D01*
X155610099Y-63675495D01*
X155610100Y-63675489D01*
X155613000Y-63638644D01*
X155613000Y-63107356D01*
X155610100Y-63070515D01*
X155610100Y-63070512D01*
X155578344Y-62961206D01*
X155166553Y-63372999D01*
X155166553Y-63373000D01*
X154597500Y-63373000D01*
X154597500Y-63107309D01*
X154597532Y-63108118D01*
X154614566Y-63040357D01*
X154665531Y-62992561D01*
X154734245Y-62979907D01*
X154798893Y-63006412D01*
X154809117Y-63015563D01*
X154813000Y-63019446D01*
X154813001Y-63019446D01*
X155157946Y-62674501D01*
X155157946Y-62674499D01*
X154813001Y-62329553D01*
X154812999Y-62329553D01*
X154809116Y-62333436D01*
X154747793Y-62366921D01*
X154678101Y-62361935D01*
X154622168Y-62320063D01*
X154597752Y-62254599D01*
X154597532Y-62240874D01*
X154597500Y-62241688D01*
X154597500Y-61976000D01*
X155166553Y-61976000D01*
X155578344Y-62387792D01*
X155578345Y-62387792D01*
X155610099Y-62278495D01*
X155610100Y-62278489D01*
X155613000Y-62241644D01*
X155613000Y-61710356D01*
X155610100Y-61673515D01*
X155610100Y-61673512D01*
X155578344Y-61564206D01*
X155166553Y-61975999D01*
X155166553Y-61976000D01*
X154597500Y-61976000D01*
X154597500Y-61889309D01*
X154617185Y-61822270D01*
X154633819Y-61801628D01*
X155246781Y-61188665D01*
X155223196Y-61174717D01*
X155223193Y-61174716D01*
X155065495Y-61128900D01*
X155065489Y-61128899D01*
X155028644Y-61126000D01*
X154809380Y-61126000D01*
X154742341Y-61106315D01*
X154696586Y-61053511D01*
X154686059Y-60989042D01*
X154702460Y-60833000D01*
X154682674Y-60644744D01*
X154624179Y-60464716D01*
X154610950Y-60441804D01*
X154594478Y-60373905D01*
X154617331Y-60307878D01*
X154653242Y-60274266D01*
X154656332Y-60272360D01*
X154678044Y-60258968D01*
X154687668Y-60249343D01*
X154748987Y-60215856D01*
X154818679Y-60220835D01*
X154863034Y-60249339D01*
X154872267Y-60258572D01*
X154872271Y-60258575D01*
X155016507Y-60347542D01*
X155016518Y-60347547D01*
X155177393Y-60400855D01*
X155276683Y-60410999D01*
X155300000Y-60410998D01*
X155300000Y-59310000D01*
X155319685Y-59242961D01*
X155372489Y-59197206D01*
X155424000Y-59186000D01*
X155676000Y-59186000D01*
X155743039Y-59205685D01*
X155788794Y-59258489D01*
X155800000Y-59310000D01*
X155800000Y-60410999D01*
X155823308Y-60410999D01*
X155823322Y-60410998D01*
X155922607Y-60400855D01*
X156083481Y-60347547D01*
X156083492Y-60347542D01*
X156209403Y-60269879D01*
X156276795Y-60251438D01*
X156343459Y-60272360D01*
X156388228Y-60326002D01*
X156398500Y-60375417D01*
X156398500Y-61952951D01*
X156398387Y-61956696D01*
X156394932Y-62013818D01*
X156394642Y-62018606D01*
X156397932Y-62036560D01*
X156405821Y-62079612D01*
X156406384Y-62083313D01*
X156413859Y-62144870D01*
X156413860Y-62144874D01*
X156417451Y-62154343D01*
X156423474Y-62175946D01*
X156425304Y-62185930D01*
X156450759Y-62242490D01*
X156452189Y-62245941D01*
X156474182Y-62303930D01*
X156474183Y-62303931D01*
X156479936Y-62312266D01*
X156490961Y-62331813D01*
X156495120Y-62341055D01*
X156495124Y-62341060D01*
X156511479Y-62361935D01*
X156531757Y-62387819D01*
X156533371Y-62389878D01*
X156535591Y-62392896D01*
X156570812Y-62443924D01*
X156570816Y-62443928D01*
X156570817Y-62443929D01*
X156617250Y-62485064D01*
X156619941Y-62487598D01*
X156800331Y-62667988D01*
X156975548Y-62843205D01*
X157009033Y-62904528D01*
X157005798Y-62969203D01*
X156978059Y-63054577D01*
X156978057Y-63054583D01*
X156972511Y-63107356D01*
X156958271Y-63242840D01*
X156978057Y-63431096D01*
X156978058Y-63431099D01*
X157036549Y-63611117D01*
X157036552Y-63611124D01*
X157131196Y-63775054D01*
X157131201Y-63775061D01*
X157137492Y-63782047D01*
X157167313Y-63842671D01*
X157170553Y-63860350D01*
X157171116Y-63864051D01*
X157178590Y-63925601D01*
X157178591Y-63925605D01*
X157182182Y-63935074D01*
X157188205Y-63956677D01*
X157190035Y-63966661D01*
X157215490Y-64023221D01*
X157216920Y-64026672D01*
X157238913Y-64084661D01*
X157238914Y-64084663D01*
X157240065Y-64086856D01*
X157240422Y-64088640D01*
X157241573Y-64091674D01*
X157241068Y-64091865D01*
X157253793Y-64155364D01*
X157229538Y-64218797D01*
X157192204Y-64268668D01*
X157192202Y-64268671D01*
X157141910Y-64403513D01*
X157141909Y-64403517D01*
X157135500Y-64463127D01*
X157135500Y-64463134D01*
X157135500Y-64463135D01*
X157135500Y-65208870D01*
X157135501Y-65208876D01*
X157141909Y-65268487D01*
X157143692Y-65276031D01*
X157142438Y-65276327D01*
X157146856Y-65338069D01*
X157142864Y-65351664D01*
X157142401Y-65353624D01*
X157136000Y-65413155D01*
X157136000Y-65536000D01*
X157260499Y-65536000D01*
X157327538Y-65555685D01*
X157334794Y-65560722D01*
X157393665Y-65604793D01*
X157393668Y-65604795D01*
X157393671Y-65604797D01*
X157528517Y-65655091D01*
X157528516Y-65655091D01*
X157535444Y-65655835D01*
X157588127Y-65661500D01*
X159243872Y-65661499D01*
X159303483Y-65655091D01*
X159438331Y-65604796D01*
X159497191Y-65560733D01*
X159562653Y-65536316D01*
X159571501Y-65536000D01*
X159696000Y-65536000D01*
X159696000Y-65513793D01*
X159715685Y-65446754D01*
X159768489Y-65400999D01*
X159837647Y-65391055D01*
X159901203Y-65420080D01*
X159919266Y-65439482D01*
X159978452Y-65518544D01*
X159978455Y-65518547D01*
X160093664Y-65604793D01*
X160093671Y-65604797D01*
X160228517Y-65655091D01*
X160228516Y-65655091D01*
X160235444Y-65655835D01*
X160288127Y-65661500D01*
X161943872Y-65661499D01*
X162003483Y-65655091D01*
X162138331Y-65604796D01*
X162253546Y-65518546D01*
X162339796Y-65403331D01*
X162390091Y-65268483D01*
X162396500Y-65208873D01*
X162396499Y-64866000D01*
X162416183Y-64798963D01*
X162468987Y-64753208D01*
X162538146Y-64743264D01*
X162546271Y-64744710D01*
X162719354Y-64781500D01*
X162719355Y-64781500D01*
X162908644Y-64781500D01*
X162908646Y-64781500D01*
X162956721Y-64771281D01*
X163026385Y-64776596D01*
X163082119Y-64818733D01*
X163106225Y-64884313D01*
X163106500Y-64892571D01*
X163106500Y-65082696D01*
X163109401Y-65119567D01*
X163109402Y-65119573D01*
X163155254Y-65277393D01*
X163155255Y-65277396D01*
X163155256Y-65277398D01*
X163156458Y-65279431D01*
X163238917Y-65418862D01*
X163243702Y-65425031D01*
X163241256Y-65426927D01*
X163267857Y-65475642D01*
X163262873Y-65545334D01*
X163242069Y-65577703D01*
X163243702Y-65578969D01*
X163238916Y-65585138D01*
X163214629Y-65626205D01*
X163163559Y-65673888D01*
X163094817Y-65686390D01*
X163082117Y-65684372D01*
X163032487Y-65673823D01*
X162908646Y-65647500D01*
X162719354Y-65647500D01*
X162686897Y-65654398D01*
X162534197Y-65686855D01*
X162534192Y-65686857D01*
X162361270Y-65763848D01*
X162361265Y-65763851D01*
X162208135Y-65875106D01*
X162208128Y-65875112D01*
X162184952Y-65900852D01*
X162125465Y-65937500D01*
X162055608Y-65936169D01*
X162049470Y-65934061D01*
X162003481Y-65916908D01*
X162003483Y-65916908D01*
X161943883Y-65910501D01*
X161943881Y-65910500D01*
X161943873Y-65910500D01*
X161943864Y-65910500D01*
X160288129Y-65910500D01*
X160288123Y-65910501D01*
X160228516Y-65916908D01*
X160093671Y-65967202D01*
X160093664Y-65967206D01*
X159978455Y-66053452D01*
X159919266Y-66132518D01*
X159863332Y-66174388D01*
X159793640Y-66179372D01*
X159732317Y-66145886D01*
X159698833Y-66084562D01*
X159696000Y-66058206D01*
X159696000Y-66036000D01*
X158666000Y-66036000D01*
X158666000Y-67561000D01*
X159243828Y-67561000D01*
X159243844Y-67560999D01*
X159303372Y-67554598D01*
X159303379Y-67554596D01*
X159438086Y-67504354D01*
X159438093Y-67504350D01*
X159553187Y-67418190D01*
X159553190Y-67418187D01*
X159639350Y-67303093D01*
X159639353Y-67303088D01*
X159649550Y-67275748D01*
X159691420Y-67219813D01*
X159756884Y-67195395D01*
X159825158Y-67210246D01*
X159874564Y-67259650D01*
X159881915Y-67275746D01*
X159892202Y-67303328D01*
X159892206Y-67303335D01*
X159978452Y-67418544D01*
X159978455Y-67418547D01*
X160093664Y-67504793D01*
X160093671Y-67504797D01*
X160228517Y-67555091D01*
X160228516Y-67555091D01*
X160235444Y-67555835D01*
X160288127Y-67561500D01*
X161943872Y-67561499D01*
X162003483Y-67555091D01*
X162138331Y-67504796D01*
X162253546Y-67418546D01*
X162253548Y-67418544D01*
X162269679Y-67396995D01*
X162325612Y-67355123D01*
X162395303Y-67350137D01*
X162419383Y-67358025D01*
X162534192Y-67409142D01*
X162534197Y-67409144D01*
X162719354Y-67448500D01*
X162778547Y-67448500D01*
X162845586Y-67468185D01*
X162866228Y-67484819D01*
X162918197Y-67536788D01*
X162928022Y-67549051D01*
X162928243Y-67548869D01*
X162933214Y-67554878D01*
X162959217Y-67579295D01*
X162983635Y-67602226D01*
X163004529Y-67623120D01*
X163010011Y-67627373D01*
X163014443Y-67631157D01*
X163048418Y-67663062D01*
X163065976Y-67672714D01*
X163082235Y-67683395D01*
X163098064Y-67695673D01*
X163140838Y-67714182D01*
X163146056Y-67716738D01*
X163186908Y-67739197D01*
X163206316Y-67744180D01*
X163224717Y-67750480D01*
X163243104Y-67758437D01*
X163261989Y-67761428D01*
X163325123Y-67791355D01*
X163330258Y-67796204D01*
X163355135Y-67821081D01*
X163496602Y-67904744D01*
X163523890Y-67912672D01*
X163654426Y-67950597D01*
X163654429Y-67950597D01*
X163654431Y-67950598D01*
X163666722Y-67951565D01*
X163691304Y-67953500D01*
X163691306Y-67953500D01*
X164222696Y-67953500D01*
X164241131Y-67952049D01*
X164259569Y-67950598D01*
X164259571Y-67950597D01*
X164259573Y-67950597D01*
X164356323Y-67922488D01*
X164417398Y-67904744D01*
X164558865Y-67821081D01*
X164675081Y-67704865D01*
X164758744Y-67563398D01*
X164775770Y-67504795D01*
X164781718Y-67484323D01*
X164819324Y-67425437D01*
X164882796Y-67396231D01*
X164932134Y-67399619D01*
X164932143Y-67399571D01*
X164932570Y-67399649D01*
X164935391Y-67399842D01*
X164938373Y-67400709D01*
X164950194Y-67401639D01*
X164973835Y-67403500D01*
X164973836Y-67403499D01*
X164973837Y-67403500D01*
X166750162Y-67403499D01*
X166785627Y-67400709D01*
X166937390Y-67356618D01*
X167040281Y-67295767D01*
X167103402Y-67278500D01*
X169847548Y-67278500D01*
X169914587Y-67298185D01*
X169935229Y-67314819D01*
X170374197Y-67753788D01*
X170384022Y-67766051D01*
X170384243Y-67765869D01*
X170389214Y-67771878D01*
X170409956Y-67791355D01*
X170439635Y-67819226D01*
X170460529Y-67840120D01*
X170466011Y-67844373D01*
X170470443Y-67848157D01*
X170504418Y-67880062D01*
X170521976Y-67889714D01*
X170538235Y-67900395D01*
X170554064Y-67912673D01*
X170596838Y-67931182D01*
X170602056Y-67933738D01*
X170642908Y-67956197D01*
X170662316Y-67961180D01*
X170680717Y-67967480D01*
X170699104Y-67975437D01*
X170742488Y-67982308D01*
X170745119Y-67982725D01*
X170750839Y-67983909D01*
X170795981Y-67995500D01*
X170816016Y-67995500D01*
X170835414Y-67997026D01*
X170855194Y-68000159D01*
X170855195Y-68000160D01*
X170855195Y-68000159D01*
X170855196Y-68000160D01*
X170901584Y-67995775D01*
X170907422Y-67995500D01*
X176951257Y-67995500D01*
X176966877Y-67997224D01*
X176966904Y-67996939D01*
X176974660Y-67997671D01*
X176974667Y-67997673D01*
X177043814Y-67995500D01*
X177073350Y-67995500D01*
X177080228Y-67994630D01*
X177086041Y-67994172D01*
X177132627Y-67992709D01*
X177151869Y-67987117D01*
X177170912Y-67983174D01*
X177190792Y-67980664D01*
X177234122Y-67963507D01*
X177239646Y-67961617D01*
X177243396Y-67960527D01*
X177284390Y-67948618D01*
X177301629Y-67938422D01*
X177319103Y-67929862D01*
X177337727Y-67922488D01*
X177337727Y-67922487D01*
X177337732Y-67922486D01*
X177375449Y-67895082D01*
X177380305Y-67891892D01*
X177420420Y-67868170D01*
X177429769Y-67858821D01*
X177491091Y-67825334D01*
X177517453Y-67822499D01*
X178554871Y-67822499D01*
X178554872Y-67822499D01*
X178614483Y-67816091D01*
X178749331Y-67765796D01*
X178864546Y-67679546D01*
X178950796Y-67564331D01*
X179001091Y-67429483D01*
X179007500Y-67369873D01*
X179007500Y-66797000D01*
X181207000Y-66797000D01*
X181207000Y-67369844D01*
X181213401Y-67429372D01*
X181213403Y-67429379D01*
X181263645Y-67564086D01*
X181263649Y-67564093D01*
X181349809Y-67679187D01*
X181349812Y-67679190D01*
X181464906Y-67765350D01*
X181464913Y-67765354D01*
X181599620Y-67815596D01*
X181599627Y-67815598D01*
X181659155Y-67821999D01*
X181659172Y-67822000D01*
X182107000Y-67822000D01*
X182107000Y-66797000D01*
X182607000Y-66797000D01*
X182607000Y-67822000D01*
X183054828Y-67822000D01*
X183054844Y-67821999D01*
X183114372Y-67815598D01*
X183114379Y-67815596D01*
X183249086Y-67765354D01*
X183249093Y-67765350D01*
X183364187Y-67679190D01*
X183364190Y-67679187D01*
X183450350Y-67564093D01*
X183450354Y-67564086D01*
X183500596Y-67429379D01*
X183500598Y-67429372D01*
X183503971Y-67398001D01*
X188630204Y-67398001D01*
X188630399Y-67400486D01*
X188676218Y-67558198D01*
X188759814Y-67699552D01*
X188759821Y-67699561D01*
X188875938Y-67815678D01*
X188875947Y-67815685D01*
X189017303Y-67899282D01*
X189017306Y-67899283D01*
X189175004Y-67945099D01*
X189175010Y-67945100D01*
X189211856Y-67948000D01*
X189615000Y-67948000D01*
X189615000Y-67398000D01*
X190115000Y-67398000D01*
X190115000Y-67948000D01*
X190518144Y-67948000D01*
X190554989Y-67945100D01*
X190554995Y-67945099D01*
X190712693Y-67899283D01*
X190712696Y-67899282D01*
X190854052Y-67815685D01*
X190854061Y-67815678D01*
X190970178Y-67699561D01*
X190970185Y-67699552D01*
X191053781Y-67558198D01*
X191099600Y-67400486D01*
X191099795Y-67398001D01*
X191099795Y-67398000D01*
X190115000Y-67398000D01*
X189615000Y-67398000D01*
X188630205Y-67398000D01*
X188630204Y-67398001D01*
X183503971Y-67398001D01*
X183506999Y-67369844D01*
X183507000Y-67369827D01*
X183507000Y-66797000D01*
X182607000Y-66797000D01*
X182107000Y-66797000D01*
X181207000Y-66797000D01*
X179007500Y-66797000D01*
X179007499Y-65724128D01*
X179001091Y-65664517D01*
X178999965Y-65661499D01*
X178950797Y-65529671D01*
X178950793Y-65529664D01*
X178876484Y-65430400D01*
X179485340Y-65430400D01*
X179505126Y-65618656D01*
X179505127Y-65618659D01*
X179563618Y-65798677D01*
X179563621Y-65798684D01*
X179658267Y-65962616D01*
X179767742Y-66084200D01*
X179784929Y-66103288D01*
X179938065Y-66214548D01*
X179938070Y-66214551D01*
X180110992Y-66291542D01*
X180110997Y-66291544D01*
X180296154Y-66330900D01*
X180296155Y-66330900D01*
X180485444Y-66330900D01*
X180485446Y-66330900D01*
X180670603Y-66291544D01*
X180843530Y-66214551D01*
X180996671Y-66103288D01*
X180996679Y-66103278D01*
X181000026Y-66100267D01*
X181063017Y-66070036D01*
X181132352Y-66078659D01*
X181186019Y-66123400D01*
X181206977Y-66190052D01*
X181207000Y-66192415D01*
X181207000Y-66297000D01*
X182107000Y-66297000D01*
X182107000Y-65272000D01*
X181659155Y-65272000D01*
X181599627Y-65278401D01*
X181599620Y-65278403D01*
X181464910Y-65328646D01*
X181458595Y-65332095D01*
X181390321Y-65346945D01*
X181324858Y-65322526D01*
X181282988Y-65266591D01*
X181278706Y-65248309D01*
X181277824Y-65248497D01*
X181276474Y-65242149D01*
X181276474Y-65242144D01*
X181221738Y-65073685D01*
X181217981Y-65062122D01*
X181217980Y-65062121D01*
X181217979Y-65062116D01*
X181123333Y-64898184D01*
X181117011Y-64891163D01*
X181048150Y-64814684D01*
X181017920Y-64751692D01*
X181016300Y-64731712D01*
X181016300Y-63353251D01*
X181035985Y-63286212D01*
X181052614Y-63265575D01*
X183135819Y-61182369D01*
X183197142Y-61148885D01*
X183266834Y-61153869D01*
X183322767Y-61195741D01*
X183347184Y-61261205D01*
X183347500Y-61270051D01*
X183347500Y-61546310D01*
X183330233Y-61609430D01*
X183290504Y-61676608D01*
X183290504Y-61676609D01*
X183245357Y-61832002D01*
X183245356Y-61832008D01*
X183242500Y-61868308D01*
X183242500Y-62337692D01*
X183245356Y-62373991D01*
X183245357Y-62373997D01*
X183290504Y-62529390D01*
X183290507Y-62529398D01*
X183305231Y-62554294D01*
X183322500Y-62617416D01*
X183322500Y-63332064D01*
X183316206Y-63371067D01*
X183287002Y-63459198D01*
X183287000Y-63459209D01*
X183276500Y-63561983D01*
X183276500Y-64962001D01*
X183276501Y-64962018D01*
X183287000Y-65064796D01*
X183287001Y-65064800D01*
X183310722Y-65136384D01*
X183313124Y-65206213D01*
X183277392Y-65266255D01*
X183214871Y-65297447D01*
X183149684Y-65291570D01*
X183114383Y-65278404D01*
X183114372Y-65278401D01*
X183054844Y-65272000D01*
X182607000Y-65272000D01*
X182607000Y-66297000D01*
X183507000Y-66297000D01*
X183521352Y-66282647D01*
X183526685Y-66264488D01*
X183579489Y-66218733D01*
X183648647Y-66208789D01*
X183712203Y-66237814D01*
X183733050Y-66261088D01*
X183748812Y-66283924D01*
X183748816Y-66283928D01*
X183748817Y-66283929D01*
X183795250Y-66325064D01*
X183797941Y-66327598D01*
X183989399Y-66519056D01*
X183991935Y-66521750D01*
X184033071Y-66568183D01*
X184084130Y-66603427D01*
X184087112Y-66605621D01*
X184133371Y-66641862D01*
X184135947Y-66643880D01*
X184135946Y-66643880D01*
X184145177Y-66648034D01*
X184164731Y-66659062D01*
X184173066Y-66664816D01*
X184173068Y-66664816D01*
X184173070Y-66664818D01*
X184231079Y-66686817D01*
X184234476Y-66688224D01*
X184278818Y-66708181D01*
X184291064Y-66713693D01*
X184291065Y-66713693D01*
X184291069Y-66713695D01*
X184301034Y-66715521D01*
X184322656Y-66721548D01*
X184325777Y-66722731D01*
X184332128Y-66725140D01*
X184377251Y-66730618D01*
X184393674Y-66732613D01*
X184397371Y-66733175D01*
X184458394Y-66744358D01*
X184513752Y-66741009D01*
X184520303Y-66740613D01*
X184524048Y-66740500D01*
X184557844Y-66740500D01*
X184624883Y-66760185D01*
X184630729Y-66764182D01*
X184713265Y-66824148D01*
X184713270Y-66824151D01*
X184886192Y-66901142D01*
X184886197Y-66901144D01*
X185071354Y-66940500D01*
X185071355Y-66940500D01*
X185260644Y-66940500D01*
X185260646Y-66940500D01*
X185445803Y-66901144D01*
X185618730Y-66824151D01*
X185771871Y-66712888D01*
X185898533Y-66572216D01*
X185993179Y-66408284D01*
X186051674Y-66228256D01*
X186071460Y-66040000D01*
X186051674Y-65851744D01*
X185997112Y-65683823D01*
X185993181Y-65671722D01*
X185993180Y-65671721D01*
X185993179Y-65671716D01*
X185898533Y-65507784D01*
X185771871Y-65367112D01*
X185771870Y-65367111D01*
X185618734Y-65255851D01*
X185618729Y-65255848D01*
X185445807Y-65178857D01*
X185445802Y-65178855D01*
X185368285Y-65162379D01*
X185306803Y-65129187D01*
X185273027Y-65068024D01*
X185270708Y-65028489D01*
X185277500Y-64962009D01*
X185277499Y-63615552D01*
X186325000Y-63615552D01*
X186325000Y-64908446D01*
X186971447Y-64262000D01*
X186971447Y-64261999D01*
X186325000Y-63615552D01*
X185277499Y-63615552D01*
X185277499Y-63561992D01*
X185271166Y-63500000D01*
X185266999Y-63459203D01*
X185266998Y-63459200D01*
X185261004Y-63441112D01*
X185211814Y-63292666D01*
X185119712Y-63143344D01*
X185101048Y-63124680D01*
X185067563Y-63063357D01*
X185072547Y-62993665D01*
X185114419Y-62937732D01*
X185179883Y-62913315D01*
X185188729Y-62912999D01*
X185187636Y-62912999D01*
X185223910Y-62910145D01*
X185379196Y-62865030D01*
X185518372Y-62782722D01*
X185518380Y-62782716D01*
X185556639Y-62744457D01*
X185617962Y-62710971D01*
X185687653Y-62715955D01*
X185689972Y-62716846D01*
X185695898Y-62719192D01*
X185695908Y-62719197D01*
X185715316Y-62724180D01*
X185733717Y-62730480D01*
X185752104Y-62738437D01*
X185795488Y-62745308D01*
X185798119Y-62745725D01*
X185803839Y-62746909D01*
X185848981Y-62758500D01*
X185859252Y-62758500D01*
X185926291Y-62778185D01*
X185951400Y-62799526D01*
X185957127Y-62805886D01*
X185957135Y-62805893D01*
X186110265Y-62917148D01*
X186110270Y-62917151D01*
X186283191Y-62994142D01*
X186283193Y-62994142D01*
X186283197Y-62994144D01*
X186423231Y-63023909D01*
X186484708Y-63057099D01*
X186498344Y-63081791D01*
X187590872Y-64174319D01*
X187624357Y-64235642D01*
X187619373Y-64305334D01*
X187590872Y-64349681D01*
X186521446Y-65419107D01*
X186606654Y-65504315D01*
X186755875Y-65596356D01*
X186755880Y-65596358D01*
X186922302Y-65651505D01*
X186922309Y-65651506D01*
X187025019Y-65661999D01*
X187451205Y-65661999D01*
X187518244Y-65681683D01*
X187563999Y-65734487D01*
X187574525Y-65798959D01*
X187562540Y-65913000D01*
X187582326Y-66101256D01*
X187582327Y-66101259D01*
X187640818Y-66281277D01*
X187640821Y-66281284D01*
X187735467Y-66445216D01*
X187818348Y-66537264D01*
X187862129Y-66585888D01*
X188015265Y-66697148D01*
X188015270Y-66697151D01*
X188188192Y-66774142D01*
X188188197Y-66774144D01*
X188373354Y-66813500D01*
X188373355Y-66813500D01*
X188502713Y-66813500D01*
X188569752Y-66833185D01*
X188592286Y-66859190D01*
X188593388Y-66858172D01*
X188630205Y-66898000D01*
X190770685Y-66898000D01*
X190833806Y-66915268D01*
X190892102Y-66949744D01*
X190921194Y-66958196D01*
X191049926Y-66995597D01*
X191049929Y-66995597D01*
X191049931Y-66995598D01*
X191062222Y-66996565D01*
X191086804Y-66998500D01*
X191086806Y-66998500D01*
X192393196Y-66998500D01*
X192411631Y-66997049D01*
X192430069Y-66995598D01*
X192430071Y-66995597D01*
X192430073Y-66995597D01*
X192477627Y-66981781D01*
X192587898Y-66949744D01*
X192729365Y-66866081D01*
X192729370Y-66866076D01*
X192735628Y-66859819D01*
X192796951Y-66826334D01*
X192823309Y-66823500D01*
X193434257Y-66823500D01*
X193449877Y-66825224D01*
X193449904Y-66824939D01*
X193457660Y-66825671D01*
X193457667Y-66825673D01*
X193526814Y-66823500D01*
X193556350Y-66823500D01*
X193563228Y-66822630D01*
X193569041Y-66822172D01*
X193615627Y-66820709D01*
X193634869Y-66815117D01*
X193653912Y-66811174D01*
X193673792Y-66808664D01*
X193717122Y-66791507D01*
X193722646Y-66789617D01*
X193741904Y-66784022D01*
X193767390Y-66776618D01*
X193784629Y-66766422D01*
X193802103Y-66757862D01*
X193820727Y-66750488D01*
X193820727Y-66750487D01*
X193820732Y-66750486D01*
X193858449Y-66723082D01*
X193863305Y-66719892D01*
X193903420Y-66696170D01*
X193903423Y-66696167D01*
X193909417Y-66691519D01*
X193974454Y-66665985D01*
X193985415Y-66665500D01*
X194503192Y-66665500D01*
X194570231Y-66685185D01*
X194590868Y-66701814D01*
X194647135Y-66758081D01*
X194788602Y-66841744D01*
X194803086Y-66845952D01*
X194946426Y-66887597D01*
X194946429Y-66887597D01*
X194946431Y-66887598D01*
X194958722Y-66888565D01*
X194983304Y-66890500D01*
X194983306Y-66890500D01*
X195414696Y-66890500D01*
X195433131Y-66889049D01*
X195451569Y-66887598D01*
X195451571Y-66887597D01*
X195451573Y-66887597D01*
X195502190Y-66872891D01*
X195609398Y-66841744D01*
X195643880Y-66821351D01*
X195711601Y-66804168D01*
X195770119Y-66821350D01*
X195804602Y-66841744D01*
X195804604Y-66841744D01*
X195804605Y-66841745D01*
X195962426Y-66887597D01*
X195962429Y-66887597D01*
X195962431Y-66887598D01*
X195974722Y-66888565D01*
X195999304Y-66890500D01*
X195999306Y-66890500D01*
X196430696Y-66890500D01*
X196449131Y-66889049D01*
X196467569Y-66887598D01*
X196467571Y-66887597D01*
X196467573Y-66887597D01*
X196518190Y-66872891D01*
X196625398Y-66841744D01*
X196766865Y-66758081D01*
X196883081Y-66641865D01*
X196966744Y-66500398D01*
X197012598Y-66342569D01*
X197015500Y-66305694D01*
X197015500Y-65891500D01*
X197035185Y-65824461D01*
X197087989Y-65778706D01*
X197139500Y-65767500D01*
X197198644Y-65767500D01*
X197198646Y-65767500D01*
X197383803Y-65728144D01*
X197556730Y-65651151D01*
X197709871Y-65539888D01*
X197836533Y-65399216D01*
X197931179Y-65235284D01*
X197989674Y-65055256D01*
X198009460Y-64867000D01*
X197989674Y-64678744D01*
X197931179Y-64498716D01*
X197855185Y-64367090D01*
X197836535Y-64334787D01*
X197836531Y-64334782D01*
X197836344Y-64334574D01*
X197836273Y-64334427D01*
X197832714Y-64329528D01*
X197833610Y-64328876D01*
X197806119Y-64271580D01*
X197804500Y-64251608D01*
X197804500Y-63674088D01*
X197804613Y-63670343D01*
X197808358Y-63608435D01*
X197797175Y-63547412D01*
X197796613Y-63543715D01*
X197793073Y-63514560D01*
X197789140Y-63482169D01*
X197785548Y-63472697D01*
X197779521Y-63451075D01*
X197779350Y-63450140D01*
X197777695Y-63441110D01*
X197777014Y-63439598D01*
X197771182Y-63426640D01*
X197752224Y-63384517D01*
X197750817Y-63381120D01*
X197728818Y-63323111D01*
X197728816Y-63323108D01*
X197726157Y-63316096D01*
X197727780Y-63315480D01*
X197715890Y-63256115D01*
X197741385Y-63191063D01*
X197751722Y-63179329D01*
X197916369Y-63014683D01*
X197916371Y-63014681D01*
X197916370Y-63014683D01*
X197926247Y-63003117D01*
X197939009Y-62988176D01*
X198013623Y-62852454D01*
X198052140Y-62702440D01*
X198052140Y-62547560D01*
X198013623Y-62397546D01*
X198010216Y-62391349D01*
X197939011Y-62261826D01*
X197939008Y-62261822D01*
X197935247Y-62257418D01*
X197906679Y-62193655D01*
X197905541Y-62176891D01*
X197905541Y-59313783D01*
X197907265Y-59298163D01*
X197906980Y-59298136D01*
X197907714Y-59290374D01*
X197905541Y-59221213D01*
X197905541Y-59191697D01*
X197905541Y-59191691D01*
X197904672Y-59184820D01*
X197904214Y-59178993D01*
X197904197Y-59178458D01*
X197902751Y-59132414D01*
X197897160Y-59113171D01*
X197893214Y-59094119D01*
X197890705Y-59074249D01*
X197873545Y-59030908D01*
X197871665Y-59025420D01*
X197858659Y-58980651D01*
X197858382Y-58980183D01*
X197848464Y-58963412D01*
X197839902Y-58945935D01*
X197832528Y-58927311D01*
X197832208Y-58926870D01*
X197805120Y-58889586D01*
X197801929Y-58884727D01*
X197778213Y-58844624D01*
X197778206Y-58844615D01*
X197764047Y-58830456D01*
X197751409Y-58815660D01*
X197749625Y-58813205D01*
X197739635Y-58799454D01*
X197703736Y-58769756D01*
X197699414Y-58765823D01*
X197604800Y-58671209D01*
X197594980Y-58658952D01*
X197594760Y-58659135D01*
X197589788Y-58653125D01*
X197539362Y-58605771D01*
X197518476Y-58584884D01*
X197512986Y-58580625D01*
X197508561Y-58576847D01*
X197474582Y-58544938D01*
X197474580Y-58544936D01*
X197474577Y-58544935D01*
X197457029Y-58535288D01*
X197440763Y-58524604D01*
X197424936Y-58512327D01*
X197424935Y-58512326D01*
X197424933Y-58512325D01*
X197382168Y-58493818D01*
X197376922Y-58491248D01*
X197336093Y-58468803D01*
X197336092Y-58468802D01*
X197316693Y-58463822D01*
X197298281Y-58457518D01*
X197279898Y-58449562D01*
X197279892Y-58449560D01*
X197233874Y-58442272D01*
X197228152Y-58441087D01*
X197183021Y-58429500D01*
X197183019Y-58429500D01*
X197162984Y-58429500D01*
X197143586Y-58427973D01*
X197136162Y-58426797D01*
X197123805Y-58424840D01*
X197123804Y-58424840D01*
X197077416Y-58429225D01*
X197071578Y-58429500D01*
X196910808Y-58429500D01*
X196843769Y-58409815D01*
X196823131Y-58393185D01*
X196766865Y-58336919D01*
X196762360Y-58334255D01*
X196625396Y-58253255D01*
X196625393Y-58253254D01*
X196467573Y-58207402D01*
X196467567Y-58207401D01*
X196430696Y-58204500D01*
X196430694Y-58204500D01*
X195999306Y-58204500D01*
X195999304Y-58204500D01*
X195962432Y-58207401D01*
X195962426Y-58207402D01*
X195804606Y-58253254D01*
X195804600Y-58253256D01*
X195770119Y-58273648D01*
X195702394Y-58290829D01*
X195643881Y-58273648D01*
X195609399Y-58253256D01*
X195609393Y-58253254D01*
X195451573Y-58207402D01*
X195451567Y-58207401D01*
X195414696Y-58204500D01*
X195414694Y-58204500D01*
X194983306Y-58204500D01*
X194983304Y-58204500D01*
X194946432Y-58207401D01*
X194946426Y-58207402D01*
X194788606Y-58253254D01*
X194788603Y-58253255D01*
X194647137Y-58336917D01*
X194647129Y-58336923D01*
X194559872Y-58424181D01*
X194498549Y-58457666D01*
X194472191Y-58460500D01*
X192823309Y-58460500D01*
X192756270Y-58440815D01*
X192735628Y-58424181D01*
X192729370Y-58417923D01*
X192729362Y-58417917D01*
X192615037Y-58350306D01*
X192587898Y-58334256D01*
X192587897Y-58334255D01*
X192587896Y-58334255D01*
X192587893Y-58334254D01*
X192430073Y-58288402D01*
X192430067Y-58288401D01*
X192393196Y-58285500D01*
X192393194Y-58285500D01*
X191227000Y-58285500D01*
X191159961Y-58265815D01*
X191114206Y-58213011D01*
X191103000Y-58161500D01*
X191103000Y-57920304D01*
X191100098Y-57883432D01*
X191100097Y-57883426D01*
X191054245Y-57725606D01*
X191054244Y-57725603D01*
X191054244Y-57725602D01*
X190970581Y-57584135D01*
X190970579Y-57584133D01*
X190970576Y-57584129D01*
X190854370Y-57467923D01*
X190854362Y-57467917D01*
X190776181Y-57421681D01*
X190712898Y-57384256D01*
X190712897Y-57384255D01*
X190712896Y-57384255D01*
X190712893Y-57384254D01*
X190555073Y-57338402D01*
X190555067Y-57338401D01*
X190518196Y-57335500D01*
X190518194Y-57335500D01*
X189211806Y-57335500D01*
X189211804Y-57335500D01*
X189174937Y-57338401D01*
X189174932Y-57338401D01*
X189174931Y-57338402D01*
X189174928Y-57338402D01*
X189174927Y-57338403D01*
X189135366Y-57349896D01*
X189065496Y-57349695D01*
X189013093Y-57318501D01*
X188968805Y-57274214D01*
X188958982Y-57261952D01*
X188958760Y-57262136D01*
X188953785Y-57256121D01*
X188926452Y-57230454D01*
X188903364Y-57208773D01*
X188888510Y-57193919D01*
X188882475Y-57187883D01*
X188876986Y-57183625D01*
X188872561Y-57179847D01*
X188838582Y-57147938D01*
X188838580Y-57147936D01*
X188838577Y-57147935D01*
X188821029Y-57138288D01*
X188804763Y-57127604D01*
X188788933Y-57115325D01*
X188746168Y-57096818D01*
X188740922Y-57094248D01*
X188700093Y-57071803D01*
X188700092Y-57071802D01*
X188680693Y-57066822D01*
X188662281Y-57060518D01*
X188643898Y-57052562D01*
X188643892Y-57052560D01*
X188597874Y-57045272D01*
X188592152Y-57044087D01*
X188547021Y-57032500D01*
X188547019Y-57032500D01*
X188526984Y-57032500D01*
X188507586Y-57030973D01*
X188500162Y-57029797D01*
X188487805Y-57027840D01*
X188487804Y-57027840D01*
X188441416Y-57032225D01*
X188435578Y-57032500D01*
X185248743Y-57032500D01*
X185233122Y-57030775D01*
X185233096Y-57031061D01*
X185225334Y-57030327D01*
X185225333Y-57030327D01*
X185156186Y-57032500D01*
X185126649Y-57032500D01*
X185119766Y-57033369D01*
X185113949Y-57033826D01*
X185067373Y-57035290D01*
X185048129Y-57040881D01*
X185029079Y-57044825D01*
X185009211Y-57047334D01*
X184965884Y-57064488D01*
X184960358Y-57066379D01*
X184915614Y-57079379D01*
X184915610Y-57079381D01*
X184898366Y-57089579D01*
X184880905Y-57098133D01*
X184862274Y-57105510D01*
X184862262Y-57105517D01*
X184824570Y-57132902D01*
X184819687Y-57136109D01*
X184779580Y-57159829D01*
X184765415Y-57173994D01*
X184750623Y-57186628D01*
X184734412Y-57198405D01*
X184704710Y-57234308D01*
X184700778Y-57238629D01*
X184689154Y-57250252D01*
X184627831Y-57283737D01*
X184558139Y-57278753D01*
X184528588Y-57262889D01*
X184477157Y-57225522D01*
X184477152Y-57225519D01*
X184304230Y-57148528D01*
X184304225Y-57148526D01*
X184148031Y-57115327D01*
X184119069Y-57109171D01*
X183929777Y-57109171D01*
X183900815Y-57115327D01*
X183744620Y-57148526D01*
X183744615Y-57148528D01*
X183571693Y-57225519D01*
X183571688Y-57225522D01*
X183418558Y-57336777D01*
X183418555Y-57336779D01*
X183402995Y-57354061D01*
X183343507Y-57390708D01*
X183273650Y-57389377D01*
X183251425Y-57379922D01*
X183249096Y-57378650D01*
X183114376Y-57328402D01*
X183114372Y-57328401D01*
X183054844Y-57322000D01*
X182607000Y-57322000D01*
X182607000Y-59890646D01*
X182587315Y-59957685D01*
X182570681Y-59978327D01*
X180007008Y-62541999D01*
X179994751Y-62551820D01*
X179994934Y-62552041D01*
X179988923Y-62557013D01*
X179941572Y-62607436D01*
X179920689Y-62628319D01*
X179920677Y-62628332D01*
X179916421Y-62633817D01*
X179912637Y-62638247D01*
X179880737Y-62672218D01*
X179880736Y-62672220D01*
X179871084Y-62689776D01*
X179860410Y-62706026D01*
X179848129Y-62721861D01*
X179848124Y-62721868D01*
X179829615Y-62764638D01*
X179827045Y-62769884D01*
X179804603Y-62810706D01*
X179799622Y-62830107D01*
X179793321Y-62848510D01*
X179785362Y-62866902D01*
X179785361Y-62866905D01*
X179778071Y-62912927D01*
X179776887Y-62918646D01*
X179765301Y-62963772D01*
X179765300Y-62963782D01*
X179765300Y-62983816D01*
X179763773Y-63003215D01*
X179760640Y-63022994D01*
X179760640Y-63022995D01*
X179765025Y-63069383D01*
X179765300Y-63075221D01*
X179765300Y-64731712D01*
X179745615Y-64798751D01*
X179733450Y-64814684D01*
X179658266Y-64898184D01*
X179563621Y-65062115D01*
X179563618Y-65062122D01*
X179506389Y-65238256D01*
X179505126Y-65242144D01*
X179485340Y-65430400D01*
X178876484Y-65430400D01*
X178864547Y-65414455D01*
X178864544Y-65414452D01*
X178749335Y-65328206D01*
X178749328Y-65328202D01*
X178614483Y-65277908D01*
X178593243Y-65275625D01*
X178528692Y-65248886D01*
X178488845Y-65191493D01*
X178482500Y-65152336D01*
X178482500Y-59991663D01*
X178502185Y-59924624D01*
X178554989Y-59878869D01*
X178593248Y-59868373D01*
X178614483Y-59866091D01*
X178749331Y-59815796D01*
X178864546Y-59729546D01*
X178950796Y-59614331D01*
X179001091Y-59479483D01*
X179007500Y-59419873D01*
X179007499Y-58847000D01*
X181207000Y-58847000D01*
X181207000Y-59419844D01*
X181213401Y-59479372D01*
X181213403Y-59479379D01*
X181263645Y-59614086D01*
X181263649Y-59614093D01*
X181349809Y-59729187D01*
X181349812Y-59729190D01*
X181464906Y-59815350D01*
X181464913Y-59815354D01*
X181599620Y-59865596D01*
X181599627Y-59865598D01*
X181659155Y-59871999D01*
X181659172Y-59872000D01*
X182107000Y-59872000D01*
X182107000Y-58847000D01*
X181207000Y-58847000D01*
X179007499Y-58847000D01*
X179007499Y-58347000D01*
X181207000Y-58347000D01*
X182107000Y-58347000D01*
X182107000Y-57322000D01*
X181659155Y-57322000D01*
X181599627Y-57328401D01*
X181599620Y-57328403D01*
X181464913Y-57378645D01*
X181464906Y-57378649D01*
X181349812Y-57464809D01*
X181349809Y-57464812D01*
X181263649Y-57579906D01*
X181263645Y-57579913D01*
X181213403Y-57714620D01*
X181213401Y-57714627D01*
X181207000Y-57774155D01*
X181207000Y-58347000D01*
X179007499Y-58347000D01*
X179007499Y-57774128D01*
X179001091Y-57714517D01*
X178974329Y-57642765D01*
X178950797Y-57579671D01*
X178950793Y-57579664D01*
X178864547Y-57464455D01*
X178864544Y-57464452D01*
X178749335Y-57378206D01*
X178749328Y-57378202D01*
X178614482Y-57327908D01*
X178614483Y-57327908D01*
X178554883Y-57321501D01*
X178554881Y-57321500D01*
X178554873Y-57321500D01*
X178554864Y-57321500D01*
X177159129Y-57321500D01*
X177159123Y-57321501D01*
X177099516Y-57327908D01*
X176964671Y-57378202D01*
X176964664Y-57378206D01*
X176849455Y-57464452D01*
X176849452Y-57464455D01*
X176763206Y-57579664D01*
X176763202Y-57579671D01*
X176760533Y-57586830D01*
X176718663Y-57642765D01*
X176653200Y-57667184D01*
X176644350Y-57667500D01*
X175466603Y-57667500D01*
X175399564Y-57647815D01*
X175370750Y-57622165D01*
X175337883Y-57582116D01*
X175185539Y-57457090D01*
X175185532Y-57457086D01*
X175011733Y-57364188D01*
X175011727Y-57364186D01*
X174826907Y-57308121D01*
X174823129Y-57306975D01*
X174627000Y-57287659D01*
X174430870Y-57306975D01*
X174242266Y-57364188D01*
X174068467Y-57457086D01*
X174063399Y-57460473D01*
X174062386Y-57458958D01*
X174005936Y-57482920D01*
X173937071Y-57471115D01*
X173920574Y-57460511D01*
X173920322Y-57460890D01*
X173915253Y-57457503D01*
X173741541Y-57364652D01*
X173607000Y-57323839D01*
X173607000Y-58085327D01*
X173569129Y-58040195D01*
X173469871Y-57982888D01*
X173385436Y-57968000D01*
X173328564Y-57968000D01*
X173244129Y-57982888D01*
X173144871Y-58040195D01*
X173107000Y-58085327D01*
X173107000Y-57323839D01*
X173106999Y-57323839D01*
X172972458Y-57364652D01*
X172798742Y-57457505D01*
X172793673Y-57460893D01*
X172792556Y-57459221D01*
X172736715Y-57482921D01*
X172667851Y-57471111D01*
X172650811Y-57460158D01*
X172650601Y-57460473D01*
X172645532Y-57457086D01*
X172471733Y-57364188D01*
X172471727Y-57364186D01*
X172286907Y-57308121D01*
X172283129Y-57306975D01*
X172087000Y-57287659D01*
X171890870Y-57306975D01*
X171761462Y-57346231D01*
X171702273Y-57364186D01*
X171702272Y-57364186D01*
X171702267Y-57364188D01*
X171700143Y-57365324D01*
X171698898Y-57365583D01*
X171696641Y-57366518D01*
X171696463Y-57366089D01*
X171631740Y-57379564D01*
X171567382Y-57355231D01*
X171559331Y-57349204D01*
X171559328Y-57349202D01*
X171424482Y-57298908D01*
X171424483Y-57298908D01*
X171364883Y-57292501D01*
X171364881Y-57292500D01*
X171364873Y-57292500D01*
X171364864Y-57292500D01*
X170269129Y-57292500D01*
X170269123Y-57292501D01*
X170209516Y-57298908D01*
X170074671Y-57349202D01*
X170074664Y-57349206D01*
X169959455Y-57435452D01*
X169959452Y-57435455D01*
X169873206Y-57550664D01*
X169873202Y-57550671D01*
X169822908Y-57685517D01*
X169816501Y-57745116D01*
X169816500Y-57745135D01*
X169816500Y-58357546D01*
X169796815Y-58424585D01*
X169780185Y-58445222D01*
X169746296Y-58479112D01*
X169714358Y-58511050D01*
X169653034Y-58544534D01*
X169583343Y-58539549D01*
X169538996Y-58511049D01*
X169461870Y-58433923D01*
X169461862Y-58433917D01*
X169354879Y-58370648D01*
X169320398Y-58350256D01*
X169320397Y-58350255D01*
X169320396Y-58350255D01*
X169320393Y-58350254D01*
X169162573Y-58304402D01*
X169162567Y-58304401D01*
X169125696Y-58301500D01*
X169125694Y-58301500D01*
X168694306Y-58301500D01*
X168694304Y-58301500D01*
X168657432Y-58304401D01*
X168657426Y-58304402D01*
X168499606Y-58350254D01*
X168499600Y-58350256D01*
X168465119Y-58370648D01*
X168397394Y-58387829D01*
X168338881Y-58370648D01*
X168304399Y-58350256D01*
X168304393Y-58350254D01*
X168146573Y-58304402D01*
X168146567Y-58304401D01*
X168109696Y-58301500D01*
X168109694Y-58301500D01*
X167678306Y-58301500D01*
X167678304Y-58301500D01*
X167641432Y-58304401D01*
X167641426Y-58304402D01*
X167483606Y-58350254D01*
X167483605Y-58350254D01*
X167386076Y-58407932D01*
X167318352Y-58425113D01*
X167252090Y-58402953D01*
X167250071Y-58401517D01*
X167203734Y-58367851D01*
X167203729Y-58367848D01*
X167030807Y-58290857D01*
X167030802Y-58290855D01*
X166853907Y-58253256D01*
X166845646Y-58251500D01*
X166656354Y-58251500D01*
X166648093Y-58253256D01*
X166471197Y-58290855D01*
X166471192Y-58290857D01*
X166298271Y-58367848D01*
X166193100Y-58444259D01*
X166127293Y-58467738D01*
X166059240Y-58451912D01*
X166057094Y-58450672D01*
X166005225Y-58419997D01*
X166004395Y-58419506D01*
X166004394Y-58419505D01*
X166004393Y-58419505D01*
X166004390Y-58419504D01*
X165848997Y-58374357D01*
X165848991Y-58374356D01*
X165812692Y-58371500D01*
X165812690Y-58371500D01*
X165403310Y-58371500D01*
X165403308Y-58371500D01*
X165367008Y-58374356D01*
X165367002Y-58374357D01*
X165211609Y-58419504D01*
X165211604Y-58419506D01*
X165190628Y-58431911D01*
X165122903Y-58449092D01*
X165064389Y-58431911D01*
X165044191Y-58419966D01*
X165044190Y-58419965D01*
X164898001Y-58377493D01*
X164898000Y-58377494D01*
X164898000Y-58683645D01*
X164880734Y-58746763D01*
X164875507Y-58755600D01*
X164875504Y-58755608D01*
X164830357Y-58911002D01*
X164830356Y-58911008D01*
X164827500Y-58947308D01*
X164827500Y-59308000D01*
X164807815Y-59375039D01*
X164755011Y-59420794D01*
X164703500Y-59432000D01*
X163869210Y-59432000D01*
X163870854Y-59452910D01*
X163910655Y-59589906D01*
X163910455Y-59659775D01*
X163872512Y-59718445D01*
X163808874Y-59747288D01*
X163791578Y-59748500D01*
X163691304Y-59748500D01*
X163654432Y-59751401D01*
X163654426Y-59751402D01*
X163496606Y-59797254D01*
X163496603Y-59797255D01*
X163355140Y-59880915D01*
X163355133Y-59880920D01*
X163347279Y-59888775D01*
X163285955Y-59922257D01*
X163263499Y-59925029D01*
X163223373Y-59926290D01*
X163204129Y-59931881D01*
X163185079Y-59935825D01*
X163165211Y-59938334D01*
X163121884Y-59955488D01*
X163116358Y-59957379D01*
X163071614Y-59970379D01*
X163071610Y-59970381D01*
X163054366Y-59980579D01*
X163036905Y-59989133D01*
X163018274Y-59996510D01*
X163018262Y-59996517D01*
X162980570Y-60023902D01*
X162975687Y-60027109D01*
X162935580Y-60050829D01*
X162921414Y-60064995D01*
X162906624Y-60077627D01*
X162890414Y-60089404D01*
X162890408Y-60089410D01*
X162860711Y-60125308D01*
X162856778Y-60129630D01*
X162684890Y-60301517D01*
X162672627Y-60311343D01*
X162672810Y-60311564D01*
X162666804Y-60316532D01*
X162619455Y-60366953D01*
X162598573Y-60387835D01*
X162598561Y-60387848D01*
X162594305Y-60393333D01*
X162590521Y-60397763D01*
X162558621Y-60431734D01*
X162558620Y-60431736D01*
X162548968Y-60449292D01*
X162538294Y-60465542D01*
X162526013Y-60481377D01*
X162526008Y-60481384D01*
X162507499Y-60524154D01*
X162504929Y-60529400D01*
X162478729Y-60577060D01*
X162477303Y-60576276D01*
X162439970Y-60624112D01*
X162374028Y-60647208D01*
X162328667Y-60641077D01*
X162324606Y-60639731D01*
X162219797Y-60605001D01*
X162219795Y-60605000D01*
X162117010Y-60594500D01*
X160716998Y-60594500D01*
X160716981Y-60594501D01*
X160614203Y-60605000D01*
X160614200Y-60605001D01*
X160447668Y-60660185D01*
X160447663Y-60660187D01*
X160298342Y-60752289D01*
X160174288Y-60876343D01*
X160174285Y-60876347D01*
X160134812Y-60940343D01*
X160082864Y-60987068D01*
X160013901Y-60998289D01*
X159949820Y-60970446D01*
X159923736Y-60940344D01*
X159920631Y-60935310D01*
X159797690Y-60812369D01*
X159797685Y-60812365D01*
X159796822Y-60811833D01*
X159796353Y-60811312D01*
X159792023Y-60807888D01*
X159792608Y-60807148D01*
X159750096Y-60759886D01*
X159738873Y-60690924D01*
X159766716Y-60626841D01*
X159792398Y-60604586D01*
X159792336Y-60604507D01*
X159794106Y-60603107D01*
X159796820Y-60600755D01*
X159798003Y-60600026D01*
X159921026Y-60477003D01*
X160012362Y-60328925D01*
X160067087Y-60163775D01*
X160077500Y-60061848D01*
X160077500Y-59546998D01*
X160770552Y-59546998D01*
X160770553Y-59546999D01*
X162063446Y-59546999D01*
X162063446Y-59546998D01*
X161417001Y-58900553D01*
X161417000Y-58900553D01*
X160770552Y-59546998D01*
X160077500Y-59546998D01*
X160077500Y-59475152D01*
X160077500Y-59475142D01*
X160077421Y-59473591D01*
X160077500Y-59473260D01*
X160077500Y-59471995D01*
X160077803Y-59471995D01*
X160093669Y-59405637D01*
X160144078Y-59357255D01*
X160212641Y-59343806D01*
X160229658Y-59350554D01*
X160259893Y-59350554D01*
X161063447Y-58547000D01*
X161770553Y-58547000D01*
X162574107Y-59350554D01*
X162659315Y-59265345D01*
X162751356Y-59116124D01*
X162751358Y-59116119D01*
X162806505Y-58949697D01*
X162806506Y-58949690D01*
X162808313Y-58931999D01*
X163869209Y-58931999D01*
X163869210Y-58932000D01*
X164398000Y-58932000D01*
X164398000Y-58377494D01*
X164397998Y-58377493D01*
X164251809Y-58419965D01*
X164251806Y-58419967D01*
X164112625Y-58502278D01*
X164112616Y-58502285D01*
X163998285Y-58616616D01*
X163998278Y-58616625D01*
X163915968Y-58755804D01*
X163915966Y-58755809D01*
X163870855Y-58911081D01*
X163870854Y-58911087D01*
X163869209Y-58931999D01*
X162808313Y-58931999D01*
X162816999Y-58846986D01*
X162816999Y-58247028D01*
X162816998Y-58247012D01*
X162806505Y-58144302D01*
X162751358Y-57977880D01*
X162751356Y-57977875D01*
X162659315Y-57828654D01*
X162574107Y-57743446D01*
X161770553Y-58547000D01*
X161063447Y-58547000D01*
X160259893Y-57743446D01*
X160174684Y-57828654D01*
X160082643Y-57977875D01*
X160082641Y-57977880D01*
X160027494Y-58144302D01*
X160027493Y-58144309D01*
X160017000Y-58247013D01*
X160017000Y-58846971D01*
X160017162Y-58850133D01*
X160015699Y-58850207D01*
X160003876Y-58913253D01*
X159955914Y-58964061D01*
X159888098Y-58980874D01*
X159821957Y-58958353D01*
X159805696Y-58944667D01*
X159798003Y-58936974D01*
X159797999Y-58936971D01*
X159649933Y-58845642D01*
X159649927Y-58845639D01*
X159649925Y-58845638D01*
X159583286Y-58823556D01*
X159552049Y-58813205D01*
X159494605Y-58773432D01*
X159475762Y-58741148D01*
X159474960Y-58739123D01*
X159470510Y-58727882D01*
X159468619Y-58722359D01*
X159455619Y-58677612D01*
X159445418Y-58660363D01*
X159436860Y-58642894D01*
X159429486Y-58624268D01*
X159429483Y-58624264D01*
X159429483Y-58624263D01*
X159402098Y-58586571D01*
X159398890Y-58581687D01*
X159375172Y-58541582D01*
X159375163Y-58541571D01*
X159361005Y-58527413D01*
X159348370Y-58512620D01*
X159338982Y-58499700D01*
X159336594Y-58496413D01*
X159300693Y-58466713D01*
X159296381Y-58462790D01*
X158380591Y-57547000D01*
X160770552Y-57547000D01*
X161417000Y-58193447D01*
X161417001Y-58193447D01*
X162063446Y-57547000D01*
X160770552Y-57547000D01*
X158380591Y-57547000D01*
X158107803Y-57274212D01*
X158097980Y-57261950D01*
X158097759Y-57262134D01*
X158092786Y-57256123D01*
X158073811Y-57238304D01*
X158042364Y-57208773D01*
X158027510Y-57193919D01*
X158021475Y-57187883D01*
X158015986Y-57183625D01*
X158011561Y-57179847D01*
X157977582Y-57147938D01*
X157977580Y-57147936D01*
X157977577Y-57147935D01*
X157960029Y-57138288D01*
X157943763Y-57127604D01*
X157927933Y-57115325D01*
X157885168Y-57096818D01*
X157879922Y-57094248D01*
X157839093Y-57071803D01*
X157839092Y-57071802D01*
X157819693Y-57066822D01*
X157801281Y-57060518D01*
X157782898Y-57052562D01*
X157782892Y-57052560D01*
X157736874Y-57045272D01*
X157731152Y-57044087D01*
X157686021Y-57032500D01*
X157686019Y-57032500D01*
X157665984Y-57032500D01*
X157646586Y-57030973D01*
X157639162Y-57029797D01*
X157626805Y-57027840D01*
X157626804Y-57027840D01*
X157580416Y-57032225D01*
X157574578Y-57032500D01*
X154387737Y-57032500D01*
X154372120Y-57030776D01*
X154372093Y-57031062D01*
X154364331Y-57030327D01*
X154295203Y-57032500D01*
X154265650Y-57032500D01*
X154264929Y-57032590D01*
X154258757Y-57033369D01*
X154252945Y-57033826D01*
X154206373Y-57035290D01*
X154206372Y-57035290D01*
X154187129Y-57040881D01*
X154168079Y-57044825D01*
X154148211Y-57047334D01*
X154148209Y-57047335D01*
X154104884Y-57064488D01*
X154099357Y-57066380D01*
X154054610Y-57079381D01*
X154054609Y-57079382D01*
X154037367Y-57089579D01*
X154019895Y-57098139D01*
X154013573Y-57100642D01*
X153943994Y-57107018D01*
X153933331Y-57104425D01*
X153795573Y-57064402D01*
X153795567Y-57064401D01*
X153758696Y-57061500D01*
X153758694Y-57061500D01*
X153327306Y-57061500D01*
X153327304Y-57061500D01*
X153290432Y-57064401D01*
X153290426Y-57064402D01*
X153132606Y-57110254D01*
X153132600Y-57110256D01*
X153098119Y-57130648D01*
X153030394Y-57147829D01*
X152971881Y-57130648D01*
X152937399Y-57110256D01*
X152937393Y-57110254D01*
X152779573Y-57064402D01*
X152779567Y-57064401D01*
X152742696Y-57061500D01*
X152742694Y-57061500D01*
X152311306Y-57061500D01*
X152311304Y-57061500D01*
X152274432Y-57064401D01*
X152274426Y-57064402D01*
X152116606Y-57110254D01*
X152116603Y-57110255D01*
X151974605Y-57194232D01*
X151911484Y-57211500D01*
X151407048Y-57211500D01*
X151403303Y-57211387D01*
X151341396Y-57207642D01*
X151341389Y-57207642D01*
X151280386Y-57218821D01*
X151276685Y-57219384D01*
X151215128Y-57226859D01*
X151215121Y-57226861D01*
X151205647Y-57230454D01*
X151184049Y-57236475D01*
X151174069Y-57238304D01*
X151117519Y-57263755D01*
X151114060Y-57265188D01*
X151056071Y-57287181D01*
X151056066Y-57287184D01*
X151047722Y-57292943D01*
X151028187Y-57303961D01*
X151018947Y-57308120D01*
X151018945Y-57308121D01*
X150970136Y-57346359D01*
X150967122Y-57348576D01*
X150916070Y-57383817D01*
X150916068Y-57383818D01*
X150874942Y-57430240D01*
X150872375Y-57432966D01*
X150395966Y-57909375D01*
X150393240Y-57911942D01*
X150346818Y-57953068D01*
X150311586Y-58004109D01*
X150309368Y-58007124D01*
X150288154Y-58034203D01*
X150231315Y-58074837D01*
X150161531Y-58078291D01*
X150102860Y-58045413D01*
X149989370Y-57931923D01*
X149989362Y-57931917D01*
X149907367Y-57883426D01*
X149847898Y-57848256D01*
X149847897Y-57848255D01*
X149847896Y-57848255D01*
X149847893Y-57848254D01*
X149690073Y-57802402D01*
X149690067Y-57802401D01*
X149653196Y-57799500D01*
X149653194Y-57799500D01*
X148346806Y-57799500D01*
X148346804Y-57799500D01*
X148309932Y-57802401D01*
X148309926Y-57802402D01*
X148152106Y-57848254D01*
X148152103Y-57848255D01*
X148094652Y-57882232D01*
X148031531Y-57899500D01*
X147396037Y-57899500D01*
X147392293Y-57899387D01*
X147330397Y-57895643D01*
X147330390Y-57895643D01*
X147269402Y-57906819D01*
X147265701Y-57907382D01*
X147204125Y-57914860D01*
X147194642Y-57918456D01*
X147173038Y-57924478D01*
X147171535Y-57924754D01*
X147163065Y-57926306D01*
X147106522Y-57951754D01*
X147103063Y-57953187D01*
X147066867Y-57966915D01*
X147045070Y-57975182D01*
X147045068Y-57975183D01*
X147045066Y-57975184D01*
X147045061Y-57975186D01*
X147036722Y-57980942D01*
X147017190Y-57991959D01*
X147007946Y-57996120D01*
X146959124Y-58034368D01*
X146956109Y-58036586D01*
X146905068Y-58071818D01*
X146863942Y-58118240D01*
X146861375Y-58120966D01*
X146328977Y-58653365D01*
X146267654Y-58686850D01*
X146197963Y-58681866D01*
X146142029Y-58639995D01*
X146118006Y-58578937D01*
X146114091Y-58542516D01*
X146063797Y-58407671D01*
X146063793Y-58407664D01*
X145977547Y-58292455D01*
X145977544Y-58292452D01*
X145862335Y-58206206D01*
X145862328Y-58206202D01*
X145727482Y-58155908D01*
X145727483Y-58155908D01*
X145667883Y-58149501D01*
X145667881Y-58149500D01*
X145667873Y-58149500D01*
X145667864Y-58149500D01*
X143872129Y-58149500D01*
X143872123Y-58149501D01*
X143812516Y-58155908D01*
X143677671Y-58206202D01*
X143677664Y-58206206D01*
X143562455Y-58292452D01*
X143562452Y-58292455D01*
X143476206Y-58407664D01*
X143476202Y-58407671D01*
X143426997Y-58539598D01*
X143385126Y-58595532D01*
X143319661Y-58619949D01*
X143251388Y-58605097D01*
X143223134Y-58583946D01*
X143101082Y-58461894D01*
X142907578Y-58326399D01*
X142693492Y-58226570D01*
X142693486Y-58226567D01*
X142480000Y-58169364D01*
X142480000Y-59064498D01*
X142372315Y-59015320D01*
X142265763Y-59000000D01*
X142194237Y-59000000D01*
X142087685Y-59015320D01*
X141980000Y-59064498D01*
X141980000Y-58169364D01*
X141979999Y-58169364D01*
X141766513Y-58226567D01*
X141766507Y-58226570D01*
X141552422Y-58326399D01*
X141552420Y-58326400D01*
X141358926Y-58461886D01*
X141358920Y-58461891D01*
X141191891Y-58628920D01*
X141191884Y-58628929D01*
X141089557Y-58775066D01*
X141034980Y-58818691D01*
X140965482Y-58825883D01*
X140903127Y-58794361D01*
X140880599Y-58765946D01*
X140813533Y-58649784D01*
X140686871Y-58509112D01*
X140686870Y-58509111D01*
X140533734Y-58397851D01*
X140533729Y-58397848D01*
X140360807Y-58320857D01*
X140360802Y-58320855D01*
X140215001Y-58289865D01*
X140175646Y-58281500D01*
X139986354Y-58281500D01*
X139953897Y-58288398D01*
X139801197Y-58320855D01*
X139801192Y-58320857D01*
X139628270Y-58397848D01*
X139628265Y-58397851D01*
X139475129Y-58509111D01*
X139348466Y-58649785D01*
X139253821Y-58813715D01*
X139253817Y-58813725D01*
X139235793Y-58869195D01*
X139196355Y-58926870D01*
X139131996Y-58954067D01*
X139063255Y-58942203D01*
X139040369Y-58930977D01*
X139040368Y-58930976D01*
X138950000Y-58907577D01*
X138950000Y-59729163D01*
X138898264Y-59651736D01*
X138807300Y-59590955D01*
X138700000Y-59569612D01*
X138592700Y-59590955D01*
X138501736Y-59651736D01*
X138450000Y-59729163D01*
X138450000Y-58902869D01*
X138449999Y-58902869D01*
X138268405Y-58970124D01*
X138268401Y-58970126D01*
X138100116Y-59075019D01*
X137956398Y-59211633D01*
X137956397Y-59211635D01*
X137843115Y-59374390D01*
X137764917Y-59556615D01*
X137725175Y-59749999D01*
X137725175Y-59750000D01*
X138439503Y-59750000D01*
X138425000Y-59822912D01*
X138425000Y-60177088D01*
X138439503Y-60250000D01*
X137730141Y-60250000D01*
X137740032Y-60347279D01*
X137774941Y-60458541D01*
X137776228Y-60528399D01*
X137739543Y-60587863D01*
X137730940Y-60594928D01*
X137667452Y-60642455D01*
X137581206Y-60757664D01*
X137581202Y-60757671D01*
X137532017Y-60889545D01*
X137530909Y-60892517D01*
X137524500Y-60952127D01*
X137524500Y-60952134D01*
X137524500Y-60952135D01*
X137524500Y-61447870D01*
X137524501Y-61447879D01*
X137531367Y-61511751D01*
X137531367Y-61538257D01*
X137530909Y-61542516D01*
X137530909Y-61542517D01*
X137524500Y-61602127D01*
X137524500Y-61602132D01*
X137524500Y-61602133D01*
X137524500Y-62097870D01*
X137524501Y-62097879D01*
X137531367Y-62161751D01*
X137531367Y-62188257D01*
X137530909Y-62192516D01*
X137530909Y-62192517D01*
X137524500Y-62252127D01*
X137524500Y-62252132D01*
X137524500Y-62252133D01*
X137524500Y-62747870D01*
X137524501Y-62747879D01*
X137531367Y-62811751D01*
X137531367Y-62838257D01*
X137530909Y-62842516D01*
X137530909Y-62842517D01*
X137524500Y-62902127D01*
X137524500Y-62902132D01*
X137524500Y-62902133D01*
X137524500Y-63397870D01*
X134300500Y-63397870D01*
X134300500Y-61750000D01*
X134725000Y-61750000D01*
X134725000Y-62297844D01*
X134731401Y-62357372D01*
X134731403Y-62357383D01*
X134768434Y-62456668D01*
X134773418Y-62526360D01*
X134768434Y-62543332D01*
X134731403Y-62642616D01*
X134731401Y-62642627D01*
X134725000Y-62702155D01*
X134725000Y-63250000D01*
X135750000Y-63250000D01*
X135750000Y-61750000D01*
X136250000Y-61750000D01*
X136250000Y-63250000D01*
X137275000Y-63250000D01*
X137275000Y-62702172D01*
X137274999Y-62702155D01*
X137268598Y-62642627D01*
X137268597Y-62642623D01*
X137231564Y-62543334D01*
X137226580Y-62473642D01*
X137231564Y-62456666D01*
X137268597Y-62357376D01*
X137268598Y-62357372D01*
X137274999Y-62297844D01*
X137275000Y-62297827D01*
X137275000Y-61750000D01*
X136250000Y-61750000D01*
X135750000Y-61750000D01*
X134725000Y-61750000D01*
X134300500Y-61750000D01*
X134300500Y-59850000D01*
X134725000Y-59850000D01*
X134725000Y-60247844D01*
X134731401Y-60307372D01*
X134731403Y-60307380D01*
X134777759Y-60431667D01*
X134782743Y-60501359D01*
X134777759Y-60518333D01*
X134731403Y-60642619D01*
X134731401Y-60642627D01*
X134725000Y-60702155D01*
X134725000Y-61250000D01*
X135750000Y-61250000D01*
X135750000Y-59850000D01*
X136250000Y-59850000D01*
X136250000Y-61250000D01*
X137275000Y-61250000D01*
X137275000Y-60702172D01*
X137274999Y-60702155D01*
X137268598Y-60642627D01*
X137268595Y-60642616D01*
X137222240Y-60518334D01*
X137217255Y-60448643D01*
X137222240Y-60431666D01*
X137268595Y-60307383D01*
X137268598Y-60307372D01*
X137274999Y-60247844D01*
X137275000Y-60247827D01*
X137275000Y-59850000D01*
X136250000Y-59850000D01*
X135750000Y-59850000D01*
X134725000Y-59850000D01*
X134300500Y-59850000D01*
X134300500Y-59350000D01*
X134725000Y-59350000D01*
X137275000Y-59350000D01*
X137275000Y-59250000D01*
X136349624Y-59250000D01*
X136422545Y-59235495D01*
X136505240Y-59180240D01*
X136560495Y-59097545D01*
X136579898Y-59000000D01*
X136560495Y-58902455D01*
X136505240Y-58819760D01*
X136422545Y-58764505D01*
X136349624Y-58750000D01*
X137245138Y-58750000D01*
X137182801Y-58581685D01*
X137182797Y-58581676D01*
X137081140Y-58418580D01*
X137081135Y-58418575D01*
X136948725Y-58279279D01*
X136790974Y-58169481D01*
X136614357Y-58093689D01*
X136426097Y-58055000D01*
X136250000Y-58055000D01*
X136250000Y-58750000D01*
X135750000Y-58750000D01*
X135750000Y-58055000D01*
X135622079Y-58055000D01*
X135478790Y-58069570D01*
X135295420Y-58127103D01*
X135295410Y-58127108D01*
X135127366Y-58220380D01*
X135127365Y-58220380D01*
X134981539Y-58345567D01*
X134981538Y-58345568D01*
X134863897Y-58497548D01*
X134863895Y-58497552D01*
X134779254Y-58670106D01*
X134758568Y-58750000D01*
X135650376Y-58750000D01*
X135577455Y-58764505D01*
X135494760Y-58819760D01*
X135439505Y-58902455D01*
X135420102Y-59000000D01*
X135439505Y-59097545D01*
X135494760Y-59180240D01*
X135577455Y-59235495D01*
X135650376Y-59250000D01*
X134725000Y-59250000D01*
X134725000Y-59350000D01*
X134300500Y-59350000D01*
X134300500Y-56861500D01*
X134320185Y-56794461D01*
X134372989Y-56748706D01*
X134424500Y-56737500D01*
X198369500Y-56737500D01*
X198436539Y-56757185D01*
G37*
%TD.AperFunction*%
%TD*%
M02*
