%TF.GenerationSoftware,KiCad,Pcbnew,7.0.9*%
%TF.CreationDate,2023-12-22T19:30:16+01:00*%
%TF.ProjectId,Prj_4_Feranec_Controller,50726a5f-345f-4466-9572-616e65635f43,rev?*%
%TF.SameCoordinates,Original*%
%TF.FileFunction,Copper,L2,Inr*%
%TF.FilePolarity,Positive*%
%FSLAX46Y46*%
G04 Gerber Fmt 4.6, Leading zero omitted, Abs format (unit mm)*
G04 Created by KiCad (PCBNEW 7.0.9) date 2023-12-22 19:30:16*
%MOMM*%
%LPD*%
G01*
G04 APERTURE LIST*
%TA.AperFunction,ComponentPad*%
%ADD10O,1.550000X0.890000*%
%TD*%
%TA.AperFunction,ComponentPad*%
%ADD11O,0.950000X1.250000*%
%TD*%
%TA.AperFunction,ComponentPad*%
%ADD12R,1.000000X1.000000*%
%TD*%
%TA.AperFunction,ComponentPad*%
%ADD13O,1.000000X1.000000*%
%TD*%
%TA.AperFunction,ComponentPad*%
%ADD14R,1.700000X1.700000*%
%TD*%
%TA.AperFunction,ComponentPad*%
%ADD15O,1.700000X1.700000*%
%TD*%
%TA.AperFunction,ViaPad*%
%ADD16C,0.800000*%
%TD*%
G04 APERTURE END LIST*
D10*
%TO.N,GND*%
%TO.C,USB1*%
X136000000Y-59000000D03*
D11*
X138700000Y-60000000D03*
X138700000Y-65000000D03*
D10*
X136000000Y-66000000D03*
%TD*%
D12*
%TO.N,/I2C1_SDA*%
%TO.C,H3*%
X170817000Y-58293000D03*
D13*
%TO.N,/I2C1_SCL*%
X172087000Y-58293000D03*
%TO.N,GND*%
X173357000Y-58293000D03*
%TO.N,/BUTTON*%
X174627000Y-58293000D03*
%TD*%
D14*
%TO.N,Net-(H2-Pin_1)*%
%TO.C,H2*%
X143891000Y-66421000D03*
D15*
%TO.N,+3.3V*%
X146431000Y-66421000D03*
%TO.N,GND*%
X148971000Y-66421000D03*
%TO.N,/ICSPDAT*%
X151511000Y-66421000D03*
%TO.N,/ICSPCLK*%
X154051000Y-66421000D03*
%TD*%
D14*
%TO.N,/+VBAT*%
%TO.C,H1*%
X144770000Y-59500000D03*
D15*
%TO.N,GND*%
X142230000Y-59500000D03*
%TD*%
D16*
%TO.N,GND*%
X168986200Y-65735200D03*
%TO.N,/I2C1_SCL*%
X176174400Y-61925200D03*
%TO.N,/I2C1_SDA*%
X174802800Y-65428000D03*
%TO.N,/+VIN*%
X197104000Y-64867000D03*
X157863731Y-63242840D03*
%TO.N,/I2C1_SDA*%
X180390800Y-65430400D03*
%TO.N,+3.3V*%
X187701785Y-62084501D03*
%TO.N,/LED_G*%
X188468000Y-65913000D03*
%TO.N,/LED_R*%
X184024423Y-58009671D03*
%TO.N,+3.3V*%
X185166000Y-66040000D03*
%TO.N,GND*%
X148209000Y-62230000D03*
%TO.N,/+5V_USB*%
X141732000Y-62738000D03*
%TO.N,Net-(USB1-D-)*%
X140843000Y-61849000D03*
X153797000Y-60833000D03*
%TO.N,/+5V_USB*%
X140081000Y-59182000D03*
%TO.N,/LED_R*%
X162814000Y-63881000D03*
%TO.N,/LED_G*%
X162814000Y-66548000D03*
%TO.N,/LED_B*%
X163068684Y-62859687D03*
X188595000Y-62611000D03*
%TO.N,GND*%
X187960000Y-58450000D03*
X187325000Y-65913000D03*
%TO.N,/INT*%
X186563000Y-62133000D03*
%TO.N,+3.3V*%
X186817000Y-58420000D03*
%TO.N,/I2C1_SCL*%
X185674000Y-58450000D03*
%TO.N,GND*%
X183976000Y-59008000D03*
%TO.N,+3.3V*%
X176123600Y-63614900D03*
X176936400Y-60706000D03*
%TO.N,GND*%
X184023000Y-67300500D03*
%TO.N,+3.3V*%
X166751000Y-59152000D03*
%TO.N,/INT*%
X174879000Y-62200000D03*
%TO.N,/ICSPCLK*%
X170815000Y-63089000D03*
%TO.N,/ICSPDAT*%
X170815000Y-61946000D03*
%TO.N,GND*%
X170815000Y-60803000D03*
%TO.N,Net-(H2-Pin_1)*%
X167513000Y-61946000D03*
%TO.N,GND*%
X163322000Y-58293000D03*
%TO.N,+3.3V*%
X161163000Y-63500000D03*
X160147000Y-63500000D03*
%TO.N,/+5V_USB*%
X147320000Y-61214000D03*
%TO.N,GND*%
X156845000Y-67183000D03*
X156845000Y-64516000D03*
X158877000Y-63119000D03*
X154813000Y-64516000D03*
X155194000Y-60833000D03*
%TD*%
%TA.AperFunction,Conductor*%
%TO.N,GND*%
G36*
X198436539Y-56757185D02*
G01*
X198482294Y-56809989D01*
X198493500Y-56861500D01*
X198493500Y-68155500D01*
X198473815Y-68222539D01*
X198421011Y-68268294D01*
X198369500Y-68279500D01*
X134424500Y-68279500D01*
X134357461Y-68259815D01*
X134311706Y-68207011D01*
X134300500Y-68155500D01*
X134300500Y-67318870D01*
X142540500Y-67318870D01*
X142540501Y-67318876D01*
X142546908Y-67378483D01*
X142597202Y-67513328D01*
X142597206Y-67513335D01*
X142683452Y-67628544D01*
X142683455Y-67628547D01*
X142798664Y-67714793D01*
X142798671Y-67714797D01*
X142933517Y-67765091D01*
X142933516Y-67765091D01*
X142940444Y-67765835D01*
X142993127Y-67771500D01*
X144788872Y-67771499D01*
X144848483Y-67765091D01*
X144983331Y-67714796D01*
X145098546Y-67628546D01*
X145184796Y-67513331D01*
X145233810Y-67381916D01*
X145275681Y-67325984D01*
X145341145Y-67301566D01*
X145409418Y-67316417D01*
X145437673Y-67337569D01*
X145559599Y-67459495D01*
X145656384Y-67527265D01*
X145753165Y-67595032D01*
X145753167Y-67595033D01*
X145753170Y-67595035D01*
X145967337Y-67694903D01*
X146195592Y-67756063D01*
X146372034Y-67771500D01*
X146430999Y-67776659D01*
X146431000Y-67776659D01*
X146431001Y-67776659D01*
X146489966Y-67771500D01*
X146666408Y-67756063D01*
X146894663Y-67694903D01*
X147108830Y-67595035D01*
X147302401Y-67459495D01*
X147469495Y-67292401D01*
X147599730Y-67106405D01*
X147654307Y-67062781D01*
X147723805Y-67055587D01*
X147786160Y-67087110D01*
X147802879Y-67106405D01*
X147932890Y-67292078D01*
X148099917Y-67459105D01*
X148293421Y-67594600D01*
X148507507Y-67694429D01*
X148507516Y-67694433D01*
X148721000Y-67751634D01*
X148721000Y-66856501D01*
X148828685Y-66905680D01*
X148935237Y-66921000D01*
X149006763Y-66921000D01*
X149113315Y-66905680D01*
X149221000Y-66856501D01*
X149221000Y-67751633D01*
X149434483Y-67694433D01*
X149434492Y-67694429D01*
X149648578Y-67594600D01*
X149842082Y-67459105D01*
X150009105Y-67292082D01*
X150139119Y-67106405D01*
X150193696Y-67062781D01*
X150263195Y-67055588D01*
X150325549Y-67087110D01*
X150342269Y-67106405D01*
X150472505Y-67292401D01*
X150639599Y-67459495D01*
X150736384Y-67527265D01*
X150833165Y-67595032D01*
X150833167Y-67595033D01*
X150833170Y-67595035D01*
X151047337Y-67694903D01*
X151275592Y-67756063D01*
X151452034Y-67771500D01*
X151510999Y-67776659D01*
X151511000Y-67776659D01*
X151511001Y-67776659D01*
X151569966Y-67771500D01*
X151746408Y-67756063D01*
X151974663Y-67694903D01*
X152188830Y-67595035D01*
X152382401Y-67459495D01*
X152549495Y-67292401D01*
X152679425Y-67106842D01*
X152734002Y-67063217D01*
X152803500Y-67056023D01*
X152865855Y-67087546D01*
X152882575Y-67106842D01*
X153012500Y-67292395D01*
X153012505Y-67292401D01*
X153179599Y-67459495D01*
X153276384Y-67527265D01*
X153373165Y-67595032D01*
X153373167Y-67595033D01*
X153373170Y-67595035D01*
X153587337Y-67694903D01*
X153815592Y-67756063D01*
X153992034Y-67771500D01*
X154050999Y-67776659D01*
X154051000Y-67776659D01*
X154051001Y-67776659D01*
X154109966Y-67771500D01*
X154286408Y-67756063D01*
X154514663Y-67694903D01*
X154728830Y-67595035D01*
X154922401Y-67459495D01*
X155089495Y-67292401D01*
X155225035Y-67098830D01*
X155324903Y-66884663D01*
X155386063Y-66656408D01*
X155395548Y-66548000D01*
X161908540Y-66548000D01*
X161928326Y-66736256D01*
X161928327Y-66736259D01*
X161986818Y-66916277D01*
X161986821Y-66916284D01*
X162081467Y-67080216D01*
X162208129Y-67220888D01*
X162361265Y-67332148D01*
X162361270Y-67332151D01*
X162534192Y-67409142D01*
X162534197Y-67409144D01*
X162719354Y-67448500D01*
X162719355Y-67448500D01*
X162908644Y-67448500D01*
X162908646Y-67448500D01*
X163093803Y-67409144D01*
X163266730Y-67332151D01*
X163419871Y-67220888D01*
X163546533Y-67080216D01*
X163641179Y-66916284D01*
X163699674Y-66736256D01*
X163719460Y-66548000D01*
X163699674Y-66359744D01*
X163641179Y-66179716D01*
X163546533Y-66015784D01*
X163419871Y-65875112D01*
X163419870Y-65875111D01*
X163266734Y-65763851D01*
X163266729Y-65763848D01*
X163093807Y-65686857D01*
X163093802Y-65686855D01*
X162948001Y-65655865D01*
X162908646Y-65647500D01*
X162719354Y-65647500D01*
X162686897Y-65654398D01*
X162534197Y-65686855D01*
X162534192Y-65686857D01*
X162361270Y-65763848D01*
X162361265Y-65763851D01*
X162208129Y-65875111D01*
X162081466Y-66015785D01*
X161986821Y-66179715D01*
X161986818Y-66179722D01*
X161938025Y-66329893D01*
X161928326Y-66359744D01*
X161908540Y-66548000D01*
X155395548Y-66548000D01*
X155406659Y-66421000D01*
X155405546Y-66408284D01*
X155395333Y-66291544D01*
X155386063Y-66185592D01*
X155331429Y-65981693D01*
X155324905Y-65957344D01*
X155324904Y-65957343D01*
X155324903Y-65957337D01*
X155225035Y-65743171D01*
X155219731Y-65735595D01*
X155089494Y-65549597D01*
X154967896Y-65428000D01*
X173897340Y-65428000D01*
X173917126Y-65616256D01*
X173917127Y-65616259D01*
X173975618Y-65796277D01*
X173975621Y-65796284D01*
X174070267Y-65960216D01*
X174142105Y-66040000D01*
X174196929Y-66100888D01*
X174350065Y-66212148D01*
X174350070Y-66212151D01*
X174522992Y-66289142D01*
X174522997Y-66289144D01*
X174708154Y-66328500D01*
X174708155Y-66328500D01*
X174897444Y-66328500D01*
X174897446Y-66328500D01*
X175082603Y-66289144D01*
X175255530Y-66212151D01*
X175408671Y-66100888D01*
X175535333Y-65960216D01*
X175629979Y-65796284D01*
X175688474Y-65616256D01*
X175708008Y-65430400D01*
X179485340Y-65430400D01*
X179505126Y-65618656D01*
X179505127Y-65618659D01*
X179563618Y-65798677D01*
X179563621Y-65798684D01*
X179658267Y-65962616D01*
X179727944Y-66040000D01*
X179784929Y-66103288D01*
X179938065Y-66214548D01*
X179938070Y-66214551D01*
X180110992Y-66291542D01*
X180110997Y-66291544D01*
X180296154Y-66330900D01*
X180296155Y-66330900D01*
X180485444Y-66330900D01*
X180485446Y-66330900D01*
X180670603Y-66291544D01*
X180843530Y-66214551D01*
X180996671Y-66103288D01*
X181053656Y-66040000D01*
X184260540Y-66040000D01*
X184280326Y-66228256D01*
X184280327Y-66228259D01*
X184338818Y-66408277D01*
X184338821Y-66408284D01*
X184433467Y-66572216D01*
X184507494Y-66654431D01*
X184560129Y-66712888D01*
X184713265Y-66824148D01*
X184713270Y-66824151D01*
X184886192Y-66901142D01*
X184886197Y-66901144D01*
X185071354Y-66940500D01*
X185071355Y-66940500D01*
X185260644Y-66940500D01*
X185260646Y-66940500D01*
X185445803Y-66901144D01*
X185618730Y-66824151D01*
X185771871Y-66712888D01*
X185898533Y-66572216D01*
X185993179Y-66408284D01*
X186051674Y-66228256D01*
X186071460Y-66040000D01*
X186058112Y-65913000D01*
X187562540Y-65913000D01*
X187582326Y-66101256D01*
X187582327Y-66101259D01*
X187640818Y-66281277D01*
X187640821Y-66281284D01*
X187735467Y-66445216D01*
X187849817Y-66572214D01*
X187862129Y-66585888D01*
X188015265Y-66697148D01*
X188015270Y-66697151D01*
X188188192Y-66774142D01*
X188188197Y-66774144D01*
X188373354Y-66813500D01*
X188373355Y-66813500D01*
X188562644Y-66813500D01*
X188562646Y-66813500D01*
X188747803Y-66774144D01*
X188920730Y-66697151D01*
X189073871Y-66585888D01*
X189200533Y-66445216D01*
X189295179Y-66281284D01*
X189353674Y-66101256D01*
X189373460Y-65913000D01*
X189353674Y-65724744D01*
X189295179Y-65544716D01*
X189200533Y-65380784D01*
X189073871Y-65240112D01*
X189073870Y-65240111D01*
X188920734Y-65128851D01*
X188920729Y-65128848D01*
X188747807Y-65051857D01*
X188747802Y-65051855D01*
X188602001Y-65020865D01*
X188562646Y-65012500D01*
X188373354Y-65012500D01*
X188340897Y-65019398D01*
X188188197Y-65051855D01*
X188188192Y-65051857D01*
X188015270Y-65128848D01*
X188015265Y-65128851D01*
X187862129Y-65240111D01*
X187735466Y-65380785D01*
X187640821Y-65544715D01*
X187640818Y-65544722D01*
X187582327Y-65724740D01*
X187582326Y-65724744D01*
X187562540Y-65913000D01*
X186058112Y-65913000D01*
X186051674Y-65851744D01*
X185993179Y-65671716D01*
X185898533Y-65507784D01*
X185771871Y-65367112D01*
X185745929Y-65348264D01*
X185618734Y-65255851D01*
X185618729Y-65255848D01*
X185445807Y-65178857D01*
X185445802Y-65178855D01*
X185296373Y-65147094D01*
X185260646Y-65139500D01*
X185071354Y-65139500D01*
X185038897Y-65146398D01*
X184886197Y-65178855D01*
X184886192Y-65178857D01*
X184713270Y-65255848D01*
X184713265Y-65255851D01*
X184560129Y-65367111D01*
X184433466Y-65507785D01*
X184338821Y-65671715D01*
X184338818Y-65671722D01*
X184297566Y-65798684D01*
X184280326Y-65851744D01*
X184260540Y-66040000D01*
X181053656Y-66040000D01*
X181123333Y-65962616D01*
X181217979Y-65798684D01*
X181276474Y-65618656D01*
X181296260Y-65430400D01*
X181276474Y-65242144D01*
X181217979Y-65062116D01*
X181123333Y-64898184D01*
X181095255Y-64867000D01*
X196198540Y-64867000D01*
X196218326Y-65055256D01*
X196218327Y-65055259D01*
X196276818Y-65235277D01*
X196276821Y-65235284D01*
X196371467Y-65399216D01*
X196491864Y-65532930D01*
X196498129Y-65539888D01*
X196651265Y-65651148D01*
X196651270Y-65651151D01*
X196824192Y-65728142D01*
X196824197Y-65728144D01*
X197009354Y-65767500D01*
X197009355Y-65767500D01*
X197198644Y-65767500D01*
X197198646Y-65767500D01*
X197383803Y-65728144D01*
X197556730Y-65651151D01*
X197709871Y-65539888D01*
X197836533Y-65399216D01*
X197931179Y-65235284D01*
X197989674Y-65055256D01*
X198009460Y-64867000D01*
X197989674Y-64678744D01*
X197931179Y-64498716D01*
X197836533Y-64334784D01*
X197709871Y-64194112D01*
X197680659Y-64172888D01*
X197556734Y-64082851D01*
X197556729Y-64082848D01*
X197383807Y-64005857D01*
X197383802Y-64005855D01*
X197215705Y-63970126D01*
X197198646Y-63966500D01*
X197009354Y-63966500D01*
X196992295Y-63970126D01*
X196824197Y-64005855D01*
X196824192Y-64005857D01*
X196651270Y-64082848D01*
X196651265Y-64082851D01*
X196498129Y-64194111D01*
X196371466Y-64334785D01*
X196276821Y-64498715D01*
X196276818Y-64498722D01*
X196218327Y-64678740D01*
X196218326Y-64678744D01*
X196198540Y-64867000D01*
X181095255Y-64867000D01*
X180996671Y-64757512D01*
X180993368Y-64755112D01*
X180843534Y-64646251D01*
X180843529Y-64646248D01*
X180670607Y-64569257D01*
X180670602Y-64569255D01*
X180524801Y-64538265D01*
X180485446Y-64529900D01*
X180296154Y-64529900D01*
X180263697Y-64536798D01*
X180110997Y-64569255D01*
X180110992Y-64569257D01*
X179938070Y-64646248D01*
X179938065Y-64646251D01*
X179784929Y-64757511D01*
X179658266Y-64898185D01*
X179563621Y-65062115D01*
X179563618Y-65062122D01*
X179505786Y-65240112D01*
X179505126Y-65242144D01*
X179485340Y-65430400D01*
X175708008Y-65430400D01*
X175708260Y-65428000D01*
X175688474Y-65239744D01*
X175630759Y-65062116D01*
X175629981Y-65059722D01*
X175629980Y-65059721D01*
X175629979Y-65059716D01*
X175535333Y-64895784D01*
X175408671Y-64755112D01*
X175401634Y-64749999D01*
X175255534Y-64643851D01*
X175255529Y-64643848D01*
X175082607Y-64566857D01*
X175082602Y-64566855D01*
X174936801Y-64535865D01*
X174897446Y-64527500D01*
X174708154Y-64527500D01*
X174696863Y-64529900D01*
X174522997Y-64566855D01*
X174522992Y-64566857D01*
X174350070Y-64643848D01*
X174350065Y-64643851D01*
X174196929Y-64755111D01*
X174070266Y-64895785D01*
X173975621Y-65059715D01*
X173975618Y-65059722D01*
X173918577Y-65235277D01*
X173917126Y-65239744D01*
X173897340Y-65428000D01*
X154967896Y-65428000D01*
X154922402Y-65382506D01*
X154922395Y-65382501D01*
X154919944Y-65380785D01*
X154845518Y-65328671D01*
X154728834Y-65246967D01*
X154728830Y-65246965D01*
X154714132Y-65240111D01*
X154514663Y-65147097D01*
X154514659Y-65147096D01*
X154514655Y-65147094D01*
X154286413Y-65085938D01*
X154286403Y-65085936D01*
X154051001Y-65065341D01*
X154050999Y-65065341D01*
X153815596Y-65085936D01*
X153815586Y-65085938D01*
X153587344Y-65147094D01*
X153587335Y-65147098D01*
X153373171Y-65246964D01*
X153373169Y-65246965D01*
X153179597Y-65382505D01*
X153012505Y-65549597D01*
X152882575Y-65735158D01*
X152827998Y-65778783D01*
X152758500Y-65785977D01*
X152696145Y-65754454D01*
X152679425Y-65735158D01*
X152549494Y-65549597D01*
X152382402Y-65382506D01*
X152382395Y-65382501D01*
X152379944Y-65380785D01*
X152305518Y-65328671D01*
X152188834Y-65246967D01*
X152188830Y-65246965D01*
X152174132Y-65240111D01*
X151974663Y-65147097D01*
X151974659Y-65147096D01*
X151974655Y-65147094D01*
X151746413Y-65085938D01*
X151746403Y-65085936D01*
X151511001Y-65065341D01*
X151510999Y-65065341D01*
X151275596Y-65085936D01*
X151275586Y-65085938D01*
X151047344Y-65147094D01*
X151047335Y-65147098D01*
X150833171Y-65246964D01*
X150833169Y-65246965D01*
X150639597Y-65382505D01*
X150472508Y-65549594D01*
X150342269Y-65735595D01*
X150287692Y-65779219D01*
X150218193Y-65786412D01*
X150155839Y-65754890D01*
X150139119Y-65735594D01*
X150009113Y-65549926D01*
X150009108Y-65549920D01*
X149842082Y-65382894D01*
X149648578Y-65247399D01*
X149434492Y-65147570D01*
X149434486Y-65147567D01*
X149221000Y-65090364D01*
X149221000Y-65985498D01*
X149113315Y-65936320D01*
X149006763Y-65921000D01*
X148935237Y-65921000D01*
X148828685Y-65936320D01*
X148721000Y-65985498D01*
X148721000Y-65090364D01*
X148720999Y-65090364D01*
X148507513Y-65147567D01*
X148507507Y-65147570D01*
X148293422Y-65247399D01*
X148293420Y-65247400D01*
X148099926Y-65382886D01*
X148099920Y-65382891D01*
X147932891Y-65549920D01*
X147932890Y-65549922D01*
X147802880Y-65735595D01*
X147748303Y-65779219D01*
X147678804Y-65786412D01*
X147616450Y-65754890D01*
X147599730Y-65735594D01*
X147469494Y-65549597D01*
X147302402Y-65382506D01*
X147302395Y-65382501D01*
X147299944Y-65380785D01*
X147225518Y-65328671D01*
X147108834Y-65246967D01*
X147108830Y-65246965D01*
X147094132Y-65240111D01*
X146894663Y-65147097D01*
X146894659Y-65147096D01*
X146894655Y-65147094D01*
X146666413Y-65085938D01*
X146666403Y-65085936D01*
X146431001Y-65065341D01*
X146430999Y-65065341D01*
X146195596Y-65085936D01*
X146195586Y-65085938D01*
X145967344Y-65147094D01*
X145967335Y-65147098D01*
X145753171Y-65246964D01*
X145753169Y-65246965D01*
X145559600Y-65382503D01*
X145437673Y-65504430D01*
X145376350Y-65537914D01*
X145306658Y-65532930D01*
X145250725Y-65491058D01*
X145233810Y-65460081D01*
X145184797Y-65328671D01*
X145184793Y-65328664D01*
X145098547Y-65213455D01*
X145098544Y-65213452D01*
X144983335Y-65127206D01*
X144983328Y-65127202D01*
X144848482Y-65076908D01*
X144848483Y-65076908D01*
X144788883Y-65070501D01*
X144788881Y-65070500D01*
X144788873Y-65070500D01*
X144788864Y-65070500D01*
X142993129Y-65070500D01*
X142993123Y-65070501D01*
X142933516Y-65076908D01*
X142798671Y-65127202D01*
X142798664Y-65127206D01*
X142683455Y-65213452D01*
X142683452Y-65213455D01*
X142597206Y-65328664D01*
X142597202Y-65328671D01*
X142546908Y-65463517D01*
X142540501Y-65523116D01*
X142540500Y-65523135D01*
X142540500Y-67318870D01*
X134300500Y-67318870D01*
X134300500Y-66250000D01*
X134754862Y-66250000D01*
X134817198Y-66418314D01*
X134817202Y-66418323D01*
X134918859Y-66581419D01*
X134918864Y-66581424D01*
X135051274Y-66720720D01*
X135209025Y-66830518D01*
X135385642Y-66906310D01*
X135573903Y-66945000D01*
X135750000Y-66945000D01*
X135750000Y-66250000D01*
X136250000Y-66250000D01*
X136250000Y-66945000D01*
X136377921Y-66945000D01*
X136521209Y-66930429D01*
X136704579Y-66872896D01*
X136704589Y-66872891D01*
X136872633Y-66779619D01*
X136872634Y-66779619D01*
X137018460Y-66654432D01*
X137018461Y-66654431D01*
X137136102Y-66502451D01*
X137136104Y-66502447D01*
X137220745Y-66329893D01*
X137241432Y-66250000D01*
X136349624Y-66250000D01*
X136422545Y-66235495D01*
X136505240Y-66180240D01*
X136560495Y-66097545D01*
X136579898Y-66000000D01*
X136560495Y-65902455D01*
X136505240Y-65819760D01*
X136422545Y-65764505D01*
X136349624Y-65750000D01*
X137245138Y-65750000D01*
X137182801Y-65581685D01*
X137182797Y-65581676D01*
X137081140Y-65418580D01*
X137081135Y-65418575D01*
X136948725Y-65279279D01*
X136790974Y-65169481D01*
X136614357Y-65093689D01*
X136426097Y-65055000D01*
X136250000Y-65055000D01*
X136250000Y-65750000D01*
X135750000Y-65750000D01*
X135750000Y-65055000D01*
X135622079Y-65055000D01*
X135478790Y-65069570D01*
X135295420Y-65127103D01*
X135295410Y-65127108D01*
X135127366Y-65220380D01*
X135127365Y-65220380D01*
X134981539Y-65345567D01*
X134981538Y-65345568D01*
X134863897Y-65497548D01*
X134863895Y-65497552D01*
X134779254Y-65670106D01*
X134758568Y-65750000D01*
X135650376Y-65750000D01*
X135577455Y-65764505D01*
X135494760Y-65819760D01*
X135439505Y-65902455D01*
X135420102Y-66000000D01*
X135439505Y-66097545D01*
X135494760Y-66180240D01*
X135577455Y-66235495D01*
X135650376Y-66250000D01*
X134754862Y-66250000D01*
X134300500Y-66250000D01*
X134300500Y-64750000D01*
X137725175Y-64750000D01*
X138439503Y-64750000D01*
X138425000Y-64822912D01*
X138425000Y-65177088D01*
X138439503Y-65250000D01*
X137730141Y-65250000D01*
X137740032Y-65347279D01*
X137799392Y-65536471D01*
X137799399Y-65536486D01*
X137895627Y-65709856D01*
X137895630Y-65709861D01*
X138024791Y-65860315D01*
X138024792Y-65860317D01*
X138181597Y-65981693D01*
X138181601Y-65981695D01*
X138359629Y-66069022D01*
X138449999Y-66092420D01*
X138450000Y-66092420D01*
X138450000Y-65270836D01*
X138501736Y-65348264D01*
X138592700Y-65409045D01*
X138700000Y-65430388D01*
X138807300Y-65409045D01*
X138898264Y-65348264D01*
X138950000Y-65270836D01*
X138950000Y-66097130D01*
X139131591Y-66029877D01*
X139131598Y-66029873D01*
X139299883Y-65924980D01*
X139443601Y-65788366D01*
X139443602Y-65788364D01*
X139556884Y-65625609D01*
X139635082Y-65443384D01*
X139674825Y-65250000D01*
X138960497Y-65250000D01*
X138975000Y-65177088D01*
X138975000Y-64822912D01*
X138960497Y-64750000D01*
X139669858Y-64750000D01*
X139669858Y-64749999D01*
X139659967Y-64652720D01*
X139600607Y-64463528D01*
X139600600Y-64463513D01*
X139504372Y-64290143D01*
X139504369Y-64290138D01*
X139375208Y-64139684D01*
X139375207Y-64139682D01*
X139218402Y-64018306D01*
X139218398Y-64018304D01*
X139040366Y-63930976D01*
X138950000Y-63907577D01*
X138950000Y-64729163D01*
X138898264Y-64651736D01*
X138807300Y-64590955D01*
X138700000Y-64569612D01*
X138592700Y-64590955D01*
X138501736Y-64651736D01*
X138450000Y-64729163D01*
X138450000Y-63902869D01*
X138449999Y-63902869D01*
X138268405Y-63970124D01*
X138268401Y-63970126D01*
X138100116Y-64075019D01*
X137956398Y-64211633D01*
X137956397Y-64211635D01*
X137843115Y-64374390D01*
X137764917Y-64556615D01*
X137725175Y-64749999D01*
X137725175Y-64750000D01*
X134300500Y-64750000D01*
X134300500Y-61849000D01*
X139937540Y-61849000D01*
X139957326Y-62037256D01*
X139957327Y-62037259D01*
X140015818Y-62217277D01*
X140015821Y-62217284D01*
X140110467Y-62381216D01*
X140209679Y-62491402D01*
X140237129Y-62521888D01*
X140390265Y-62633148D01*
X140390270Y-62633151D01*
X140563192Y-62710142D01*
X140563193Y-62710142D01*
X140563197Y-62710144D01*
X140741439Y-62748030D01*
X140802921Y-62781222D01*
X140836698Y-62842385D01*
X140838979Y-62856353D01*
X140846326Y-62926256D01*
X140846327Y-62926259D01*
X140904818Y-63106277D01*
X140904821Y-63106284D01*
X140999467Y-63270216D01*
X141108340Y-63391131D01*
X141126129Y-63410888D01*
X141279265Y-63522148D01*
X141279270Y-63522151D01*
X141452192Y-63599142D01*
X141452197Y-63599144D01*
X141637354Y-63638500D01*
X141637355Y-63638500D01*
X141826644Y-63638500D01*
X141826646Y-63638500D01*
X142011803Y-63599144D01*
X142184730Y-63522151D01*
X142337871Y-63410888D01*
X142464533Y-63270216D01*
X142480339Y-63242840D01*
X156958271Y-63242840D01*
X156978057Y-63431096D01*
X156978058Y-63431099D01*
X157036549Y-63611117D01*
X157036552Y-63611124D01*
X157131198Y-63775056D01*
X157226591Y-63881000D01*
X157257860Y-63915728D01*
X157410996Y-64026988D01*
X157411001Y-64026991D01*
X157583923Y-64103982D01*
X157583928Y-64103984D01*
X157769085Y-64143340D01*
X157769086Y-64143340D01*
X157958375Y-64143340D01*
X157958377Y-64143340D01*
X158143534Y-64103984D01*
X158316461Y-64026991D01*
X158469602Y-63915728D01*
X158596264Y-63775056D01*
X158690910Y-63611124D01*
X158727017Y-63500000D01*
X159241540Y-63500000D01*
X159261326Y-63688256D01*
X159261327Y-63688259D01*
X159319818Y-63868277D01*
X159319821Y-63868284D01*
X159414467Y-64032216D01*
X159509930Y-64138238D01*
X159541129Y-64172888D01*
X159694265Y-64284148D01*
X159694270Y-64284151D01*
X159867192Y-64361142D01*
X159867197Y-64361144D01*
X160052354Y-64400500D01*
X160052355Y-64400500D01*
X160241644Y-64400500D01*
X160241646Y-64400500D01*
X160426803Y-64361144D01*
X160599730Y-64284151D01*
X160599734Y-64284148D01*
X160604563Y-64281998D01*
X160673813Y-64272712D01*
X160705437Y-64281998D01*
X160710265Y-64284148D01*
X160710270Y-64284151D01*
X160883197Y-64361144D01*
X161068354Y-64400500D01*
X161068355Y-64400500D01*
X161257644Y-64400500D01*
X161257646Y-64400500D01*
X161442803Y-64361144D01*
X161615730Y-64284151D01*
X161768871Y-64172888D01*
X161768875Y-64172883D01*
X161773700Y-64168540D01*
X161775011Y-64169996D01*
X161826546Y-64138238D01*
X161896403Y-64139560D01*
X161954456Y-64178439D01*
X161977155Y-64219536D01*
X161986819Y-64249280D01*
X161986821Y-64249284D01*
X162081467Y-64413216D01*
X162138036Y-64476042D01*
X162208129Y-64553888D01*
X162361265Y-64665148D01*
X162361270Y-64665151D01*
X162534192Y-64742142D01*
X162534197Y-64742144D01*
X162719354Y-64781500D01*
X162719355Y-64781500D01*
X162908644Y-64781500D01*
X162908646Y-64781500D01*
X163093803Y-64742144D01*
X163266730Y-64665151D01*
X163419871Y-64553888D01*
X163546533Y-64413216D01*
X163641179Y-64249284D01*
X163699674Y-64069256D01*
X163719460Y-63881000D01*
X163699674Y-63692744D01*
X163676892Y-63622632D01*
X163674897Y-63552794D01*
X163702672Y-63501347D01*
X163801217Y-63391903D01*
X163801218Y-63391900D01*
X163801220Y-63391899D01*
X163863579Y-63283888D01*
X163895863Y-63227971D01*
X163941018Y-63089000D01*
X169909540Y-63089000D01*
X169929326Y-63277256D01*
X169929327Y-63277259D01*
X169987818Y-63457277D01*
X169987821Y-63457284D01*
X170082467Y-63621216D01*
X170209129Y-63761888D01*
X170362265Y-63873148D01*
X170362270Y-63873151D01*
X170535192Y-63950142D01*
X170535197Y-63950144D01*
X170720354Y-63989500D01*
X170720355Y-63989500D01*
X170909644Y-63989500D01*
X170909646Y-63989500D01*
X171094803Y-63950144D01*
X171267730Y-63873151D01*
X171420871Y-63761888D01*
X171547533Y-63621216D01*
X171642179Y-63457284D01*
X171700674Y-63277256D01*
X171720460Y-63089000D01*
X171700674Y-62900744D01*
X171642179Y-62720716D01*
X171560647Y-62579499D01*
X171544175Y-62511600D01*
X171560648Y-62455500D01*
X171642179Y-62314284D01*
X171679312Y-62200000D01*
X173973540Y-62200000D01*
X173993326Y-62388256D01*
X173993327Y-62388259D01*
X174051818Y-62568277D01*
X174051821Y-62568284D01*
X174146467Y-62732216D01*
X174231911Y-62827111D01*
X174273129Y-62872888D01*
X174426265Y-62984148D01*
X174426270Y-62984151D01*
X174599192Y-63061142D01*
X174599197Y-63061144D01*
X174784354Y-63100500D01*
X174784355Y-63100500D01*
X174973644Y-63100500D01*
X174973646Y-63100500D01*
X175150782Y-63062849D01*
X175165160Y-63059793D01*
X175165809Y-63062849D01*
X175221937Y-63060924D01*
X175281976Y-63096659D01*
X175313164Y-63159182D01*
X175305599Y-63228641D01*
X175298498Y-63243018D01*
X175296422Y-63246614D01*
X175296418Y-63246622D01*
X175243045Y-63410888D01*
X175237926Y-63426644D01*
X175218140Y-63614900D01*
X175237926Y-63803156D01*
X175237927Y-63803159D01*
X175296418Y-63983177D01*
X175296421Y-63983184D01*
X175391067Y-64147116D01*
X175512516Y-64281998D01*
X175517729Y-64287788D01*
X175670865Y-64399048D01*
X175670870Y-64399051D01*
X175843792Y-64476042D01*
X175843797Y-64476044D01*
X176028954Y-64515400D01*
X176028955Y-64515400D01*
X176218244Y-64515400D01*
X176218246Y-64515400D01*
X176403403Y-64476044D01*
X176576330Y-64399051D01*
X176729471Y-64287788D01*
X176856133Y-64147116D01*
X176950779Y-63983184D01*
X177009274Y-63803156D01*
X177029060Y-63614900D01*
X177009274Y-63426644D01*
X176950779Y-63246616D01*
X176856133Y-63082684D01*
X176729471Y-62942012D01*
X176656261Y-62888822D01*
X176613595Y-62833492D01*
X176607616Y-62763879D01*
X176640221Y-62702084D01*
X176656261Y-62688186D01*
X176780271Y-62598088D01*
X176906933Y-62457416D01*
X177001579Y-62293484D01*
X177053724Y-62133000D01*
X185657540Y-62133000D01*
X185677326Y-62321256D01*
X185677327Y-62321259D01*
X185735818Y-62501277D01*
X185735821Y-62501284D01*
X185830467Y-62665216D01*
X185906357Y-62749500D01*
X185957129Y-62805888D01*
X186110265Y-62917148D01*
X186110270Y-62917151D01*
X186283192Y-62994142D01*
X186283197Y-62994144D01*
X186468354Y-63033500D01*
X186468355Y-63033500D01*
X186657644Y-63033500D01*
X186657646Y-63033500D01*
X186842803Y-62994144D01*
X187015730Y-62917151D01*
X187092884Y-62861094D01*
X187158687Y-62837615D01*
X187226741Y-62853440D01*
X187238654Y-62861095D01*
X187249055Y-62868652D01*
X187421977Y-62945643D01*
X187421982Y-62945645D01*
X187607139Y-62985001D01*
X187699530Y-62985001D01*
X187766569Y-63004686D01*
X187806917Y-63047001D01*
X187862465Y-63143214D01*
X187989129Y-63283888D01*
X188142265Y-63395148D01*
X188142270Y-63395151D01*
X188315192Y-63472142D01*
X188315197Y-63472144D01*
X188500354Y-63511500D01*
X188500355Y-63511500D01*
X188689644Y-63511500D01*
X188689646Y-63511500D01*
X188874803Y-63472144D01*
X189047730Y-63395151D01*
X189200871Y-63283888D01*
X189327533Y-63143216D01*
X189422179Y-62979284D01*
X189480674Y-62799256D01*
X189500460Y-62611000D01*
X189480674Y-62422744D01*
X189422179Y-62242716D01*
X189327533Y-62078784D01*
X189200871Y-61938112D01*
X189200870Y-61938111D01*
X189047734Y-61826851D01*
X189047729Y-61826848D01*
X188874807Y-61749857D01*
X188874802Y-61749855D01*
X188729001Y-61718865D01*
X188689646Y-61710500D01*
X188689645Y-61710500D01*
X188597255Y-61710500D01*
X188530216Y-61690815D01*
X188489868Y-61648500D01*
X188434319Y-61552286D01*
X188311469Y-61415848D01*
X188307656Y-61411613D01*
X188302222Y-61407665D01*
X188154519Y-61300352D01*
X188154514Y-61300349D01*
X187981592Y-61223358D01*
X187981587Y-61223356D01*
X187835786Y-61192366D01*
X187796431Y-61184001D01*
X187607139Y-61184001D01*
X187574682Y-61190899D01*
X187421982Y-61223356D01*
X187421977Y-61223358D01*
X187249055Y-61300349D01*
X187249051Y-61300352D01*
X187171899Y-61356405D01*
X187106092Y-61379884D01*
X187038039Y-61364058D01*
X187026132Y-61356406D01*
X187019488Y-61351579D01*
X187015730Y-61348849D01*
X187015729Y-61348848D01*
X186842807Y-61271857D01*
X186842802Y-61271855D01*
X186684528Y-61238214D01*
X186657646Y-61232500D01*
X186468354Y-61232500D01*
X186441476Y-61238213D01*
X186283197Y-61271855D01*
X186283192Y-61271857D01*
X186110270Y-61348848D01*
X186110265Y-61348851D01*
X185957129Y-61460111D01*
X185830466Y-61600785D01*
X185735821Y-61764715D01*
X185735818Y-61764722D01*
X185683676Y-61925200D01*
X185677326Y-61944744D01*
X185657540Y-62133000D01*
X177053724Y-62133000D01*
X177060074Y-62113456D01*
X177079860Y-61925200D01*
X177060074Y-61736944D01*
X177060071Y-61736937D01*
X177058722Y-61730583D01*
X177060827Y-61730135D01*
X177059109Y-61670309D01*
X177095180Y-61610470D01*
X177153260Y-61580523D01*
X177166470Y-61577715D01*
X177216203Y-61567144D01*
X177389130Y-61490151D01*
X177542271Y-61378888D01*
X177668933Y-61238216D01*
X177677513Y-61223356D01*
X177700234Y-61184001D01*
X177763579Y-61074284D01*
X177822074Y-60894256D01*
X177841860Y-60706000D01*
X177822074Y-60517744D01*
X177763579Y-60337716D01*
X177668933Y-60173784D01*
X177542271Y-60033112D01*
X177542270Y-60033111D01*
X177389134Y-59921851D01*
X177389129Y-59921848D01*
X177216207Y-59844857D01*
X177216202Y-59844855D01*
X177070401Y-59813865D01*
X177031046Y-59805500D01*
X176841754Y-59805500D01*
X176809297Y-59812398D01*
X176656597Y-59844855D01*
X176656592Y-59844857D01*
X176483670Y-59921848D01*
X176483665Y-59921851D01*
X176330529Y-60033111D01*
X176203866Y-60173785D01*
X176109221Y-60337715D01*
X176109218Y-60337722D01*
X176050727Y-60517740D01*
X176050726Y-60517744D01*
X176030940Y-60706000D01*
X176046127Y-60850500D01*
X176050727Y-60894261D01*
X176052078Y-60900617D01*
X176049976Y-60901063D01*
X176051684Y-60960915D01*
X176015600Y-61020746D01*
X175957541Y-61050676D01*
X175894596Y-61064056D01*
X175894592Y-61064057D01*
X175721670Y-61141048D01*
X175721665Y-61141051D01*
X175568532Y-61252309D01*
X175568529Y-61252311D01*
X175568529Y-61252312D01*
X175455936Y-61377359D01*
X175396449Y-61414007D01*
X175326592Y-61412676D01*
X175313350Y-61407665D01*
X175158807Y-61338857D01*
X175158802Y-61338855D01*
X175013001Y-61307865D01*
X174973646Y-61299500D01*
X174784354Y-61299500D01*
X174780346Y-61300352D01*
X174599197Y-61338855D01*
X174599192Y-61338857D01*
X174426270Y-61415848D01*
X174426265Y-61415851D01*
X174273129Y-61527111D01*
X174146466Y-61667785D01*
X174051821Y-61831715D01*
X174051818Y-61831722D01*
X173997615Y-61998543D01*
X173993326Y-62011744D01*
X173973540Y-62200000D01*
X171679312Y-62200000D01*
X171700674Y-62134256D01*
X171720460Y-61946000D01*
X171700674Y-61757744D01*
X171642179Y-61577716D01*
X171547533Y-61413784D01*
X171420871Y-61273112D01*
X171419144Y-61271857D01*
X171267734Y-61161851D01*
X171267729Y-61161848D01*
X171094807Y-61084857D01*
X171094802Y-61084855D01*
X170933997Y-61050676D01*
X170909646Y-61045500D01*
X170720354Y-61045500D01*
X170696003Y-61050676D01*
X170535197Y-61084855D01*
X170535192Y-61084857D01*
X170362270Y-61161848D01*
X170362265Y-61161851D01*
X170209129Y-61273111D01*
X170082466Y-61413785D01*
X169987821Y-61577715D01*
X169987818Y-61577722D01*
X169929327Y-61757740D01*
X169929326Y-61757744D01*
X169909540Y-61946000D01*
X169929326Y-62134256D01*
X169929327Y-62134259D01*
X169987818Y-62314277D01*
X169987820Y-62314281D01*
X169987821Y-62314284D01*
X170019824Y-62369715D01*
X170069352Y-62455501D01*
X170085824Y-62523401D01*
X170069352Y-62579499D01*
X169987820Y-62720718D01*
X169987818Y-62720722D01*
X169929327Y-62900740D01*
X169929326Y-62900744D01*
X169909540Y-63089000D01*
X163941018Y-63089000D01*
X163954358Y-63047943D01*
X163974144Y-62859687D01*
X163954358Y-62671431D01*
X163895863Y-62491403D01*
X163801217Y-62327471D01*
X163674555Y-62186799D01*
X163602240Y-62134259D01*
X163521418Y-62075538D01*
X163521413Y-62075535D01*
X163348491Y-61998544D01*
X163348486Y-61998542D01*
X163202685Y-61967552D01*
X163163330Y-61959187D01*
X162974038Y-61959187D01*
X162941581Y-61966085D01*
X162788881Y-61998542D01*
X162788876Y-61998544D01*
X162615954Y-62075535D01*
X162615949Y-62075538D01*
X162462813Y-62186798D01*
X162336150Y-62327472D01*
X162241505Y-62491402D01*
X162241502Y-62491409D01*
X162193594Y-62638856D01*
X162183010Y-62671431D01*
X162163224Y-62859687D01*
X162174585Y-62967785D01*
X162175713Y-62978511D01*
X162163143Y-63047240D01*
X162115411Y-63098264D01*
X162047671Y-63115382D01*
X161981430Y-63093159D01*
X161945005Y-63053472D01*
X161910752Y-62994144D01*
X161895533Y-62967784D01*
X161768871Y-62827112D01*
X161742760Y-62808141D01*
X161615734Y-62715851D01*
X161615729Y-62715848D01*
X161442807Y-62638857D01*
X161442802Y-62638855D01*
X161297001Y-62607865D01*
X161257646Y-62599500D01*
X161068354Y-62599500D01*
X161035897Y-62606398D01*
X160883197Y-62638855D01*
X160883192Y-62638857D01*
X160705436Y-62718001D01*
X160636186Y-62727286D01*
X160604564Y-62718001D01*
X160426807Y-62638857D01*
X160426802Y-62638855D01*
X160281001Y-62607865D01*
X160241646Y-62599500D01*
X160052354Y-62599500D01*
X160019897Y-62606398D01*
X159867197Y-62638855D01*
X159867192Y-62638857D01*
X159694270Y-62715848D01*
X159694265Y-62715851D01*
X159541129Y-62827111D01*
X159414466Y-62967785D01*
X159319821Y-63131715D01*
X159319818Y-63131722D01*
X159270377Y-63283888D01*
X159261326Y-63311744D01*
X159241540Y-63500000D01*
X158727017Y-63500000D01*
X158749405Y-63431096D01*
X158769191Y-63242840D01*
X158749405Y-63054584D01*
X158690910Y-62874556D01*
X158596264Y-62710624D01*
X158469602Y-62569952D01*
X158469601Y-62569951D01*
X158316465Y-62458691D01*
X158316460Y-62458688D01*
X158143538Y-62381697D01*
X158143533Y-62381695D01*
X157997732Y-62350705D01*
X157958377Y-62342340D01*
X157769085Y-62342340D01*
X157736628Y-62349238D01*
X157583928Y-62381695D01*
X157583923Y-62381697D01*
X157411001Y-62458688D01*
X157410996Y-62458691D01*
X157257860Y-62569951D01*
X157131197Y-62710625D01*
X157036552Y-62874555D01*
X157036549Y-62874562D01*
X156980214Y-63047946D01*
X156978057Y-63054584D01*
X156958271Y-63242840D01*
X142480339Y-63242840D01*
X142559179Y-63106284D01*
X142617674Y-62926256D01*
X142637460Y-62738000D01*
X142617674Y-62549744D01*
X142559179Y-62369716D01*
X142464533Y-62205784D01*
X142337871Y-62065112D01*
X142337870Y-62065111D01*
X142184734Y-61953851D01*
X142184729Y-61953848D01*
X142011807Y-61876857D01*
X142011802Y-61876855D01*
X141833559Y-61838969D01*
X141772077Y-61805777D01*
X141738301Y-61744614D01*
X141736021Y-61730655D01*
X141728674Y-61660744D01*
X141670179Y-61480716D01*
X141575533Y-61316784D01*
X141482986Y-61214000D01*
X146414540Y-61214000D01*
X146434326Y-61402256D01*
X146434327Y-61402259D01*
X146492818Y-61582277D01*
X146492821Y-61582284D01*
X146587467Y-61746216D01*
X146705095Y-61876855D01*
X146714129Y-61886888D01*
X146867265Y-61998148D01*
X146867270Y-61998151D01*
X147040192Y-62075142D01*
X147040197Y-62075144D01*
X147225354Y-62114500D01*
X147225355Y-62114500D01*
X147414644Y-62114500D01*
X147414646Y-62114500D01*
X147599803Y-62075144D01*
X147772730Y-61998151D01*
X147844510Y-61946000D01*
X166607540Y-61946000D01*
X166627326Y-62134256D01*
X166627327Y-62134259D01*
X166685818Y-62314277D01*
X166685820Y-62314281D01*
X166685821Y-62314284D01*
X166780467Y-62478216D01*
X166861559Y-62568277D01*
X166907129Y-62618888D01*
X167060265Y-62730148D01*
X167060270Y-62730151D01*
X167233192Y-62807142D01*
X167233197Y-62807144D01*
X167418354Y-62846500D01*
X167418355Y-62846500D01*
X167607644Y-62846500D01*
X167607646Y-62846500D01*
X167792803Y-62807144D01*
X167965730Y-62730151D01*
X168118871Y-62618888D01*
X168245533Y-62478216D01*
X168340179Y-62314284D01*
X168398674Y-62134256D01*
X168418460Y-61946000D01*
X168398674Y-61757744D01*
X168340179Y-61577716D01*
X168245533Y-61413784D01*
X168118871Y-61273112D01*
X168117144Y-61271857D01*
X167965734Y-61161851D01*
X167965729Y-61161848D01*
X167792807Y-61084857D01*
X167792802Y-61084855D01*
X167631997Y-61050676D01*
X167607646Y-61045500D01*
X167418354Y-61045500D01*
X167394003Y-61050676D01*
X167233197Y-61084855D01*
X167233192Y-61084857D01*
X167060270Y-61161848D01*
X167060265Y-61161851D01*
X166907129Y-61273111D01*
X166780466Y-61413785D01*
X166685821Y-61577715D01*
X166685818Y-61577722D01*
X166627327Y-61757740D01*
X166627326Y-61757744D01*
X166607540Y-61946000D01*
X147844510Y-61946000D01*
X147925871Y-61886888D01*
X148052533Y-61746216D01*
X148147179Y-61582284D01*
X148205674Y-61402256D01*
X148225460Y-61214000D01*
X148205674Y-61025744D01*
X148147179Y-60845716D01*
X148139837Y-60833000D01*
X152891540Y-60833000D01*
X152911326Y-61021256D01*
X152911327Y-61021259D01*
X152969818Y-61201277D01*
X152969821Y-61201284D01*
X153064467Y-61365216D01*
X153176957Y-61490148D01*
X153191129Y-61505888D01*
X153344265Y-61617148D01*
X153344270Y-61617151D01*
X153517192Y-61694142D01*
X153517197Y-61694144D01*
X153702354Y-61733500D01*
X153702355Y-61733500D01*
X153891644Y-61733500D01*
X153891646Y-61733500D01*
X154076803Y-61694144D01*
X154249730Y-61617151D01*
X154402871Y-61505888D01*
X154529533Y-61365216D01*
X154624179Y-61201284D01*
X154682674Y-61021256D01*
X154702460Y-60833000D01*
X154682674Y-60644744D01*
X154624179Y-60464716D01*
X154529533Y-60300784D01*
X154402871Y-60160112D01*
X154402870Y-60160111D01*
X154249734Y-60048851D01*
X154249729Y-60048848D01*
X154076807Y-59971857D01*
X154076802Y-59971855D01*
X153931001Y-59940865D01*
X153891646Y-59932500D01*
X153702354Y-59932500D01*
X153669897Y-59939398D01*
X153517197Y-59971855D01*
X153517192Y-59971857D01*
X153344270Y-60048848D01*
X153344265Y-60048851D01*
X153191129Y-60160111D01*
X153064466Y-60300785D01*
X152969821Y-60464715D01*
X152969818Y-60464722D01*
X152917543Y-60625609D01*
X152911326Y-60644744D01*
X152891540Y-60833000D01*
X148139837Y-60833000D01*
X148052533Y-60681784D01*
X147925871Y-60541112D01*
X147925870Y-60541111D01*
X147772734Y-60429851D01*
X147772729Y-60429848D01*
X147599807Y-60352857D01*
X147599802Y-60352855D01*
X147454001Y-60321865D01*
X147414646Y-60313500D01*
X147225354Y-60313500D01*
X147192897Y-60320398D01*
X147040197Y-60352855D01*
X147040192Y-60352857D01*
X146867270Y-60429848D01*
X146867265Y-60429851D01*
X146714129Y-60541111D01*
X146587466Y-60681785D01*
X146492821Y-60845715D01*
X146492818Y-60845722D01*
X146446636Y-60987857D01*
X146434326Y-61025744D01*
X146414540Y-61214000D01*
X141482986Y-61214000D01*
X141448871Y-61176112D01*
X141448870Y-61176111D01*
X141295734Y-61064851D01*
X141295729Y-61064848D01*
X141122807Y-60987857D01*
X141122802Y-60987855D01*
X140977001Y-60956865D01*
X140937646Y-60948500D01*
X140748354Y-60948500D01*
X140715897Y-60955398D01*
X140563197Y-60987855D01*
X140563192Y-60987857D01*
X140390270Y-61064848D01*
X140390265Y-61064851D01*
X140237129Y-61176111D01*
X140110466Y-61316785D01*
X140015821Y-61480715D01*
X140015818Y-61480722D01*
X139974951Y-61606500D01*
X139957326Y-61660744D01*
X139937540Y-61849000D01*
X134300500Y-61849000D01*
X134300500Y-59250000D01*
X134754862Y-59250000D01*
X134817198Y-59418314D01*
X134817202Y-59418323D01*
X134918859Y-59581419D01*
X134918864Y-59581424D01*
X135051274Y-59720720D01*
X135209025Y-59830518D01*
X135385642Y-59906310D01*
X135573903Y-59945000D01*
X135750000Y-59945000D01*
X135750000Y-59250000D01*
X136250000Y-59250000D01*
X136250000Y-59945000D01*
X136377921Y-59945000D01*
X136521209Y-59930429D01*
X136704579Y-59872896D01*
X136704589Y-59872891D01*
X136872633Y-59779619D01*
X136872634Y-59779619D01*
X136907136Y-59750000D01*
X137725175Y-59750000D01*
X138439503Y-59750000D01*
X138425000Y-59822912D01*
X138425000Y-60177088D01*
X138439503Y-60250000D01*
X137730141Y-60250000D01*
X137740032Y-60347279D01*
X137799392Y-60536471D01*
X137799399Y-60536486D01*
X137895627Y-60709856D01*
X137895630Y-60709861D01*
X138024791Y-60860315D01*
X138024792Y-60860317D01*
X138181597Y-60981693D01*
X138181601Y-60981695D01*
X138359629Y-61069022D01*
X138449999Y-61092420D01*
X138450000Y-61092420D01*
X138450000Y-60270836D01*
X138501736Y-60348264D01*
X138592700Y-60409045D01*
X138700000Y-60430388D01*
X138807300Y-60409045D01*
X138898264Y-60348264D01*
X138950000Y-60270836D01*
X138950000Y-61097130D01*
X139131591Y-61029877D01*
X139131598Y-61029873D01*
X139299883Y-60924980D01*
X139443601Y-60788366D01*
X139443602Y-60788364D01*
X139556884Y-60625609D01*
X139635082Y-60443384D01*
X139675000Y-60249148D01*
X139675000Y-60169447D01*
X139694685Y-60102408D01*
X139747489Y-60056653D01*
X139816647Y-60046709D01*
X139824781Y-60048157D01*
X139845214Y-60052500D01*
X139986354Y-60082500D01*
X139986355Y-60082500D01*
X140175644Y-60082500D01*
X140175646Y-60082500D01*
X140360803Y-60043144D01*
X140533730Y-59966151D01*
X140686871Y-59854888D01*
X140719474Y-59818677D01*
X140778960Y-59782030D01*
X140848817Y-59783359D01*
X140906865Y-59822245D01*
X140931399Y-59869556D01*
X140956567Y-59963486D01*
X140956570Y-59963492D01*
X141056399Y-60177578D01*
X141191894Y-60371082D01*
X141358917Y-60538105D01*
X141552421Y-60673600D01*
X141766507Y-60773429D01*
X141766516Y-60773433D01*
X141980000Y-60830634D01*
X141980000Y-59935501D01*
X142087685Y-59984680D01*
X142194237Y-60000000D01*
X142265763Y-60000000D01*
X142372315Y-59984680D01*
X142480000Y-59935501D01*
X142480000Y-60830633D01*
X142693483Y-60773433D01*
X142693492Y-60773429D01*
X142907578Y-60673600D01*
X143101078Y-60538108D01*
X143223133Y-60416053D01*
X143284456Y-60382568D01*
X143354148Y-60387552D01*
X143410082Y-60429423D01*
X143426997Y-60460401D01*
X143476202Y-60592328D01*
X143476206Y-60592335D01*
X143562452Y-60707544D01*
X143562455Y-60707547D01*
X143677664Y-60793793D01*
X143677671Y-60793797D01*
X143812517Y-60844091D01*
X143812516Y-60844091D01*
X143819444Y-60844835D01*
X143872127Y-60850500D01*
X145667872Y-60850499D01*
X145727483Y-60844091D01*
X145862331Y-60793796D01*
X145977546Y-60707546D01*
X146063796Y-60592331D01*
X146114091Y-60457483D01*
X146120500Y-60397873D01*
X146120499Y-59152000D01*
X165845540Y-59152000D01*
X165865326Y-59340256D01*
X165865327Y-59340259D01*
X165923818Y-59520277D01*
X165923821Y-59520284D01*
X166018467Y-59684216D01*
X166107736Y-59783359D01*
X166145129Y-59824888D01*
X166298265Y-59936148D01*
X166298270Y-59936151D01*
X166471192Y-60013142D01*
X166471197Y-60013144D01*
X166656354Y-60052500D01*
X166656355Y-60052500D01*
X166845644Y-60052500D01*
X166845646Y-60052500D01*
X167030803Y-60013144D01*
X167203730Y-59936151D01*
X167356871Y-59824888D01*
X167483533Y-59684216D01*
X167578179Y-59520284D01*
X167636674Y-59340256D01*
X167656460Y-59152000D01*
X167636674Y-58963744D01*
X167596750Y-58840870D01*
X169816500Y-58840870D01*
X169816501Y-58840876D01*
X169822908Y-58900483D01*
X169873202Y-59035328D01*
X169873206Y-59035335D01*
X169959452Y-59150544D01*
X169959455Y-59150547D01*
X170074664Y-59236793D01*
X170074671Y-59236797D01*
X170209517Y-59287091D01*
X170209516Y-59287091D01*
X170216444Y-59287835D01*
X170269127Y-59293500D01*
X171364872Y-59293499D01*
X171424483Y-59287091D01*
X171559331Y-59236796D01*
X171567379Y-59230770D01*
X171632842Y-59206351D01*
X171696474Y-59219895D01*
X171696645Y-59219483D01*
X171698875Y-59220406D01*
X171700146Y-59220677D01*
X171702273Y-59221814D01*
X171890868Y-59279024D01*
X172087000Y-59298341D01*
X172283132Y-59279024D01*
X172471727Y-59221814D01*
X172645538Y-59128910D01*
X172645544Y-59128904D01*
X172650607Y-59125523D01*
X172651624Y-59127045D01*
X172708021Y-59103084D01*
X172776890Y-59114866D01*
X172793424Y-59125489D01*
X172793678Y-59125110D01*
X172798738Y-59128491D01*
X172972465Y-59221349D01*
X173107000Y-59262159D01*
X173107000Y-58500672D01*
X173144871Y-58545805D01*
X173244129Y-58603112D01*
X173328564Y-58618000D01*
X173385436Y-58618000D01*
X173469871Y-58603112D01*
X173569129Y-58545805D01*
X173607000Y-58500672D01*
X173607000Y-59262159D01*
X173741534Y-59221349D01*
X173915259Y-59128492D01*
X173920320Y-59125111D01*
X173921444Y-59126793D01*
X173977203Y-59103086D01*
X174046075Y-59114851D01*
X174063186Y-59125843D01*
X174063399Y-59125526D01*
X174068457Y-59128906D01*
X174068462Y-59128910D01*
X174174922Y-59185814D01*
X174240147Y-59220678D01*
X174242273Y-59221814D01*
X174430868Y-59279024D01*
X174627000Y-59298341D01*
X174823132Y-59279024D01*
X175011727Y-59221814D01*
X175013853Y-59220678D01*
X175123008Y-59162333D01*
X175185538Y-59128910D01*
X175337883Y-59003883D01*
X175462910Y-58851538D01*
X175555814Y-58677727D01*
X175613024Y-58489132D01*
X175632341Y-58293000D01*
X175613024Y-58096868D01*
X175586573Y-58009671D01*
X183118963Y-58009671D01*
X183138749Y-58197927D01*
X183138750Y-58197930D01*
X183197241Y-58377948D01*
X183197244Y-58377955D01*
X183291890Y-58541887D01*
X183389040Y-58649783D01*
X183418552Y-58682559D01*
X183571688Y-58793819D01*
X183571693Y-58793822D01*
X183744615Y-58870813D01*
X183744620Y-58870815D01*
X183929777Y-58910171D01*
X183929778Y-58910171D01*
X184119067Y-58910171D01*
X184119069Y-58910171D01*
X184304226Y-58870815D01*
X184477153Y-58793822D01*
X184630294Y-58682559D01*
X184630296Y-58682556D01*
X184631713Y-58681527D01*
X184697520Y-58658047D01*
X184765574Y-58673872D01*
X184814269Y-58723978D01*
X184822530Y-58743526D01*
X184846819Y-58818280D01*
X184846821Y-58818284D01*
X184941467Y-58982216D01*
X185025054Y-59075048D01*
X185068129Y-59122888D01*
X185221265Y-59234148D01*
X185221270Y-59234151D01*
X185394192Y-59311142D01*
X185394197Y-59311144D01*
X185579354Y-59350500D01*
X185579355Y-59350500D01*
X185768644Y-59350500D01*
X185768646Y-59350500D01*
X185953803Y-59311144D01*
X186126730Y-59234151D01*
X186193260Y-59185812D01*
X186259064Y-59162333D01*
X186327118Y-59178158D01*
X186339025Y-59185810D01*
X186364266Y-59204148D01*
X186364269Y-59204150D01*
X186364270Y-59204151D01*
X186537192Y-59281142D01*
X186537197Y-59281144D01*
X186722354Y-59320500D01*
X186722355Y-59320500D01*
X186911644Y-59320500D01*
X186911646Y-59320500D01*
X187096803Y-59281144D01*
X187269730Y-59204151D01*
X187422871Y-59092888D01*
X187549533Y-58952216D01*
X187644179Y-58788284D01*
X187702674Y-58608256D01*
X187722460Y-58420000D01*
X187702674Y-58231744D01*
X187644179Y-58051716D01*
X187549533Y-57887784D01*
X187422871Y-57747112D01*
X187409146Y-57737140D01*
X187269734Y-57635851D01*
X187269729Y-57635848D01*
X187096807Y-57558857D01*
X187096802Y-57558855D01*
X186951001Y-57527865D01*
X186911646Y-57519500D01*
X186722354Y-57519500D01*
X186689897Y-57526398D01*
X186537197Y-57558855D01*
X186537192Y-57558857D01*
X186364270Y-57635848D01*
X186364266Y-57635850D01*
X186297738Y-57684186D01*
X186231932Y-57707665D01*
X186163878Y-57691839D01*
X186151970Y-57684186D01*
X186126733Y-57665851D01*
X186126729Y-57665848D01*
X185953807Y-57588857D01*
X185953802Y-57588855D01*
X185808001Y-57557865D01*
X185768646Y-57549500D01*
X185579354Y-57549500D01*
X185546897Y-57556398D01*
X185394197Y-57588855D01*
X185394192Y-57588857D01*
X185221270Y-57665848D01*
X185221265Y-57665851D01*
X185066708Y-57778143D01*
X185000901Y-57801623D01*
X184932848Y-57785797D01*
X184884153Y-57735691D01*
X184875892Y-57716143D01*
X184851604Y-57641392D01*
X184851601Y-57641386D01*
X184756956Y-57477455D01*
X184630294Y-57336783D01*
X184630293Y-57336782D01*
X184477157Y-57225522D01*
X184477152Y-57225519D01*
X184304230Y-57148528D01*
X184304225Y-57148526D01*
X184158424Y-57117536D01*
X184119069Y-57109171D01*
X183929777Y-57109171D01*
X183897320Y-57116069D01*
X183744620Y-57148526D01*
X183744615Y-57148528D01*
X183571693Y-57225519D01*
X183571688Y-57225522D01*
X183418552Y-57336782D01*
X183291889Y-57477456D01*
X183197244Y-57641386D01*
X183197241Y-57641393D01*
X183138750Y-57821411D01*
X183138749Y-57821415D01*
X183118963Y-58009671D01*
X175586573Y-58009671D01*
X175555814Y-57908273D01*
X175555811Y-57908269D01*
X175555811Y-57908266D01*
X175462913Y-57734467D01*
X175462909Y-57734460D01*
X175337883Y-57582116D01*
X175185539Y-57457090D01*
X175185532Y-57457086D01*
X175011733Y-57364188D01*
X175011727Y-57364186D01*
X174823132Y-57306976D01*
X174823129Y-57306975D01*
X174627000Y-57287659D01*
X174430870Y-57306975D01*
X174242266Y-57364188D01*
X174068467Y-57457086D01*
X174063399Y-57460473D01*
X174062386Y-57458958D01*
X174005936Y-57482920D01*
X173937071Y-57471115D01*
X173920574Y-57460511D01*
X173920322Y-57460890D01*
X173915253Y-57457503D01*
X173741541Y-57364652D01*
X173607000Y-57323839D01*
X173607000Y-58085327D01*
X173569129Y-58040195D01*
X173469871Y-57982888D01*
X173385436Y-57968000D01*
X173328564Y-57968000D01*
X173244129Y-57982888D01*
X173144871Y-58040195D01*
X173107000Y-58085327D01*
X173107000Y-57323839D01*
X173106999Y-57323839D01*
X172972458Y-57364652D01*
X172798742Y-57457505D01*
X172793673Y-57460893D01*
X172792556Y-57459221D01*
X172736715Y-57482921D01*
X172667851Y-57471111D01*
X172650811Y-57460158D01*
X172650601Y-57460473D01*
X172645532Y-57457086D01*
X172471733Y-57364188D01*
X172471727Y-57364186D01*
X172283132Y-57306976D01*
X172283129Y-57306975D01*
X172087000Y-57287659D01*
X171890870Y-57306975D01*
X171835278Y-57323839D01*
X171702273Y-57364186D01*
X171702272Y-57364186D01*
X171702267Y-57364188D01*
X171700143Y-57365324D01*
X171698898Y-57365583D01*
X171696641Y-57366518D01*
X171696463Y-57366089D01*
X171631740Y-57379564D01*
X171567382Y-57355231D01*
X171559331Y-57349204D01*
X171559328Y-57349202D01*
X171424482Y-57298908D01*
X171424483Y-57298908D01*
X171364883Y-57292501D01*
X171364881Y-57292500D01*
X171364873Y-57292500D01*
X171364864Y-57292500D01*
X170269129Y-57292500D01*
X170269123Y-57292501D01*
X170209516Y-57298908D01*
X170074671Y-57349202D01*
X170074664Y-57349206D01*
X169959455Y-57435452D01*
X169959452Y-57435455D01*
X169873206Y-57550664D01*
X169873202Y-57550671D01*
X169822908Y-57685517D01*
X169816501Y-57745116D01*
X169816500Y-57745135D01*
X169816500Y-58840870D01*
X167596750Y-58840870D01*
X167578179Y-58783716D01*
X167483533Y-58619784D01*
X167356871Y-58479112D01*
X167356870Y-58479111D01*
X167203734Y-58367851D01*
X167203729Y-58367848D01*
X167030807Y-58290857D01*
X167030802Y-58290855D01*
X166885001Y-58259865D01*
X166845646Y-58251500D01*
X166656354Y-58251500D01*
X166623897Y-58258398D01*
X166471197Y-58290855D01*
X166471192Y-58290857D01*
X166298270Y-58367848D01*
X166298265Y-58367851D01*
X166145129Y-58479111D01*
X166018466Y-58619785D01*
X165923821Y-58783715D01*
X165923818Y-58783722D01*
X165868470Y-58954067D01*
X165865326Y-58963744D01*
X165845540Y-59152000D01*
X146120499Y-59152000D01*
X146120499Y-58602128D01*
X146115299Y-58553757D01*
X146114091Y-58542516D01*
X146063797Y-58407671D01*
X146063793Y-58407664D01*
X145977547Y-58292455D01*
X145977544Y-58292452D01*
X145862335Y-58206206D01*
X145862328Y-58206202D01*
X145727482Y-58155908D01*
X145727483Y-58155908D01*
X145667883Y-58149501D01*
X145667881Y-58149500D01*
X145667873Y-58149500D01*
X145667864Y-58149500D01*
X143872129Y-58149500D01*
X143872123Y-58149501D01*
X143812516Y-58155908D01*
X143677671Y-58206202D01*
X143677664Y-58206206D01*
X143562455Y-58292452D01*
X143562452Y-58292455D01*
X143476206Y-58407664D01*
X143476202Y-58407671D01*
X143426997Y-58539598D01*
X143385126Y-58595532D01*
X143319661Y-58619949D01*
X143251388Y-58605097D01*
X143223134Y-58583946D01*
X143101082Y-58461894D01*
X142907578Y-58326399D01*
X142693492Y-58226570D01*
X142693486Y-58226567D01*
X142480000Y-58169364D01*
X142480000Y-59064498D01*
X142372315Y-59015320D01*
X142265763Y-59000000D01*
X142194237Y-59000000D01*
X142087685Y-59015320D01*
X141980000Y-59064498D01*
X141980000Y-58169364D01*
X141979999Y-58169364D01*
X141766513Y-58226567D01*
X141766507Y-58226570D01*
X141552422Y-58326399D01*
X141552420Y-58326400D01*
X141358926Y-58461886D01*
X141358920Y-58461891D01*
X141191891Y-58628920D01*
X141191884Y-58628929D01*
X141089557Y-58775066D01*
X141034980Y-58818691D01*
X140965482Y-58825883D01*
X140903127Y-58794361D01*
X140880599Y-58765946D01*
X140813533Y-58649784D01*
X140686871Y-58509112D01*
X140670960Y-58497552D01*
X140533734Y-58397851D01*
X140533729Y-58397848D01*
X140360807Y-58320857D01*
X140360802Y-58320855D01*
X140215001Y-58289865D01*
X140175646Y-58281500D01*
X139986354Y-58281500D01*
X139953897Y-58288398D01*
X139801197Y-58320855D01*
X139801192Y-58320857D01*
X139628270Y-58397848D01*
X139628265Y-58397851D01*
X139475129Y-58509111D01*
X139348466Y-58649785D01*
X139253821Y-58813715D01*
X139253817Y-58813725D01*
X139235793Y-58869195D01*
X139196355Y-58926870D01*
X139131996Y-58954067D01*
X139063255Y-58942203D01*
X139040369Y-58930977D01*
X139040368Y-58930976D01*
X138950000Y-58907577D01*
X138950000Y-59729163D01*
X138898264Y-59651736D01*
X138807300Y-59590955D01*
X138700000Y-59569612D01*
X138592700Y-59590955D01*
X138501736Y-59651736D01*
X138450000Y-59729163D01*
X138450000Y-58902869D01*
X138449999Y-58902869D01*
X138268405Y-58970124D01*
X138268401Y-58970126D01*
X138100116Y-59075019D01*
X137956398Y-59211633D01*
X137956397Y-59211635D01*
X137843115Y-59374390D01*
X137764917Y-59556615D01*
X137725175Y-59749999D01*
X137725175Y-59750000D01*
X136907136Y-59750000D01*
X137018460Y-59654432D01*
X137018461Y-59654431D01*
X137136102Y-59502451D01*
X137136104Y-59502447D01*
X137220745Y-59329893D01*
X137241432Y-59250000D01*
X136349624Y-59250000D01*
X136422545Y-59235495D01*
X136505240Y-59180240D01*
X136560495Y-59097545D01*
X136579898Y-59000000D01*
X136560495Y-58902455D01*
X136505240Y-58819760D01*
X136422545Y-58764505D01*
X136349624Y-58750000D01*
X137245138Y-58750000D01*
X137182801Y-58581685D01*
X137182797Y-58581676D01*
X137081140Y-58418580D01*
X137081135Y-58418575D01*
X136948725Y-58279279D01*
X136790974Y-58169481D01*
X136614357Y-58093689D01*
X136426097Y-58055000D01*
X136250000Y-58055000D01*
X136250000Y-58750000D01*
X135750000Y-58750000D01*
X135750000Y-58055000D01*
X135622079Y-58055000D01*
X135478790Y-58069570D01*
X135295420Y-58127103D01*
X135295410Y-58127108D01*
X135127366Y-58220380D01*
X135127365Y-58220380D01*
X134981539Y-58345567D01*
X134981538Y-58345568D01*
X134863897Y-58497548D01*
X134863895Y-58497552D01*
X134779254Y-58670106D01*
X134758568Y-58750000D01*
X135650376Y-58750000D01*
X135577455Y-58764505D01*
X135494760Y-58819760D01*
X135439505Y-58902455D01*
X135420102Y-59000000D01*
X135439505Y-59097545D01*
X135494760Y-59180240D01*
X135577455Y-59235495D01*
X135650376Y-59250000D01*
X134754862Y-59250000D01*
X134300500Y-59250000D01*
X134300500Y-56861500D01*
X134320185Y-56794461D01*
X134372989Y-56748706D01*
X134424500Y-56737500D01*
X198369500Y-56737500D01*
X198436539Y-56757185D01*
G37*
%TD.AperFunction*%
%TD*%
M02*
