%TF.GenerationSoftware,KiCad,Pcbnew,7.0.9*%
%TF.CreationDate,2023-12-22T19:30:16+01:00*%
%TF.ProjectId,Prj_4_Feranec_Controller,50726a5f-345f-4466-9572-616e65635f43,rev?*%
%TF.SameCoordinates,Original*%
%TF.FileFunction,Copper,L4,Bot*%
%TF.FilePolarity,Positive*%
%FSLAX46Y46*%
G04 Gerber Fmt 4.6, Leading zero omitted, Abs format (unit mm)*
G04 Created by KiCad (PCBNEW 7.0.9) date 2023-12-22 19:30:16*
%MOMM*%
%LPD*%
G01*
G04 APERTURE LIST*
%TA.AperFunction,ComponentPad*%
%ADD10O,1.550000X0.890000*%
%TD*%
%TA.AperFunction,ComponentPad*%
%ADD11O,0.950000X1.250000*%
%TD*%
%TA.AperFunction,ComponentPad*%
%ADD12R,1.000000X1.000000*%
%TD*%
%TA.AperFunction,ComponentPad*%
%ADD13O,1.000000X1.000000*%
%TD*%
%TA.AperFunction,ComponentPad*%
%ADD14R,1.700000X1.700000*%
%TD*%
%TA.AperFunction,ComponentPad*%
%ADD15O,1.700000X1.700000*%
%TD*%
%TA.AperFunction,ViaPad*%
%ADD16C,0.800000*%
%TD*%
%TA.AperFunction,Conductor*%
%ADD17C,0.250000*%
%TD*%
G04 APERTURE END LIST*
D10*
%TO.P,USB1,6,GND*%
%TO.N,GND*%
X136000000Y-59000000D03*
D11*
X138700000Y-60000000D03*
X138700000Y-65000000D03*
D10*
X136000000Y-66000000D03*
%TD*%
D12*
%TO.P,H3,1,Pin_1*%
%TO.N,/I2C1_SDA*%
X170817000Y-58293000D03*
D13*
%TO.P,H3,2,Pin_2*%
%TO.N,/I2C1_SCL*%
X172087000Y-58293000D03*
%TO.P,H3,3,Pin_2*%
%TO.N,GND*%
X173357000Y-58293000D03*
%TO.P,H3,4,Pin_2*%
%TO.N,/BUTTON*%
X174627000Y-58293000D03*
%TD*%
D14*
%TO.P,H2,1,Pin_1*%
%TO.N,Net-(H2-Pin_1)*%
X143891000Y-66421000D03*
D15*
%TO.P,H2,2,Pin_2*%
%TO.N,+3.3V*%
X146431000Y-66421000D03*
%TO.P,H2,3,Pin_2*%
%TO.N,GND*%
X148971000Y-66421000D03*
%TO.P,H2,4,Pin_2*%
%TO.N,/ICSPDAT*%
X151511000Y-66421000D03*
%TO.P,H2,5,Pin_2*%
%TO.N,/ICSPCLK*%
X154051000Y-66421000D03*
%TD*%
D14*
%TO.P,H1,1,Pin_1*%
%TO.N,/+VBAT*%
X144770000Y-59500000D03*
D15*
%TO.P,H1,2,Pin_2*%
%TO.N,GND*%
X142230000Y-59500000D03*
%TD*%
D16*
%TO.N,GND*%
X168986200Y-65735200D03*
%TO.N,/I2C1_SCL*%
X176174400Y-61925200D03*
%TO.N,/I2C1_SDA*%
X174802800Y-65428000D03*
%TO.N,/+VIN*%
X197104000Y-64867000D03*
X157863731Y-63242840D03*
%TO.N,/I2C1_SDA*%
X180390800Y-65430400D03*
%TO.N,+3.3V*%
X187701785Y-62084501D03*
%TO.N,/LED_G*%
X188468000Y-65913000D03*
%TO.N,/LED_R*%
X184024423Y-58009671D03*
%TO.N,+3.3V*%
X185166000Y-66040000D03*
%TO.N,GND*%
X148209000Y-62230000D03*
%TO.N,/+5V_USB*%
X141732000Y-62738000D03*
%TO.N,Net-(USB1-D-)*%
X140843000Y-61849000D03*
X153797000Y-60833000D03*
%TO.N,/+5V_USB*%
X140081000Y-59182000D03*
%TO.N,/LED_R*%
X162814000Y-63881000D03*
%TO.N,/LED_G*%
X162814000Y-66548000D03*
%TO.N,/LED_B*%
X163068684Y-62859687D03*
X188595000Y-62611000D03*
%TO.N,GND*%
X187960000Y-58450000D03*
X187325000Y-65913000D03*
%TO.N,/INT*%
X186563000Y-62133000D03*
%TO.N,+3.3V*%
X186817000Y-58420000D03*
%TO.N,/I2C1_SCL*%
X185674000Y-58450000D03*
%TO.N,GND*%
X183976000Y-59008000D03*
%TO.N,+3.3V*%
X176123600Y-63614900D03*
X176936400Y-60706000D03*
%TO.N,GND*%
X184023000Y-67300500D03*
%TO.N,+3.3V*%
X166751000Y-59152000D03*
%TO.N,/INT*%
X174879000Y-62200000D03*
%TO.N,/ICSPCLK*%
X170815000Y-63089000D03*
%TO.N,/ICSPDAT*%
X170815000Y-61946000D03*
%TO.N,GND*%
X170815000Y-60803000D03*
%TO.N,Net-(H2-Pin_1)*%
X167513000Y-61946000D03*
%TO.N,GND*%
X163322000Y-58293000D03*
%TO.N,+3.3V*%
X161163000Y-63500000D03*
X160147000Y-63500000D03*
%TO.N,/+5V_USB*%
X147320000Y-61214000D03*
%TO.N,GND*%
X156845000Y-67183000D03*
X156845000Y-64516000D03*
X158877000Y-63119000D03*
X154813000Y-64516000D03*
X155194000Y-60833000D03*
%TD*%
D17*
%TO.N,/LED_B*%
X187553600Y-63652400D02*
X188595000Y-62611000D01*
X177471500Y-63652400D02*
X187553600Y-63652400D01*
X176784000Y-64339900D02*
X177471500Y-63652400D01*
X174544900Y-64339900D02*
X176784000Y-64339900D01*
X173812200Y-60375800D02*
X173812200Y-63607200D01*
X173271600Y-59835200D02*
X173812200Y-60375800D01*
X169914400Y-59835200D02*
X173271600Y-59835200D01*
X173812200Y-63607200D02*
X174544900Y-64339900D01*
X168688000Y-61061600D02*
X169914400Y-59835200D01*
X168688000Y-62432701D02*
X168688000Y-61061600D01*
X162458400Y-64770000D02*
X166350701Y-64770000D01*
X162089000Y-64400600D02*
X162458400Y-64770000D01*
X162810008Y-62859687D02*
X162089000Y-63580695D01*
X166350701Y-64770000D02*
X168688000Y-62432701D01*
X163068684Y-62859687D02*
X162810008Y-62859687D01*
X162089000Y-63580695D02*
X162089000Y-64400600D01*
%TO.N,/LED_G*%
X182727600Y-67208400D02*
X173507400Y-67208400D01*
X183489600Y-66446400D02*
X182727600Y-67208400D01*
X184194205Y-66446400D02*
X183489600Y-66446400D01*
X184549805Y-66802000D02*
X184194205Y-66446400D01*
X187579000Y-66802000D02*
X184549805Y-66802000D01*
X172847000Y-66548000D02*
X162814000Y-66548000D01*
X188468000Y-65913000D02*
X187579000Y-66802000D01*
X173507400Y-67208400D02*
X172847000Y-66548000D01*
%TO.N,/I2C1_SDA*%
X180388400Y-65428000D02*
X174802800Y-65428000D01*
X180390800Y-65430400D02*
X180388400Y-65428000D01*
%TO.N,Net-(H2-Pin_1)*%
X166695600Y-61946000D02*
X167513000Y-61946000D01*
X165557200Y-60807600D02*
X166695600Y-61946000D01*
X155575000Y-62738000D02*
X157505400Y-60807600D01*
X153543000Y-62738000D02*
X155575000Y-62738000D01*
X151257000Y-65024000D02*
X153543000Y-62738000D01*
X157505400Y-60807600D02*
X165557200Y-60807600D01*
X144399000Y-65024000D02*
X151257000Y-65024000D01*
X143891000Y-65532000D02*
X144399000Y-65024000D01*
X143891000Y-66421000D02*
X143891000Y-65532000D01*
%TO.N,/LED_R*%
X178261129Y-58009671D02*
X184024423Y-58009671D01*
X169722800Y-59385200D02*
X176885600Y-59385200D01*
X168238000Y-62246305D02*
X168238000Y-60870000D01*
X176885600Y-59385200D02*
X178261129Y-58009671D01*
X166603305Y-63881000D02*
X168238000Y-62246305D01*
X168238000Y-60870000D02*
X169722800Y-59385200D01*
X162814000Y-63881000D02*
X166603305Y-63881000D01*
%TO.N,/I2C1_SCL*%
X176211900Y-61962700D02*
X184290300Y-61962700D01*
X176174400Y-61925200D02*
X176211900Y-61962700D01*
X176136900Y-61962700D02*
X176174400Y-61925200D01*
%TO.N,/LED_B*%
X163068684Y-62859687D02*
X163073997Y-62865000D01*
%TO.N,/I2C1_SCL*%
X185674000Y-60579000D02*
X185674000Y-58450000D01*
X184290300Y-61962700D02*
X185674000Y-60579000D01*
X176123600Y-61962700D02*
X176136900Y-61962700D01*
X176123600Y-61962700D02*
X176110300Y-61962700D01*
%TO.N,/INT*%
X186008800Y-62687200D02*
X186563000Y-62133000D01*
X175366200Y-62687200D02*
X186008800Y-62687200D01*
X174879000Y-62200000D02*
X175366200Y-62687200D01*
%TO.N,/ICSPCLK*%
X170146500Y-63089000D02*
X170815000Y-63089000D01*
X167449500Y-65786000D02*
X170146500Y-63089000D01*
X156083000Y-65786000D02*
X167449500Y-65786000D01*
X155448000Y-66421000D02*
X156083000Y-65786000D01*
X154051000Y-66421000D02*
X155448000Y-66421000D01*
%TO.N,/ICSPDAT*%
X152686000Y-65246000D02*
X151511000Y-66421000D01*
X170180000Y-61976000D02*
X166910000Y-65246000D01*
X166910000Y-65246000D02*
X152686000Y-65246000D01*
X170785000Y-61976000D02*
X170180000Y-61976000D01*
X170815000Y-61946000D02*
X170785000Y-61976000D01*
%TO.N,Net-(USB1-D-)*%
X153670000Y-60706000D02*
X153797000Y-60833000D01*
X143383000Y-61849000D02*
X144907000Y-63373000D01*
X144907000Y-63373000D02*
X149034500Y-63373000D01*
X149034500Y-63373000D02*
X151701500Y-60706000D01*
X151701500Y-60706000D02*
X153670000Y-60706000D01*
X140843000Y-61849000D02*
X143383000Y-61849000D01*
%TO.N,/I2C1_SCL*%
X172087000Y-58597000D02*
X172087000Y-58217000D01*
%TD*%
%TA.AperFunction,Conductor*%
%TO.N,GND*%
G36*
X165313787Y-61452785D02*
G01*
X165334429Y-61469419D01*
X166194794Y-62329784D01*
X166204619Y-62342048D01*
X166204840Y-62341866D01*
X166209810Y-62347873D01*
X166209813Y-62347876D01*
X166209814Y-62347877D01*
X166260251Y-62395241D01*
X166281130Y-62416120D01*
X166286604Y-62420366D01*
X166291042Y-62424156D01*
X166325018Y-62456062D01*
X166329800Y-62458691D01*
X166342573Y-62465713D01*
X166358831Y-62476392D01*
X166374664Y-62488674D01*
X166381676Y-62491708D01*
X166417437Y-62507183D01*
X166422681Y-62509752D01*
X166463508Y-62532197D01*
X166482912Y-62537179D01*
X166501310Y-62543478D01*
X166519705Y-62551438D01*
X166565729Y-62558726D01*
X166571432Y-62559907D01*
X166616581Y-62571500D01*
X166636616Y-62571500D01*
X166656013Y-62573026D01*
X166675796Y-62576160D01*
X166716964Y-62572268D01*
X166785557Y-62585556D01*
X166836079Y-62633819D01*
X166852487Y-62701735D01*
X166829572Y-62767740D01*
X166816314Y-62783399D01*
X166380533Y-63219181D01*
X166319210Y-63252666D01*
X166292852Y-63255500D01*
X164057590Y-63255500D01*
X163990551Y-63235815D01*
X163944796Y-63183011D01*
X163934852Y-63113853D01*
X163939659Y-63093182D01*
X163948313Y-63066547D01*
X163954358Y-63047943D01*
X163974144Y-62859687D01*
X163954358Y-62671431D01*
X163895863Y-62491403D01*
X163801217Y-62327471D01*
X163674555Y-62186799D01*
X163674554Y-62186798D01*
X163521418Y-62075538D01*
X163521413Y-62075535D01*
X163348491Y-61998544D01*
X163348486Y-61998542D01*
X163202685Y-61967552D01*
X163163330Y-61959187D01*
X162974038Y-61959187D01*
X162941581Y-61966085D01*
X162788881Y-61998542D01*
X162788876Y-61998544D01*
X162615954Y-62075535D01*
X162615949Y-62075538D01*
X162462813Y-62186798D01*
X162336150Y-62327472D01*
X162241506Y-62491401D01*
X162225580Y-62540412D01*
X162195331Y-62589771D01*
X161950871Y-62834231D01*
X161889548Y-62867716D01*
X161819856Y-62862732D01*
X161773774Y-62831379D01*
X161773701Y-62831461D01*
X161773103Y-62830923D01*
X161771035Y-62829516D01*
X161768871Y-62827112D01*
X161768870Y-62827111D01*
X161768869Y-62827110D01*
X161615734Y-62715851D01*
X161615729Y-62715848D01*
X161442807Y-62638857D01*
X161442802Y-62638855D01*
X161297001Y-62607865D01*
X161257646Y-62599500D01*
X161068354Y-62599500D01*
X161035897Y-62606398D01*
X160883197Y-62638855D01*
X160883192Y-62638857D01*
X160705436Y-62718001D01*
X160636186Y-62727286D01*
X160604564Y-62718001D01*
X160426807Y-62638857D01*
X160426802Y-62638855D01*
X160281001Y-62607865D01*
X160241646Y-62599500D01*
X160052354Y-62599500D01*
X160019897Y-62606398D01*
X159867197Y-62638855D01*
X159867192Y-62638857D01*
X159694270Y-62715848D01*
X159694265Y-62715851D01*
X159541129Y-62827111D01*
X159414466Y-62967785D01*
X159319821Y-63131715D01*
X159319818Y-63131722D01*
X159263054Y-63306426D01*
X159261326Y-63311744D01*
X159241540Y-63500000D01*
X159261326Y-63688256D01*
X159261327Y-63688259D01*
X159319818Y-63868277D01*
X159319821Y-63868284D01*
X159414467Y-64032216D01*
X159502067Y-64129505D01*
X159541129Y-64172888D01*
X159694265Y-64284148D01*
X159694270Y-64284151D01*
X159867192Y-64361142D01*
X159867193Y-64361142D01*
X159867197Y-64361144D01*
X159912979Y-64370875D01*
X159933372Y-64375210D01*
X159994854Y-64408402D01*
X160028631Y-64469565D01*
X160023979Y-64539279D01*
X159982375Y-64595412D01*
X159917027Y-64620141D01*
X159907592Y-64620500D01*
X152844451Y-64620500D01*
X152777412Y-64600815D01*
X152731657Y-64548011D01*
X152721713Y-64478853D01*
X152750738Y-64415297D01*
X152756770Y-64408819D01*
X152851371Y-64314219D01*
X153765772Y-63399819D01*
X153827095Y-63366334D01*
X153853453Y-63363500D01*
X155492257Y-63363500D01*
X155507877Y-63365224D01*
X155507904Y-63364939D01*
X155515660Y-63365671D01*
X155515667Y-63365673D01*
X155584814Y-63363500D01*
X155614350Y-63363500D01*
X155621228Y-63362630D01*
X155627041Y-63362172D01*
X155673627Y-63360709D01*
X155692869Y-63355117D01*
X155711912Y-63351174D01*
X155731792Y-63348664D01*
X155775122Y-63331507D01*
X155780646Y-63329617D01*
X155784396Y-63328527D01*
X155825390Y-63316618D01*
X155842629Y-63306422D01*
X155860103Y-63297862D01*
X155878727Y-63290488D01*
X155878727Y-63290487D01*
X155878732Y-63290486D01*
X155916449Y-63263082D01*
X155921305Y-63259892D01*
X155950141Y-63242840D01*
X156958271Y-63242840D01*
X156978057Y-63431096D01*
X156978058Y-63431099D01*
X157036549Y-63611117D01*
X157036552Y-63611124D01*
X157131198Y-63775056D01*
X157236768Y-63892303D01*
X157257860Y-63915728D01*
X157410996Y-64026988D01*
X157411001Y-64026991D01*
X157583923Y-64103982D01*
X157583928Y-64103984D01*
X157769085Y-64143340D01*
X157769086Y-64143340D01*
X157958375Y-64143340D01*
X157958377Y-64143340D01*
X158143534Y-64103984D01*
X158316461Y-64026991D01*
X158469602Y-63915728D01*
X158596264Y-63775056D01*
X158690910Y-63611124D01*
X158749405Y-63431096D01*
X158769191Y-63242840D01*
X158749405Y-63054584D01*
X158690910Y-62874556D01*
X158596264Y-62710624D01*
X158469602Y-62569952D01*
X158455782Y-62559911D01*
X158316465Y-62458691D01*
X158316460Y-62458688D01*
X158143538Y-62381697D01*
X158143533Y-62381695D01*
X157997732Y-62350705D01*
X157958377Y-62342340D01*
X157769085Y-62342340D01*
X157743054Y-62347873D01*
X157583928Y-62381695D01*
X157583923Y-62381697D01*
X157411001Y-62458688D01*
X157410996Y-62458691D01*
X157257860Y-62569951D01*
X157131197Y-62710625D01*
X157036552Y-62874555D01*
X157036549Y-62874562D01*
X156980214Y-63047946D01*
X156978057Y-63054584D01*
X156958271Y-63242840D01*
X155950141Y-63242840D01*
X155961420Y-63236170D01*
X155975589Y-63221999D01*
X155990379Y-63209368D01*
X156006587Y-63197594D01*
X156036299Y-63161676D01*
X156040212Y-63157376D01*
X157728172Y-61469419D01*
X157789495Y-61435934D01*
X157815853Y-61433100D01*
X165246748Y-61433100D01*
X165313787Y-61452785D01*
G37*
%TD.AperFunction*%
%TA.AperFunction,Conductor*%
G36*
X183387714Y-58654856D02*
G01*
X183412823Y-58676197D01*
X183418549Y-58682556D01*
X183418553Y-58682560D01*
X183571688Y-58793819D01*
X183571693Y-58793822D01*
X183744615Y-58870813D01*
X183744620Y-58870815D01*
X183929777Y-58910171D01*
X183929778Y-58910171D01*
X184119067Y-58910171D01*
X184119069Y-58910171D01*
X184304226Y-58870815D01*
X184477153Y-58793822D01*
X184630294Y-58682559D01*
X184630296Y-58682556D01*
X184631713Y-58681527D01*
X184697520Y-58658047D01*
X184765574Y-58673872D01*
X184814269Y-58723978D01*
X184822530Y-58743526D01*
X184846819Y-58818280D01*
X184846821Y-58818284D01*
X184941467Y-58982216D01*
X184984772Y-59030310D01*
X185016650Y-59065715D01*
X185046880Y-59128706D01*
X185048500Y-59148687D01*
X185048500Y-60268547D01*
X185028815Y-60335586D01*
X185012181Y-60356228D01*
X184067528Y-61300881D01*
X184006205Y-61334366D01*
X183979847Y-61337200D01*
X177826559Y-61337200D01*
X177759520Y-61317515D01*
X177713765Y-61264711D01*
X177703821Y-61195553D01*
X177719171Y-61151201D01*
X177725033Y-61141048D01*
X177763579Y-61074284D01*
X177822074Y-60894256D01*
X177841860Y-60706000D01*
X177822074Y-60517744D01*
X177763579Y-60337716D01*
X177668933Y-60173784D01*
X177542271Y-60033112D01*
X177475610Y-59984680D01*
X177416470Y-59941712D01*
X177373805Y-59886382D01*
X177367826Y-59816768D01*
X177400432Y-59754973D01*
X177401598Y-59753790D01*
X178483900Y-58671490D01*
X178545223Y-58638005D01*
X178571581Y-58635171D01*
X183320675Y-58635171D01*
X183387714Y-58654856D01*
G37*
%TD.AperFunction*%
%TA.AperFunction,Conductor*%
G36*
X198436539Y-56757185D02*
G01*
X198482294Y-56809989D01*
X198493500Y-56861500D01*
X198493500Y-68155500D01*
X198473815Y-68222539D01*
X198421011Y-68268294D01*
X198369500Y-68279500D01*
X134424500Y-68279500D01*
X134357461Y-68259815D01*
X134311706Y-68207011D01*
X134300500Y-68155500D01*
X134300500Y-67318870D01*
X142540500Y-67318870D01*
X142540501Y-67318876D01*
X142546908Y-67378483D01*
X142597202Y-67513328D01*
X142597206Y-67513335D01*
X142683452Y-67628544D01*
X142683455Y-67628547D01*
X142798664Y-67714793D01*
X142798671Y-67714797D01*
X142933517Y-67765091D01*
X142933516Y-67765091D01*
X142940444Y-67765835D01*
X142993127Y-67771500D01*
X144788872Y-67771499D01*
X144848483Y-67765091D01*
X144983331Y-67714796D01*
X145098546Y-67628546D01*
X145184796Y-67513331D01*
X145233810Y-67381916D01*
X145275681Y-67325984D01*
X145341145Y-67301566D01*
X145409418Y-67316417D01*
X145437673Y-67337569D01*
X145559599Y-67459495D01*
X145656384Y-67527265D01*
X145753165Y-67595032D01*
X145753167Y-67595033D01*
X145753170Y-67595035D01*
X145967337Y-67694903D01*
X146195592Y-67756063D01*
X146379520Y-67772155D01*
X146430999Y-67776659D01*
X146431000Y-67776659D01*
X146431001Y-67776659D01*
X146470234Y-67773226D01*
X146666408Y-67756063D01*
X146894663Y-67694903D01*
X147108830Y-67595035D01*
X147302401Y-67459495D01*
X147469495Y-67292401D01*
X147599730Y-67106405D01*
X147654307Y-67062781D01*
X147723805Y-67055587D01*
X147786160Y-67087110D01*
X147802879Y-67106405D01*
X147932890Y-67292078D01*
X148099917Y-67459105D01*
X148293421Y-67594600D01*
X148507507Y-67694429D01*
X148507516Y-67694433D01*
X148721000Y-67751634D01*
X148721000Y-66856501D01*
X148828685Y-66905680D01*
X148935237Y-66921000D01*
X149006763Y-66921000D01*
X149113315Y-66905680D01*
X149221000Y-66856501D01*
X149221000Y-67751633D01*
X149434483Y-67694433D01*
X149434492Y-67694429D01*
X149648578Y-67594600D01*
X149842082Y-67459105D01*
X150009105Y-67292082D01*
X150139119Y-67106405D01*
X150193696Y-67062781D01*
X150263195Y-67055588D01*
X150325549Y-67087110D01*
X150342269Y-67106405D01*
X150343539Y-67108219D01*
X150472505Y-67292401D01*
X150639599Y-67459495D01*
X150736384Y-67527265D01*
X150833165Y-67595032D01*
X150833167Y-67595033D01*
X150833170Y-67595035D01*
X151047337Y-67694903D01*
X151275592Y-67756063D01*
X151459520Y-67772155D01*
X151510999Y-67776659D01*
X151511000Y-67776659D01*
X151511001Y-67776659D01*
X151550234Y-67773226D01*
X151746408Y-67756063D01*
X151974663Y-67694903D01*
X152188830Y-67595035D01*
X152382401Y-67459495D01*
X152549495Y-67292401D01*
X152678461Y-67108219D01*
X152679425Y-67106842D01*
X152734002Y-67063217D01*
X152803500Y-67056023D01*
X152865855Y-67087546D01*
X152882575Y-67106842D01*
X153012281Y-67292082D01*
X153012505Y-67292401D01*
X153179599Y-67459495D01*
X153276384Y-67527265D01*
X153373165Y-67595032D01*
X153373167Y-67595033D01*
X153373170Y-67595035D01*
X153587337Y-67694903D01*
X153815592Y-67756063D01*
X153999520Y-67772155D01*
X154050999Y-67776659D01*
X154051000Y-67776659D01*
X154051001Y-67776659D01*
X154090234Y-67773226D01*
X154286408Y-67756063D01*
X154514663Y-67694903D01*
X154728830Y-67595035D01*
X154922401Y-67459495D01*
X155089495Y-67292401D01*
X155224652Y-67099377D01*
X155279229Y-67055752D01*
X155326227Y-67046500D01*
X155365257Y-67046500D01*
X155380877Y-67048224D01*
X155380904Y-67047939D01*
X155388660Y-67048671D01*
X155388667Y-67048673D01*
X155457814Y-67046500D01*
X155487350Y-67046500D01*
X155494228Y-67045630D01*
X155500041Y-67045172D01*
X155546627Y-67043709D01*
X155565869Y-67038117D01*
X155584912Y-67034174D01*
X155604792Y-67031664D01*
X155648122Y-67014507D01*
X155653646Y-67012617D01*
X155657396Y-67011527D01*
X155698390Y-66999618D01*
X155715629Y-66989422D01*
X155733103Y-66980862D01*
X155751727Y-66973488D01*
X155751727Y-66973487D01*
X155751732Y-66973486D01*
X155789449Y-66946082D01*
X155794305Y-66942892D01*
X155834420Y-66919170D01*
X155848589Y-66904999D01*
X155863379Y-66892368D01*
X155879587Y-66880594D01*
X155909299Y-66844676D01*
X155913212Y-66840376D01*
X156305771Y-66447819D01*
X156367094Y-66414334D01*
X156393452Y-66411500D01*
X161785171Y-66411500D01*
X161852210Y-66431185D01*
X161897965Y-66483989D01*
X161907354Y-66541502D01*
X161908540Y-66541502D01*
X161908540Y-66547997D01*
X161908540Y-66548000D01*
X161928326Y-66736256D01*
X161928327Y-66736259D01*
X161986818Y-66916277D01*
X161986821Y-66916284D01*
X162081467Y-67080216D01*
X162176523Y-67185786D01*
X162208129Y-67220888D01*
X162361265Y-67332148D01*
X162361270Y-67332151D01*
X162534192Y-67409142D01*
X162534197Y-67409144D01*
X162719354Y-67448500D01*
X162719355Y-67448500D01*
X162908644Y-67448500D01*
X162908646Y-67448500D01*
X163093803Y-67409144D01*
X163266730Y-67332151D01*
X163419871Y-67220888D01*
X163422788Y-67217647D01*
X163425600Y-67214526D01*
X163485087Y-67177879D01*
X163517748Y-67173500D01*
X172536548Y-67173500D01*
X172603587Y-67193185D01*
X172624229Y-67209819D01*
X173006594Y-67592184D01*
X173016419Y-67604448D01*
X173016640Y-67604266D01*
X173021610Y-67610273D01*
X173021613Y-67610276D01*
X173021614Y-67610277D01*
X173072051Y-67657641D01*
X173092930Y-67678520D01*
X173098404Y-67682766D01*
X173102842Y-67686556D01*
X173136818Y-67718462D01*
X173136822Y-67718464D01*
X173154373Y-67728113D01*
X173170631Y-67738792D01*
X173186464Y-67751074D01*
X173197994Y-67756063D01*
X173229237Y-67769583D01*
X173234481Y-67772152D01*
X173275308Y-67794597D01*
X173294712Y-67799579D01*
X173313110Y-67805878D01*
X173331505Y-67813838D01*
X173377529Y-67821126D01*
X173383232Y-67822307D01*
X173428381Y-67833900D01*
X173448416Y-67833900D01*
X173467813Y-67835426D01*
X173487596Y-67838560D01*
X173533984Y-67834175D01*
X173539822Y-67833900D01*
X182644857Y-67833900D01*
X182660477Y-67835624D01*
X182660504Y-67835339D01*
X182668260Y-67836071D01*
X182668267Y-67836073D01*
X182737414Y-67833900D01*
X182766950Y-67833900D01*
X182773828Y-67833030D01*
X182779641Y-67832572D01*
X182826227Y-67831109D01*
X182845469Y-67825517D01*
X182864512Y-67821574D01*
X182884392Y-67819064D01*
X182927722Y-67801907D01*
X182933246Y-67800017D01*
X182936996Y-67798927D01*
X182977990Y-67787018D01*
X182995229Y-67776822D01*
X183012703Y-67768262D01*
X183031327Y-67760888D01*
X183031327Y-67760887D01*
X183031332Y-67760886D01*
X183069049Y-67733482D01*
X183073905Y-67730292D01*
X183114020Y-67706570D01*
X183128189Y-67692399D01*
X183142979Y-67679768D01*
X183159187Y-67667994D01*
X183188899Y-67632076D01*
X183192812Y-67627776D01*
X183712371Y-67108219D01*
X183773694Y-67074734D01*
X183800052Y-67071900D01*
X183883751Y-67071900D01*
X183950790Y-67091585D01*
X183971432Y-67108218D01*
X184049001Y-67185786D01*
X184058826Y-67198049D01*
X184059047Y-67197867D01*
X184064020Y-67203879D01*
X184114440Y-67251225D01*
X184135335Y-67272121D01*
X184140812Y-67276370D01*
X184145253Y-67280163D01*
X184179216Y-67312056D01*
X184179218Y-67312057D01*
X184179223Y-67312062D01*
X184196781Y-67321714D01*
X184213040Y-67332395D01*
X184228869Y-67344673D01*
X184271643Y-67363182D01*
X184276861Y-67365738D01*
X184317713Y-67388197D01*
X184337121Y-67393180D01*
X184355522Y-67399480D01*
X184373909Y-67407437D01*
X184417293Y-67414308D01*
X184419924Y-67414725D01*
X184425644Y-67415909D01*
X184470786Y-67427500D01*
X184490821Y-67427500D01*
X184510219Y-67429026D01*
X184529999Y-67432159D01*
X184530000Y-67432160D01*
X184530000Y-67432159D01*
X184530001Y-67432160D01*
X184576389Y-67427775D01*
X184582227Y-67427500D01*
X187496257Y-67427500D01*
X187511877Y-67429224D01*
X187511904Y-67428939D01*
X187519660Y-67429671D01*
X187519667Y-67429673D01*
X187588814Y-67427500D01*
X187618350Y-67427500D01*
X187625228Y-67426630D01*
X187631041Y-67426172D01*
X187677627Y-67424709D01*
X187696869Y-67419117D01*
X187715912Y-67415174D01*
X187735792Y-67412664D01*
X187779122Y-67395507D01*
X187784646Y-67393617D01*
X187788396Y-67392527D01*
X187829390Y-67380618D01*
X187846629Y-67370422D01*
X187864103Y-67361862D01*
X187882727Y-67354488D01*
X187882727Y-67354487D01*
X187882732Y-67354486D01*
X187920449Y-67327082D01*
X187925305Y-67323892D01*
X187965420Y-67300170D01*
X187979589Y-67285999D01*
X187994379Y-67273368D01*
X188010587Y-67261594D01*
X188040299Y-67225676D01*
X188044212Y-67221376D01*
X188415773Y-66849817D01*
X188477095Y-66816334D01*
X188503453Y-66813500D01*
X188562644Y-66813500D01*
X188562646Y-66813500D01*
X188747803Y-66774144D01*
X188920730Y-66697151D01*
X189073871Y-66585888D01*
X189200533Y-66445216D01*
X189295179Y-66281284D01*
X189353674Y-66101256D01*
X189373460Y-65913000D01*
X189353674Y-65724744D01*
X189295179Y-65544716D01*
X189200533Y-65380784D01*
X189073871Y-65240112D01*
X189073870Y-65240111D01*
X188920734Y-65128851D01*
X188920729Y-65128848D01*
X188747807Y-65051857D01*
X188747802Y-65051855D01*
X188602001Y-65020865D01*
X188562646Y-65012500D01*
X188373354Y-65012500D01*
X188340897Y-65019398D01*
X188188197Y-65051855D01*
X188188192Y-65051857D01*
X188015270Y-65128848D01*
X188015265Y-65128851D01*
X187862129Y-65240111D01*
X187735466Y-65380785D01*
X187640821Y-65544715D01*
X187640818Y-65544722D01*
X187582327Y-65724740D01*
X187582326Y-65724744D01*
X187566221Y-65877979D01*
X187564679Y-65892650D01*
X187538094Y-65957264D01*
X187529039Y-65967369D01*
X187356228Y-66140181D01*
X187294905Y-66173666D01*
X187268547Y-66176500D01*
X186194829Y-66176500D01*
X186127790Y-66156815D01*
X186082035Y-66104011D01*
X186072646Y-66046498D01*
X186071460Y-66046498D01*
X186071460Y-66040002D01*
X186070396Y-66029877D01*
X186051674Y-65851744D01*
X185993179Y-65671716D01*
X185898533Y-65507784D01*
X185771871Y-65367112D01*
X185745929Y-65348264D01*
X185618734Y-65255851D01*
X185618729Y-65255848D01*
X185445807Y-65178857D01*
X185445802Y-65178855D01*
X185300001Y-65147865D01*
X185260646Y-65139500D01*
X185071354Y-65139500D01*
X185038897Y-65146398D01*
X184886197Y-65178855D01*
X184886192Y-65178857D01*
X184713270Y-65255848D01*
X184713265Y-65255851D01*
X184560129Y-65367111D01*
X184433466Y-65507785D01*
X184338821Y-65671715D01*
X184338819Y-65671719D01*
X184319499Y-65731182D01*
X184280061Y-65788857D01*
X184215702Y-65816055D01*
X184213237Y-65816313D01*
X184167621Y-65820625D01*
X184161783Y-65820900D01*
X183572343Y-65820900D01*
X183556722Y-65819175D01*
X183556695Y-65819461D01*
X183548933Y-65818726D01*
X183479772Y-65820900D01*
X183450249Y-65820900D01*
X183443378Y-65821767D01*
X183437559Y-65822225D01*
X183390974Y-65823689D01*
X183390968Y-65823690D01*
X183371726Y-65829280D01*
X183352687Y-65833223D01*
X183332817Y-65835734D01*
X183332803Y-65835737D01*
X183289483Y-65852888D01*
X183283958Y-65854780D01*
X183239213Y-65867780D01*
X183239210Y-65867781D01*
X183221966Y-65877979D01*
X183204505Y-65886533D01*
X183185874Y-65893910D01*
X183185862Y-65893917D01*
X183148170Y-65921302D01*
X183143287Y-65924509D01*
X183103180Y-65948229D01*
X183089014Y-65962395D01*
X183074224Y-65975027D01*
X183058014Y-65986804D01*
X183058011Y-65986807D01*
X183028310Y-66022709D01*
X183024377Y-66027031D01*
X182504828Y-66546581D01*
X182443505Y-66580066D01*
X182417147Y-66582900D01*
X173817852Y-66582900D01*
X173750813Y-66563215D01*
X173730171Y-66546581D01*
X173347803Y-66164212D01*
X173337980Y-66151950D01*
X173337759Y-66152134D01*
X173332786Y-66146123D01*
X173326458Y-66140181D01*
X173282364Y-66098773D01*
X173271919Y-66088328D01*
X173261475Y-66077883D01*
X173255986Y-66073625D01*
X173251561Y-66069847D01*
X173217582Y-66037938D01*
X173217580Y-66037936D01*
X173217577Y-66037935D01*
X173200029Y-66028288D01*
X173183763Y-66017604D01*
X173167933Y-66005325D01*
X173125168Y-65986818D01*
X173119922Y-65984248D01*
X173079093Y-65961803D01*
X173079092Y-65961802D01*
X173059693Y-65956822D01*
X173041281Y-65950518D01*
X173022898Y-65942562D01*
X173022892Y-65942560D01*
X172976874Y-65935272D01*
X172971152Y-65934087D01*
X172926021Y-65922500D01*
X172926019Y-65922500D01*
X172905984Y-65922500D01*
X172886586Y-65920973D01*
X172879162Y-65919797D01*
X172866805Y-65917840D01*
X172866804Y-65917840D01*
X172820416Y-65922225D01*
X172814578Y-65922500D01*
X168496952Y-65922500D01*
X168429913Y-65902815D01*
X168384158Y-65850011D01*
X168374214Y-65780853D01*
X168403239Y-65717297D01*
X168409271Y-65710819D01*
X169310070Y-64810020D01*
X170222209Y-63897880D01*
X170283530Y-63864397D01*
X170353222Y-63869381D01*
X170360324Y-63872284D01*
X170362267Y-63873149D01*
X170362270Y-63873151D01*
X170535197Y-63950144D01*
X170720354Y-63989500D01*
X170720355Y-63989500D01*
X170909644Y-63989500D01*
X170909646Y-63989500D01*
X171094803Y-63950144D01*
X171267730Y-63873151D01*
X171420871Y-63761888D01*
X171547533Y-63621216D01*
X171642179Y-63457284D01*
X171700674Y-63277256D01*
X171720460Y-63089000D01*
X171700674Y-62900744D01*
X171642179Y-62720716D01*
X171560647Y-62579499D01*
X171544175Y-62511600D01*
X171560648Y-62455500D01*
X171642179Y-62314284D01*
X171700674Y-62134256D01*
X171720460Y-61946000D01*
X171700674Y-61757744D01*
X171642179Y-61577716D01*
X171547533Y-61413784D01*
X171420871Y-61273112D01*
X171419144Y-61271857D01*
X171267734Y-61161851D01*
X171267729Y-61161848D01*
X171094807Y-61084857D01*
X171094802Y-61084855D01*
X170933997Y-61050676D01*
X170909646Y-61045500D01*
X170720354Y-61045500D01*
X170696003Y-61050676D01*
X170535197Y-61084855D01*
X170535192Y-61084857D01*
X170362270Y-61161848D01*
X170362265Y-61161851D01*
X170209135Y-61273106D01*
X170209127Y-61273113D01*
X170173941Y-61312190D01*
X170114454Y-61348837D01*
X170085691Y-61353155D01*
X170081372Y-61353290D01*
X170081369Y-61353291D01*
X170062126Y-61358881D01*
X170043083Y-61362825D01*
X170023204Y-61365336D01*
X170023203Y-61365337D01*
X169979878Y-61382490D01*
X169974352Y-61384382D01*
X169929608Y-61397383D01*
X169929604Y-61397385D01*
X169912365Y-61407580D01*
X169894898Y-61416137D01*
X169876269Y-61423512D01*
X169876267Y-61423513D01*
X169838564Y-61450906D01*
X169833682Y-61454112D01*
X169793580Y-61477828D01*
X169779408Y-61492000D01*
X169764623Y-61504628D01*
X169748412Y-61516407D01*
X169718709Y-61552310D01*
X169714777Y-61556631D01*
X169525181Y-61746227D01*
X169463858Y-61779712D01*
X169394167Y-61774728D01*
X169338233Y-61732857D01*
X169313816Y-61667392D01*
X169313500Y-61658546D01*
X169313500Y-61372052D01*
X169333185Y-61305013D01*
X169349819Y-61284371D01*
X170137171Y-60497019D01*
X170198494Y-60463534D01*
X170224852Y-60460700D01*
X172961148Y-60460700D01*
X173028187Y-60480385D01*
X173048829Y-60497019D01*
X173150381Y-60598571D01*
X173183866Y-60659894D01*
X173186700Y-60686252D01*
X173186700Y-63524455D01*
X173184975Y-63540072D01*
X173185261Y-63540099D01*
X173184526Y-63547865D01*
X173186700Y-63617014D01*
X173186700Y-63646543D01*
X173186701Y-63646560D01*
X173187568Y-63653431D01*
X173188026Y-63659250D01*
X173189490Y-63705824D01*
X173189491Y-63705827D01*
X173195080Y-63725067D01*
X173199024Y-63744111D01*
X173201536Y-63763992D01*
X173213590Y-63794437D01*
X173218690Y-63807319D01*
X173220582Y-63812847D01*
X173231133Y-63849163D01*
X173233582Y-63857590D01*
X173242784Y-63873151D01*
X173243780Y-63874834D01*
X173252336Y-63892300D01*
X173259714Y-63910932D01*
X173270289Y-63925488D01*
X173287098Y-63948623D01*
X173290306Y-63953507D01*
X173314027Y-63993616D01*
X173314033Y-63993624D01*
X173328190Y-64007780D01*
X173340828Y-64022576D01*
X173352605Y-64038786D01*
X173352606Y-64038787D01*
X173388509Y-64068488D01*
X173392820Y-64072410D01*
X173884815Y-64564406D01*
X174044097Y-64723688D01*
X174053919Y-64735948D01*
X174054141Y-64735765D01*
X174059111Y-64741773D01*
X174059114Y-64741777D01*
X174059117Y-64741779D01*
X174063314Y-64746853D01*
X174090880Y-64811055D01*
X174079360Y-64879969D01*
X174073324Y-64890045D01*
X174073516Y-64890156D01*
X173975621Y-65059715D01*
X173975618Y-65059722D01*
X173918577Y-65235277D01*
X173917126Y-65239744D01*
X173897340Y-65428000D01*
X173917126Y-65616256D01*
X173917127Y-65616259D01*
X173975618Y-65796277D01*
X173975621Y-65796284D01*
X174070267Y-65960216D01*
X174176215Y-66077883D01*
X174196929Y-66100888D01*
X174350065Y-66212148D01*
X174350070Y-66212151D01*
X174522992Y-66289142D01*
X174522997Y-66289144D01*
X174708154Y-66328500D01*
X174708155Y-66328500D01*
X174897444Y-66328500D01*
X174897446Y-66328500D01*
X175082603Y-66289144D01*
X175255530Y-66212151D01*
X175408671Y-66100888D01*
X175414396Y-66094530D01*
X175414400Y-66094526D01*
X175473887Y-66057879D01*
X175506548Y-66053500D01*
X179684892Y-66053500D01*
X179751931Y-66073185D01*
X179777041Y-66094527D01*
X179783102Y-66101259D01*
X179784930Y-66103289D01*
X179938065Y-66214548D01*
X179938070Y-66214551D01*
X180110992Y-66291542D01*
X180110997Y-66291544D01*
X180296154Y-66330900D01*
X180296155Y-66330900D01*
X180485444Y-66330900D01*
X180485446Y-66330900D01*
X180670603Y-66291544D01*
X180843530Y-66214551D01*
X180996671Y-66103288D01*
X181123333Y-65962616D01*
X181217979Y-65798684D01*
X181276474Y-65618656D01*
X181296260Y-65430400D01*
X181276474Y-65242144D01*
X181217979Y-65062116D01*
X181123333Y-64898184D01*
X181095255Y-64867000D01*
X196198540Y-64867000D01*
X196218326Y-65055256D01*
X196218327Y-65055259D01*
X196276818Y-65235277D01*
X196276821Y-65235284D01*
X196371467Y-65399216D01*
X196495052Y-65536471D01*
X196498129Y-65539888D01*
X196651265Y-65651148D01*
X196651270Y-65651151D01*
X196824192Y-65728142D01*
X196824197Y-65728144D01*
X197009354Y-65767500D01*
X197009355Y-65767500D01*
X197198644Y-65767500D01*
X197198646Y-65767500D01*
X197383803Y-65728144D01*
X197556730Y-65651151D01*
X197709871Y-65539888D01*
X197836533Y-65399216D01*
X197931179Y-65235284D01*
X197989674Y-65055256D01*
X198009460Y-64867000D01*
X197989674Y-64678744D01*
X197931179Y-64498716D01*
X197836533Y-64334784D01*
X197709871Y-64194112D01*
X197684635Y-64175777D01*
X197556734Y-64082851D01*
X197556729Y-64082848D01*
X197383807Y-64005857D01*
X197383802Y-64005855D01*
X197215705Y-63970126D01*
X197198646Y-63966500D01*
X197009354Y-63966500D01*
X196992295Y-63970126D01*
X196824197Y-64005855D01*
X196824192Y-64005857D01*
X196651270Y-64082848D01*
X196651265Y-64082851D01*
X196498129Y-64194111D01*
X196371466Y-64334785D01*
X196276821Y-64498715D01*
X196276818Y-64498722D01*
X196224139Y-64660853D01*
X196218326Y-64678744D01*
X196198540Y-64867000D01*
X181095255Y-64867000D01*
X180996671Y-64757512D01*
X180996670Y-64757511D01*
X180843534Y-64646251D01*
X180843529Y-64646248D01*
X180670607Y-64569257D01*
X180670602Y-64569255D01*
X180524801Y-64538265D01*
X180485446Y-64529900D01*
X180296154Y-64529900D01*
X180263697Y-64536798D01*
X180110997Y-64569255D01*
X180110992Y-64569257D01*
X179938070Y-64646248D01*
X179938065Y-64646251D01*
X179784930Y-64757510D01*
X179784926Y-64757514D01*
X179781361Y-64761474D01*
X179721874Y-64798121D01*
X179689213Y-64802500D01*
X177505352Y-64802500D01*
X177438313Y-64782815D01*
X177392558Y-64730011D01*
X177382614Y-64660853D01*
X177411639Y-64597297D01*
X177417671Y-64590819D01*
X177694272Y-64314219D01*
X177755595Y-64280734D01*
X177781953Y-64277900D01*
X187470857Y-64277900D01*
X187486477Y-64279624D01*
X187486504Y-64279339D01*
X187494260Y-64280071D01*
X187494267Y-64280073D01*
X187563414Y-64277900D01*
X187592950Y-64277900D01*
X187599828Y-64277030D01*
X187605641Y-64276572D01*
X187652227Y-64275109D01*
X187671469Y-64269517D01*
X187690512Y-64265574D01*
X187710392Y-64263064D01*
X187753722Y-64245907D01*
X187759246Y-64244017D01*
X187762996Y-64242927D01*
X187803990Y-64231018D01*
X187821229Y-64220822D01*
X187838703Y-64212262D01*
X187857327Y-64204888D01*
X187857327Y-64204887D01*
X187857332Y-64204886D01*
X187895049Y-64177482D01*
X187899905Y-64174292D01*
X187940020Y-64150570D01*
X187954189Y-64136399D01*
X187968979Y-64123768D01*
X187985187Y-64111994D01*
X188014899Y-64076076D01*
X188018812Y-64071776D01*
X188542772Y-63547819D01*
X188604095Y-63514334D01*
X188630453Y-63511500D01*
X188689644Y-63511500D01*
X188689646Y-63511500D01*
X188874803Y-63472144D01*
X189047730Y-63395151D01*
X189200871Y-63283888D01*
X189327533Y-63143216D01*
X189422179Y-62979284D01*
X189480674Y-62799256D01*
X189500460Y-62611000D01*
X189480674Y-62422744D01*
X189422179Y-62242716D01*
X189327533Y-62078784D01*
X189200871Y-61938112D01*
X189176015Y-61920053D01*
X189047734Y-61826851D01*
X189047729Y-61826848D01*
X188874807Y-61749857D01*
X188874802Y-61749855D01*
X188729001Y-61718865D01*
X188689646Y-61710500D01*
X188689645Y-61710500D01*
X188597255Y-61710500D01*
X188530216Y-61690815D01*
X188489868Y-61648500D01*
X188434319Y-61552286D01*
X188311470Y-61415849D01*
X188307656Y-61411613D01*
X188302105Y-61407580D01*
X188154519Y-61300352D01*
X188154514Y-61300349D01*
X187981592Y-61223358D01*
X187981587Y-61223356D01*
X187835786Y-61192366D01*
X187796431Y-61184001D01*
X187607139Y-61184001D01*
X187574682Y-61190899D01*
X187421982Y-61223356D01*
X187421977Y-61223358D01*
X187249055Y-61300349D01*
X187249051Y-61300352D01*
X187171899Y-61356405D01*
X187106092Y-61379884D01*
X187038039Y-61364058D01*
X187026132Y-61356406D01*
X187015731Y-61348850D01*
X187015729Y-61348848D01*
X186842807Y-61271857D01*
X186842802Y-61271855D01*
X186684538Y-61238216D01*
X186657646Y-61232500D01*
X186468354Y-61232500D01*
X186452763Y-61235814D01*
X186283197Y-61271855D01*
X186283192Y-61271857D01*
X186141901Y-61334765D01*
X186072651Y-61344050D01*
X186009374Y-61314422D01*
X185972161Y-61255287D01*
X185972826Y-61185421D01*
X186003782Y-61133807D01*
X186057788Y-61079801D01*
X186070042Y-61069986D01*
X186069859Y-61069764D01*
X186075866Y-61064792D01*
X186075877Y-61064786D01*
X186106775Y-61031882D01*
X186123227Y-61014364D01*
X186133671Y-61003918D01*
X186144120Y-60993471D01*
X186148379Y-60987978D01*
X186152152Y-60983561D01*
X186184062Y-60949582D01*
X186193713Y-60932024D01*
X186204396Y-60915761D01*
X186216673Y-60899936D01*
X186235185Y-60857153D01*
X186237738Y-60851941D01*
X186260197Y-60811092D01*
X186265180Y-60791680D01*
X186271481Y-60773280D01*
X186279437Y-60754896D01*
X186286729Y-60708852D01*
X186287906Y-60703171D01*
X186299500Y-60658019D01*
X186299500Y-60637983D01*
X186301027Y-60618582D01*
X186304160Y-60598804D01*
X186299775Y-60552415D01*
X186299500Y-60546577D01*
X186299500Y-59366257D01*
X186319185Y-59299218D01*
X186371989Y-59253463D01*
X186441147Y-59243519D01*
X186473933Y-59252977D01*
X186537197Y-59281144D01*
X186722354Y-59320500D01*
X186722355Y-59320500D01*
X186911644Y-59320500D01*
X186911646Y-59320500D01*
X187096803Y-59281144D01*
X187269730Y-59204151D01*
X187422871Y-59092888D01*
X187549533Y-58952216D01*
X187644179Y-58788284D01*
X187702674Y-58608256D01*
X187722460Y-58420000D01*
X187702674Y-58231744D01*
X187644179Y-58051716D01*
X187549533Y-57887784D01*
X187422871Y-57747112D01*
X187409146Y-57737140D01*
X187269734Y-57635851D01*
X187269729Y-57635848D01*
X187096807Y-57558857D01*
X187096802Y-57558855D01*
X186940655Y-57525666D01*
X186911646Y-57519500D01*
X186722354Y-57519500D01*
X186693345Y-57525666D01*
X186537197Y-57558855D01*
X186537192Y-57558857D01*
X186364270Y-57635848D01*
X186364266Y-57635850D01*
X186297738Y-57684186D01*
X186231932Y-57707665D01*
X186163878Y-57691839D01*
X186151970Y-57684186D01*
X186126733Y-57665851D01*
X186126729Y-57665848D01*
X185953807Y-57588857D01*
X185953802Y-57588855D01*
X185808001Y-57557865D01*
X185768646Y-57549500D01*
X185579354Y-57549500D01*
X185546897Y-57556398D01*
X185394197Y-57588855D01*
X185394192Y-57588857D01*
X185221270Y-57665848D01*
X185221265Y-57665851D01*
X185066708Y-57778143D01*
X185000901Y-57801623D01*
X184932848Y-57785797D01*
X184884153Y-57735691D01*
X184875892Y-57716143D01*
X184851604Y-57641392D01*
X184851601Y-57641386D01*
X184756956Y-57477455D01*
X184630294Y-57336783D01*
X184630293Y-57336782D01*
X184477157Y-57225522D01*
X184477152Y-57225519D01*
X184304230Y-57148528D01*
X184304225Y-57148526D01*
X184158424Y-57117536D01*
X184119069Y-57109171D01*
X183929777Y-57109171D01*
X183897320Y-57116069D01*
X183744620Y-57148526D01*
X183744615Y-57148528D01*
X183571693Y-57225519D01*
X183571688Y-57225522D01*
X183418553Y-57336781D01*
X183418549Y-57336785D01*
X183412823Y-57343145D01*
X183353336Y-57379792D01*
X183320675Y-57384171D01*
X178343872Y-57384171D01*
X178328251Y-57382446D01*
X178328224Y-57382732D01*
X178320462Y-57381997D01*
X178251301Y-57384171D01*
X178221778Y-57384171D01*
X178214907Y-57385038D01*
X178209088Y-57385496D01*
X178162503Y-57386960D01*
X178162497Y-57386961D01*
X178143255Y-57392551D01*
X178124216Y-57396494D01*
X178104346Y-57399005D01*
X178104332Y-57399008D01*
X178061012Y-57416159D01*
X178055487Y-57418051D01*
X178010742Y-57431051D01*
X178010739Y-57431052D01*
X177993495Y-57441250D01*
X177976034Y-57449804D01*
X177957403Y-57457181D01*
X177957391Y-57457188D01*
X177919699Y-57484573D01*
X177914816Y-57487780D01*
X177874709Y-57511500D01*
X177860543Y-57525666D01*
X177845753Y-57538298D01*
X177829543Y-57550075D01*
X177829540Y-57550078D01*
X177799839Y-57585980D01*
X177795906Y-57590302D01*
X176662828Y-58723381D01*
X176601505Y-58756866D01*
X176575147Y-58759700D01*
X175698142Y-58759700D01*
X175631103Y-58740015D01*
X175585348Y-58687211D01*
X175575404Y-58618053D01*
X175579482Y-58599704D01*
X175596683Y-58543000D01*
X175613024Y-58489132D01*
X175632341Y-58293000D01*
X175613024Y-58096868D01*
X175555814Y-57908273D01*
X175555811Y-57908269D01*
X175555811Y-57908266D01*
X175462913Y-57734467D01*
X175462909Y-57734460D01*
X175337883Y-57582116D01*
X175185539Y-57457090D01*
X175185532Y-57457086D01*
X175011733Y-57364188D01*
X175011727Y-57364186D01*
X174823132Y-57306976D01*
X174823129Y-57306975D01*
X174627000Y-57287659D01*
X174430870Y-57306975D01*
X174242266Y-57364188D01*
X174068467Y-57457086D01*
X174063399Y-57460473D01*
X174062386Y-57458958D01*
X174005936Y-57482920D01*
X173937071Y-57471115D01*
X173920574Y-57460511D01*
X173920322Y-57460890D01*
X173915253Y-57457503D01*
X173741541Y-57364652D01*
X173607000Y-57323839D01*
X173607000Y-58085327D01*
X173569129Y-58040195D01*
X173469871Y-57982888D01*
X173385436Y-57968000D01*
X173328564Y-57968000D01*
X173244129Y-57982888D01*
X173144871Y-58040195D01*
X173107000Y-58085327D01*
X173107000Y-57323839D01*
X173106999Y-57323839D01*
X172972458Y-57364652D01*
X172798742Y-57457505D01*
X172793673Y-57460893D01*
X172792556Y-57459221D01*
X172736715Y-57482921D01*
X172667851Y-57471111D01*
X172650811Y-57460158D01*
X172650601Y-57460473D01*
X172645532Y-57457086D01*
X172471733Y-57364188D01*
X172471727Y-57364186D01*
X172283132Y-57306976D01*
X172283129Y-57306975D01*
X172087000Y-57287659D01*
X171890870Y-57306975D01*
X171792611Y-57336782D01*
X171702273Y-57364186D01*
X171702272Y-57364186D01*
X171702267Y-57364188D01*
X171700143Y-57365324D01*
X171698898Y-57365583D01*
X171696641Y-57366518D01*
X171696463Y-57366089D01*
X171631740Y-57379564D01*
X171567382Y-57355231D01*
X171559331Y-57349204D01*
X171559328Y-57349202D01*
X171424482Y-57298908D01*
X171424483Y-57298908D01*
X171364883Y-57292501D01*
X171364881Y-57292500D01*
X171364873Y-57292500D01*
X171364864Y-57292500D01*
X170269129Y-57292500D01*
X170269123Y-57292501D01*
X170209516Y-57298908D01*
X170074671Y-57349202D01*
X170074664Y-57349206D01*
X169959455Y-57435452D01*
X169959452Y-57435455D01*
X169873206Y-57550664D01*
X169873202Y-57550671D01*
X169822908Y-57685517D01*
X169816501Y-57745116D01*
X169816500Y-57745127D01*
X169816500Y-58251500D01*
X169816501Y-58635700D01*
X169796817Y-58702739D01*
X169744013Y-58748494D01*
X169692501Y-58759700D01*
X169683450Y-58759700D01*
X169682729Y-58759790D01*
X169676557Y-58760569D01*
X169670745Y-58761026D01*
X169624178Y-58762490D01*
X169624167Y-58762492D01*
X169604934Y-58768079D01*
X169585894Y-58772022D01*
X169566017Y-58774534D01*
X169566010Y-58774535D01*
X169566008Y-58774536D01*
X169566006Y-58774536D01*
X169566005Y-58774537D01*
X169522668Y-58791694D01*
X169517142Y-58793586D01*
X169472411Y-58806582D01*
X169472408Y-58806583D01*
X169455163Y-58816781D01*
X169437701Y-58825335D01*
X169419072Y-58832711D01*
X169419067Y-58832713D01*
X169381364Y-58860106D01*
X169376482Y-58863312D01*
X169336380Y-58887028D01*
X169322208Y-58901200D01*
X169307423Y-58913828D01*
X169291212Y-58925607D01*
X169261509Y-58961510D01*
X169257577Y-58965831D01*
X167854208Y-60369199D01*
X167841951Y-60379020D01*
X167842134Y-60379241D01*
X167836123Y-60384213D01*
X167788772Y-60434636D01*
X167767889Y-60455519D01*
X167767877Y-60455532D01*
X167763621Y-60461017D01*
X167759837Y-60465447D01*
X167727937Y-60499418D01*
X167727936Y-60499420D01*
X167718284Y-60516976D01*
X167707610Y-60533226D01*
X167695329Y-60549061D01*
X167695324Y-60549068D01*
X167676815Y-60591838D01*
X167674245Y-60597084D01*
X167651803Y-60637906D01*
X167646822Y-60657307D01*
X167640521Y-60675710D01*
X167632562Y-60694102D01*
X167632561Y-60694105D01*
X167625271Y-60740127D01*
X167624087Y-60745846D01*
X167612501Y-60790972D01*
X167612500Y-60790982D01*
X167612500Y-60811016D01*
X167610973Y-60830413D01*
X167610249Y-60834983D01*
X167607840Y-60850194D01*
X167607840Y-60850195D01*
X167612225Y-60896583D01*
X167612500Y-60902421D01*
X167612500Y-60921500D01*
X167592815Y-60988539D01*
X167540011Y-61034294D01*
X167488500Y-61045500D01*
X167418354Y-61045500D01*
X167394003Y-61050676D01*
X167233197Y-61084855D01*
X167233192Y-61084857D01*
X167060271Y-61161848D01*
X166992908Y-61210790D01*
X166927101Y-61234269D01*
X166859047Y-61218443D01*
X166832342Y-61198152D01*
X166467190Y-60833000D01*
X166058003Y-60423812D01*
X166048180Y-60411550D01*
X166047959Y-60411734D01*
X166042986Y-60405723D01*
X166034627Y-60397873D01*
X165992564Y-60358373D01*
X165981470Y-60347279D01*
X165971675Y-60337483D01*
X165966186Y-60333225D01*
X165961761Y-60329447D01*
X165927782Y-60297538D01*
X165927780Y-60297536D01*
X165927777Y-60297535D01*
X165910229Y-60287888D01*
X165893963Y-60277204D01*
X165893922Y-60277172D01*
X165878136Y-60264927D01*
X165878135Y-60264926D01*
X165878133Y-60264925D01*
X165835368Y-60246418D01*
X165830122Y-60243848D01*
X165789293Y-60221403D01*
X165789292Y-60221402D01*
X165769893Y-60216422D01*
X165751481Y-60210118D01*
X165733098Y-60202162D01*
X165733092Y-60202160D01*
X165687074Y-60194872D01*
X165681352Y-60193687D01*
X165636221Y-60182100D01*
X165636219Y-60182100D01*
X165616184Y-60182100D01*
X165596786Y-60180573D01*
X165589362Y-60179397D01*
X165577005Y-60177440D01*
X165577004Y-60177440D01*
X165530616Y-60181825D01*
X165524778Y-60182100D01*
X157588143Y-60182100D01*
X157572522Y-60180375D01*
X157572496Y-60180661D01*
X157564734Y-60179927D01*
X157564733Y-60179927D01*
X157495586Y-60182100D01*
X157466049Y-60182100D01*
X157459166Y-60182969D01*
X157453349Y-60183426D01*
X157406773Y-60184890D01*
X157387529Y-60190481D01*
X157368479Y-60194425D01*
X157348611Y-60196934D01*
X157305284Y-60214088D01*
X157299758Y-60215979D01*
X157255014Y-60228979D01*
X157255010Y-60228981D01*
X157237766Y-60239179D01*
X157220305Y-60247733D01*
X157201674Y-60255110D01*
X157201662Y-60255117D01*
X157163970Y-60282502D01*
X157159087Y-60285709D01*
X157118980Y-60309429D01*
X157104814Y-60323595D01*
X157090024Y-60336227D01*
X157073814Y-60348004D01*
X157073811Y-60348007D01*
X157044110Y-60383909D01*
X157040177Y-60388231D01*
X155352228Y-62076181D01*
X155290905Y-62109666D01*
X155264547Y-62112500D01*
X153625737Y-62112500D01*
X153610120Y-62110776D01*
X153610093Y-62111062D01*
X153602331Y-62110327D01*
X153533203Y-62112500D01*
X153503650Y-62112500D01*
X153502929Y-62112590D01*
X153496757Y-62113369D01*
X153490945Y-62113826D01*
X153444373Y-62115290D01*
X153444372Y-62115290D01*
X153425129Y-62120881D01*
X153406079Y-62124825D01*
X153386211Y-62127334D01*
X153386209Y-62127335D01*
X153342884Y-62144488D01*
X153337357Y-62146380D01*
X153292610Y-62159381D01*
X153292609Y-62159382D01*
X153275367Y-62169579D01*
X153257899Y-62178137D01*
X153239269Y-62185513D01*
X153239267Y-62185514D01*
X153201576Y-62212898D01*
X153196694Y-62216105D01*
X153156579Y-62239830D01*
X153142408Y-62254000D01*
X153127623Y-62266628D01*
X153111412Y-62278407D01*
X153081709Y-62314310D01*
X153077776Y-62318631D01*
X152041287Y-63355122D01*
X151034228Y-64362181D01*
X150972905Y-64395666D01*
X150946547Y-64398500D01*
X144481737Y-64398500D01*
X144466120Y-64396776D01*
X144466093Y-64397062D01*
X144458331Y-64396327D01*
X144389203Y-64398500D01*
X144359650Y-64398500D01*
X144358929Y-64398590D01*
X144352757Y-64399369D01*
X144346945Y-64399826D01*
X144300372Y-64401290D01*
X144300369Y-64401291D01*
X144281126Y-64406881D01*
X144262083Y-64410825D01*
X144242204Y-64413336D01*
X144242203Y-64413337D01*
X144198878Y-64430490D01*
X144193352Y-64432382D01*
X144148608Y-64445383D01*
X144148604Y-64445385D01*
X144131365Y-64455580D01*
X144113898Y-64464137D01*
X144095269Y-64471512D01*
X144095267Y-64471513D01*
X144057564Y-64498906D01*
X144052682Y-64502112D01*
X144012580Y-64525828D01*
X143998408Y-64540000D01*
X143983623Y-64552628D01*
X143967412Y-64564407D01*
X143937709Y-64600310D01*
X143933777Y-64604631D01*
X143507208Y-65031199D01*
X143494900Y-65041060D01*
X143495084Y-65041282D01*
X143494116Y-65042082D01*
X143493062Y-65042533D01*
X143485987Y-65048203D01*
X143482550Y-65050385D01*
X143480881Y-65047756D01*
X143429900Y-65069616D01*
X143415122Y-65070500D01*
X142993129Y-65070500D01*
X142993123Y-65070501D01*
X142933516Y-65076908D01*
X142798671Y-65127202D01*
X142798664Y-65127206D01*
X142683455Y-65213452D01*
X142683452Y-65213455D01*
X142597206Y-65328664D01*
X142597202Y-65328671D01*
X142546908Y-65463517D01*
X142540501Y-65523116D01*
X142540500Y-65523135D01*
X142540500Y-67318870D01*
X134300500Y-67318870D01*
X134300500Y-66250000D01*
X134754862Y-66250000D01*
X134817198Y-66418314D01*
X134817202Y-66418323D01*
X134918859Y-66581419D01*
X134918864Y-66581424D01*
X135051274Y-66720720D01*
X135209025Y-66830518D01*
X135385642Y-66906310D01*
X135573903Y-66945000D01*
X135750000Y-66945000D01*
X135750000Y-66250000D01*
X136250000Y-66250000D01*
X136250000Y-66945000D01*
X136377921Y-66945000D01*
X136521209Y-66930429D01*
X136704579Y-66872896D01*
X136704589Y-66872891D01*
X136872633Y-66779619D01*
X136872634Y-66779619D01*
X137018460Y-66654432D01*
X137018461Y-66654431D01*
X137136102Y-66502451D01*
X137136104Y-66502447D01*
X137220745Y-66329893D01*
X137241432Y-66250000D01*
X136349624Y-66250000D01*
X136422545Y-66235495D01*
X136505240Y-66180240D01*
X136560495Y-66097545D01*
X136579898Y-66000000D01*
X136560495Y-65902455D01*
X136505240Y-65819760D01*
X136422545Y-65764505D01*
X136349624Y-65750000D01*
X137245138Y-65750000D01*
X137182801Y-65581685D01*
X137182797Y-65581676D01*
X137081140Y-65418580D01*
X137081135Y-65418575D01*
X136948725Y-65279279D01*
X136790974Y-65169481D01*
X136614357Y-65093689D01*
X136426097Y-65055000D01*
X136250000Y-65055000D01*
X136250000Y-65750000D01*
X135750000Y-65750000D01*
X135750000Y-65055000D01*
X135622079Y-65055000D01*
X135478790Y-65069570D01*
X135295420Y-65127103D01*
X135295410Y-65127108D01*
X135127366Y-65220380D01*
X135127365Y-65220380D01*
X134981539Y-65345567D01*
X134981538Y-65345568D01*
X134863897Y-65497548D01*
X134863895Y-65497552D01*
X134779254Y-65670106D01*
X134758568Y-65750000D01*
X135650376Y-65750000D01*
X135577455Y-65764505D01*
X135494760Y-65819760D01*
X135439505Y-65902455D01*
X135420102Y-66000000D01*
X135439505Y-66097545D01*
X135494760Y-66180240D01*
X135577455Y-66235495D01*
X135650376Y-66250000D01*
X134754862Y-66250000D01*
X134300500Y-66250000D01*
X134300500Y-64750000D01*
X137725175Y-64750000D01*
X138439503Y-64750000D01*
X138425000Y-64822912D01*
X138425000Y-65177088D01*
X138439503Y-65250000D01*
X137730141Y-65250000D01*
X137740032Y-65347279D01*
X137799392Y-65536471D01*
X137799399Y-65536486D01*
X137895627Y-65709856D01*
X137895630Y-65709861D01*
X138024791Y-65860315D01*
X138024792Y-65860317D01*
X138181597Y-65981693D01*
X138181601Y-65981695D01*
X138359629Y-66069022D01*
X138449999Y-66092420D01*
X138450000Y-66092420D01*
X138450000Y-65270836D01*
X138501736Y-65348264D01*
X138592700Y-65409045D01*
X138700000Y-65430388D01*
X138807300Y-65409045D01*
X138898264Y-65348264D01*
X138950000Y-65270836D01*
X138950000Y-66097130D01*
X139131591Y-66029877D01*
X139131598Y-66029873D01*
X139299883Y-65924980D01*
X139443601Y-65788366D01*
X139443602Y-65788364D01*
X139556884Y-65625609D01*
X139635082Y-65443384D01*
X139674825Y-65250000D01*
X138960497Y-65250000D01*
X138975000Y-65177088D01*
X138975000Y-64822912D01*
X138960497Y-64750000D01*
X139669858Y-64750000D01*
X139669858Y-64749999D01*
X139659967Y-64652720D01*
X139600607Y-64463528D01*
X139600600Y-64463513D01*
X139504372Y-64290143D01*
X139504369Y-64290138D01*
X139375208Y-64139684D01*
X139375207Y-64139682D01*
X139218402Y-64018306D01*
X139218398Y-64018304D01*
X139040366Y-63930976D01*
X138950000Y-63907577D01*
X138950000Y-64729163D01*
X138898264Y-64651736D01*
X138807300Y-64590955D01*
X138700000Y-64569612D01*
X138592700Y-64590955D01*
X138501736Y-64651736D01*
X138450000Y-64729163D01*
X138450000Y-63902869D01*
X138449999Y-63902869D01*
X138268405Y-63970124D01*
X138268401Y-63970126D01*
X138100116Y-64075019D01*
X137956398Y-64211633D01*
X137956397Y-64211635D01*
X137843115Y-64374390D01*
X137764917Y-64556615D01*
X137725175Y-64749999D01*
X137725175Y-64750000D01*
X134300500Y-64750000D01*
X134300500Y-61849000D01*
X139937540Y-61849000D01*
X139957326Y-62037256D01*
X139957327Y-62037259D01*
X140015818Y-62217277D01*
X140015821Y-62217284D01*
X140110467Y-62381216D01*
X140207222Y-62488673D01*
X140237129Y-62521888D01*
X140390265Y-62633148D01*
X140390270Y-62633151D01*
X140563192Y-62710142D01*
X140563193Y-62710142D01*
X140563197Y-62710144D01*
X140741439Y-62748030D01*
X140802921Y-62781222D01*
X140836698Y-62842385D01*
X140838979Y-62856353D01*
X140846326Y-62926256D01*
X140846327Y-62926259D01*
X140904818Y-63106277D01*
X140904821Y-63106284D01*
X140999467Y-63270216D01*
X141102304Y-63384428D01*
X141126129Y-63410888D01*
X141279265Y-63522148D01*
X141279270Y-63522151D01*
X141452192Y-63599142D01*
X141452197Y-63599144D01*
X141637354Y-63638500D01*
X141637355Y-63638500D01*
X141826644Y-63638500D01*
X141826646Y-63638500D01*
X142011803Y-63599144D01*
X142184730Y-63522151D01*
X142337871Y-63410888D01*
X142464533Y-63270216D01*
X142559179Y-63106284D01*
X142617674Y-62926256D01*
X142637460Y-62738000D01*
X142624160Y-62611459D01*
X142636730Y-62542732D01*
X142684462Y-62491708D01*
X142747481Y-62474500D01*
X143072548Y-62474500D01*
X143139587Y-62494185D01*
X143160228Y-62510818D01*
X143783511Y-63134102D01*
X144406197Y-63756788D01*
X144416022Y-63769051D01*
X144416243Y-63768869D01*
X144421214Y-63774878D01*
X144442043Y-63794437D01*
X144471635Y-63822226D01*
X144492529Y-63843120D01*
X144498011Y-63847373D01*
X144502443Y-63851157D01*
X144536418Y-63883062D01*
X144553976Y-63892714D01*
X144570235Y-63903395D01*
X144586064Y-63915673D01*
X144628838Y-63934182D01*
X144634056Y-63936738D01*
X144674908Y-63959197D01*
X144694316Y-63964180D01*
X144712717Y-63970480D01*
X144731104Y-63978437D01*
X144774488Y-63985308D01*
X144777119Y-63985725D01*
X144782839Y-63986909D01*
X144827981Y-63998500D01*
X144848016Y-63998500D01*
X144867414Y-64000026D01*
X144887194Y-64003159D01*
X144887195Y-64003160D01*
X144887195Y-64003159D01*
X144887196Y-64003160D01*
X144933584Y-63998775D01*
X144939422Y-63998500D01*
X148951757Y-63998500D01*
X148967377Y-64000224D01*
X148967404Y-63999939D01*
X148975160Y-64000671D01*
X148975167Y-64000673D01*
X149044314Y-63998500D01*
X149073850Y-63998500D01*
X149080728Y-63997630D01*
X149086541Y-63997172D01*
X149133127Y-63995709D01*
X149152369Y-63990117D01*
X149171412Y-63986174D01*
X149191292Y-63983664D01*
X149234622Y-63966507D01*
X149240146Y-63964617D01*
X149243896Y-63963527D01*
X149284890Y-63951618D01*
X149302129Y-63941422D01*
X149319603Y-63932862D01*
X149338227Y-63925488D01*
X149338227Y-63925487D01*
X149338232Y-63925486D01*
X149375949Y-63898082D01*
X149380805Y-63894892D01*
X149420920Y-63871170D01*
X149435089Y-63856999D01*
X149449879Y-63844368D01*
X149466087Y-63832594D01*
X149495799Y-63796676D01*
X149499712Y-63792376D01*
X151924271Y-61367819D01*
X151985594Y-61334334D01*
X152011952Y-61331500D01*
X152978901Y-61331500D01*
X153045940Y-61351185D01*
X153071050Y-61372527D01*
X153107200Y-61412676D01*
X153191129Y-61505888D01*
X153344265Y-61617148D01*
X153344270Y-61617151D01*
X153517192Y-61694142D01*
X153517197Y-61694144D01*
X153702354Y-61733500D01*
X153702355Y-61733500D01*
X153891644Y-61733500D01*
X153891646Y-61733500D01*
X154076803Y-61694144D01*
X154249730Y-61617151D01*
X154402871Y-61505888D01*
X154529533Y-61365216D01*
X154624179Y-61201284D01*
X154682674Y-61021256D01*
X154702460Y-60833000D01*
X154682674Y-60644744D01*
X154624179Y-60464716D01*
X154529533Y-60300784D01*
X154402871Y-60160112D01*
X154393790Y-60153514D01*
X154249734Y-60048851D01*
X154249729Y-60048848D01*
X154076807Y-59971857D01*
X154076802Y-59971855D01*
X153931001Y-59940865D01*
X153891646Y-59932500D01*
X153702354Y-59932500D01*
X153669897Y-59939398D01*
X153517197Y-59971855D01*
X153517192Y-59971857D01*
X153344270Y-60048848D01*
X153333302Y-60056818D01*
X153267496Y-60080298D01*
X153260416Y-60080500D01*
X151784243Y-60080500D01*
X151768622Y-60078775D01*
X151768595Y-60079061D01*
X151760833Y-60078326D01*
X151691672Y-60080500D01*
X151662149Y-60080500D01*
X151655278Y-60081367D01*
X151649459Y-60081825D01*
X151602874Y-60083289D01*
X151602868Y-60083290D01*
X151583626Y-60088880D01*
X151564587Y-60092823D01*
X151544717Y-60095334D01*
X151544703Y-60095337D01*
X151501383Y-60112488D01*
X151495858Y-60114380D01*
X151451113Y-60127380D01*
X151451110Y-60127381D01*
X151433866Y-60137579D01*
X151416405Y-60146133D01*
X151397774Y-60153510D01*
X151397762Y-60153517D01*
X151360070Y-60180902D01*
X151355187Y-60184109D01*
X151315080Y-60207829D01*
X151300914Y-60221995D01*
X151286124Y-60234627D01*
X151269914Y-60246404D01*
X151269911Y-60246407D01*
X151240210Y-60282309D01*
X151236277Y-60286631D01*
X148811728Y-62711181D01*
X148750405Y-62744666D01*
X148724047Y-62747500D01*
X145217453Y-62747500D01*
X145150414Y-62727815D01*
X145129772Y-62711181D01*
X143883803Y-61465212D01*
X143873980Y-61452950D01*
X143873759Y-61453134D01*
X143868786Y-61447123D01*
X143843643Y-61423512D01*
X143818364Y-61399773D01*
X143802973Y-61384382D01*
X143797475Y-61378883D01*
X143791986Y-61374625D01*
X143787561Y-61370847D01*
X143753582Y-61338938D01*
X143753580Y-61338936D01*
X143753577Y-61338935D01*
X143736029Y-61329288D01*
X143719763Y-61318604D01*
X143714372Y-61314422D01*
X143703936Y-61306327D01*
X143703935Y-61306326D01*
X143703933Y-61306325D01*
X143661168Y-61287818D01*
X143655922Y-61285248D01*
X143615093Y-61262803D01*
X143615092Y-61262802D01*
X143595693Y-61257822D01*
X143577281Y-61251518D01*
X143558898Y-61243562D01*
X143558892Y-61243560D01*
X143512874Y-61236272D01*
X143507152Y-61235087D01*
X143462021Y-61223500D01*
X143462019Y-61223500D01*
X143441984Y-61223500D01*
X143422586Y-61221973D01*
X143414283Y-61220658D01*
X143402805Y-61218840D01*
X143402804Y-61218840D01*
X143356416Y-61223225D01*
X143350578Y-61223500D01*
X141546748Y-61223500D01*
X141514395Y-61214000D01*
X146414540Y-61214000D01*
X146434326Y-61402256D01*
X146434327Y-61402259D01*
X146492818Y-61582277D01*
X146492821Y-61582284D01*
X146587467Y-61746216D01*
X146680932Y-61850019D01*
X146714129Y-61886888D01*
X146867265Y-61998148D01*
X146867270Y-61998151D01*
X147040192Y-62075142D01*
X147040197Y-62075144D01*
X147225354Y-62114500D01*
X147225355Y-62114500D01*
X147414644Y-62114500D01*
X147414646Y-62114500D01*
X147599803Y-62075144D01*
X147772730Y-61998151D01*
X147925871Y-61886888D01*
X148052533Y-61746216D01*
X148147179Y-61582284D01*
X148205674Y-61402256D01*
X148225460Y-61214000D01*
X148205674Y-61025744D01*
X148147179Y-60845716D01*
X148052533Y-60681784D01*
X147925871Y-60541112D01*
X147925870Y-60541111D01*
X147772734Y-60429851D01*
X147772729Y-60429848D01*
X147599807Y-60352857D01*
X147599802Y-60352855D01*
X147444798Y-60319909D01*
X147414646Y-60313500D01*
X147225354Y-60313500D01*
X147195202Y-60319909D01*
X147040197Y-60352855D01*
X147040192Y-60352857D01*
X146867270Y-60429848D01*
X146867265Y-60429851D01*
X146714129Y-60541111D01*
X146587466Y-60681785D01*
X146492821Y-60845715D01*
X146492818Y-60845722D01*
X146435950Y-61020746D01*
X146434326Y-61025744D01*
X146414540Y-61214000D01*
X141514395Y-61214000D01*
X141479709Y-61203815D01*
X141454600Y-61182474D01*
X141448873Y-61176114D01*
X141448869Y-61176110D01*
X141295734Y-61064851D01*
X141295729Y-61064848D01*
X141122807Y-60987857D01*
X141122802Y-60987855D01*
X140977001Y-60956865D01*
X140937646Y-60948500D01*
X140748354Y-60948500D01*
X140715897Y-60955398D01*
X140563197Y-60987855D01*
X140563192Y-60987857D01*
X140390270Y-61064848D01*
X140390265Y-61064851D01*
X140237129Y-61176111D01*
X140110466Y-61316785D01*
X140015821Y-61480715D01*
X140015818Y-61480722D01*
X139982819Y-61582284D01*
X139957326Y-61660744D01*
X139937540Y-61849000D01*
X134300500Y-61849000D01*
X134300500Y-59250000D01*
X134754862Y-59250000D01*
X134817198Y-59418314D01*
X134817202Y-59418323D01*
X134918859Y-59581419D01*
X134918864Y-59581424D01*
X135051274Y-59720720D01*
X135209025Y-59830518D01*
X135385642Y-59906310D01*
X135573903Y-59945000D01*
X135750000Y-59945000D01*
X135750000Y-59250000D01*
X136250000Y-59250000D01*
X136250000Y-59945000D01*
X136377921Y-59945000D01*
X136521209Y-59930429D01*
X136704579Y-59872896D01*
X136704589Y-59872891D01*
X136872633Y-59779619D01*
X136872634Y-59779619D01*
X136907136Y-59750000D01*
X137725175Y-59750000D01*
X138439503Y-59750000D01*
X138425000Y-59822912D01*
X138425000Y-60177088D01*
X138439503Y-60250000D01*
X137730141Y-60250000D01*
X137740032Y-60347279D01*
X137799392Y-60536471D01*
X137799399Y-60536486D01*
X137895627Y-60709856D01*
X137895630Y-60709861D01*
X138024791Y-60860315D01*
X138024792Y-60860317D01*
X138181597Y-60981693D01*
X138181601Y-60981695D01*
X138359629Y-61069022D01*
X138449999Y-61092420D01*
X138450000Y-61092420D01*
X138450000Y-60270836D01*
X138501736Y-60348264D01*
X138592700Y-60409045D01*
X138700000Y-60430388D01*
X138807300Y-60409045D01*
X138898264Y-60348264D01*
X138950000Y-60270836D01*
X138950000Y-61097130D01*
X139131591Y-61029877D01*
X139131598Y-61029873D01*
X139299883Y-60924980D01*
X139443601Y-60788366D01*
X139443602Y-60788364D01*
X139556884Y-60625609D01*
X139635082Y-60443384D01*
X139675000Y-60249148D01*
X139675000Y-60169447D01*
X139694685Y-60102408D01*
X139747489Y-60056653D01*
X139816647Y-60046709D01*
X139824781Y-60048157D01*
X139845214Y-60052500D01*
X139986354Y-60082500D01*
X139986355Y-60082500D01*
X140175644Y-60082500D01*
X140175646Y-60082500D01*
X140360803Y-60043144D01*
X140533730Y-59966151D01*
X140686871Y-59854888D01*
X140719474Y-59818677D01*
X140778960Y-59782030D01*
X140848817Y-59783359D01*
X140906865Y-59822245D01*
X140931399Y-59869556D01*
X140956567Y-59963486D01*
X140956570Y-59963492D01*
X141056399Y-60177578D01*
X141191894Y-60371082D01*
X141358917Y-60538105D01*
X141552421Y-60673600D01*
X141766507Y-60773429D01*
X141766516Y-60773433D01*
X141980000Y-60830634D01*
X141980000Y-59935501D01*
X142087685Y-59984680D01*
X142194237Y-60000000D01*
X142265763Y-60000000D01*
X142372315Y-59984680D01*
X142480000Y-59935501D01*
X142480000Y-60830633D01*
X142693483Y-60773433D01*
X142693492Y-60773429D01*
X142907578Y-60673600D01*
X143101078Y-60538108D01*
X143223133Y-60416053D01*
X143284456Y-60382568D01*
X143354148Y-60387552D01*
X143410082Y-60429423D01*
X143426997Y-60460401D01*
X143476202Y-60592328D01*
X143476206Y-60592335D01*
X143562452Y-60707544D01*
X143562455Y-60707547D01*
X143677664Y-60793793D01*
X143677671Y-60793797D01*
X143812517Y-60844091D01*
X143812516Y-60844091D01*
X143819444Y-60844835D01*
X143872127Y-60850500D01*
X145667872Y-60850499D01*
X145727483Y-60844091D01*
X145862331Y-60793796D01*
X145977546Y-60707546D01*
X146063796Y-60592331D01*
X146114091Y-60457483D01*
X146120500Y-60397873D01*
X146120499Y-59152000D01*
X165845540Y-59152000D01*
X165865326Y-59340256D01*
X165865327Y-59340259D01*
X165923818Y-59520277D01*
X165923821Y-59520284D01*
X166018467Y-59684216D01*
X166107736Y-59783359D01*
X166145129Y-59824888D01*
X166298265Y-59936148D01*
X166298270Y-59936151D01*
X166471192Y-60013142D01*
X166471197Y-60013144D01*
X166656354Y-60052500D01*
X166656355Y-60052500D01*
X166845644Y-60052500D01*
X166845646Y-60052500D01*
X167030803Y-60013144D01*
X167203730Y-59936151D01*
X167356871Y-59824888D01*
X167483533Y-59684216D01*
X167578179Y-59520284D01*
X167636674Y-59340256D01*
X167656460Y-59152000D01*
X167636674Y-58963744D01*
X167578179Y-58783716D01*
X167483533Y-58619784D01*
X167356871Y-58479112D01*
X167345033Y-58470511D01*
X167203734Y-58367851D01*
X167203729Y-58367848D01*
X167030807Y-58290857D01*
X167030802Y-58290855D01*
X166885001Y-58259865D01*
X166845646Y-58251500D01*
X166656354Y-58251500D01*
X166623897Y-58258398D01*
X166471197Y-58290855D01*
X166471192Y-58290857D01*
X166298270Y-58367848D01*
X166298265Y-58367851D01*
X166145129Y-58479111D01*
X166018466Y-58619785D01*
X165923821Y-58783715D01*
X165923818Y-58783722D01*
X165868470Y-58954067D01*
X165865326Y-58963744D01*
X165845540Y-59152000D01*
X146120499Y-59152000D01*
X146120499Y-58602128D01*
X146115299Y-58553757D01*
X146114091Y-58542516D01*
X146063797Y-58407671D01*
X146063793Y-58407664D01*
X145977547Y-58292455D01*
X145977544Y-58292452D01*
X145862335Y-58206206D01*
X145862328Y-58206202D01*
X145727482Y-58155908D01*
X145727483Y-58155908D01*
X145667883Y-58149501D01*
X145667881Y-58149500D01*
X145667873Y-58149500D01*
X145667864Y-58149500D01*
X143872129Y-58149500D01*
X143872123Y-58149501D01*
X143812516Y-58155908D01*
X143677671Y-58206202D01*
X143677664Y-58206206D01*
X143562455Y-58292452D01*
X143562452Y-58292455D01*
X143476206Y-58407664D01*
X143476202Y-58407671D01*
X143426997Y-58539598D01*
X143385126Y-58595532D01*
X143319661Y-58619949D01*
X143251388Y-58605097D01*
X143223134Y-58583946D01*
X143101082Y-58461894D01*
X142907578Y-58326399D01*
X142693492Y-58226570D01*
X142693486Y-58226567D01*
X142480000Y-58169364D01*
X142480000Y-59064498D01*
X142372315Y-59015320D01*
X142265763Y-59000000D01*
X142194237Y-59000000D01*
X142087685Y-59015320D01*
X141980000Y-59064498D01*
X141980000Y-58169364D01*
X141979999Y-58169364D01*
X141766513Y-58226567D01*
X141766507Y-58226570D01*
X141552422Y-58326399D01*
X141552420Y-58326400D01*
X141358926Y-58461886D01*
X141358920Y-58461891D01*
X141191891Y-58628920D01*
X141191884Y-58628929D01*
X141089557Y-58775066D01*
X141034980Y-58818691D01*
X140965482Y-58825883D01*
X140903127Y-58794361D01*
X140880599Y-58765946D01*
X140813533Y-58649784D01*
X140686871Y-58509112D01*
X140670960Y-58497552D01*
X140533734Y-58397851D01*
X140533729Y-58397848D01*
X140360807Y-58320857D01*
X140360802Y-58320855D01*
X140215001Y-58289865D01*
X140175646Y-58281500D01*
X139986354Y-58281500D01*
X139953897Y-58288398D01*
X139801197Y-58320855D01*
X139801192Y-58320857D01*
X139628270Y-58397848D01*
X139628265Y-58397851D01*
X139475129Y-58509111D01*
X139348466Y-58649785D01*
X139253821Y-58813715D01*
X139253817Y-58813725D01*
X139235793Y-58869195D01*
X139196355Y-58926870D01*
X139131996Y-58954067D01*
X139063255Y-58942203D01*
X139040369Y-58930977D01*
X139040368Y-58930976D01*
X138950000Y-58907577D01*
X138950000Y-59729163D01*
X138898264Y-59651736D01*
X138807300Y-59590955D01*
X138700000Y-59569612D01*
X138592700Y-59590955D01*
X138501736Y-59651736D01*
X138450000Y-59729163D01*
X138450000Y-58902869D01*
X138449999Y-58902869D01*
X138268405Y-58970124D01*
X138268401Y-58970126D01*
X138100116Y-59075019D01*
X137956398Y-59211633D01*
X137956397Y-59211635D01*
X137843115Y-59374390D01*
X137764917Y-59556615D01*
X137725175Y-59749999D01*
X137725175Y-59750000D01*
X136907136Y-59750000D01*
X137018460Y-59654432D01*
X137018461Y-59654431D01*
X137136102Y-59502451D01*
X137136104Y-59502447D01*
X137220745Y-59329893D01*
X137241432Y-59250000D01*
X136349624Y-59250000D01*
X136422545Y-59235495D01*
X136505240Y-59180240D01*
X136560495Y-59097545D01*
X136579898Y-59000000D01*
X136560495Y-58902455D01*
X136505240Y-58819760D01*
X136422545Y-58764505D01*
X136349624Y-58750000D01*
X137245138Y-58750000D01*
X137182801Y-58581685D01*
X137182797Y-58581676D01*
X137081140Y-58418580D01*
X137081135Y-58418575D01*
X136948725Y-58279279D01*
X136790974Y-58169481D01*
X136614357Y-58093689D01*
X136426097Y-58055000D01*
X136250000Y-58055000D01*
X136250000Y-58750000D01*
X135750000Y-58750000D01*
X135750000Y-58055000D01*
X135622079Y-58055000D01*
X135478790Y-58069570D01*
X135295420Y-58127103D01*
X135295410Y-58127108D01*
X135127366Y-58220380D01*
X135127365Y-58220380D01*
X134981539Y-58345567D01*
X134981538Y-58345568D01*
X134863897Y-58497548D01*
X134863895Y-58497552D01*
X134779254Y-58670106D01*
X134758568Y-58750000D01*
X135650376Y-58750000D01*
X135577455Y-58764505D01*
X135494760Y-58819760D01*
X135439505Y-58902455D01*
X135420102Y-59000000D01*
X135439505Y-59097545D01*
X135494760Y-59180240D01*
X135577455Y-59235495D01*
X135650376Y-59250000D01*
X134754862Y-59250000D01*
X134300500Y-59250000D01*
X134300500Y-56861500D01*
X134320185Y-56794461D01*
X134372989Y-56748706D01*
X134424500Y-56737500D01*
X198369500Y-56737500D01*
X198436539Y-56757185D01*
G37*
%TD.AperFunction*%
%TD*%
M02*
