%TF.GenerationSoftware,KiCad,Pcbnew,7.0.9*%
%TF.CreationDate,2023-12-22T19:30:16+01:00*%
%TF.ProjectId,Prj_4_Feranec_Controller,50726a5f-345f-4466-9572-616e65635f43,rev?*%
%TF.SameCoordinates,Original*%
%TF.FileFunction,Legend,Top*%
%TF.FilePolarity,Positive*%
%FSLAX46Y46*%
G04 Gerber Fmt 4.6, Leading zero omitted, Abs format (unit mm)*
G04 Created by KiCad (PCBNEW 7.0.9) date 2023-12-22 19:30:16*
%MOMM*%
%LPD*%
G01*
G04 APERTURE LIST*
%ADD10C,0.150000*%
%ADD11C,0.120000*%
%ADD12C,0.100000*%
G04 APERTURE END LIST*
D10*
X154900333Y-58366819D02*
X154567000Y-57890628D01*
X154328905Y-58366819D02*
X154328905Y-57366819D01*
X154328905Y-57366819D02*
X154709857Y-57366819D01*
X154709857Y-57366819D02*
X154805095Y-57414438D01*
X154805095Y-57414438D02*
X154852714Y-57462057D01*
X154852714Y-57462057D02*
X154900333Y-57557295D01*
X154900333Y-57557295D02*
X154900333Y-57700152D01*
X154900333Y-57700152D02*
X154852714Y-57795390D01*
X154852714Y-57795390D02*
X154805095Y-57843009D01*
X154805095Y-57843009D02*
X154709857Y-57890628D01*
X154709857Y-57890628D02*
X154328905Y-57890628D01*
X155805095Y-57366819D02*
X155328905Y-57366819D01*
X155328905Y-57366819D02*
X155281286Y-57843009D01*
X155281286Y-57843009D02*
X155328905Y-57795390D01*
X155328905Y-57795390D02*
X155424143Y-57747771D01*
X155424143Y-57747771D02*
X155662238Y-57747771D01*
X155662238Y-57747771D02*
X155757476Y-57795390D01*
X155757476Y-57795390D02*
X155805095Y-57843009D01*
X155805095Y-57843009D02*
X155852714Y-57938247D01*
X155852714Y-57938247D02*
X155852714Y-58176342D01*
X155852714Y-58176342D02*
X155805095Y-58271580D01*
X155805095Y-58271580D02*
X155757476Y-58319200D01*
X155757476Y-58319200D02*
X155662238Y-58366819D01*
X155662238Y-58366819D02*
X155424143Y-58366819D01*
X155424143Y-58366819D02*
X155328905Y-58319200D01*
X155328905Y-58319200D02*
X155281286Y-58271580D01*
X152106333Y-62430819D02*
X151773000Y-61954628D01*
X151534905Y-62430819D02*
X151534905Y-61430819D01*
X151534905Y-61430819D02*
X151915857Y-61430819D01*
X151915857Y-61430819D02*
X152011095Y-61478438D01*
X152011095Y-61478438D02*
X152058714Y-61526057D01*
X152058714Y-61526057D02*
X152106333Y-61621295D01*
X152106333Y-61621295D02*
X152106333Y-61764152D01*
X152106333Y-61764152D02*
X152058714Y-61859390D01*
X152058714Y-61859390D02*
X152011095Y-61907009D01*
X152011095Y-61907009D02*
X151915857Y-61954628D01*
X151915857Y-61954628D02*
X151534905Y-61954628D01*
X152963476Y-61430819D02*
X152773000Y-61430819D01*
X152773000Y-61430819D02*
X152677762Y-61478438D01*
X152677762Y-61478438D02*
X152630143Y-61526057D01*
X152630143Y-61526057D02*
X152534905Y-61668914D01*
X152534905Y-61668914D02*
X152487286Y-61859390D01*
X152487286Y-61859390D02*
X152487286Y-62240342D01*
X152487286Y-62240342D02*
X152534905Y-62335580D01*
X152534905Y-62335580D02*
X152582524Y-62383200D01*
X152582524Y-62383200D02*
X152677762Y-62430819D01*
X152677762Y-62430819D02*
X152868238Y-62430819D01*
X152868238Y-62430819D02*
X152963476Y-62383200D01*
X152963476Y-62383200D02*
X153011095Y-62335580D01*
X153011095Y-62335580D02*
X153058714Y-62240342D01*
X153058714Y-62240342D02*
X153058714Y-62002247D01*
X153058714Y-62002247D02*
X153011095Y-61907009D01*
X153011095Y-61907009D02*
X152963476Y-61859390D01*
X152963476Y-61859390D02*
X152868238Y-61811771D01*
X152868238Y-61811771D02*
X152677762Y-61811771D01*
X152677762Y-61811771D02*
X152582524Y-61859390D01*
X152582524Y-61859390D02*
X152534905Y-61907009D01*
X152534905Y-61907009D02*
X152487286Y-62002247D01*
X156739419Y-59142333D02*
X156691800Y-59094714D01*
X156691800Y-59094714D02*
X156644180Y-58951857D01*
X156644180Y-58951857D02*
X156644180Y-58856619D01*
X156644180Y-58856619D02*
X156691800Y-58713762D01*
X156691800Y-58713762D02*
X156787038Y-58618524D01*
X156787038Y-58618524D02*
X156882276Y-58570905D01*
X156882276Y-58570905D02*
X157072752Y-58523286D01*
X157072752Y-58523286D02*
X157215609Y-58523286D01*
X157215609Y-58523286D02*
X157406085Y-58570905D01*
X157406085Y-58570905D02*
X157501323Y-58618524D01*
X157501323Y-58618524D02*
X157596561Y-58713762D01*
X157596561Y-58713762D02*
X157644180Y-58856619D01*
X157644180Y-58856619D02*
X157644180Y-58951857D01*
X157644180Y-58951857D02*
X157596561Y-59094714D01*
X157596561Y-59094714D02*
X157548942Y-59142333D01*
X156644180Y-60094714D02*
X156644180Y-59523286D01*
X156644180Y-59809000D02*
X157644180Y-59809000D01*
X157644180Y-59809000D02*
X157501323Y-59713762D01*
X157501323Y-59713762D02*
X157406085Y-59618524D01*
X157406085Y-59618524D02*
X157358466Y-59523286D01*
X195540333Y-58239819D02*
X195207000Y-57763628D01*
X194968905Y-58239819D02*
X194968905Y-57239819D01*
X194968905Y-57239819D02*
X195349857Y-57239819D01*
X195349857Y-57239819D02*
X195445095Y-57287438D01*
X195445095Y-57287438D02*
X195492714Y-57335057D01*
X195492714Y-57335057D02*
X195540333Y-57430295D01*
X195540333Y-57430295D02*
X195540333Y-57573152D01*
X195540333Y-57573152D02*
X195492714Y-57668390D01*
X195492714Y-57668390D02*
X195445095Y-57716009D01*
X195445095Y-57716009D02*
X195349857Y-57763628D01*
X195349857Y-57763628D02*
X194968905Y-57763628D01*
X195873667Y-57239819D02*
X196492714Y-57239819D01*
X196492714Y-57239819D02*
X196159381Y-57620771D01*
X196159381Y-57620771D02*
X196302238Y-57620771D01*
X196302238Y-57620771D02*
X196397476Y-57668390D01*
X196397476Y-57668390D02*
X196445095Y-57716009D01*
X196445095Y-57716009D02*
X196492714Y-57811247D01*
X196492714Y-57811247D02*
X196492714Y-58049342D01*
X196492714Y-58049342D02*
X196445095Y-58144580D01*
X196445095Y-58144580D02*
X196397476Y-58192200D01*
X196397476Y-58192200D02*
X196302238Y-58239819D01*
X196302238Y-58239819D02*
X196016524Y-58239819D01*
X196016524Y-58239819D02*
X195921286Y-58192200D01*
X195921286Y-58192200D02*
X195873667Y-58144580D01*
X152106333Y-63827819D02*
X151773000Y-63351628D01*
X151534905Y-63827819D02*
X151534905Y-62827819D01*
X151534905Y-62827819D02*
X151915857Y-62827819D01*
X151915857Y-62827819D02*
X152011095Y-62875438D01*
X152011095Y-62875438D02*
X152058714Y-62923057D01*
X152058714Y-62923057D02*
X152106333Y-63018295D01*
X152106333Y-63018295D02*
X152106333Y-63161152D01*
X152106333Y-63161152D02*
X152058714Y-63256390D01*
X152058714Y-63256390D02*
X152011095Y-63304009D01*
X152011095Y-63304009D02*
X151915857Y-63351628D01*
X151915857Y-63351628D02*
X151534905Y-63351628D01*
X152439667Y-62827819D02*
X153106333Y-62827819D01*
X153106333Y-62827819D02*
X152677762Y-63827819D01*
X192870942Y-59310761D02*
X192918561Y-59215523D01*
X192918561Y-59215523D02*
X193013800Y-59120285D01*
X193013800Y-59120285D02*
X193156657Y-58977428D01*
X193156657Y-58977428D02*
X193204276Y-58882190D01*
X193204276Y-58882190D02*
X193204276Y-58786952D01*
X192966180Y-58834571D02*
X193013800Y-58739333D01*
X193013800Y-58739333D02*
X193109038Y-58644095D01*
X193109038Y-58644095D02*
X193299514Y-58596476D01*
X193299514Y-58596476D02*
X193632847Y-58596476D01*
X193632847Y-58596476D02*
X193823323Y-58644095D01*
X193823323Y-58644095D02*
X193918561Y-58739333D01*
X193918561Y-58739333D02*
X193966180Y-58834571D01*
X193966180Y-58834571D02*
X193966180Y-59025047D01*
X193966180Y-59025047D02*
X193918561Y-59120285D01*
X193918561Y-59120285D02*
X193823323Y-59215523D01*
X193823323Y-59215523D02*
X193632847Y-59263142D01*
X193632847Y-59263142D02*
X193299514Y-59263142D01*
X193299514Y-59263142D02*
X193109038Y-59215523D01*
X193109038Y-59215523D02*
X193013800Y-59120285D01*
X193013800Y-59120285D02*
X192966180Y-59025047D01*
X192966180Y-59025047D02*
X192966180Y-58834571D01*
X192966180Y-60215523D02*
X192966180Y-59644095D01*
X192966180Y-59929809D02*
X193966180Y-59929809D01*
X193966180Y-59929809D02*
X193823323Y-59834571D01*
X193823323Y-59834571D02*
X193728085Y-59739333D01*
X193728085Y-59739333D02*
X193680466Y-59644095D01*
X164982333Y-58394580D02*
X164934714Y-58442200D01*
X164934714Y-58442200D02*
X164791857Y-58489819D01*
X164791857Y-58489819D02*
X164696619Y-58489819D01*
X164696619Y-58489819D02*
X164553762Y-58442200D01*
X164553762Y-58442200D02*
X164458524Y-58346961D01*
X164458524Y-58346961D02*
X164410905Y-58251723D01*
X164410905Y-58251723D02*
X164363286Y-58061247D01*
X164363286Y-58061247D02*
X164363286Y-57918390D01*
X164363286Y-57918390D02*
X164410905Y-57727914D01*
X164410905Y-57727914D02*
X164458524Y-57632676D01*
X164458524Y-57632676D02*
X164553762Y-57537438D01*
X164553762Y-57537438D02*
X164696619Y-57489819D01*
X164696619Y-57489819D02*
X164791857Y-57489819D01*
X164791857Y-57489819D02*
X164934714Y-57537438D01*
X164934714Y-57537438D02*
X164982333Y-57585057D01*
X165315667Y-57489819D02*
X165982333Y-57489819D01*
X165982333Y-57489819D02*
X165553762Y-58489819D01*
X156170333Y-62430819D02*
X155837000Y-61954628D01*
X155598905Y-62430819D02*
X155598905Y-61430819D01*
X155598905Y-61430819D02*
X155979857Y-61430819D01*
X155979857Y-61430819D02*
X156075095Y-61478438D01*
X156075095Y-61478438D02*
X156122714Y-61526057D01*
X156122714Y-61526057D02*
X156170333Y-61621295D01*
X156170333Y-61621295D02*
X156170333Y-61764152D01*
X156170333Y-61764152D02*
X156122714Y-61859390D01*
X156122714Y-61859390D02*
X156075095Y-61907009D01*
X156075095Y-61907009D02*
X155979857Y-61954628D01*
X155979857Y-61954628D02*
X155598905Y-61954628D01*
X156741762Y-61859390D02*
X156646524Y-61811771D01*
X156646524Y-61811771D02*
X156598905Y-61764152D01*
X156598905Y-61764152D02*
X156551286Y-61668914D01*
X156551286Y-61668914D02*
X156551286Y-61621295D01*
X156551286Y-61621295D02*
X156598905Y-61526057D01*
X156598905Y-61526057D02*
X156646524Y-61478438D01*
X156646524Y-61478438D02*
X156741762Y-61430819D01*
X156741762Y-61430819D02*
X156932238Y-61430819D01*
X156932238Y-61430819D02*
X157027476Y-61478438D01*
X157027476Y-61478438D02*
X157075095Y-61526057D01*
X157075095Y-61526057D02*
X157122714Y-61621295D01*
X157122714Y-61621295D02*
X157122714Y-61668914D01*
X157122714Y-61668914D02*
X157075095Y-61764152D01*
X157075095Y-61764152D02*
X157027476Y-61811771D01*
X157027476Y-61811771D02*
X156932238Y-61859390D01*
X156932238Y-61859390D02*
X156741762Y-61859390D01*
X156741762Y-61859390D02*
X156646524Y-61907009D01*
X156646524Y-61907009D02*
X156598905Y-61954628D01*
X156598905Y-61954628D02*
X156551286Y-62049866D01*
X156551286Y-62049866D02*
X156551286Y-62240342D01*
X156551286Y-62240342D02*
X156598905Y-62335580D01*
X156598905Y-62335580D02*
X156646524Y-62383200D01*
X156646524Y-62383200D02*
X156741762Y-62430819D01*
X156741762Y-62430819D02*
X156932238Y-62430819D01*
X156932238Y-62430819D02*
X157027476Y-62383200D01*
X157027476Y-62383200D02*
X157075095Y-62335580D01*
X157075095Y-62335580D02*
X157122714Y-62240342D01*
X157122714Y-62240342D02*
X157122714Y-62049866D01*
X157122714Y-62049866D02*
X157075095Y-61954628D01*
X157075095Y-61954628D02*
X157027476Y-61907009D01*
X157027476Y-61907009D02*
X156932238Y-61859390D01*
X147849419Y-63460333D02*
X147801800Y-63412714D01*
X147801800Y-63412714D02*
X147754180Y-63269857D01*
X147754180Y-63269857D02*
X147754180Y-63174619D01*
X147754180Y-63174619D02*
X147801800Y-63031762D01*
X147801800Y-63031762D02*
X147897038Y-62936524D01*
X147897038Y-62936524D02*
X147992276Y-62888905D01*
X147992276Y-62888905D02*
X148182752Y-62841286D01*
X148182752Y-62841286D02*
X148325609Y-62841286D01*
X148325609Y-62841286D02*
X148516085Y-62888905D01*
X148516085Y-62888905D02*
X148611323Y-62936524D01*
X148611323Y-62936524D02*
X148706561Y-63031762D01*
X148706561Y-63031762D02*
X148754180Y-63174619D01*
X148754180Y-63174619D02*
X148754180Y-63269857D01*
X148754180Y-63269857D02*
X148706561Y-63412714D01*
X148706561Y-63412714D02*
X148658942Y-63460333D01*
X148754180Y-63793667D02*
X148754180Y-64412714D01*
X148754180Y-64412714D02*
X148373228Y-64079381D01*
X148373228Y-64079381D02*
X148373228Y-64222238D01*
X148373228Y-64222238D02*
X148325609Y-64317476D01*
X148325609Y-64317476D02*
X148277990Y-64365095D01*
X148277990Y-64365095D02*
X148182752Y-64412714D01*
X148182752Y-64412714D02*
X147944657Y-64412714D01*
X147944657Y-64412714D02*
X147849419Y-64365095D01*
X147849419Y-64365095D02*
X147801800Y-64317476D01*
X147801800Y-64317476D02*
X147754180Y-64222238D01*
X147754180Y-64222238D02*
X147754180Y-63936524D01*
X147754180Y-63936524D02*
X147801800Y-63841286D01*
X147801800Y-63841286D02*
X147849419Y-63793667D01*
X156170333Y-63827819D02*
X155837000Y-63351628D01*
X155598905Y-63827819D02*
X155598905Y-62827819D01*
X155598905Y-62827819D02*
X155979857Y-62827819D01*
X155979857Y-62827819D02*
X156075095Y-62875438D01*
X156075095Y-62875438D02*
X156122714Y-62923057D01*
X156122714Y-62923057D02*
X156170333Y-63018295D01*
X156170333Y-63018295D02*
X156170333Y-63161152D01*
X156170333Y-63161152D02*
X156122714Y-63256390D01*
X156122714Y-63256390D02*
X156075095Y-63304009D01*
X156075095Y-63304009D02*
X155979857Y-63351628D01*
X155979857Y-63351628D02*
X155598905Y-63351628D01*
X156646524Y-63827819D02*
X156837000Y-63827819D01*
X156837000Y-63827819D02*
X156932238Y-63780200D01*
X156932238Y-63780200D02*
X156979857Y-63732580D01*
X156979857Y-63732580D02*
X157075095Y-63589723D01*
X157075095Y-63589723D02*
X157122714Y-63399247D01*
X157122714Y-63399247D02*
X157122714Y-63018295D01*
X157122714Y-63018295D02*
X157075095Y-62923057D01*
X157075095Y-62923057D02*
X157027476Y-62875438D01*
X157027476Y-62875438D02*
X156932238Y-62827819D01*
X156932238Y-62827819D02*
X156741762Y-62827819D01*
X156741762Y-62827819D02*
X156646524Y-62875438D01*
X156646524Y-62875438D02*
X156598905Y-62923057D01*
X156598905Y-62923057D02*
X156551286Y-63018295D01*
X156551286Y-63018295D02*
X156551286Y-63256390D01*
X156551286Y-63256390D02*
X156598905Y-63351628D01*
X156598905Y-63351628D02*
X156646524Y-63399247D01*
X156646524Y-63399247D02*
X156741762Y-63446866D01*
X156741762Y-63446866D02*
X156932238Y-63446866D01*
X156932238Y-63446866D02*
X157027476Y-63399247D01*
X157027476Y-63399247D02*
X157075095Y-63351628D01*
X157075095Y-63351628D02*
X157122714Y-63256390D01*
X167759142Y-58463819D02*
X167425809Y-57987628D01*
X167187714Y-58463819D02*
X167187714Y-57463819D01*
X167187714Y-57463819D02*
X167568666Y-57463819D01*
X167568666Y-57463819D02*
X167663904Y-57511438D01*
X167663904Y-57511438D02*
X167711523Y-57559057D01*
X167711523Y-57559057D02*
X167759142Y-57654295D01*
X167759142Y-57654295D02*
X167759142Y-57797152D01*
X167759142Y-57797152D02*
X167711523Y-57892390D01*
X167711523Y-57892390D02*
X167663904Y-57940009D01*
X167663904Y-57940009D02*
X167568666Y-57987628D01*
X167568666Y-57987628D02*
X167187714Y-57987628D01*
X168711523Y-58463819D02*
X168140095Y-58463819D01*
X168425809Y-58463819D02*
X168425809Y-57463819D01*
X168425809Y-57463819D02*
X168330571Y-57606676D01*
X168330571Y-57606676D02*
X168235333Y-57701914D01*
X168235333Y-57701914D02*
X168140095Y-57749533D01*
X169330571Y-57463819D02*
X169425809Y-57463819D01*
X169425809Y-57463819D02*
X169521047Y-57511438D01*
X169521047Y-57511438D02*
X169568666Y-57559057D01*
X169568666Y-57559057D02*
X169616285Y-57654295D01*
X169616285Y-57654295D02*
X169663904Y-57844771D01*
X169663904Y-57844771D02*
X169663904Y-58082866D01*
X169663904Y-58082866D02*
X169616285Y-58273342D01*
X169616285Y-58273342D02*
X169568666Y-58368580D01*
X169568666Y-58368580D02*
X169521047Y-58416200D01*
X169521047Y-58416200D02*
X169425809Y-58463819D01*
X169425809Y-58463819D02*
X169330571Y-58463819D01*
X169330571Y-58463819D02*
X169235333Y-58416200D01*
X169235333Y-58416200D02*
X169187714Y-58368580D01*
X169187714Y-58368580D02*
X169140095Y-58273342D01*
X169140095Y-58273342D02*
X169092476Y-58082866D01*
X169092476Y-58082866D02*
X169092476Y-57844771D01*
X169092476Y-57844771D02*
X169140095Y-57654295D01*
X169140095Y-57654295D02*
X169187714Y-57559057D01*
X169187714Y-57559057D02*
X169235333Y-57511438D01*
X169235333Y-57511438D02*
X169330571Y-57463819D01*
X155628180Y-65024095D02*
X156628180Y-65024095D01*
X156151990Y-65024095D02*
X156151990Y-65595523D01*
X155628180Y-65595523D02*
X156628180Y-65595523D01*
X156532942Y-66024095D02*
X156580561Y-66071714D01*
X156580561Y-66071714D02*
X156628180Y-66166952D01*
X156628180Y-66166952D02*
X156628180Y-66405047D01*
X156628180Y-66405047D02*
X156580561Y-66500285D01*
X156580561Y-66500285D02*
X156532942Y-66547904D01*
X156532942Y-66547904D02*
X156437704Y-66595523D01*
X156437704Y-66595523D02*
X156342466Y-66595523D01*
X156342466Y-66595523D02*
X156199609Y-66547904D01*
X156199609Y-66547904D02*
X155628180Y-65976476D01*
X155628180Y-65976476D02*
X155628180Y-66595523D01*
X192870942Y-65309761D02*
X192918561Y-65214523D01*
X192918561Y-65214523D02*
X193013800Y-65119285D01*
X193013800Y-65119285D02*
X193156657Y-64976428D01*
X193156657Y-64976428D02*
X193204276Y-64881190D01*
X193204276Y-64881190D02*
X193204276Y-64785952D01*
X192966180Y-64833571D02*
X193013800Y-64738333D01*
X193013800Y-64738333D02*
X193109038Y-64643095D01*
X193109038Y-64643095D02*
X193299514Y-64595476D01*
X193299514Y-64595476D02*
X193632847Y-64595476D01*
X193632847Y-64595476D02*
X193823323Y-64643095D01*
X193823323Y-64643095D02*
X193918561Y-64738333D01*
X193918561Y-64738333D02*
X193966180Y-64833571D01*
X193966180Y-64833571D02*
X193966180Y-65024047D01*
X193966180Y-65024047D02*
X193918561Y-65119285D01*
X193918561Y-65119285D02*
X193823323Y-65214523D01*
X193823323Y-65214523D02*
X193632847Y-65262142D01*
X193632847Y-65262142D02*
X193299514Y-65262142D01*
X193299514Y-65262142D02*
X193109038Y-65214523D01*
X193109038Y-65214523D02*
X193013800Y-65119285D01*
X193013800Y-65119285D02*
X192966180Y-65024047D01*
X192966180Y-65024047D02*
X192966180Y-64833571D01*
X193966180Y-65595476D02*
X193966180Y-66214523D01*
X193966180Y-66214523D02*
X193585228Y-65881190D01*
X193585228Y-65881190D02*
X193585228Y-66024047D01*
X193585228Y-66024047D02*
X193537609Y-66119285D01*
X193537609Y-66119285D02*
X193489990Y-66166904D01*
X193489990Y-66166904D02*
X193394752Y-66214523D01*
X193394752Y-66214523D02*
X193156657Y-66214523D01*
X193156657Y-66214523D02*
X193061419Y-66166904D01*
X193061419Y-66166904D02*
X193013800Y-66119285D01*
X193013800Y-66119285D02*
X192966180Y-66024047D01*
X192966180Y-66024047D02*
X192966180Y-65738333D01*
X192966180Y-65738333D02*
X193013800Y-65643095D01*
X193013800Y-65643095D02*
X193061419Y-65595476D01*
X195540333Y-67891819D02*
X195207000Y-67415628D01*
X194968905Y-67891819D02*
X194968905Y-66891819D01*
X194968905Y-66891819D02*
X195349857Y-66891819D01*
X195349857Y-66891819D02*
X195445095Y-66939438D01*
X195445095Y-66939438D02*
X195492714Y-66987057D01*
X195492714Y-66987057D02*
X195540333Y-67082295D01*
X195540333Y-67082295D02*
X195540333Y-67225152D01*
X195540333Y-67225152D02*
X195492714Y-67320390D01*
X195492714Y-67320390D02*
X195445095Y-67368009D01*
X195445095Y-67368009D02*
X195349857Y-67415628D01*
X195349857Y-67415628D02*
X194968905Y-67415628D01*
X196492714Y-67891819D02*
X195921286Y-67891819D01*
X196207000Y-67891819D02*
X196207000Y-66891819D01*
X196207000Y-66891819D02*
X196111762Y-67034676D01*
X196111762Y-67034676D02*
X196016524Y-67129914D01*
X196016524Y-67129914D02*
X195921286Y-67177533D01*
X141277180Y-65873333D02*
X141753371Y-65540000D01*
X141277180Y-65301905D02*
X142277180Y-65301905D01*
X142277180Y-65301905D02*
X142277180Y-65682857D01*
X142277180Y-65682857D02*
X142229561Y-65778095D01*
X142229561Y-65778095D02*
X142181942Y-65825714D01*
X142181942Y-65825714D02*
X142086704Y-65873333D01*
X142086704Y-65873333D02*
X141943847Y-65873333D01*
X141943847Y-65873333D02*
X141848609Y-65825714D01*
X141848609Y-65825714D02*
X141800990Y-65778095D01*
X141800990Y-65778095D02*
X141753371Y-65682857D01*
X141753371Y-65682857D02*
X141753371Y-65301905D01*
X141943847Y-66730476D02*
X141277180Y-66730476D01*
X142324800Y-66492381D02*
X141610514Y-66254286D01*
X141610514Y-66254286D02*
X141610514Y-66873333D01*
X152045180Y-59459905D02*
X153045180Y-59459905D01*
X153045180Y-59459905D02*
X153045180Y-59698000D01*
X153045180Y-59698000D02*
X152997561Y-59840857D01*
X152997561Y-59840857D02*
X152902323Y-59936095D01*
X152902323Y-59936095D02*
X152807085Y-59983714D01*
X152807085Y-59983714D02*
X152616609Y-60031333D01*
X152616609Y-60031333D02*
X152473752Y-60031333D01*
X152473752Y-60031333D02*
X152283276Y-59983714D01*
X152283276Y-59983714D02*
X152188038Y-59936095D01*
X152188038Y-59936095D02*
X152092800Y-59840857D01*
X152092800Y-59840857D02*
X152045180Y-59698000D01*
X152045180Y-59698000D02*
X152045180Y-59459905D01*
X152045180Y-60983714D02*
X152045180Y-60412286D01*
X152045180Y-60698000D02*
X153045180Y-60698000D01*
X153045180Y-60698000D02*
X152902323Y-60602762D01*
X152902323Y-60602762D02*
X152807085Y-60507524D01*
X152807085Y-60507524D02*
X152759466Y-60412286D01*
X146357180Y-59182095D02*
X147357180Y-59182095D01*
X146880990Y-59182095D02*
X146880990Y-59753523D01*
X146357180Y-59753523D02*
X147357180Y-59753523D01*
X146357180Y-60753523D02*
X146357180Y-60182095D01*
X146357180Y-60467809D02*
X147357180Y-60467809D01*
X147357180Y-60467809D02*
X147214323Y-60372571D01*
X147214323Y-60372571D02*
X147119085Y-60277333D01*
X147119085Y-60277333D02*
X147071466Y-60182095D01*
X186015333Y-67542580D02*
X185967714Y-67590200D01*
X185967714Y-67590200D02*
X185824857Y-67637819D01*
X185824857Y-67637819D02*
X185729619Y-67637819D01*
X185729619Y-67637819D02*
X185586762Y-67590200D01*
X185586762Y-67590200D02*
X185491524Y-67494961D01*
X185491524Y-67494961D02*
X185443905Y-67399723D01*
X185443905Y-67399723D02*
X185396286Y-67209247D01*
X185396286Y-67209247D02*
X185396286Y-67066390D01*
X185396286Y-67066390D02*
X185443905Y-66875914D01*
X185443905Y-66875914D02*
X185491524Y-66780676D01*
X185491524Y-66780676D02*
X185586762Y-66685438D01*
X185586762Y-66685438D02*
X185729619Y-66637819D01*
X185729619Y-66637819D02*
X185824857Y-66637819D01*
X185824857Y-66637819D02*
X185967714Y-66685438D01*
X185967714Y-66685438D02*
X186015333Y-66733057D01*
X186920095Y-66637819D02*
X186443905Y-66637819D01*
X186443905Y-66637819D02*
X186396286Y-67114009D01*
X186396286Y-67114009D02*
X186443905Y-67066390D01*
X186443905Y-67066390D02*
X186539143Y-67018771D01*
X186539143Y-67018771D02*
X186777238Y-67018771D01*
X186777238Y-67018771D02*
X186872476Y-67066390D01*
X186872476Y-67066390D02*
X186920095Y-67114009D01*
X186920095Y-67114009D02*
X186967714Y-67209247D01*
X186967714Y-67209247D02*
X186967714Y-67447342D01*
X186967714Y-67447342D02*
X186920095Y-67542580D01*
X186920095Y-67542580D02*
X186872476Y-67590200D01*
X186872476Y-67590200D02*
X186777238Y-67637819D01*
X186777238Y-67637819D02*
X186539143Y-67637819D01*
X186539143Y-67637819D02*
X186443905Y-67590200D01*
X186443905Y-67590200D02*
X186396286Y-67542580D01*
X192870942Y-62485761D02*
X192918561Y-62390523D01*
X192918561Y-62390523D02*
X193013800Y-62295285D01*
X193013800Y-62295285D02*
X193156657Y-62152428D01*
X193156657Y-62152428D02*
X193204276Y-62057190D01*
X193204276Y-62057190D02*
X193204276Y-61961952D01*
X192966180Y-62009571D02*
X193013800Y-61914333D01*
X193013800Y-61914333D02*
X193109038Y-61819095D01*
X193109038Y-61819095D02*
X193299514Y-61771476D01*
X193299514Y-61771476D02*
X193632847Y-61771476D01*
X193632847Y-61771476D02*
X193823323Y-61819095D01*
X193823323Y-61819095D02*
X193918561Y-61914333D01*
X193918561Y-61914333D02*
X193966180Y-62009571D01*
X193966180Y-62009571D02*
X193966180Y-62200047D01*
X193966180Y-62200047D02*
X193918561Y-62295285D01*
X193918561Y-62295285D02*
X193823323Y-62390523D01*
X193823323Y-62390523D02*
X193632847Y-62438142D01*
X193632847Y-62438142D02*
X193299514Y-62438142D01*
X193299514Y-62438142D02*
X193109038Y-62390523D01*
X193109038Y-62390523D02*
X193013800Y-62295285D01*
X193013800Y-62295285D02*
X192966180Y-62200047D01*
X192966180Y-62200047D02*
X192966180Y-62009571D01*
X193870942Y-62819095D02*
X193918561Y-62866714D01*
X193918561Y-62866714D02*
X193966180Y-62961952D01*
X193966180Y-62961952D02*
X193966180Y-63200047D01*
X193966180Y-63200047D02*
X193918561Y-63295285D01*
X193918561Y-63295285D02*
X193870942Y-63342904D01*
X193870942Y-63342904D02*
X193775704Y-63390523D01*
X193775704Y-63390523D02*
X193680466Y-63390523D01*
X193680466Y-63390523D02*
X193537609Y-63342904D01*
X193537609Y-63342904D02*
X192966180Y-62771476D01*
X192966180Y-62771476D02*
X192966180Y-63390523D01*
D11*
%TO.C,USB1*%
X138960000Y-58740000D02*
X138960000Y-59160000D01*
X136980000Y-58740000D02*
X138960000Y-58740000D01*
X134610000Y-58740000D02*
X135010000Y-58740000D01*
X139190000Y-60740000D02*
X139640000Y-60740000D01*
X139640000Y-61190000D02*
X139640000Y-60740000D01*
X138960000Y-66260000D02*
X138960000Y-65840000D01*
X136980000Y-66260000D02*
X138960000Y-66260000D01*
X135010000Y-66260000D02*
X134610000Y-66260000D01*
%TO.C,R5*%
X152019000Y-57404000D02*
X152908000Y-57404000D01*
X152019000Y-58420000D02*
X152019000Y-57404000D01*
X152908000Y-58420000D02*
X152019000Y-58420000D01*
X153162000Y-57404000D02*
X154051000Y-57404000D01*
X154051000Y-57404000D02*
X154051000Y-58420000D01*
X154051000Y-58420000D02*
X153162000Y-58420000D01*
%TO.C,R6*%
X149225000Y-61468000D02*
X150114000Y-61468000D01*
X149225000Y-62484000D02*
X149225000Y-61468000D01*
X150114000Y-62484000D02*
X149225000Y-62484000D01*
X150368000Y-61468000D02*
X151257000Y-61468000D01*
X151257000Y-61468000D02*
X151257000Y-62484000D01*
X151257000Y-62484000D02*
X150368000Y-62484000D01*
%TO.C,U2*%
X187027500Y-60781500D02*
X187027500Y-61281500D01*
X185327500Y-59081500D02*
X184827500Y-59081500D01*
X186527500Y-59081500D02*
X187027500Y-59081500D01*
X187027500Y-61281500D02*
X186527500Y-61281500D01*
X187027500Y-59081500D02*
X187027500Y-59581500D01*
X185327500Y-61281500D02*
X184827500Y-61281500D01*
X184827500Y-61281500D02*
X184827500Y-60781500D01*
X184827500Y-59081500D02*
X184827500Y-59081500D01*
X186527500Y-61281500D02*
X186527500Y-61281500D01*
X187027500Y-59581500D02*
X187027500Y-59581500D01*
X184827500Y-60781500D02*
X184827500Y-60781500D01*
%TO.C,H3*%
X170057000Y-59403000D02*
X170057000Y-58293000D01*
X170817000Y-59403000D02*
X170057000Y-59403000D01*
X171577000Y-57183000D02*
X175322000Y-57183000D01*
X171577000Y-57729529D02*
X171577000Y-57183000D01*
X171577000Y-59403000D02*
X171577000Y-58856471D01*
X171577000Y-59403000D02*
X175322000Y-59403000D01*
X175322000Y-57985470D02*
X175322000Y-57183000D01*
X175322000Y-59403000D02*
X175322000Y-58600530D01*
%TO.C,C1*%
X153289000Y-58674000D02*
X153289000Y-60198000D01*
X153289000Y-60198000D02*
X154686000Y-60198000D01*
X154686000Y-58674000D02*
X153289000Y-58674000D01*
X154940000Y-60198000D02*
X156210000Y-60198000D01*
X156210000Y-60198000D02*
X156337000Y-60198000D01*
X156337000Y-58674000D02*
X154940000Y-58674000D01*
X156337000Y-60198000D02*
X156337000Y-58674000D01*
%TO.C,R3*%
X196723000Y-59563000D02*
X195834000Y-59563000D01*
X196723000Y-58547000D02*
X196723000Y-59563000D01*
X195834000Y-58547000D02*
X196723000Y-58547000D01*
X195580000Y-59563000D02*
X194691000Y-59563000D01*
X194691000Y-59563000D02*
X194691000Y-58547000D01*
X194691000Y-58547000D02*
X195580000Y-58547000D01*
%TO.C,R7*%
X149225000Y-62738000D02*
X150114000Y-62738000D01*
X149225000Y-63754000D02*
X149225000Y-62738000D01*
X150114000Y-63754000D02*
X149225000Y-63754000D01*
X150368000Y-62738000D02*
X151257000Y-62738000D01*
X151257000Y-62738000D02*
X151257000Y-63754000D01*
X151257000Y-63754000D02*
X150368000Y-63754000D01*
D12*
%TO.C,LED2*%
X195512274Y-62625000D02*
X195918860Y-63031586D01*
X195918860Y-62218414D02*
X195512274Y-62625000D01*
D11*
%TO.C,Q1*%
X190802500Y-57526000D02*
X189127500Y-57526000D01*
X190802500Y-57526000D02*
X191452500Y-57526000D01*
X190802500Y-60646000D02*
X190152500Y-60646000D01*
X190802500Y-60646000D02*
X191452500Y-60646000D01*
%TO.C,R2*%
X195326000Y-61565000D02*
X195326000Y-62454000D01*
X194310000Y-61565000D02*
X195326000Y-61565000D01*
X194310000Y-62454000D02*
X194310000Y-61565000D01*
X195326000Y-62708000D02*
X195326000Y-63597000D01*
X195326000Y-63597000D02*
X194310000Y-63597000D01*
X194310000Y-63597000D02*
X194310000Y-62708000D01*
%TO.C,LED1*%
X157917000Y-59021000D02*
X157917000Y-61706000D01*
X159837000Y-59021000D02*
X157917000Y-59021000D01*
X159837000Y-61706000D02*
X159837000Y-59021000D01*
%TO.C,U1*%
X166602000Y-60293000D02*
X164912000Y-60293000D01*
X172122000Y-67438000D02*
X172122000Y-67163000D01*
X169362000Y-60018000D02*
X172122000Y-60018000D01*
X166602000Y-60018000D02*
X166602000Y-60293000D01*
X172122000Y-60018000D02*
X172122000Y-60293000D01*
X169362000Y-67438000D02*
X172122000Y-67438000D01*
X169362000Y-67438000D02*
X166602000Y-67438000D01*
X169362000Y-60018000D02*
X166602000Y-60018000D01*
X166602000Y-67438000D02*
X166602000Y-67163000D01*
%TO.C,C7*%
X164260000Y-58722000D02*
X164260000Y-59611000D01*
X164260000Y-59611000D02*
X165022000Y-59611000D01*
X165022000Y-58722000D02*
X164260000Y-58722000D01*
X165276000Y-59611000D02*
X166038000Y-59611000D01*
X166038000Y-58722000D02*
X165276000Y-58722000D01*
X166038000Y-59611000D02*
X166038000Y-58722000D01*
%TO.C,SW1*%
X176877000Y-65802000D02*
X176877000Y-59342000D01*
X176907000Y-65802000D02*
X176877000Y-65802000D01*
X178807000Y-65802000D02*
X181407000Y-65802000D01*
X183337000Y-65802000D02*
X183307000Y-65802000D01*
X183337000Y-65802000D02*
X183337000Y-59342000D01*
X176877000Y-59342000D02*
X176907000Y-59342000D01*
X178807000Y-59342000D02*
X181407000Y-59342000D01*
X183337000Y-59342000D02*
X183307000Y-59342000D01*
%TO.C,R8*%
X153289000Y-61468000D02*
X154178000Y-61468000D01*
X153289000Y-62484000D02*
X153289000Y-61468000D01*
X154178000Y-62484000D02*
X153289000Y-62484000D01*
X154432000Y-61468000D02*
X155321000Y-61468000D01*
X155321000Y-61468000D02*
X155321000Y-62484000D01*
X155321000Y-62484000D02*
X154432000Y-62484000D01*
%TO.C,R13*%
X164465000Y-63343000D02*
X164465000Y-64232000D01*
X163449000Y-63343000D02*
X164465000Y-63343000D01*
X163449000Y-64232000D02*
X163449000Y-63343000D01*
X164465000Y-64486000D02*
X164465000Y-65375000D01*
X164465000Y-65375000D02*
X163449000Y-65375000D01*
X163449000Y-65375000D02*
X163449000Y-64486000D01*
%TO.C,C3*%
X142494000Y-64262000D02*
X142494000Y-61722000D01*
X142494000Y-64262000D02*
X144653000Y-64262000D01*
X144653000Y-61722000D02*
X142494000Y-61722000D01*
X145161000Y-61722000D02*
X147447000Y-61722000D01*
X147447000Y-61722000D02*
X147447000Y-64262000D01*
X147447000Y-64262000D02*
X145161000Y-64262000D01*
%TO.C,R9*%
X153289000Y-62865000D02*
X154178000Y-62865000D01*
X153289000Y-63881000D02*
X153289000Y-62865000D01*
X154178000Y-63881000D02*
X153289000Y-63881000D01*
X154432000Y-62865000D02*
X155321000Y-62865000D01*
X155321000Y-62865000D02*
X155321000Y-63881000D01*
X155321000Y-63881000D02*
X154432000Y-63881000D01*
%TO.C,R10*%
X167386000Y-58644000D02*
X168275000Y-58644000D01*
X167386000Y-59660000D02*
X167386000Y-58644000D01*
X168275000Y-59660000D02*
X167386000Y-59660000D01*
X168529000Y-58644000D02*
X169418000Y-58644000D01*
X169418000Y-58644000D02*
X169418000Y-59660000D01*
X169418000Y-59660000D02*
X168529000Y-59660000D01*
%TO.C,H2*%
X142561000Y-67751000D02*
X142561000Y-66421000D01*
X143891000Y-67751000D02*
X142561000Y-67751000D01*
X145161000Y-65091000D02*
X155381000Y-65091000D01*
X145161000Y-67751000D02*
X145161000Y-65091000D01*
X145161000Y-67751000D02*
X155381000Y-67751000D01*
X155381000Y-67751000D02*
X155381000Y-65091000D01*
%TO.C,C6*%
X183635000Y-61643000D02*
X183635000Y-62532000D01*
X183635000Y-62532000D02*
X184397000Y-62532000D01*
X184397000Y-61643000D02*
X183635000Y-61643000D01*
X184651000Y-62532000D02*
X185413000Y-62532000D01*
X185413000Y-61643000D02*
X184651000Y-61643000D01*
X185413000Y-62532000D02*
X185413000Y-61643000D01*
%TO.C,Q3*%
X190802500Y-64638000D02*
X189127500Y-64638000D01*
X190802500Y-64638000D02*
X191452500Y-64638000D01*
X190802500Y-67758000D02*
X190152500Y-67758000D01*
X190802500Y-67758000D02*
X191452500Y-67758000D01*
%TO.C,U3*%
X160666000Y-64176000D02*
X158216000Y-64176000D01*
X158866000Y-67396000D02*
X160666000Y-67396000D01*
%TO.C,R1*%
X196723000Y-66548000D02*
X195834000Y-66548000D01*
X196723000Y-65532000D02*
X196723000Y-66548000D01*
X195834000Y-65532000D02*
X196723000Y-65532000D01*
X195580000Y-66548000D02*
X194691000Y-66548000D01*
X194691000Y-66548000D02*
X194691000Y-65532000D01*
X194691000Y-65532000D02*
X195580000Y-65532000D01*
%TO.C,R14*%
X164465000Y-60041000D02*
X164465000Y-60930000D01*
X163449000Y-60041000D02*
X164465000Y-60041000D01*
X163449000Y-60930000D02*
X163449000Y-60041000D01*
X164465000Y-61184000D02*
X164465000Y-62073000D01*
X164465000Y-62073000D02*
X163449000Y-62073000D01*
X163449000Y-62073000D02*
X163449000Y-61184000D01*
%TO.C,R12*%
X176174400Y-61315600D02*
X175285400Y-61315600D01*
X176174400Y-60299600D02*
X176174400Y-61315600D01*
X175285400Y-60299600D02*
X176174400Y-60299600D01*
X175031400Y-61315600D02*
X174142400Y-61315600D01*
X174142400Y-61315600D02*
X174142400Y-60299600D01*
X174142400Y-60299600D02*
X175031400Y-60299600D01*
%TO.C,R11*%
X176657000Y-64414400D02*
X176657000Y-65303400D01*
X175641000Y-64414400D02*
X176657000Y-64414400D01*
X175641000Y-65303400D02*
X175641000Y-64414400D01*
X176657000Y-65557400D02*
X176657000Y-66446400D01*
X176657000Y-66446400D02*
X175641000Y-66446400D01*
X175641000Y-66446400D02*
X175641000Y-65557400D01*
%TO.C,R4*%
X141097000Y-65024000D02*
X141097000Y-65913000D01*
X140081000Y-65024000D02*
X141097000Y-65024000D01*
X140081000Y-65913000D02*
X140081000Y-65024000D01*
X141097000Y-66167000D02*
X141097000Y-67056000D01*
X141097000Y-67056000D02*
X140081000Y-67056000D01*
X140081000Y-67056000D02*
X140081000Y-66167000D01*
%TO.C,D1*%
X149937500Y-57990000D02*
X148262500Y-57990000D01*
X149937500Y-57990000D02*
X150587500Y-57990000D01*
X149937500Y-61110000D02*
X149287500Y-61110000D01*
X149937500Y-61110000D02*
X150587500Y-61110000D01*
%TO.C,C2*%
X162687000Y-62484000D02*
X160147000Y-62484000D01*
X162687000Y-62484000D02*
X162687000Y-60325000D01*
X160147000Y-60325000D02*
X160147000Y-62484000D01*
X160147000Y-59817000D02*
X160147000Y-57531000D01*
X160147000Y-57531000D02*
X162687000Y-57531000D01*
X162687000Y-57531000D02*
X162687000Y-59817000D01*
%TO.C,C4*%
X188420000Y-59612000D02*
X187531000Y-59612000D01*
X187531000Y-59612000D02*
X187531000Y-60374000D01*
X188420000Y-60374000D02*
X188420000Y-59612000D01*
X187531000Y-60628000D02*
X187531000Y-61390000D01*
X188420000Y-61390000D02*
X188420000Y-60628000D01*
X187531000Y-61390000D02*
X188420000Y-61390000D01*
%TO.C,H1*%
X146100000Y-58170000D02*
X146100000Y-59500000D01*
X144770000Y-58170000D02*
X146100000Y-58170000D01*
X143500000Y-60830000D02*
X140900000Y-60830000D01*
X143500000Y-58170000D02*
X143500000Y-60830000D01*
X143500000Y-58170000D02*
X140900000Y-58170000D01*
X140900000Y-58170000D02*
X140900000Y-60830000D01*
%TO.C,C5*%
X183388000Y-65532000D02*
X183388000Y-62992000D01*
X183388000Y-65532000D02*
X185547000Y-65532000D01*
X185547000Y-62992000D02*
X183388000Y-62992000D01*
X186055000Y-62992000D02*
X188341000Y-62992000D01*
X188341000Y-62992000D02*
X188341000Y-65532000D01*
X188341000Y-65532000D02*
X186055000Y-65532000D01*
%TO.C,Q2*%
X190802500Y-61082000D02*
X189127500Y-61082000D01*
X190802500Y-61082000D02*
X191452500Y-61082000D01*
X190802500Y-64202000D02*
X190152500Y-64202000D01*
X190802500Y-64202000D02*
X191452500Y-64202000D01*
%TO.C,R15*%
X163449000Y-67661000D02*
X163449000Y-66772000D01*
X164465000Y-67661000D02*
X163449000Y-67661000D01*
X164465000Y-66772000D02*
X164465000Y-67661000D01*
X163449000Y-66518000D02*
X163449000Y-65629000D01*
X163449000Y-65629000D02*
X164465000Y-65629000D01*
X164465000Y-65629000D02*
X164465000Y-66518000D01*
%TD*%
M02*
