M48
; DRILL file {KiCad 7.0.9} date Fri Dec 22 19:27:18 2023
; FORMAT={-:-/ absolute / inch / decimal}
; #@! TF.CreationDate,2023-12-22T19:27:18+01:00
; #@! TF.GenerationSoftware,Kicad,Pcbnew,7.0.9
; #@! TF.FileFunction,Plated,1,4,PTH
FMAT,2
INCH
; #@! TA.AperFunction,Plated,PTH,ViaDrill
T1C0.0157
; #@! TA.AperFunction,Plated,PTH,ComponentDrill
T2C0.0197
; #@! TA.AperFunction,Plated,PTH,ComponentDrill
T3C0.0217
; #@! TA.AperFunction,Plated,PTH,ComponentDrill
T4C0.0256
; #@! TA.AperFunction,Plated,PTH,ComponentDrill
T5C0.0394
%
G90
G05
T1
X5.515Y-2.33
X5.545Y-2.435
X5.58Y-2.47
X5.8Y-2.41
X5.835Y-2.45
X6.055Y-2.395
X6.095Y-2.54
X6.11Y-2.395
X6.175Y-2.54
X6.175Y-2.645
X6.2151Y-2.4899
X6.255Y-2.485
X6.305Y-2.5
X6.345Y-2.5
X6.41Y-2.515
X6.41Y-2.62
X6.42Y-2.4748
X6.43Y-2.295
X6.565Y-2.3288
X6.595Y-2.4388
X6.653Y-2.588
X6.725Y-2.3938
X6.725Y-2.4388
X6.725Y-2.4838
X6.882Y-2.5759
X6.885Y-2.4488
X6.934Y-2.5045
X6.936Y-2.438
X6.966Y-2.39
X7.102Y-2.576
X7.2431Y-2.3231
X7.245Y-2.6496
X7.2451Y-2.2838
X7.29Y-2.6
X7.31Y-2.3012
X7.345Y-2.4462
X7.355Y-2.3
X7.375Y-2.595
X7.3898Y-2.4443
X7.4Y-2.3012
X7.42Y-2.595
X7.425Y-2.465
X7.76Y-2.5538
T4
X6.7251Y-2.295
X6.7751Y-2.295
X6.8251Y-2.295
X6.8751Y-2.295
T5
X5.5996Y-2.3425
X5.665Y-2.615
X5.6996Y-2.3425
X5.765Y-2.615
X5.865Y-2.615
X5.965Y-2.615
X6.065Y-2.615
T2
G00X5.3671Y-2.3228
M15
G01X5.3415Y-2.3228
M16
G05
G00X5.3671Y-2.5984
M15
G01X5.3415Y-2.5984
M16
G05
T3
G00X5.4606Y-2.3563
M15
G01X5.4606Y-2.3681
M16
G05
G00X5.4606Y-2.5531
M15
G01X5.4606Y-2.565
M16
G05
T0
M30
