%TF.GenerationSoftware,KiCad,Pcbnew,7.0.9*%
%TF.CreationDate,2023-12-22T19:30:16+01:00*%
%TF.ProjectId,Prj_4_Feranec_Controller,50726a5f-345f-4466-9572-616e65635f43,rev?*%
%TF.SameCoordinates,Original*%
%TF.FileFunction,Legend,Bot*%
%TF.FilePolarity,Positive*%
%FSLAX46Y46*%
G04 Gerber Fmt 4.6, Leading zero omitted, Abs format (unit mm)*
G04 Created by KiCad (PCBNEW 7.0.9) date 2023-12-22 19:30:16*
%MOMM*%
%LPD*%
G01*
G04 APERTURE LIST*
%ADD10C,0.150000*%
G04 APERTURE END LIST*
D10*
X175114009Y-60106112D02*
X175161628Y-60248969D01*
X175161628Y-60248969D02*
X175209247Y-60296588D01*
X175209247Y-60296588D02*
X175304485Y-60344207D01*
X175304485Y-60344207D02*
X175447342Y-60344207D01*
X175447342Y-60344207D02*
X175542580Y-60296588D01*
X175542580Y-60296588D02*
X175590200Y-60248969D01*
X175590200Y-60248969D02*
X175637819Y-60153731D01*
X175637819Y-60153731D02*
X175637819Y-59772779D01*
X175637819Y-59772779D02*
X174637819Y-59772779D01*
X174637819Y-59772779D02*
X174637819Y-60106112D01*
X174637819Y-60106112D02*
X174685438Y-60201350D01*
X174685438Y-60201350D02*
X174733057Y-60248969D01*
X174733057Y-60248969D02*
X174828295Y-60296588D01*
X174828295Y-60296588D02*
X174923533Y-60296588D01*
X174923533Y-60296588D02*
X175018771Y-60248969D01*
X175018771Y-60248969D02*
X175066390Y-60201350D01*
X175066390Y-60201350D02*
X175114009Y-60106112D01*
X175114009Y-60106112D02*
X175114009Y-59772779D01*
X174637819Y-60629922D02*
X174637819Y-61201350D01*
X175637819Y-60915636D02*
X174637819Y-60915636D01*
X175637819Y-61534684D02*
X174637819Y-61534684D01*
X174637819Y-61534684D02*
X175637819Y-62106112D01*
X175637819Y-62106112D02*
X174637819Y-62106112D01*
X173161438Y-60296588D02*
X173113819Y-60201350D01*
X173113819Y-60201350D02*
X173113819Y-60058493D01*
X173113819Y-60058493D02*
X173161438Y-59915636D01*
X173161438Y-59915636D02*
X173256676Y-59820398D01*
X173256676Y-59820398D02*
X173351914Y-59772779D01*
X173351914Y-59772779D02*
X173542390Y-59725160D01*
X173542390Y-59725160D02*
X173685247Y-59725160D01*
X173685247Y-59725160D02*
X173875723Y-59772779D01*
X173875723Y-59772779D02*
X173970961Y-59820398D01*
X173970961Y-59820398D02*
X174066200Y-59915636D01*
X174066200Y-59915636D02*
X174113819Y-60058493D01*
X174113819Y-60058493D02*
X174113819Y-60153731D01*
X174113819Y-60153731D02*
X174066200Y-60296588D01*
X174066200Y-60296588D02*
X174018580Y-60344207D01*
X174018580Y-60344207D02*
X173685247Y-60344207D01*
X173685247Y-60344207D02*
X173685247Y-60153731D01*
X174113819Y-60772779D02*
X173113819Y-60772779D01*
X173113819Y-60772779D02*
X174113819Y-61344207D01*
X174113819Y-61344207D02*
X173113819Y-61344207D01*
X174113819Y-61820398D02*
X173113819Y-61820398D01*
X173113819Y-61820398D02*
X173113819Y-62058493D01*
X173113819Y-62058493D02*
X173161438Y-62201350D01*
X173161438Y-62201350D02*
X173256676Y-62296588D01*
X173256676Y-62296588D02*
X173351914Y-62344207D01*
X173351914Y-62344207D02*
X173542390Y-62391826D01*
X173542390Y-62391826D02*
X173685247Y-62391826D01*
X173685247Y-62391826D02*
X173875723Y-62344207D01*
X173875723Y-62344207D02*
X173970961Y-62296588D01*
X173970961Y-62296588D02*
X174066200Y-62201350D01*
X174066200Y-62201350D02*
X174113819Y-62058493D01*
X174113819Y-62058493D02*
X174113819Y-61820398D01*
X172542200Y-59725160D02*
X172589819Y-59868017D01*
X172589819Y-59868017D02*
X172589819Y-60106112D01*
X172589819Y-60106112D02*
X172542200Y-60201350D01*
X172542200Y-60201350D02*
X172494580Y-60248969D01*
X172494580Y-60248969D02*
X172399342Y-60296588D01*
X172399342Y-60296588D02*
X172304104Y-60296588D01*
X172304104Y-60296588D02*
X172208866Y-60248969D01*
X172208866Y-60248969D02*
X172161247Y-60201350D01*
X172161247Y-60201350D02*
X172113628Y-60106112D01*
X172113628Y-60106112D02*
X172066009Y-59915636D01*
X172066009Y-59915636D02*
X172018390Y-59820398D01*
X172018390Y-59820398D02*
X171970771Y-59772779D01*
X171970771Y-59772779D02*
X171875533Y-59725160D01*
X171875533Y-59725160D02*
X171780295Y-59725160D01*
X171780295Y-59725160D02*
X171685057Y-59772779D01*
X171685057Y-59772779D02*
X171637438Y-59820398D01*
X171637438Y-59820398D02*
X171589819Y-59915636D01*
X171589819Y-59915636D02*
X171589819Y-60153731D01*
X171589819Y-60153731D02*
X171637438Y-60296588D01*
X172494580Y-61296588D02*
X172542200Y-61248969D01*
X172542200Y-61248969D02*
X172589819Y-61106112D01*
X172589819Y-61106112D02*
X172589819Y-61010874D01*
X172589819Y-61010874D02*
X172542200Y-60868017D01*
X172542200Y-60868017D02*
X172446961Y-60772779D01*
X172446961Y-60772779D02*
X172351723Y-60725160D01*
X172351723Y-60725160D02*
X172161247Y-60677541D01*
X172161247Y-60677541D02*
X172018390Y-60677541D01*
X172018390Y-60677541D02*
X171827914Y-60725160D01*
X171827914Y-60725160D02*
X171732676Y-60772779D01*
X171732676Y-60772779D02*
X171637438Y-60868017D01*
X171637438Y-60868017D02*
X171589819Y-61010874D01*
X171589819Y-61010874D02*
X171589819Y-61106112D01*
X171589819Y-61106112D02*
X171637438Y-61248969D01*
X171637438Y-61248969D02*
X171685057Y-61296588D01*
X172589819Y-62201350D02*
X172589819Y-61725160D01*
X172589819Y-61725160D02*
X171589819Y-61725160D01*
X171018200Y-59725160D02*
X171065819Y-59868017D01*
X171065819Y-59868017D02*
X171065819Y-60106112D01*
X171065819Y-60106112D02*
X171018200Y-60201350D01*
X171018200Y-60201350D02*
X170970580Y-60248969D01*
X170970580Y-60248969D02*
X170875342Y-60296588D01*
X170875342Y-60296588D02*
X170780104Y-60296588D01*
X170780104Y-60296588D02*
X170684866Y-60248969D01*
X170684866Y-60248969D02*
X170637247Y-60201350D01*
X170637247Y-60201350D02*
X170589628Y-60106112D01*
X170589628Y-60106112D02*
X170542009Y-59915636D01*
X170542009Y-59915636D02*
X170494390Y-59820398D01*
X170494390Y-59820398D02*
X170446771Y-59772779D01*
X170446771Y-59772779D02*
X170351533Y-59725160D01*
X170351533Y-59725160D02*
X170256295Y-59725160D01*
X170256295Y-59725160D02*
X170161057Y-59772779D01*
X170161057Y-59772779D02*
X170113438Y-59820398D01*
X170113438Y-59820398D02*
X170065819Y-59915636D01*
X170065819Y-59915636D02*
X170065819Y-60153731D01*
X170065819Y-60153731D02*
X170113438Y-60296588D01*
X171065819Y-60725160D02*
X170065819Y-60725160D01*
X170065819Y-60725160D02*
X170065819Y-60963255D01*
X170065819Y-60963255D02*
X170113438Y-61106112D01*
X170113438Y-61106112D02*
X170208676Y-61201350D01*
X170208676Y-61201350D02*
X170303914Y-61248969D01*
X170303914Y-61248969D02*
X170494390Y-61296588D01*
X170494390Y-61296588D02*
X170637247Y-61296588D01*
X170637247Y-61296588D02*
X170827723Y-61248969D01*
X170827723Y-61248969D02*
X170922961Y-61201350D01*
X170922961Y-61201350D02*
X171018200Y-61106112D01*
X171018200Y-61106112D02*
X171065819Y-60963255D01*
X171065819Y-60963255D02*
X171065819Y-60725160D01*
X170780104Y-61677541D02*
X170780104Y-62153731D01*
X171065819Y-61582303D02*
X170065819Y-61915636D01*
X170065819Y-61915636D02*
X171065819Y-62248969D01*
X154019020Y-64563619D02*
X154019020Y-63563619D01*
X154019020Y-63563619D02*
X153638068Y-63563619D01*
X153638068Y-63563619D02*
X153542830Y-63611238D01*
X153542830Y-63611238D02*
X153495211Y-63658857D01*
X153495211Y-63658857D02*
X153447592Y-63754095D01*
X153447592Y-63754095D02*
X153447592Y-63896952D01*
X153447592Y-63896952D02*
X153495211Y-63992190D01*
X153495211Y-63992190D02*
X153542830Y-64039809D01*
X153542830Y-64039809D02*
X153638068Y-64087428D01*
X153638068Y-64087428D02*
X154019020Y-64087428D01*
X153019020Y-64563619D02*
X153019020Y-63896952D01*
X153019020Y-64087428D02*
X152971401Y-63992190D01*
X152971401Y-63992190D02*
X152923782Y-63944571D01*
X152923782Y-63944571D02*
X152828544Y-63896952D01*
X152828544Y-63896952D02*
X152733306Y-63896952D01*
X152257115Y-64563619D02*
X152352353Y-64516000D01*
X152352353Y-64516000D02*
X152399972Y-64468380D01*
X152399972Y-64468380D02*
X152447591Y-64373142D01*
X152447591Y-64373142D02*
X152447591Y-64087428D01*
X152447591Y-64087428D02*
X152399972Y-63992190D01*
X152399972Y-63992190D02*
X152352353Y-63944571D01*
X152352353Y-63944571D02*
X152257115Y-63896952D01*
X152257115Y-63896952D02*
X152114258Y-63896952D01*
X152114258Y-63896952D02*
X152019020Y-63944571D01*
X152019020Y-63944571D02*
X151971401Y-63992190D01*
X151971401Y-63992190D02*
X151923782Y-64087428D01*
X151923782Y-64087428D02*
X151923782Y-64373142D01*
X151923782Y-64373142D02*
X151971401Y-64468380D01*
X151971401Y-64468380D02*
X152019020Y-64516000D01*
X152019020Y-64516000D02*
X152114258Y-64563619D01*
X152114258Y-64563619D02*
X152257115Y-64563619D01*
X151066639Y-63896952D02*
X151066639Y-64706476D01*
X151066639Y-64706476D02*
X151114258Y-64801714D01*
X151114258Y-64801714D02*
X151161877Y-64849333D01*
X151161877Y-64849333D02*
X151257115Y-64896952D01*
X151257115Y-64896952D02*
X151399972Y-64896952D01*
X151399972Y-64896952D02*
X151495210Y-64849333D01*
X151066639Y-64516000D02*
X151161877Y-64563619D01*
X151161877Y-64563619D02*
X151352353Y-64563619D01*
X151352353Y-64563619D02*
X151447591Y-64516000D01*
X151447591Y-64516000D02*
X151495210Y-64468380D01*
X151495210Y-64468380D02*
X151542829Y-64373142D01*
X151542829Y-64373142D02*
X151542829Y-64087428D01*
X151542829Y-64087428D02*
X151495210Y-63992190D01*
X151495210Y-63992190D02*
X151447591Y-63944571D01*
X151447591Y-63944571D02*
X151352353Y-63896952D01*
X151352353Y-63896952D02*
X151161877Y-63896952D01*
X151161877Y-63896952D02*
X151066639Y-63944571D01*
X150590448Y-64563619D02*
X150590448Y-63896952D01*
X150590448Y-64087428D02*
X150542829Y-63992190D01*
X150542829Y-63992190D02*
X150495210Y-63944571D01*
X150495210Y-63944571D02*
X150399972Y-63896952D01*
X150399972Y-63896952D02*
X150304734Y-63896952D01*
X149542829Y-64563619D02*
X149542829Y-64039809D01*
X149542829Y-64039809D02*
X149590448Y-63944571D01*
X149590448Y-63944571D02*
X149685686Y-63896952D01*
X149685686Y-63896952D02*
X149876162Y-63896952D01*
X149876162Y-63896952D02*
X149971400Y-63944571D01*
X149542829Y-64516000D02*
X149638067Y-64563619D01*
X149638067Y-64563619D02*
X149876162Y-64563619D01*
X149876162Y-64563619D02*
X149971400Y-64516000D01*
X149971400Y-64516000D02*
X150019019Y-64420761D01*
X150019019Y-64420761D02*
X150019019Y-64325523D01*
X150019019Y-64325523D02*
X149971400Y-64230285D01*
X149971400Y-64230285D02*
X149876162Y-64182666D01*
X149876162Y-64182666D02*
X149638067Y-64182666D01*
X149638067Y-64182666D02*
X149542829Y-64135047D01*
X149066638Y-64563619D02*
X149066638Y-63896952D01*
X149066638Y-63992190D02*
X149019019Y-63944571D01*
X149019019Y-63944571D02*
X148923781Y-63896952D01*
X148923781Y-63896952D02*
X148780924Y-63896952D01*
X148780924Y-63896952D02*
X148685686Y-63944571D01*
X148685686Y-63944571D02*
X148638067Y-64039809D01*
X148638067Y-64039809D02*
X148638067Y-64563619D01*
X148638067Y-64039809D02*
X148590448Y-63944571D01*
X148590448Y-63944571D02*
X148495210Y-63896952D01*
X148495210Y-63896952D02*
X148352353Y-63896952D01*
X148352353Y-63896952D02*
X148257114Y-63944571D01*
X148257114Y-63944571D02*
X148209495Y-64039809D01*
X148209495Y-64039809D02*
X148209495Y-64563619D01*
X147733305Y-64563619D02*
X147733305Y-63896952D01*
X147733305Y-63992190D02*
X147685686Y-63944571D01*
X147685686Y-63944571D02*
X147590448Y-63896952D01*
X147590448Y-63896952D02*
X147447591Y-63896952D01*
X147447591Y-63896952D02*
X147352353Y-63944571D01*
X147352353Y-63944571D02*
X147304734Y-64039809D01*
X147304734Y-64039809D02*
X147304734Y-64563619D01*
X147304734Y-64039809D02*
X147257115Y-63944571D01*
X147257115Y-63944571D02*
X147161877Y-63896952D01*
X147161877Y-63896952D02*
X147019020Y-63896952D01*
X147019020Y-63896952D02*
X146923781Y-63944571D01*
X146923781Y-63944571D02*
X146876162Y-64039809D01*
X146876162Y-64039809D02*
X146876162Y-64563619D01*
X146399972Y-64563619D02*
X146399972Y-63896952D01*
X146399972Y-63563619D02*
X146447591Y-63611238D01*
X146447591Y-63611238D02*
X146399972Y-63658857D01*
X146399972Y-63658857D02*
X146352353Y-63611238D01*
X146352353Y-63611238D02*
X146399972Y-63563619D01*
X146399972Y-63563619D02*
X146399972Y-63658857D01*
X145923782Y-63896952D02*
X145923782Y-64563619D01*
X145923782Y-63992190D02*
X145876163Y-63944571D01*
X145876163Y-63944571D02*
X145780925Y-63896952D01*
X145780925Y-63896952D02*
X145638068Y-63896952D01*
X145638068Y-63896952D02*
X145542830Y-63944571D01*
X145542830Y-63944571D02*
X145495211Y-64039809D01*
X145495211Y-64039809D02*
X145495211Y-64563619D01*
X144590449Y-63896952D02*
X144590449Y-64706476D01*
X144590449Y-64706476D02*
X144638068Y-64801714D01*
X144638068Y-64801714D02*
X144685687Y-64849333D01*
X144685687Y-64849333D02*
X144780925Y-64896952D01*
X144780925Y-64896952D02*
X144923782Y-64896952D01*
X144923782Y-64896952D02*
X145019020Y-64849333D01*
X144590449Y-64516000D02*
X144685687Y-64563619D01*
X144685687Y-64563619D02*
X144876163Y-64563619D01*
X144876163Y-64563619D02*
X144971401Y-64516000D01*
X144971401Y-64516000D02*
X145019020Y-64468380D01*
X145019020Y-64468380D02*
X145066639Y-64373142D01*
X145066639Y-64373142D02*
X145066639Y-64087428D01*
X145066639Y-64087428D02*
X145019020Y-63992190D01*
X145019020Y-63992190D02*
X144971401Y-63944571D01*
X144971401Y-63944571D02*
X144876163Y-63896952D01*
X144876163Y-63896952D02*
X144685687Y-63896952D01*
X144685687Y-63896952D02*
X144590449Y-63944571D01*
X142589020Y-61160066D02*
X141827116Y-61160066D01*
X145205220Y-61160066D02*
X144443316Y-61160066D01*
X144824268Y-61541019D02*
X144824268Y-60779114D01*
X155625630Y-65773419D02*
X156101820Y-65773419D01*
X156101820Y-65773419D02*
X156149439Y-66249609D01*
X156149439Y-66249609D02*
X156101820Y-66201990D01*
X156101820Y-66201990D02*
X156006582Y-66154371D01*
X156006582Y-66154371D02*
X155768487Y-66154371D01*
X155768487Y-66154371D02*
X155673249Y-66201990D01*
X155673249Y-66201990D02*
X155625630Y-66249609D01*
X155625630Y-66249609D02*
X155578011Y-66344847D01*
X155578011Y-66344847D02*
X155578011Y-66582942D01*
X155578011Y-66582942D02*
X155625630Y-66678180D01*
X155625630Y-66678180D02*
X155673249Y-66725800D01*
X155673249Y-66725800D02*
X155768487Y-66773419D01*
X155768487Y-66773419D02*
X156006582Y-66773419D01*
X156006582Y-66773419D02*
X156101820Y-66725800D01*
X156101820Y-66725800D02*
X156149439Y-66678180D01*
X141684211Y-66773419D02*
X142255639Y-66773419D01*
X141969925Y-66773419D02*
X141969925Y-65773419D01*
X141969925Y-65773419D02*
X142065163Y-65916276D01*
X142065163Y-65916276D02*
X142160401Y-66011514D01*
X142160401Y-66011514D02*
X142255639Y-66059133D01*
X195338458Y-64862152D02*
X195100363Y-65528819D01*
X195100363Y-65528819D02*
X194862268Y-64862152D01*
X193957506Y-65528819D02*
X194528934Y-65528819D01*
X194243220Y-65528819D02*
X194243220Y-64528819D01*
X194243220Y-64528819D02*
X194338458Y-64671676D01*
X194338458Y-64671676D02*
X194433696Y-64766914D01*
X194433696Y-64766914D02*
X194528934Y-64814533D01*
X193528934Y-65433580D02*
X193481315Y-65481200D01*
X193481315Y-65481200D02*
X193528934Y-65528819D01*
X193528934Y-65528819D02*
X193576553Y-65481200D01*
X193576553Y-65481200D02*
X193528934Y-65433580D01*
X193528934Y-65433580D02*
X193528934Y-65528819D01*
X192862268Y-64528819D02*
X192767030Y-64528819D01*
X192767030Y-64528819D02*
X192671792Y-64576438D01*
X192671792Y-64576438D02*
X192624173Y-64624057D01*
X192624173Y-64624057D02*
X192576554Y-64719295D01*
X192576554Y-64719295D02*
X192528935Y-64909771D01*
X192528935Y-64909771D02*
X192528935Y-65147866D01*
X192528935Y-65147866D02*
X192576554Y-65338342D01*
X192576554Y-65338342D02*
X192624173Y-65433580D01*
X192624173Y-65433580D02*
X192671792Y-65481200D01*
X192671792Y-65481200D02*
X192767030Y-65528819D01*
X192767030Y-65528819D02*
X192862268Y-65528819D01*
X192862268Y-65528819D02*
X192957506Y-65481200D01*
X192957506Y-65481200D02*
X193005125Y-65433580D01*
X193005125Y-65433580D02*
X193052744Y-65338342D01*
X193052744Y-65338342D02*
X193100363Y-65147866D01*
X193100363Y-65147866D02*
X193100363Y-64909771D01*
X193100363Y-64909771D02*
X193052744Y-64719295D01*
X193052744Y-64719295D02*
X193005125Y-64624057D01*
X193005125Y-64624057D02*
X192957506Y-64576438D01*
X192957506Y-64576438D02*
X192862268Y-64528819D01*
X191052744Y-65909771D02*
X191100363Y-65862152D01*
X191100363Y-65862152D02*
X191195601Y-65719295D01*
X191195601Y-65719295D02*
X191243220Y-65624057D01*
X191243220Y-65624057D02*
X191290839Y-65481200D01*
X191290839Y-65481200D02*
X191338458Y-65243104D01*
X191338458Y-65243104D02*
X191338458Y-65052628D01*
X191338458Y-65052628D02*
X191290839Y-64814533D01*
X191290839Y-64814533D02*
X191243220Y-64671676D01*
X191243220Y-64671676D02*
X191195601Y-64576438D01*
X191195601Y-64576438D02*
X191100363Y-64433580D01*
X191100363Y-64433580D02*
X191052744Y-64385961D01*
X190100363Y-65433580D02*
X190147982Y-65481200D01*
X190147982Y-65481200D02*
X190290839Y-65528819D01*
X190290839Y-65528819D02*
X190386077Y-65528819D01*
X190386077Y-65528819D02*
X190528934Y-65481200D01*
X190528934Y-65481200D02*
X190624172Y-65385961D01*
X190624172Y-65385961D02*
X190671791Y-65290723D01*
X190671791Y-65290723D02*
X190719410Y-65100247D01*
X190719410Y-65100247D02*
X190719410Y-64957390D01*
X190719410Y-64957390D02*
X190671791Y-64766914D01*
X190671791Y-64766914D02*
X190624172Y-64671676D01*
X190624172Y-64671676D02*
X190528934Y-64576438D01*
X190528934Y-64576438D02*
X190386077Y-64528819D01*
X190386077Y-64528819D02*
X190290839Y-64528819D01*
X190290839Y-64528819D02*
X190147982Y-64576438D01*
X190147982Y-64576438D02*
X190100363Y-64624057D01*
X189767029Y-65909771D02*
X189719410Y-65862152D01*
X189719410Y-65862152D02*
X189624172Y-65719295D01*
X189624172Y-65719295D02*
X189576553Y-65624057D01*
X189576553Y-65624057D02*
X189528934Y-65481200D01*
X189528934Y-65481200D02*
X189481315Y-65243104D01*
X189481315Y-65243104D02*
X189481315Y-65052628D01*
X189481315Y-65052628D02*
X189528934Y-64814533D01*
X189528934Y-64814533D02*
X189576553Y-64671676D01*
X189576553Y-64671676D02*
X189624172Y-64576438D01*
X189624172Y-64576438D02*
X189719410Y-64433580D01*
X189719410Y-64433580D02*
X189767029Y-64385961D01*
X188290838Y-64624057D02*
X188243219Y-64576438D01*
X188243219Y-64576438D02*
X188147981Y-64528819D01*
X188147981Y-64528819D02*
X187909886Y-64528819D01*
X187909886Y-64528819D02*
X187814648Y-64576438D01*
X187814648Y-64576438D02*
X187767029Y-64624057D01*
X187767029Y-64624057D02*
X187719410Y-64719295D01*
X187719410Y-64719295D02*
X187719410Y-64814533D01*
X187719410Y-64814533D02*
X187767029Y-64957390D01*
X187767029Y-64957390D02*
X188338457Y-65528819D01*
X188338457Y-65528819D02*
X187719410Y-65528819D01*
X187100362Y-64528819D02*
X187005124Y-64528819D01*
X187005124Y-64528819D02*
X186909886Y-64576438D01*
X186909886Y-64576438D02*
X186862267Y-64624057D01*
X186862267Y-64624057D02*
X186814648Y-64719295D01*
X186814648Y-64719295D02*
X186767029Y-64909771D01*
X186767029Y-64909771D02*
X186767029Y-65147866D01*
X186767029Y-65147866D02*
X186814648Y-65338342D01*
X186814648Y-65338342D02*
X186862267Y-65433580D01*
X186862267Y-65433580D02*
X186909886Y-65481200D01*
X186909886Y-65481200D02*
X187005124Y-65528819D01*
X187005124Y-65528819D02*
X187100362Y-65528819D01*
X187100362Y-65528819D02*
X187195600Y-65481200D01*
X187195600Y-65481200D02*
X187243219Y-65433580D01*
X187243219Y-65433580D02*
X187290838Y-65338342D01*
X187290838Y-65338342D02*
X187338457Y-65147866D01*
X187338457Y-65147866D02*
X187338457Y-64909771D01*
X187338457Y-64909771D02*
X187290838Y-64719295D01*
X187290838Y-64719295D02*
X187243219Y-64624057D01*
X187243219Y-64624057D02*
X187195600Y-64576438D01*
X187195600Y-64576438D02*
X187100362Y-64528819D01*
X186386076Y-64624057D02*
X186338457Y-64576438D01*
X186338457Y-64576438D02*
X186243219Y-64528819D01*
X186243219Y-64528819D02*
X186005124Y-64528819D01*
X186005124Y-64528819D02*
X185909886Y-64576438D01*
X185909886Y-64576438D02*
X185862267Y-64624057D01*
X185862267Y-64624057D02*
X185814648Y-64719295D01*
X185814648Y-64719295D02*
X185814648Y-64814533D01*
X185814648Y-64814533D02*
X185862267Y-64957390D01*
X185862267Y-64957390D02*
X186433695Y-65528819D01*
X186433695Y-65528819D02*
X185814648Y-65528819D01*
X185481314Y-64528819D02*
X184862267Y-64528819D01*
X184862267Y-64528819D02*
X185195600Y-64909771D01*
X185195600Y-64909771D02*
X185052743Y-64909771D01*
X185052743Y-64909771D02*
X184957505Y-64957390D01*
X184957505Y-64957390D02*
X184909886Y-65005009D01*
X184909886Y-65005009D02*
X184862267Y-65100247D01*
X184862267Y-65100247D02*
X184862267Y-65338342D01*
X184862267Y-65338342D02*
X184909886Y-65433580D01*
X184909886Y-65433580D02*
X184957505Y-65481200D01*
X184957505Y-65481200D02*
X185052743Y-65528819D01*
X185052743Y-65528819D02*
X185338457Y-65528819D01*
X185338457Y-65528819D02*
X185433695Y-65481200D01*
X185433695Y-65481200D02*
X185481314Y-65433580D01*
X195243220Y-67306819D02*
X195243220Y-66306819D01*
X195243220Y-66306819D02*
X194909887Y-67021104D01*
X194909887Y-67021104D02*
X194576554Y-66306819D01*
X194576554Y-66306819D02*
X194576554Y-67306819D01*
X193671792Y-67306819D02*
X193671792Y-66783009D01*
X193671792Y-66783009D02*
X193719411Y-66687771D01*
X193719411Y-66687771D02*
X193814649Y-66640152D01*
X193814649Y-66640152D02*
X194005125Y-66640152D01*
X194005125Y-66640152D02*
X194100363Y-66687771D01*
X193671792Y-67259200D02*
X193767030Y-67306819D01*
X193767030Y-67306819D02*
X194005125Y-67306819D01*
X194005125Y-67306819D02*
X194100363Y-67259200D01*
X194100363Y-67259200D02*
X194147982Y-67163961D01*
X194147982Y-67163961D02*
X194147982Y-67068723D01*
X194147982Y-67068723D02*
X194100363Y-66973485D01*
X194100363Y-66973485D02*
X194005125Y-66925866D01*
X194005125Y-66925866D02*
X193767030Y-66925866D01*
X193767030Y-66925866D02*
X193671792Y-66878247D01*
X192767030Y-67306819D02*
X192767030Y-66306819D01*
X192767030Y-67259200D02*
X192862268Y-67306819D01*
X192862268Y-67306819D02*
X193052744Y-67306819D01*
X193052744Y-67306819D02*
X193147982Y-67259200D01*
X193147982Y-67259200D02*
X193195601Y-67211580D01*
X193195601Y-67211580D02*
X193243220Y-67116342D01*
X193243220Y-67116342D02*
X193243220Y-66830628D01*
X193243220Y-66830628D02*
X193195601Y-66735390D01*
X193195601Y-66735390D02*
X193147982Y-66687771D01*
X193147982Y-66687771D02*
X193052744Y-66640152D01*
X193052744Y-66640152D02*
X192862268Y-66640152D01*
X192862268Y-66640152D02*
X192767030Y-66687771D01*
X191909887Y-67259200D02*
X192005125Y-67306819D01*
X192005125Y-67306819D02*
X192195601Y-67306819D01*
X192195601Y-67306819D02*
X192290839Y-67259200D01*
X192290839Y-67259200D02*
X192338458Y-67163961D01*
X192338458Y-67163961D02*
X192338458Y-66783009D01*
X192338458Y-66783009D02*
X192290839Y-66687771D01*
X192290839Y-66687771D02*
X192195601Y-66640152D01*
X192195601Y-66640152D02*
X192005125Y-66640152D01*
X192005125Y-66640152D02*
X191909887Y-66687771D01*
X191909887Y-66687771D02*
X191862268Y-66783009D01*
X191862268Y-66783009D02*
X191862268Y-66878247D01*
X191862268Y-66878247D02*
X192338458Y-66973485D01*
X190671791Y-67306819D02*
X190671791Y-66306819D01*
X190671791Y-66687771D02*
X190576553Y-66640152D01*
X190576553Y-66640152D02*
X190386077Y-66640152D01*
X190386077Y-66640152D02*
X190290839Y-66687771D01*
X190290839Y-66687771D02*
X190243220Y-66735390D01*
X190243220Y-66735390D02*
X190195601Y-66830628D01*
X190195601Y-66830628D02*
X190195601Y-67116342D01*
X190195601Y-67116342D02*
X190243220Y-67211580D01*
X190243220Y-67211580D02*
X190290839Y-67259200D01*
X190290839Y-67259200D02*
X190386077Y-67306819D01*
X190386077Y-67306819D02*
X190576553Y-67306819D01*
X190576553Y-67306819D02*
X190671791Y-67259200D01*
X189862267Y-66640152D02*
X189624172Y-67306819D01*
X189386077Y-66640152D02*
X189624172Y-67306819D01*
X189624172Y-67306819D02*
X189719410Y-67544914D01*
X189719410Y-67544914D02*
X189767029Y-67592533D01*
X189767029Y-67592533D02*
X189862267Y-67640152D01*
X188290838Y-67021104D02*
X187814648Y-67021104D01*
X188386076Y-67306819D02*
X188052743Y-66306819D01*
X188052743Y-66306819D02*
X187719410Y-67306819D01*
X186957505Y-67306819D02*
X186957505Y-66306819D01*
X186957505Y-67259200D02*
X187052743Y-67306819D01*
X187052743Y-67306819D02*
X187243219Y-67306819D01*
X187243219Y-67306819D02*
X187338457Y-67259200D01*
X187338457Y-67259200D02*
X187386076Y-67211580D01*
X187386076Y-67211580D02*
X187433695Y-67116342D01*
X187433695Y-67116342D02*
X187433695Y-66830628D01*
X187433695Y-66830628D02*
X187386076Y-66735390D01*
X187386076Y-66735390D02*
X187338457Y-66687771D01*
X187338457Y-66687771D02*
X187243219Y-66640152D01*
X187243219Y-66640152D02*
X187052743Y-66640152D01*
X187052743Y-66640152D02*
X186957505Y-66687771D01*
X186052743Y-67306819D02*
X186052743Y-66783009D01*
X186052743Y-66783009D02*
X186100362Y-66687771D01*
X186100362Y-66687771D02*
X186195600Y-66640152D01*
X186195600Y-66640152D02*
X186386076Y-66640152D01*
X186386076Y-66640152D02*
X186481314Y-66687771D01*
X186052743Y-67259200D02*
X186147981Y-67306819D01*
X186147981Y-67306819D02*
X186386076Y-67306819D01*
X186386076Y-67306819D02*
X186481314Y-67259200D01*
X186481314Y-67259200D02*
X186528933Y-67163961D01*
X186528933Y-67163961D02*
X186528933Y-67068723D01*
X186528933Y-67068723D02*
X186481314Y-66973485D01*
X186481314Y-66973485D02*
X186386076Y-66925866D01*
X186386076Y-66925866D02*
X186147981Y-66925866D01*
X186147981Y-66925866D02*
X186052743Y-66878247D01*
X185576552Y-67306819D02*
X185576552Y-66640152D01*
X185576552Y-66735390D02*
X185528933Y-66687771D01*
X185528933Y-66687771D02*
X185433695Y-66640152D01*
X185433695Y-66640152D02*
X185290838Y-66640152D01*
X185290838Y-66640152D02*
X185195600Y-66687771D01*
X185195600Y-66687771D02*
X185147981Y-66783009D01*
X185147981Y-66783009D02*
X185147981Y-67306819D01*
X185147981Y-66783009D02*
X185100362Y-66687771D01*
X185100362Y-66687771D02*
X185005124Y-66640152D01*
X185005124Y-66640152D02*
X184862267Y-66640152D01*
X184862267Y-66640152D02*
X184767028Y-66687771D01*
X184767028Y-66687771D02*
X184719409Y-66783009D01*
X184719409Y-66783009D02*
X184719409Y-67306819D01*
X182957505Y-66354438D02*
X183052743Y-66306819D01*
X183052743Y-66306819D02*
X183195600Y-66306819D01*
X183195600Y-66306819D02*
X183338457Y-66354438D01*
X183338457Y-66354438D02*
X183433695Y-66449676D01*
X183433695Y-66449676D02*
X183481314Y-66544914D01*
X183481314Y-66544914D02*
X183528933Y-66735390D01*
X183528933Y-66735390D02*
X183528933Y-66878247D01*
X183528933Y-66878247D02*
X183481314Y-67068723D01*
X183481314Y-67068723D02*
X183433695Y-67163961D01*
X183433695Y-67163961D02*
X183338457Y-67259200D01*
X183338457Y-67259200D02*
X183195600Y-67306819D01*
X183195600Y-67306819D02*
X183100362Y-67306819D01*
X183100362Y-67306819D02*
X182957505Y-67259200D01*
X182957505Y-67259200D02*
X182909886Y-67211580D01*
X182909886Y-67211580D02*
X182909886Y-66878247D01*
X182909886Y-66878247D02*
X183100362Y-66878247D01*
X182052743Y-67306819D02*
X182052743Y-66783009D01*
X182052743Y-66783009D02*
X182100362Y-66687771D01*
X182100362Y-66687771D02*
X182195600Y-66640152D01*
X182195600Y-66640152D02*
X182386076Y-66640152D01*
X182386076Y-66640152D02*
X182481314Y-66687771D01*
X182052743Y-67259200D02*
X182147981Y-67306819D01*
X182147981Y-67306819D02*
X182386076Y-67306819D01*
X182386076Y-67306819D02*
X182481314Y-67259200D01*
X182481314Y-67259200D02*
X182528933Y-67163961D01*
X182528933Y-67163961D02*
X182528933Y-67068723D01*
X182528933Y-67068723D02*
X182481314Y-66973485D01*
X182481314Y-66973485D02*
X182386076Y-66925866D01*
X182386076Y-66925866D02*
X182147981Y-66925866D01*
X182147981Y-66925866D02*
X182052743Y-66878247D01*
X181433695Y-67306819D02*
X181528933Y-67259200D01*
X181528933Y-67259200D02*
X181576552Y-67163961D01*
X181576552Y-67163961D02*
X181576552Y-66306819D01*
M02*
