%TF.GenerationSoftware,KiCad,Pcbnew,7.0.9*%
%TF.CreationDate,2023-12-22T19:30:16+01:00*%
%TF.ProjectId,Prj_4_Feranec_Controller,50726a5f-345f-4466-9572-616e65635f43,rev?*%
%TF.SameCoordinates,Original*%
%TF.FileFunction,Soldermask,Top*%
%TF.FilePolarity,Negative*%
%FSLAX46Y46*%
G04 Gerber Fmt 4.6, Leading zero omitted, Abs format (unit mm)*
G04 Created by KiCad (PCBNEW 7.0.9) date 2023-12-22 19:30:16*
%MOMM*%
%LPD*%
G01*
G04 APERTURE LIST*
G04 Aperture macros list*
%AMRoundRect*
0 Rectangle with rounded corners*
0 $1 Rounding radius*
0 $2 $3 $4 $5 $6 $7 $8 $9 X,Y pos of 4 corners*
0 Add a 4 corners polygon primitive as box body*
4,1,4,$2,$3,$4,$5,$6,$7,$8,$9,$2,$3,0*
0 Add four circle primitives for the rounded corners*
1,1,$1+$1,$2,$3*
1,1,$1+$1,$4,$5*
1,1,$1+$1,$6,$7*
1,1,$1+$1,$8,$9*
0 Add four rect primitives between the rounded corners*
20,1,$1+$1,$2,$3,$4,$5,0*
20,1,$1+$1,$4,$5,$6,$7,0*
20,1,$1+$1,$6,$7,$8,$9,0*
20,1,$1+$1,$8,$9,$2,$3,0*%
G04 Aperture macros list end*
%ADD10R,1.350000X0.400000*%
%ADD11O,1.550000X0.890000*%
%ADD12R,1.550000X1.200000*%
%ADD13O,0.950000X1.250000*%
%ADD14R,1.550000X1.500000*%
%ADD15RoundRect,0.200000X-0.150000X-0.200000X0.150000X-0.200000X0.150000X0.200000X-0.150000X0.200000X0*%
%ADD16R,0.375000X0.350000*%
%ADD17R,0.350000X0.375000*%
%ADD18R,1.000000X1.000000*%
%ADD19O,1.000000X1.000000*%
%ADD20RoundRect,0.225000X-0.225000X-0.250000X0.225000X-0.250000X0.225000X0.250000X-0.225000X0.250000X0*%
%ADD21RoundRect,0.200000X0.150000X0.200000X-0.150000X0.200000X-0.150000X-0.200000X0.150000X-0.200000X0*%
%ADD22RoundRect,0.112500X0.000000X-0.159099X0.159099X0.000000X0.000000X0.159099X-0.159099X0.000000X0*%
%ADD23RoundRect,0.150000X-0.587500X-0.150000X0.587500X-0.150000X0.587500X0.150000X-0.587500X0.150000X0*%
%ADD24RoundRect,0.200000X-0.200000X0.150000X-0.200000X-0.150000X0.200000X-0.150000X0.200000X0.150000X0*%
%ADD25RoundRect,0.243750X-0.456250X0.243750X-0.456250X-0.243750X0.456250X-0.243750X0.456250X0.243750X0*%
%ADD26RoundRect,0.125000X-0.825000X-0.125000X0.825000X-0.125000X0.825000X0.125000X-0.825000X0.125000X0*%
%ADD27RoundRect,0.190000X-0.140000X-0.170000X0.140000X-0.170000X0.140000X0.170000X-0.140000X0.170000X0*%
%ADD28R,1.300000X1.550000*%
%ADD29RoundRect,0.300000X-0.250000X-0.650000X0.250000X-0.650000X0.250000X0.650000X-0.250000X0.650000X0*%
%ADD30R,1.700000X1.700000*%
%ADD31O,1.700000X1.700000*%
%ADD32R,1.560000X0.650000*%
%ADD33RoundRect,0.300000X0.650000X-0.250000X0.650000X0.250000X-0.650000X0.250000X-0.650000X-0.250000X0*%
%ADD34RoundRect,0.190000X-0.170000X0.140000X-0.170000X-0.140000X0.170000X-0.140000X0.170000X0.140000X0*%
%ADD35RoundRect,0.200000X0.200000X-0.150000X0.200000X0.150000X-0.200000X0.150000X-0.200000X-0.150000X0*%
G04 APERTURE END LIST*
D10*
%TO.C,USB1*%
X138700000Y-61200000D03*
X138700000Y-61850000D03*
X138700000Y-62500000D03*
X138700000Y-63150000D03*
X138700000Y-63800000D03*
D11*
X136000000Y-59000000D03*
D12*
X136000000Y-59600000D03*
D13*
X138700000Y-60000000D03*
D14*
X136000000Y-61500000D03*
X136000000Y-63500000D03*
D13*
X138700000Y-65000000D03*
D12*
X136000000Y-65400000D03*
D11*
X136000000Y-66000000D03*
%TD*%
D15*
%TO.C,R5*%
X152527000Y-57912000D03*
X153543000Y-57912000D03*
%TD*%
%TO.C,R6*%
X149733000Y-61976000D03*
X150749000Y-61976000D03*
%TD*%
D16*
%TO.C,U2*%
X185165000Y-59431500D03*
X185165000Y-59931500D03*
X185165000Y-60431500D03*
X185165000Y-60931500D03*
D17*
X185677500Y-60944000D03*
X186177500Y-60944000D03*
D16*
X186690000Y-60931500D03*
X186690000Y-60431500D03*
X186690000Y-59931500D03*
X186690000Y-59431500D03*
D17*
X186177500Y-59419000D03*
X185677500Y-59419000D03*
%TD*%
D18*
%TO.C,H3*%
X170817000Y-58293000D03*
D19*
X172087000Y-58293000D03*
X173357000Y-58293000D03*
X174627000Y-58293000D03*
%TD*%
D20*
%TO.C,C1*%
X154000000Y-59436000D03*
X155550000Y-59436000D03*
%TD*%
D21*
%TO.C,R3*%
X196215000Y-59055000D03*
X195199000Y-59055000D03*
%TD*%
D15*
%TO.C,R7*%
X149733000Y-63246000D03*
X150749000Y-63246000D03*
%TD*%
D22*
%TO.C,LED2*%
X196077959Y-62625000D03*
X196679000Y-62023959D03*
X197280041Y-62625000D03*
X196679000Y-63226041D03*
%TD*%
D23*
%TO.C,Q1*%
X189865000Y-58136000D03*
X189865000Y-60036000D03*
X191740000Y-59086000D03*
%TD*%
D24*
%TO.C,R2*%
X194818000Y-62073000D03*
X194818000Y-63089000D03*
%TD*%
D25*
%TO.C,LED1*%
X158877000Y-59768500D03*
X158877000Y-61643500D03*
%TD*%
D26*
%TO.C,U1*%
X165862000Y-60803000D03*
X165862000Y-61453000D03*
X165862000Y-62103000D03*
X165862000Y-62753000D03*
X165862000Y-63403000D03*
X165862000Y-64053000D03*
X165862000Y-64703000D03*
X165862000Y-65353000D03*
X165862000Y-66003000D03*
X165862000Y-66653000D03*
X172862000Y-66653000D03*
X172862000Y-66003000D03*
X172862000Y-65353000D03*
X172862000Y-64703000D03*
X172862000Y-64053000D03*
X172862000Y-63403000D03*
X172862000Y-62753000D03*
X172862000Y-62103000D03*
X172862000Y-61453000D03*
X172862000Y-60803000D03*
%TD*%
D27*
%TO.C,C7*%
X164648000Y-59182000D03*
X165608000Y-59182000D03*
%TD*%
D28*
%TO.C,SW1*%
X177857000Y-66547000D03*
X177857000Y-58597000D03*
X182357000Y-66547000D03*
X182357000Y-58597000D03*
%TD*%
D15*
%TO.C,R8*%
X153797000Y-61976000D03*
X154813000Y-61976000D03*
%TD*%
D24*
%TO.C,R13*%
X163957000Y-63851000D03*
X163957000Y-64867000D03*
%TD*%
D29*
%TO.C,C3*%
X143383000Y-62992000D03*
X146431000Y-62992000D03*
%TD*%
D15*
%TO.C,R9*%
X153797000Y-63373000D03*
X154813000Y-63373000D03*
%TD*%
%TO.C,R10*%
X167894000Y-59152000D03*
X168910000Y-59152000D03*
%TD*%
D30*
%TO.C,H2*%
X143891000Y-66421000D03*
D31*
X146431000Y-66421000D03*
X148971000Y-66421000D03*
X151511000Y-66421000D03*
X154051000Y-66421000D03*
%TD*%
D27*
%TO.C,C6*%
X184023000Y-62103000D03*
X184983000Y-62103000D03*
%TD*%
D23*
%TO.C,Q3*%
X189865000Y-65248000D03*
X189865000Y-67148000D03*
X191740000Y-66198000D03*
%TD*%
D32*
%TO.C,U3*%
X158416000Y-64836000D03*
X158416000Y-65786000D03*
X158416000Y-66736000D03*
X161116000Y-66736000D03*
X161116000Y-64836000D03*
%TD*%
D21*
%TO.C,R1*%
X196215000Y-66040000D03*
X195199000Y-66040000D03*
%TD*%
D24*
%TO.C,R14*%
X163957000Y-60549000D03*
X163957000Y-61565000D03*
%TD*%
D21*
%TO.C,R12*%
X175666400Y-60807600D03*
X174650400Y-60807600D03*
%TD*%
D24*
%TO.C,R11*%
X176149000Y-64922400D03*
X176149000Y-65938400D03*
%TD*%
%TO.C,R4*%
X140589000Y-65532000D03*
X140589000Y-66548000D03*
%TD*%
D23*
%TO.C,D1*%
X149000000Y-58600000D03*
X149000000Y-60500000D03*
X150875000Y-59550000D03*
%TD*%
D33*
%TO.C,C2*%
X161417000Y-61595000D03*
X161417000Y-58547000D03*
%TD*%
D34*
%TO.C,C4*%
X187960000Y-60000000D03*
X187960000Y-60960000D03*
%TD*%
D30*
%TO.C,H1*%
X144770000Y-59500000D03*
D31*
X142230000Y-59500000D03*
%TD*%
D29*
%TO.C,C5*%
X184277000Y-64262000D03*
X187325000Y-64262000D03*
%TD*%
D23*
%TO.C,Q2*%
X189865000Y-61692000D03*
X189865000Y-63592000D03*
X191740000Y-62642000D03*
%TD*%
D35*
%TO.C,R15*%
X163957000Y-67153000D03*
X163957000Y-66137000D03*
%TD*%
M02*
